%TF.GenerationSoftware,KiCad,Pcbnew,8.0.6*%
%TF.CreationDate,2025-04-07T16:12:46-05:00*%
%TF.ProjectId,hall-effect,68616c6c-2d65-4666-9665-63742e6b6963,rev?*%
%TF.SameCoordinates,Original*%
%TF.FileFunction,Legend,Top*%
%TF.FilePolarity,Positive*%
%FSLAX46Y46*%
G04 Gerber Fmt 4.6, Leading zero omitted, Abs format (unit mm)*
G04 Created by KiCad (PCBNEW 8.0.6) date 2025-04-07 16:12:46*
%MOMM*%
%LPD*%
G01*
G04 APERTURE LIST*
%ADD10C,0.150000*%
%ADD11C,0.050000*%
%ADD12C,0.120000*%
G04 APERTURE END LIST*
D10*
X148987381Y-65598819D02*
X148415953Y-65598819D01*
X148701667Y-65598819D02*
X148701667Y-64598819D01*
X148701667Y-64598819D02*
X148606429Y-64741676D01*
X148606429Y-64741676D02*
X148511191Y-64836914D01*
X148511191Y-64836914D02*
X148415953Y-64884533D01*
X149320715Y-64598819D02*
X149987381Y-64598819D01*
X149987381Y-64598819D02*
X149558810Y-65598819D01*
X150368334Y-65503580D02*
X150415953Y-65551200D01*
X150415953Y-65551200D02*
X150368334Y-65598819D01*
X150368334Y-65598819D02*
X150320715Y-65551200D01*
X150320715Y-65551200D02*
X150368334Y-65503580D01*
X150368334Y-65503580D02*
X150368334Y-65598819D01*
X151035000Y-64598819D02*
X151130238Y-64598819D01*
X151130238Y-64598819D02*
X151225476Y-64646438D01*
X151225476Y-64646438D02*
X151273095Y-64694057D01*
X151273095Y-64694057D02*
X151320714Y-64789295D01*
X151320714Y-64789295D02*
X151368333Y-64979771D01*
X151368333Y-64979771D02*
X151368333Y-65217866D01*
X151368333Y-65217866D02*
X151320714Y-65408342D01*
X151320714Y-65408342D02*
X151273095Y-65503580D01*
X151273095Y-65503580D02*
X151225476Y-65551200D01*
X151225476Y-65551200D02*
X151130238Y-65598819D01*
X151130238Y-65598819D02*
X151035000Y-65598819D01*
X151035000Y-65598819D02*
X150939762Y-65551200D01*
X150939762Y-65551200D02*
X150892143Y-65503580D01*
X150892143Y-65503580D02*
X150844524Y-65408342D01*
X150844524Y-65408342D02*
X150796905Y-65217866D01*
X150796905Y-65217866D02*
X150796905Y-64979771D01*
X150796905Y-64979771D02*
X150844524Y-64789295D01*
X150844524Y-64789295D02*
X150892143Y-64694057D01*
X150892143Y-64694057D02*
X150939762Y-64646438D01*
X150939762Y-64646438D02*
X151035000Y-64598819D01*
X152320714Y-65598819D02*
X151749286Y-65598819D01*
X152035000Y-65598819D02*
X152035000Y-64598819D01*
X152035000Y-64598819D02*
X151939762Y-64741676D01*
X151939762Y-64741676D02*
X151844524Y-64836914D01*
X151844524Y-64836914D02*
X151749286Y-64884533D01*
X152892143Y-65027390D02*
X152796905Y-64979771D01*
X152796905Y-64979771D02*
X152749286Y-64932152D01*
X152749286Y-64932152D02*
X152701667Y-64836914D01*
X152701667Y-64836914D02*
X152701667Y-64789295D01*
X152701667Y-64789295D02*
X152749286Y-64694057D01*
X152749286Y-64694057D02*
X152796905Y-64646438D01*
X152796905Y-64646438D02*
X152892143Y-64598819D01*
X152892143Y-64598819D02*
X153082619Y-64598819D01*
X153082619Y-64598819D02*
X153177857Y-64646438D01*
X153177857Y-64646438D02*
X153225476Y-64694057D01*
X153225476Y-64694057D02*
X153273095Y-64789295D01*
X153273095Y-64789295D02*
X153273095Y-64836914D01*
X153273095Y-64836914D02*
X153225476Y-64932152D01*
X153225476Y-64932152D02*
X153177857Y-64979771D01*
X153177857Y-64979771D02*
X153082619Y-65027390D01*
X153082619Y-65027390D02*
X152892143Y-65027390D01*
X152892143Y-65027390D02*
X152796905Y-65075009D01*
X152796905Y-65075009D02*
X152749286Y-65122628D01*
X152749286Y-65122628D02*
X152701667Y-65217866D01*
X152701667Y-65217866D02*
X152701667Y-65408342D01*
X152701667Y-65408342D02*
X152749286Y-65503580D01*
X152749286Y-65503580D02*
X152796905Y-65551200D01*
X152796905Y-65551200D02*
X152892143Y-65598819D01*
X152892143Y-65598819D02*
X153082619Y-65598819D01*
X153082619Y-65598819D02*
X153177857Y-65551200D01*
X153177857Y-65551200D02*
X153225476Y-65503580D01*
X153225476Y-65503580D02*
X153273095Y-65408342D01*
X153273095Y-65408342D02*
X153273095Y-65217866D01*
X153273095Y-65217866D02*
X153225476Y-65122628D01*
X153225476Y-65122628D02*
X153177857Y-65075009D01*
X153177857Y-65075009D02*
X153082619Y-65027390D01*
X153892143Y-64598819D02*
X153987381Y-64598819D01*
X153987381Y-64598819D02*
X154082619Y-64646438D01*
X154082619Y-64646438D02*
X154130238Y-64694057D01*
X154130238Y-64694057D02*
X154177857Y-64789295D01*
X154177857Y-64789295D02*
X154225476Y-64979771D01*
X154225476Y-64979771D02*
X154225476Y-65217866D01*
X154225476Y-65217866D02*
X154177857Y-65408342D01*
X154177857Y-65408342D02*
X154130238Y-65503580D01*
X154130238Y-65503580D02*
X154082619Y-65551200D01*
X154082619Y-65551200D02*
X153987381Y-65598819D01*
X153987381Y-65598819D02*
X153892143Y-65598819D01*
X153892143Y-65598819D02*
X153796905Y-65551200D01*
X153796905Y-65551200D02*
X153749286Y-65503580D01*
X153749286Y-65503580D02*
X153701667Y-65408342D01*
X153701667Y-65408342D02*
X153654048Y-65217866D01*
X153654048Y-65217866D02*
X153654048Y-64979771D01*
X153654048Y-64979771D02*
X153701667Y-64789295D01*
X153701667Y-64789295D02*
X153749286Y-64694057D01*
X153749286Y-64694057D02*
X153796905Y-64646438D01*
X153796905Y-64646438D02*
X153892143Y-64598819D01*
X155415953Y-65598819D02*
X155415953Y-64932152D01*
X155415953Y-65027390D02*
X155463572Y-64979771D01*
X155463572Y-64979771D02*
X155558810Y-64932152D01*
X155558810Y-64932152D02*
X155701667Y-64932152D01*
X155701667Y-64932152D02*
X155796905Y-64979771D01*
X155796905Y-64979771D02*
X155844524Y-65075009D01*
X155844524Y-65075009D02*
X155844524Y-65598819D01*
X155844524Y-65075009D02*
X155892143Y-64979771D01*
X155892143Y-64979771D02*
X155987381Y-64932152D01*
X155987381Y-64932152D02*
X156130238Y-64932152D01*
X156130238Y-64932152D02*
X156225477Y-64979771D01*
X156225477Y-64979771D02*
X156273096Y-65075009D01*
X156273096Y-65075009D02*
X156273096Y-65598819D01*
X156749286Y-65598819D02*
X156749286Y-64932152D01*
X156749286Y-65027390D02*
X156796905Y-64979771D01*
X156796905Y-64979771D02*
X156892143Y-64932152D01*
X156892143Y-64932152D02*
X157035000Y-64932152D01*
X157035000Y-64932152D02*
X157130238Y-64979771D01*
X157130238Y-64979771D02*
X157177857Y-65075009D01*
X157177857Y-65075009D02*
X157177857Y-65598819D01*
X157177857Y-65075009D02*
X157225476Y-64979771D01*
X157225476Y-64979771D02*
X157320714Y-64932152D01*
X157320714Y-64932152D02*
X157463571Y-64932152D01*
X157463571Y-64932152D02*
X157558810Y-64979771D01*
X157558810Y-64979771D02*
X157606429Y-65075009D01*
X157606429Y-65075009D02*
X157606429Y-65598819D01*
D11*
X144526000Y-71382000D02*
X144526000Y-65707580D01*
X161544000Y-71382000D02*
X161544000Y-65707580D01*
X144526000Y-66294000D02*
X161544000Y-66294000D01*
X144526000Y-66294000D02*
X161544000Y-66294000D01*
X144526000Y-66294000D02*
X145652504Y-65707579D01*
X144526000Y-66294000D02*
X145652504Y-66880421D01*
X161544000Y-66294000D02*
X160417496Y-66880421D01*
X161544000Y-66294000D02*
X160417496Y-65707579D01*
D10*
X135702819Y-82152618D02*
X135702819Y-82724046D01*
X135702819Y-82438332D02*
X134702819Y-82438332D01*
X134702819Y-82438332D02*
X134845676Y-82533570D01*
X134845676Y-82533570D02*
X134940914Y-82628808D01*
X134940914Y-82628808D02*
X134988533Y-82724046D01*
X134798057Y-81771665D02*
X134750438Y-81724046D01*
X134750438Y-81724046D02*
X134702819Y-81628808D01*
X134702819Y-81628808D02*
X134702819Y-81390713D01*
X134702819Y-81390713D02*
X134750438Y-81295475D01*
X134750438Y-81295475D02*
X134798057Y-81247856D01*
X134798057Y-81247856D02*
X134893295Y-81200237D01*
X134893295Y-81200237D02*
X134988533Y-81200237D01*
X134988533Y-81200237D02*
X135131390Y-81247856D01*
X135131390Y-81247856D02*
X135702819Y-81819284D01*
X135702819Y-81819284D02*
X135702819Y-81200237D01*
X135607580Y-80771665D02*
X135655200Y-80724046D01*
X135655200Y-80724046D02*
X135702819Y-80771665D01*
X135702819Y-80771665D02*
X135655200Y-80819284D01*
X135655200Y-80819284D02*
X135607580Y-80771665D01*
X135607580Y-80771665D02*
X135702819Y-80771665D01*
X135036152Y-79866904D02*
X135702819Y-79866904D01*
X134655200Y-80104999D02*
X135369485Y-80343094D01*
X135369485Y-80343094D02*
X135369485Y-79724047D01*
X135036152Y-78914523D02*
X135702819Y-78914523D01*
X134655200Y-79152618D02*
X135369485Y-79390713D01*
X135369485Y-79390713D02*
X135369485Y-78771666D01*
X134702819Y-77962142D02*
X134702819Y-78152618D01*
X134702819Y-78152618D02*
X134750438Y-78247856D01*
X134750438Y-78247856D02*
X134798057Y-78295475D01*
X134798057Y-78295475D02*
X134940914Y-78390713D01*
X134940914Y-78390713D02*
X135131390Y-78438332D01*
X135131390Y-78438332D02*
X135512342Y-78438332D01*
X135512342Y-78438332D02*
X135607580Y-78390713D01*
X135607580Y-78390713D02*
X135655200Y-78343094D01*
X135655200Y-78343094D02*
X135702819Y-78247856D01*
X135702819Y-78247856D02*
X135702819Y-78057380D01*
X135702819Y-78057380D02*
X135655200Y-77962142D01*
X135655200Y-77962142D02*
X135607580Y-77914523D01*
X135607580Y-77914523D02*
X135512342Y-77866904D01*
X135512342Y-77866904D02*
X135274247Y-77866904D01*
X135274247Y-77866904D02*
X135179009Y-77914523D01*
X135179009Y-77914523D02*
X135131390Y-77962142D01*
X135131390Y-77962142D02*
X135083771Y-78057380D01*
X135083771Y-78057380D02*
X135083771Y-78247856D01*
X135083771Y-78247856D02*
X135131390Y-78343094D01*
X135131390Y-78343094D02*
X135179009Y-78390713D01*
X135179009Y-78390713D02*
X135274247Y-78438332D01*
X134702819Y-77247856D02*
X134702819Y-77152618D01*
X134702819Y-77152618D02*
X134750438Y-77057380D01*
X134750438Y-77057380D02*
X134798057Y-77009761D01*
X134798057Y-77009761D02*
X134893295Y-76962142D01*
X134893295Y-76962142D02*
X135083771Y-76914523D01*
X135083771Y-76914523D02*
X135321866Y-76914523D01*
X135321866Y-76914523D02*
X135512342Y-76962142D01*
X135512342Y-76962142D02*
X135607580Y-77009761D01*
X135607580Y-77009761D02*
X135655200Y-77057380D01*
X135655200Y-77057380D02*
X135702819Y-77152618D01*
X135702819Y-77152618D02*
X135702819Y-77247856D01*
X135702819Y-77247856D02*
X135655200Y-77343094D01*
X135655200Y-77343094D02*
X135607580Y-77390713D01*
X135607580Y-77390713D02*
X135512342Y-77438332D01*
X135512342Y-77438332D02*
X135321866Y-77485951D01*
X135321866Y-77485951D02*
X135083771Y-77485951D01*
X135083771Y-77485951D02*
X134893295Y-77438332D01*
X134893295Y-77438332D02*
X134798057Y-77390713D01*
X134798057Y-77390713D02*
X134750438Y-77343094D01*
X134750438Y-77343094D02*
X134702819Y-77247856D01*
X135702819Y-75724046D02*
X135036152Y-75724046D01*
X135131390Y-75724046D02*
X135083771Y-75676427D01*
X135083771Y-75676427D02*
X135036152Y-75581189D01*
X135036152Y-75581189D02*
X135036152Y-75438332D01*
X135036152Y-75438332D02*
X135083771Y-75343094D01*
X135083771Y-75343094D02*
X135179009Y-75295475D01*
X135179009Y-75295475D02*
X135702819Y-75295475D01*
X135179009Y-75295475D02*
X135083771Y-75247856D01*
X135083771Y-75247856D02*
X135036152Y-75152618D01*
X135036152Y-75152618D02*
X135036152Y-75009761D01*
X135036152Y-75009761D02*
X135083771Y-74914522D01*
X135083771Y-74914522D02*
X135179009Y-74866903D01*
X135179009Y-74866903D02*
X135702819Y-74866903D01*
X135702819Y-74390713D02*
X135036152Y-74390713D01*
X135131390Y-74390713D02*
X135083771Y-74343094D01*
X135083771Y-74343094D02*
X135036152Y-74247856D01*
X135036152Y-74247856D02*
X135036152Y-74104999D01*
X135036152Y-74104999D02*
X135083771Y-74009761D01*
X135083771Y-74009761D02*
X135179009Y-73962142D01*
X135179009Y-73962142D02*
X135702819Y-73962142D01*
X135179009Y-73962142D02*
X135083771Y-73914523D01*
X135083771Y-73914523D02*
X135036152Y-73819285D01*
X135036152Y-73819285D02*
X135036152Y-73676428D01*
X135036152Y-73676428D02*
X135083771Y-73581189D01*
X135083771Y-73581189D02*
X135179009Y-73533570D01*
X135179009Y-73533570D02*
X135702819Y-73533570D01*
D11*
X144026000Y-71882000D02*
X135811580Y-71882000D01*
X144026000Y-84328000D02*
X135811580Y-84328000D01*
X136398000Y-71882000D02*
X136398000Y-84328000D01*
X136398000Y-71882000D02*
X136398000Y-84328000D01*
X136398000Y-71882000D02*
X136984421Y-73008504D01*
X136398000Y-71882000D02*
X135811579Y-73008504D01*
X136398000Y-84328000D02*
X135811579Y-83201496D01*
X136398000Y-84328000D02*
X136984421Y-83201496D01*
D12*
%TO.C,U1*%
X147603000Y-74214000D02*
X147603000Y-73264000D01*
X147753000Y-74364000D02*
X147603000Y-74214000D01*
X148453000Y-75014000D02*
X148203000Y-74764000D01*
X148453000Y-75014000D02*
X151053000Y-75014000D01*
X151053000Y-75014000D02*
X151303000Y-74764000D01*
X151703000Y-74364000D02*
X151853000Y-74214000D01*
X151853000Y-73264000D02*
X151853000Y-74214000D01*
%TO.C,U2*%
X146289000Y-74588000D02*
X147239000Y-74588000D01*
X147239000Y-78838000D02*
X146289000Y-78838000D01*
X147389000Y-74738000D02*
X147239000Y-74588000D01*
X147389000Y-78688000D02*
X147239000Y-78838000D01*
X148039000Y-75388000D02*
X147789000Y-75138000D01*
X148039000Y-77988000D02*
X147789000Y-78238000D01*
X148039000Y-77988000D02*
X148039000Y-75388000D01*
%TD*%
M02*
