%TF.GenerationSoftware,KiCad,Pcbnew,8.0.6*%
%TF.CreationDate,2025-04-07T16:12:46-05:00*%
%TF.ProjectId,hall-effect,68616c6c-2d65-4666-9665-63742e6b6963,rev?*%
%TF.SameCoordinates,Original*%
%TF.FileFunction,Legend,Bot*%
%TF.FilePolarity,Positive*%
%FSLAX46Y46*%
G04 Gerber Fmt 4.6, Leading zero omitted, Abs format (unit mm)*
G04 Created by KiCad (PCBNEW 8.0.6) date 2025-04-07 16:12:46*
%MOMM*%
%LPD*%
G01*
G04 APERTURE LIST*
%ADD10C,0.120000*%
G04 APERTURE END LIST*
D10*
%TO.C,J3*%
X153062000Y-73410000D02*
X153062000Y-74330000D01*
X153062000Y-74330000D02*
X154662000Y-74330000D01*
X153062000Y-82610000D02*
X153062000Y-83530000D01*
X153062000Y-83530000D02*
X160882000Y-83530000D01*
X153447000Y-74610000D02*
X154662000Y-74610000D01*
X154662000Y-74330000D02*
X154662000Y-73410000D01*
X154662000Y-74330000D02*
X154662000Y-74610000D01*
X154662000Y-82330000D02*
X154662000Y-82610000D01*
X154662000Y-82610000D02*
X153062000Y-82610000D01*
X154662000Y-82610000D02*
X154662000Y-83530000D01*
X156522000Y-75970000D02*
X160882000Y-75970000D01*
X156522000Y-80970000D02*
X156522000Y-75970000D01*
X157022000Y-74170000D02*
X157022000Y-75170000D01*
X157022000Y-75170000D02*
X158622000Y-75170000D01*
X157022000Y-81770000D02*
X158622000Y-81770000D01*
X157022000Y-82770000D02*
X157022000Y-81770000D01*
X158622000Y-74170000D02*
X157022000Y-74170000D01*
X158622000Y-75170000D02*
X158622000Y-74170000D01*
X158622000Y-81770000D02*
X158622000Y-82770000D01*
X158622000Y-82770000D02*
X157022000Y-82770000D01*
X160882000Y-73410000D02*
X153062000Y-73410000D01*
X160882000Y-74670000D02*
X158622000Y-74670000D01*
X160882000Y-75170000D02*
X158622000Y-75170000D01*
X160882000Y-80970000D02*
X156522000Y-80970000D01*
X160882000Y-83530000D02*
X160882000Y-73410000D01*
%TD*%
M02*
