M48
; DRILL file {KiCad 8.0.6} date 2025-04-07T16:11:45-0500
; FORMAT={-:-/ absolute / inch / decimal}
; #@! TF.CreationDate,2025-04-07T16:11:45-05:00
; #@! TF.GenerationSoftware,Kicad,Pcbnew,8.0.6
; #@! TF.FileFunction,Plated,1,2,PTH
FMAT,2
INCH
; #@! TA.AperFunction,Plated,PTH,ComponentDrill
T1C0.0079
; #@! TA.AperFunction,Plated,PTH,ViaDrill
T2C0.0118
; #@! TA.AperFunction,Plated,PTH,ComponentDrill
T3C0.0256
; #@! TA.AperFunction,Plated,PTH,ComponentDrill
T4C0.0394
; #@! TA.AperFunction,Plated,PTH,ComponentDrill
T5C0.0433
%
G90
G05
T1
X5.6463Y-3.2814
X5.6463Y-3.3365
X5.6739Y-3.2538
X5.6739Y-3.3089
X5.6739Y-3.3641
X5.7015Y-3.2814
X5.7015Y-3.3365
X5.729Y-3.2538
X5.729Y-3.3089
X5.729Y-3.3641
X5.7566Y-3.2814
X5.7566Y-3.3365
T2
X4.65Y-3.685
X4.68Y-2.835
X4.725Y-3.025
X4.735Y-3.74
X4.755Y-2.89
X4.8975Y-3.6425
X4.9Y-3.07
X4.9Y-3.175
X5.005Y-3.675
X5.025Y-3.45
X5.04Y-3.86
X5.225Y-3.205
X5.225Y-3.3
X5.355Y-3.305
X5.36Y-3.24
X5.38Y-4.315
X5.435Y-3.775
X5.435Y-3.93
X5.465Y-3.96
X5.48Y-3.79
X5.51Y-3.025
X5.51Y-3.995
X5.525Y-3.795
X5.535Y-4.315
X5.8917Y-3.7633
X5.895Y-4.23
X5.94Y-3.775
X5.985Y-3.21
X5.995Y-3.635
X6.0Y-3.035
X6.005Y-3.78
X6.005Y-4.21
X6.11Y-3.8
X6.145Y-4.255
X6.15Y-4.025
X6.18Y-3.275
X6.24Y-3.43
X6.295Y-3.98
X6.36Y-3.905
X6.36Y-3.98
X6.445Y-3.23
X6.445Y-3.285
X6.485Y-3.565
X6.49Y-3.725
X6.805Y-3.77
X6.87Y-3.49
X6.88Y-3.065
X6.905Y-4.165
X7.07Y-3.39
T3
X6.295Y-3.23
X6.295Y-3.28
X6.295Y-3.33
X6.295Y-3.38
X6.295Y-3.43
X6.345Y-3.23
X6.345Y-3.28
X6.345Y-3.33
X6.345Y-3.38
X6.345Y-3.43
T4
X5.0Y-3.055
X5.0Y-3.155
X5.0Y-3.255
X5.0Y-3.355
X5.14Y-4.2456
X5.14Y-4.3456
X5.14Y-4.4456
X5.15Y-3.055
X5.15Y-3.155
X5.15Y-3.255
X5.15Y-3.355
X5.15Y-3.5
X5.15Y-3.6
X5.15Y-3.7
X5.15Y-3.8
X5.3Y-3.055
X5.3Y-3.155
X5.3Y-3.255
X5.3Y-3.355
X5.3Y-3.5
X5.3Y-3.6
X5.3Y-3.7
X5.3Y-3.8
X5.31Y-4.245
X5.31Y-4.345
X5.31Y-4.445
X5.47Y-4.245
X5.47Y-4.345
X5.47Y-4.445
X5.63Y-4.245
X5.63Y-4.345
X5.63Y-4.445
X5.765Y-4.075
X5.78Y-4.245
X5.78Y-4.345
X5.78Y-4.445
X5.855Y-3.875
X5.955Y-3.875
X6.055Y-3.875
X6.155Y-3.875
X6.255Y-3.875
X6.28Y-3.08
X6.38Y-3.08
X6.48Y-3.08
X6.58Y-3.08
X6.68Y-3.08
X6.755Y-4.33
X7.1639Y-3.2435
X7.2639Y-3.2435
T5
X4.562Y-3.0964
X4.562Y-3.2736
X4.585Y-4.06
X4.585Y-4.2372
X4.818Y-3.0964
X4.818Y-3.2736
X4.8409Y-4.06
X4.8409Y-4.2372
M30
