%TF.GenerationSoftware,KiCad,Pcbnew,8.0.6*%
%TF.CreationDate,2025-03-31T15:52:21-05:00*%
%TF.ProjectId,ESP32,45535033-322e-46b6-9963-61645f706362,rev?*%
%TF.SameCoordinates,Original*%
%TF.FileFunction,Copper,L2,Bot*%
%TF.FilePolarity,Positive*%
%FSLAX46Y46*%
G04 Gerber Fmt 4.6, Leading zero omitted, Abs format (unit mm)*
G04 Created by KiCad (PCBNEW 8.0.6) date 2025-03-31 15:52:21*
%MOMM*%
%LPD*%
G01*
G04 APERTURE LIST*
G04 Aperture macros list*
%AMRoundRect*
0 Rectangle with rounded corners*
0 $1 Rounding radius*
0 $2 $3 $4 $5 $6 $7 $8 $9 X,Y pos of 4 corners*
0 Add a 4 corners polygon primitive as box body*
4,1,4,$2,$3,$4,$5,$6,$7,$8,$9,$2,$3,0*
0 Add four circle primitives for the rounded corners*
1,1,$1+$1,$2,$3*
1,1,$1+$1,$4,$5*
1,1,$1+$1,$6,$7*
1,1,$1+$1,$8,$9*
0 Add four rect primitives between the rounded corners*
20,1,$1+$1,$2,$3,$4,$5,0*
20,1,$1+$1,$4,$5,$6,$7,0*
20,1,$1+$1,$6,$7,$8,$9,0*
20,1,$1+$1,$8,$9,$2,$3,0*%
G04 Aperture macros list end*
%TA.AperFunction,ComponentPad*%
%ADD10R,1.700000X1.700000*%
%TD*%
%TA.AperFunction,ComponentPad*%
%ADD11O,1.700000X1.700000*%
%TD*%
%TA.AperFunction,ComponentPad*%
%ADD12R,2.000000X2.000000*%
%TD*%
%TA.AperFunction,ComponentPad*%
%ADD13C,2.000000*%
%TD*%
%TA.AperFunction,ComponentPad*%
%ADD14C,0.700000*%
%TD*%
%TA.AperFunction,ComponentPad*%
%ADD15O,0.900000X2.400000*%
%TD*%
%TA.AperFunction,ComponentPad*%
%ADD16O,0.900000X1.700000*%
%TD*%
%TA.AperFunction,HeatsinkPad*%
%ADD17C,0.600000*%
%TD*%
%TA.AperFunction,ComponentPad*%
%ADD18RoundRect,0.250000X0.750000X-0.600000X0.750000X0.600000X-0.750000X0.600000X-0.750000X-0.600000X0*%
%TD*%
%TA.AperFunction,ComponentPad*%
%ADD19O,2.000000X1.700000*%
%TD*%
%TA.AperFunction,ViaPad*%
%ADD20C,0.600000*%
%TD*%
%TA.AperFunction,Conductor*%
%ADD21C,0.400000*%
%TD*%
%TA.AperFunction,Conductor*%
%ADD22C,0.200000*%
%TD*%
G04 APERTURE END LIST*
D10*
%TO.P,J16,1,Pin_1*%
%TO.N,+3.3V*%
X134620000Y-88900000D03*
D11*
%TO.P,J16,2,Pin_2*%
%TO.N,/6ADC*%
X134620000Y-91440000D03*
%TO.P,J16,3,Pin_3*%
%TO.N,/7ADC*%
X134620000Y-93980000D03*
%TO.P,J16,4,Pin_4*%
%TO.N,GND*%
X134620000Y-96520000D03*
%TD*%
D12*
%TO.P,5V,1,1*%
%TO.N,+5V*%
X174498000Y-72771000D03*
%TD*%
%TO.P,3.3V,1,1*%
%TO.N,+3.3V*%
X171450000Y-109982000D03*
%TD*%
D10*
%TO.P,J12,1,Pin_1*%
%TO.N,+3.3V*%
X134620000Y-77597000D03*
D11*
%TO.P,J12,2,Pin_2*%
%TO.N,/ADC3*%
X134620000Y-80137000D03*
%TO.P,J12,3,Pin_3*%
%TO.N,/ADC4*%
X134620000Y-82677000D03*
%TO.P,J12,4,Pin_4*%
%TO.N,GND*%
X134620000Y-85217000D03*
%TD*%
D10*
%TO.P,J11,1,Pin_1*%
%TO.N,GND*%
X158877000Y-98425000D03*
D11*
%TO.P,J11,2,Pin_2*%
%TO.N,+5V*%
X156337000Y-98425000D03*
%TO.P,J11,3,Pin_3*%
%TO.N,/3ADC*%
X153797000Y-98425000D03*
%TO.P,J11,4,Pin_4*%
%TO.N,/2ADC*%
X151257000Y-98425000D03*
%TO.P,J11,5,Pin_5*%
%TO.N,/1ADC*%
X148717000Y-98425000D03*
%TD*%
D13*
%TO.P,SW2,1,1*%
%TO.N,Net-(U1-EN)*%
X115876000Y-78649000D03*
X122376000Y-78649000D03*
%TO.P,SW2,2,2*%
%TO.N,GND*%
X115876000Y-83149000D03*
X122376000Y-83149000D03*
%TD*%
D14*
%TO.P,P1,A1,GND*%
%TO.N,GND*%
X138383000Y-110067000D03*
%TO.P,P1,A4,VBUS*%
%TO.N,Net-(D3-A)*%
X139233000Y-110067000D03*
%TO.P,P1,A5,CC*%
%TO.N,Net-(P1-CC)*%
X140083000Y-110067000D03*
%TO.P,P1,A6,D+*%
%TO.N,/D+*%
X140933000Y-110067000D03*
%TO.P,P1,A7,D-*%
%TO.N,/D-*%
X141783000Y-110067000D03*
%TO.P,P1,A8*%
%TO.N,N/C*%
X142633000Y-110067000D03*
%TO.P,P1,A9,VBUS*%
%TO.N,Net-(D3-A)*%
X143483000Y-110067000D03*
%TO.P,P1,A12,GND*%
%TO.N,GND*%
X144333000Y-110067000D03*
%TO.P,P1,B1,GND*%
X144333000Y-111417000D03*
%TO.P,P1,B4,VBUS*%
%TO.N,Net-(D3-A)*%
X143483000Y-111417000D03*
%TO.P,P1,B5,VCONN*%
%TO.N,unconnected-(P1-VCONN-PadB5)*%
X142633000Y-111417000D03*
%TO.P,P1,B6*%
%TO.N,N/C*%
X141783000Y-111417000D03*
%TO.P,P1,B7*%
X140933000Y-111417000D03*
%TO.P,P1,B8*%
X140083000Y-111417000D03*
%TO.P,P1,B9,VBUS*%
%TO.N,Net-(D3-A)*%
X139233000Y-111417000D03*
%TO.P,P1,B12,GND*%
%TO.N,GND*%
X138383000Y-111417000D03*
D15*
%TO.P,P1,S1,SHIELD*%
%TO.N,Net-(P1-SHIELD)*%
X137033000Y-111047000D03*
D16*
X137033000Y-114427000D03*
D15*
X145683000Y-111047000D03*
D16*
X145683000Y-114427000D03*
%TD*%
D10*
%TO.P,J2,1,Pin_1*%
%TO.N,+5V*%
X161671000Y-80137000D03*
D11*
%TO.P,J2,2,Pin_2*%
%TO.N,/41*%
X161671000Y-82677000D03*
%TO.P,J2,3,Pin_3*%
%TO.N,GND*%
X161671000Y-85217000D03*
%TD*%
D10*
%TO.P,J5,1,Pin_1*%
%TO.N,+5V*%
X161671000Y-88900000D03*
D11*
%TO.P,J5,2,Pin_2*%
%TO.N,/38*%
X161671000Y-91440000D03*
%TO.P,J5,3,Pin_3*%
%TO.N,GND*%
X161671000Y-93980000D03*
%TD*%
D13*
%TO.P,SW4,1,1*%
%TO.N,+3.3V*%
X116003000Y-103160000D03*
X122503000Y-103160000D03*
%TO.P,SW4,2,2*%
%TO.N,/ADC8*%
X116003000Y-107660000D03*
X122503000Y-107660000D03*
%TD*%
D10*
%TO.P,J1,1,Pin_1*%
%TO.N,+5V*%
X157988000Y-80152000D03*
D11*
%TO.P,J1,2,Pin_2*%
%TO.N,/42*%
X157988000Y-82692000D03*
%TO.P,J1,3,Pin_3*%
%TO.N,GND*%
X157988000Y-85232000D03*
%TD*%
D10*
%TO.P,J3,1,Pin_1*%
%TO.N,+5V*%
X165354000Y-80137000D03*
D11*
%TO.P,J3,2,Pin_2*%
%TO.N,/40*%
X165354000Y-82677000D03*
%TO.P,J3,3,Pin_3*%
%TO.N,GND*%
X165354000Y-85217000D03*
%TD*%
D17*
%TO.P,U1,41,GND*%
%TO.N,GND*%
X143417000Y-83347000D03*
X143417000Y-84747000D03*
X144117000Y-82647000D03*
X144117000Y-84047000D03*
X144117000Y-85447000D03*
X144817000Y-83347000D03*
X144817000Y-84747000D03*
X145517000Y-82647000D03*
X145517000Y-84047000D03*
X145517000Y-85447000D03*
X146217000Y-83347000D03*
X146217000Y-84747000D03*
%TD*%
D10*
%TO.P,J13,1,Pin_1*%
%TO.N,+3.3V*%
X130810000Y-88900000D03*
D11*
%TO.P,J13,2,Pin_2*%
%TO.N,/ADC9*%
X130810000Y-91440000D03*
%TO.P,J13,3,Pin_3*%
%TO.N,/0ADC*%
X130810000Y-93980000D03*
%TO.P,J13,4,Pin_4*%
%TO.N,GND*%
X130810000Y-96520000D03*
%TD*%
D13*
%TO.P,SW3,1,1*%
%TO.N,+3.3V*%
X115928000Y-95377000D03*
X122428000Y-95377000D03*
%TO.P,SW3,2,2*%
%TO.N,/46*%
X115928000Y-99877000D03*
X122428000Y-99877000D03*
%TD*%
D10*
%TO.P,J14,1,Pin_1*%
%TO.N,+3.3V*%
X130810000Y-77597000D03*
D11*
%TO.P,J14,2,Pin_2*%
%TO.N,/ADC5*%
X130810000Y-80137000D03*
%TO.P,J14,3,Pin_3*%
%TO.N,/ADC6*%
X130810000Y-82677000D03*
%TO.P,J14,4,Pin_4*%
%TO.N,GND*%
X130810000Y-85217000D03*
%TD*%
D10*
%TO.P,J15,1,Pin_1*%
%TO.N,+3.3V*%
X127000000Y-77597000D03*
D11*
%TO.P,J15,2,Pin_2*%
%TO.N,/4ADC*%
X127000000Y-80137000D03*
%TO.P,J15,3,Pin_3*%
%TO.N,/5ADC*%
X127000000Y-82677000D03*
%TO.P,J15,4,Pin_4*%
%TO.N,GND*%
X127000000Y-85217000D03*
%TD*%
D13*
%TO.P,SW1,1,1*%
%TO.N,Net-(U1-IO0)*%
X115876000Y-86269000D03*
X122376000Y-86269000D03*
%TO.P,SW1,2,2*%
%TO.N,GND*%
X115876000Y-90769000D03*
X122376000Y-90769000D03*
%TD*%
D18*
%TO.P,BT1,1,+*%
%TO.N,Net-(BT1-+)*%
X181964000Y-82385000D03*
D19*
%TO.P,BT1,2,-*%
%TO.N,GND*%
X181964000Y-79885000D03*
%TD*%
D10*
%TO.P,J4,1,Pin_1*%
%TO.N,+5V*%
X157988000Y-88900000D03*
D11*
%TO.P,J4,2,Pin_2*%
%TO.N,/39*%
X157988000Y-91440000D03*
%TO.P,J4,3,Pin_3*%
%TO.N,GND*%
X157988000Y-93980000D03*
%TD*%
D20*
%TO.N,GND*%
X137795000Y-106934000D03*
X175387000Y-105791000D03*
X152400000Y-77089000D03*
X118872000Y-72009000D03*
X161544000Y-99187000D03*
X165481000Y-88519000D03*
X128524000Y-110617000D03*
X139954000Y-76835000D03*
X172847000Y-95758000D03*
X159893000Y-101092000D03*
X154432000Y-110490000D03*
X156083000Y-108077000D03*
X128905000Y-105537000D03*
X130937000Y-106553000D03*
X174752000Y-77851000D03*
X161544000Y-101092000D03*
X174117000Y-90932000D03*
X179578000Y-86106000D03*
X128905000Y-101092000D03*
%TO.N,+3.3V*%
X120777000Y-73406000D03*
X159512000Y-112141000D03*
X119761000Y-105791000D03*
X120015000Y-76835000D03*
%TO.N,/ADC6*%
X136017000Y-83947000D03*
X132715000Y-83820000D03*
%TO.N,/ADC5*%
X136144000Y-82296000D03*
X132715000Y-81407000D03*
%TO.N,/0ADC*%
X128016000Y-98044000D03*
X139954000Y-101473000D03*
%TO.N,/D+*%
X139827000Y-92583000D03*
X142748000Y-101600000D03*
%TO.N,/45*%
X155194000Y-96520000D03*
X156210000Y-102235000D03*
%TO.N,/D-*%
X138811000Y-91567000D03*
X142367000Y-102616000D03*
%TO.N,Net-(U1-IO0)*%
X125349000Y-87249000D03*
X152273000Y-88646000D03*
%TO.N,/ADC9*%
X127127000Y-93345000D03*
X138811000Y-100584000D03*
%TD*%
D21*
%TO.N,+3.3V*%
X119761000Y-110109000D02*
X119761000Y-105791000D01*
X158496000Y-113157000D02*
X122809000Y-113157000D01*
X122809000Y-113157000D02*
X119761000Y-110109000D01*
X159512000Y-112141000D02*
X158496000Y-113157000D01*
D22*
%TO.N,GND*%
X128524000Y-110617000D02*
X128651000Y-110490000D01*
D21*
%TO.N,+3.3V*%
X120015000Y-74168000D02*
X120015000Y-76835000D01*
X120777000Y-73406000D02*
X120015000Y-74168000D01*
D22*
%TO.N,/ADC6*%
X132715000Y-83820000D02*
X132842000Y-83947000D01*
X132842000Y-83947000D02*
X136017000Y-83947000D01*
%TO.N,/ADC5*%
X135255000Y-81407000D02*
X136144000Y-82296000D01*
X132715000Y-81407000D02*
X135255000Y-81407000D01*
%TO.N,/0ADC*%
X128016000Y-98298000D02*
X130937000Y-101219000D01*
X128016000Y-98044000D02*
X128016000Y-98298000D01*
X131191000Y-101473000D02*
X139954000Y-101473000D01*
X130937000Y-101219000D02*
X131191000Y-101473000D01*
%TO.N,/D+*%
X142748000Y-99695000D02*
X141732000Y-98679000D01*
X142748000Y-101600000D02*
X142748000Y-99695000D01*
X141732000Y-98679000D02*
X141732000Y-93599000D01*
X140716000Y-92583000D02*
X139827000Y-92583000D01*
X141732000Y-93599000D02*
X140716000Y-92583000D01*
%TO.N,/45*%
X155187000Y-96527000D02*
X155187000Y-101212000D01*
X155194000Y-96520000D02*
X155187000Y-96527000D01*
X155187000Y-101212000D02*
X156210000Y-102235000D01*
%TO.N,/D-*%
X142367000Y-102108000D02*
X139227000Y-98968000D01*
X139227000Y-98968000D02*
X139227000Y-91983000D01*
X142367000Y-102616000D02*
X142367000Y-102108000D01*
X139227000Y-91983000D02*
X138811000Y-91567000D01*
D21*
%TO.N,Net-(U1-IO0)*%
X125603000Y-87503000D02*
X151130000Y-87503000D01*
X151130000Y-87503000D02*
X152273000Y-88646000D01*
X125349000Y-87249000D02*
X125603000Y-87503000D01*
D22*
%TO.N,/ADC9*%
X127127000Y-93345000D02*
X127127000Y-95885000D01*
X127127000Y-95885000D02*
X131699000Y-100457000D01*
X131699000Y-100457000D02*
X138684000Y-100457000D01*
X138684000Y-100457000D02*
X138811000Y-100584000D01*
%TD*%
%TA.AperFunction,Conductor*%
%TO.N,GND*%
G36*
X132202365Y-84439443D02*
G01*
X132212738Y-84449816D01*
X132303080Y-84506582D01*
X132355341Y-84539420D01*
X132365478Y-84545789D01*
X132535745Y-84605368D01*
X132535750Y-84605369D01*
X132714996Y-84625565D01*
X132715000Y-84625565D01*
X132715004Y-84625565D01*
X132894246Y-84605369D01*
X132894245Y-84605369D01*
X132894255Y-84605368D01*
X133009347Y-84565095D01*
X133039748Y-84554458D01*
X133080702Y-84547500D01*
X133247992Y-84547500D01*
X133315031Y-84567185D01*
X133360786Y-84619989D01*
X133370730Y-84689147D01*
X133360374Y-84723905D01*
X133346569Y-84753507D01*
X133346567Y-84753513D01*
X133289364Y-84966999D01*
X133289364Y-84967000D01*
X134186988Y-84967000D01*
X134154075Y-85024007D01*
X134120000Y-85151174D01*
X134120000Y-85282826D01*
X134154075Y-85409993D01*
X134186988Y-85467000D01*
X133289364Y-85467000D01*
X133346567Y-85680486D01*
X133346570Y-85680492D01*
X133446399Y-85894578D01*
X133581894Y-86088082D01*
X133748917Y-86255105D01*
X133942421Y-86390600D01*
X134156507Y-86490429D01*
X134156516Y-86490433D01*
X134384673Y-86551567D01*
X134384684Y-86551569D01*
X134423576Y-86554972D01*
X134488645Y-86580424D01*
X134529624Y-86637015D01*
X134533502Y-86706777D01*
X134499048Y-86767561D01*
X134437201Y-86800069D01*
X134412769Y-86802500D01*
X131017231Y-86802500D01*
X130950192Y-86782815D01*
X130904437Y-86730011D01*
X130894493Y-86660853D01*
X130923518Y-86597297D01*
X130982296Y-86559523D01*
X131006424Y-86554972D01*
X131045315Y-86551569D01*
X131045326Y-86551567D01*
X131273483Y-86490433D01*
X131273492Y-86490429D01*
X131487578Y-86390600D01*
X131681082Y-86255105D01*
X131848105Y-86088082D01*
X131983600Y-85894578D01*
X132083429Y-85680492D01*
X132083432Y-85680486D01*
X132140636Y-85467000D01*
X131243012Y-85467000D01*
X131275925Y-85409993D01*
X131310000Y-85282826D01*
X131310000Y-85151174D01*
X131275925Y-85024007D01*
X131243012Y-84967000D01*
X132140636Y-84967000D01*
X132140635Y-84966999D01*
X132083432Y-84753513D01*
X132083430Y-84753507D01*
X132002302Y-84579529D01*
X131991810Y-84510452D01*
X132020330Y-84446668D01*
X132078806Y-84408428D01*
X132148674Y-84407873D01*
X132202365Y-84439443D01*
G37*
%TD.AperFunction*%
%TA.AperFunction,Conductor*%
G36*
X122260039Y-64933535D02*
G01*
X122305794Y-64986339D01*
X122317000Y-65037850D01*
X122317000Y-74837000D01*
X170317000Y-74837000D01*
X170317000Y-71723135D01*
X172997500Y-71723135D01*
X172997500Y-73818870D01*
X172997501Y-73818876D01*
X173003908Y-73878483D01*
X173054202Y-74013328D01*
X173054206Y-74013335D01*
X173140452Y-74128544D01*
X173140455Y-74128547D01*
X173255664Y-74214793D01*
X173255671Y-74214797D01*
X173390517Y-74265091D01*
X173390516Y-74265091D01*
X173397444Y-74265835D01*
X173450127Y-74271500D01*
X175545872Y-74271499D01*
X175605483Y-74265091D01*
X175740331Y-74214796D01*
X175855546Y-74128546D01*
X175941796Y-74013331D01*
X175992091Y-73878483D01*
X175998500Y-73818873D01*
X175998499Y-71723128D01*
X175992091Y-71663517D01*
X175941796Y-71528669D01*
X175941795Y-71528668D01*
X175941793Y-71528664D01*
X175855547Y-71413455D01*
X175855544Y-71413452D01*
X175740335Y-71327206D01*
X175740328Y-71327202D01*
X175605482Y-71276908D01*
X175605483Y-71276908D01*
X175545883Y-71270501D01*
X175545881Y-71270500D01*
X175545873Y-71270500D01*
X175545864Y-71270500D01*
X173450129Y-71270500D01*
X173450123Y-71270501D01*
X173390516Y-71276908D01*
X173255671Y-71327202D01*
X173255664Y-71327206D01*
X173140455Y-71413452D01*
X173140452Y-71413455D01*
X173054206Y-71528664D01*
X173054202Y-71528671D01*
X173003908Y-71663517D01*
X172997501Y-71723116D01*
X172997501Y-71723123D01*
X172997500Y-71723135D01*
X170317000Y-71723135D01*
X170317000Y-68600713D01*
X180894500Y-68600713D01*
X180894500Y-68813286D01*
X180927753Y-69023239D01*
X180993444Y-69225414D01*
X181089951Y-69414820D01*
X181214890Y-69586786D01*
X181365213Y-69737109D01*
X181537179Y-69862048D01*
X181537181Y-69862049D01*
X181537184Y-69862051D01*
X181726588Y-69958557D01*
X181928757Y-70024246D01*
X182138713Y-70057500D01*
X182138714Y-70057500D01*
X182351286Y-70057500D01*
X182351287Y-70057500D01*
X182561243Y-70024246D01*
X182763412Y-69958557D01*
X182952816Y-69862051D01*
X182974789Y-69846086D01*
X183124786Y-69737109D01*
X183124788Y-69737106D01*
X183124792Y-69737104D01*
X183275104Y-69586792D01*
X183275106Y-69586788D01*
X183275109Y-69586786D01*
X183400048Y-69414820D01*
X183400047Y-69414820D01*
X183400051Y-69414816D01*
X183496557Y-69225412D01*
X183562246Y-69023243D01*
X183595500Y-68813287D01*
X183595500Y-68600713D01*
X183562246Y-68390757D01*
X183496557Y-68188588D01*
X183400051Y-67999184D01*
X183400049Y-67999181D01*
X183400048Y-67999179D01*
X183275109Y-67827213D01*
X183124786Y-67676890D01*
X182952820Y-67551951D01*
X182763414Y-67455444D01*
X182763413Y-67455443D01*
X182763412Y-67455443D01*
X182561243Y-67389754D01*
X182561241Y-67389753D01*
X182561240Y-67389753D01*
X182399957Y-67364208D01*
X182351287Y-67356500D01*
X182138713Y-67356500D01*
X182090042Y-67364208D01*
X181928760Y-67389753D01*
X181726585Y-67455444D01*
X181537179Y-67551951D01*
X181365213Y-67676890D01*
X181214890Y-67827213D01*
X181089951Y-67999179D01*
X180993444Y-68188585D01*
X180927753Y-68390760D01*
X180894500Y-68600713D01*
X170317000Y-68600713D01*
X170317000Y-65037850D01*
X170336685Y-64970811D01*
X170389489Y-64925056D01*
X170441000Y-64913850D01*
X183822092Y-64913850D01*
X183823951Y-64913970D01*
X183830940Y-64913958D01*
X183830943Y-64913959D01*
X183892787Y-64913855D01*
X183900859Y-64914107D01*
X184152325Y-64930185D01*
X184168412Y-64932277D01*
X184411617Y-64980284D01*
X184427292Y-64984461D01*
X184662126Y-65063830D01*
X184677133Y-65070024D01*
X184899573Y-65179392D01*
X184913643Y-65187495D01*
X185119890Y-65324992D01*
X185132782Y-65334864D01*
X185319288Y-65498126D01*
X185330779Y-65509597D01*
X185494363Y-65695839D01*
X185504256Y-65708714D01*
X185642095Y-65914720D01*
X185650222Y-65928777D01*
X185759967Y-66151040D01*
X185766187Y-66166039D01*
X185845946Y-66400727D01*
X185850153Y-66416409D01*
X185898565Y-66659511D01*
X185900687Y-66675608D01*
X185917186Y-66927001D01*
X185917452Y-66935122D01*
X185917452Y-113191450D01*
X185917223Y-113198988D01*
X185903790Y-113419562D01*
X185901738Y-113435698D01*
X185854155Y-113680342D01*
X185850009Y-113696071D01*
X185770808Y-113932394D01*
X185764638Y-113947447D01*
X185655185Y-114171361D01*
X185647098Y-114185474D01*
X185509280Y-114393131D01*
X185499416Y-114406065D01*
X185335593Y-114593905D01*
X185324120Y-114605436D01*
X185137125Y-114770207D01*
X185124246Y-114780135D01*
X184917280Y-114919018D01*
X184903208Y-114927176D01*
X184679854Y-115037767D01*
X184664841Y-115044010D01*
X184492788Y-115102650D01*
X184428931Y-115124414D01*
X184413223Y-115128640D01*
X184168815Y-115177470D01*
X184152689Y-115179604D01*
X183900830Y-115196231D01*
X183892662Y-115196500D01*
X146729718Y-115196500D01*
X146662679Y-115176815D01*
X146616924Y-115124011D01*
X146606980Y-115054853D01*
X146608101Y-115048309D01*
X146633499Y-114920620D01*
X146633500Y-114920617D01*
X146633500Y-113981500D01*
X146653185Y-113914461D01*
X146705989Y-113868706D01*
X146757500Y-113857500D01*
X158564996Y-113857500D01*
X158656040Y-113839389D01*
X158700328Y-113830580D01*
X158764069Y-113804177D01*
X158827807Y-113777777D01*
X158827808Y-113777776D01*
X158827811Y-113777775D01*
X158942543Y-113701114D01*
X159711290Y-112932365D01*
X159758013Y-112903007D01*
X159861522Y-112866789D01*
X160014262Y-112770816D01*
X160141816Y-112643262D01*
X160237789Y-112490522D01*
X160297368Y-112320255D01*
X160300922Y-112288713D01*
X180894500Y-112288713D01*
X180894500Y-112501287D01*
X180927754Y-112711243D01*
X180993099Y-112912354D01*
X180993444Y-112913414D01*
X181089951Y-113102820D01*
X181214890Y-113274786D01*
X181365213Y-113425109D01*
X181537179Y-113550048D01*
X181537181Y-113550049D01*
X181537184Y-113550051D01*
X181726588Y-113646557D01*
X181928757Y-113712246D01*
X182138713Y-113745500D01*
X182138714Y-113745500D01*
X182351286Y-113745500D01*
X182351287Y-113745500D01*
X182561243Y-113712246D01*
X182763412Y-113646557D01*
X182952816Y-113550051D01*
X183118121Y-113429951D01*
X183124786Y-113425109D01*
X183124788Y-113425106D01*
X183124792Y-113425104D01*
X183275104Y-113274792D01*
X183275106Y-113274788D01*
X183275109Y-113274786D01*
X183400048Y-113102820D01*
X183400047Y-113102820D01*
X183400051Y-113102816D01*
X183496557Y-112913412D01*
X183562246Y-112711243D01*
X183595500Y-112501287D01*
X183595500Y-112288713D01*
X183562246Y-112078757D01*
X183496557Y-111876588D01*
X183400051Y-111687184D01*
X183400049Y-111687181D01*
X183400048Y-111687179D01*
X183275109Y-111515213D01*
X183124786Y-111364890D01*
X182952820Y-111239951D01*
X182763414Y-111143444D01*
X182763413Y-111143443D01*
X182763412Y-111143443D01*
X182561243Y-111077754D01*
X182561241Y-111077753D01*
X182561240Y-111077753D01*
X182399957Y-111052208D01*
X182351287Y-111044500D01*
X182138713Y-111044500D01*
X182090042Y-111052208D01*
X181928760Y-111077753D01*
X181726585Y-111143444D01*
X181537179Y-111239951D01*
X181365213Y-111364890D01*
X181214890Y-111515213D01*
X181089951Y-111687179D01*
X180993444Y-111876585D01*
X180927753Y-112078760D01*
X180903747Y-112230329D01*
X180894500Y-112288713D01*
X160300922Y-112288713D01*
X160307500Y-112230329D01*
X160317565Y-112141003D01*
X160317565Y-112140996D01*
X160297369Y-111961750D01*
X160297368Y-111961745D01*
X160283355Y-111921697D01*
X160237789Y-111791478D01*
X160141816Y-111638738D01*
X160014262Y-111511184D01*
X159878370Y-111425797D01*
X159861523Y-111415211D01*
X159691254Y-111355631D01*
X159691249Y-111355630D01*
X159512004Y-111335435D01*
X159511996Y-111335435D01*
X159332750Y-111355630D01*
X159332745Y-111355631D01*
X159162476Y-111415211D01*
X159009737Y-111511184D01*
X158882184Y-111638737D01*
X158786212Y-111791475D01*
X158786211Y-111791476D01*
X158749992Y-111894984D01*
X158720632Y-111941709D01*
X158242162Y-112420181D01*
X158180839Y-112453666D01*
X158154481Y-112456500D01*
X146617481Y-112456500D01*
X146550442Y-112436815D01*
X146504687Y-112384011D01*
X146494743Y-112314853D01*
X146514379Y-112263608D01*
X146525322Y-112247231D01*
X146596973Y-112074251D01*
X146633500Y-111890616D01*
X146633500Y-110203384D01*
X146596973Y-110019749D01*
X146528799Y-109855162D01*
X146525323Y-109846771D01*
X146525318Y-109846762D01*
X146421302Y-109691092D01*
X146421299Y-109691088D01*
X146288911Y-109558700D01*
X146288907Y-109558697D01*
X146133237Y-109454681D01*
X146133228Y-109454676D01*
X145960251Y-109383027D01*
X145960243Y-109383025D01*
X145776620Y-109346500D01*
X145776616Y-109346500D01*
X145589384Y-109346500D01*
X145589379Y-109346500D01*
X145405756Y-109383025D01*
X145405748Y-109383027D01*
X145232771Y-109454676D01*
X145232762Y-109454681D01*
X145077092Y-109558697D01*
X145077088Y-109558700D01*
X144944700Y-109691088D01*
X144944694Y-109691096D01*
X144840679Y-109846766D01*
X144840674Y-109846775D01*
X144803370Y-109936833D01*
X144776491Y-109977060D01*
X144544873Y-110208679D01*
X144483550Y-110242164D01*
X144440222Y-110239065D01*
X144446291Y-110236552D01*
X144502552Y-110180291D01*
X144533000Y-110106782D01*
X144533000Y-110027218D01*
X144502552Y-109953709D01*
X144446291Y-109897448D01*
X144372782Y-109867000D01*
X144312285Y-109867000D01*
X144303188Y-109839006D01*
X144301192Y-109769167D01*
X144333438Y-109713007D01*
X144732165Y-109314280D01*
X144732165Y-109314279D01*
X144597115Y-109254150D01*
X144597110Y-109254148D01*
X144422339Y-109217000D01*
X144243661Y-109217000D01*
X144068890Y-109254148D01*
X144068887Y-109254149D01*
X143959048Y-109303052D01*
X143889798Y-109312336D01*
X143858179Y-109303052D01*
X143747265Y-109253670D01*
X143619594Y-109226533D01*
X143572391Y-109216500D01*
X143393609Y-109216500D01*
X143356439Y-109224400D01*
X143218734Y-109253670D01*
X143218729Y-109253672D01*
X143108434Y-109302778D01*
X143039184Y-109312062D01*
X143007566Y-109302778D01*
X142897270Y-109253672D01*
X142897265Y-109253670D01*
X142769594Y-109226533D01*
X142722391Y-109216500D01*
X142543609Y-109216500D01*
X142506439Y-109224400D01*
X142368734Y-109253670D01*
X142368729Y-109253672D01*
X142258434Y-109302778D01*
X142189184Y-109312062D01*
X142157566Y-109302778D01*
X142047270Y-109253672D01*
X142047265Y-109253670D01*
X141919594Y-109226533D01*
X141872391Y-109216500D01*
X141693609Y-109216500D01*
X141656439Y-109224400D01*
X141518734Y-109253670D01*
X141518729Y-109253672D01*
X141408434Y-109302778D01*
X141339184Y-109312062D01*
X141307566Y-109302778D01*
X141197270Y-109253672D01*
X141197265Y-109253670D01*
X141069594Y-109226533D01*
X141022391Y-109216500D01*
X140843609Y-109216500D01*
X140806439Y-109224400D01*
X140668734Y-109253670D01*
X140668729Y-109253672D01*
X140558434Y-109302778D01*
X140489184Y-109312062D01*
X140457566Y-109302778D01*
X140347270Y-109253672D01*
X140347265Y-109253670D01*
X140219594Y-109226533D01*
X140172391Y-109216500D01*
X139993609Y-109216500D01*
X139956439Y-109224400D01*
X139818734Y-109253670D01*
X139818729Y-109253672D01*
X139708434Y-109302778D01*
X139639184Y-109312062D01*
X139607566Y-109302778D01*
X139497270Y-109253672D01*
X139497265Y-109253670D01*
X139369594Y-109226533D01*
X139322391Y-109216500D01*
X139143609Y-109216500D01*
X139106439Y-109224400D01*
X138968734Y-109253670D01*
X138968729Y-109253672D01*
X138857818Y-109303052D01*
X138788568Y-109312336D01*
X138756949Y-109303052D01*
X138647110Y-109254148D01*
X138472339Y-109217000D01*
X138293661Y-109217000D01*
X138118889Y-109254148D01*
X138118884Y-109254150D01*
X137983833Y-109314279D01*
X137983832Y-109314280D01*
X138382560Y-109713007D01*
X138416045Y-109774330D01*
X138412811Y-109839004D01*
X138403714Y-109867000D01*
X138343218Y-109867000D01*
X138269709Y-109897448D01*
X138213448Y-109953709D01*
X138183000Y-110027218D01*
X138183000Y-110106782D01*
X138213448Y-110180291D01*
X138269709Y-110236552D01*
X138276318Y-110239289D01*
X138254085Y-110244908D01*
X138187844Y-110222685D01*
X138171126Y-110208679D01*
X137939507Y-109977060D01*
X137912627Y-109936831D01*
X137875325Y-109846775D01*
X137875318Y-109846762D01*
X137771302Y-109691092D01*
X137771299Y-109691088D01*
X137638911Y-109558700D01*
X137638907Y-109558697D01*
X137483237Y-109454681D01*
X137483228Y-109454676D01*
X137310251Y-109383027D01*
X137310243Y-109383025D01*
X137126620Y-109346500D01*
X137126616Y-109346500D01*
X136939384Y-109346500D01*
X136939379Y-109346500D01*
X136755756Y-109383025D01*
X136755748Y-109383027D01*
X136582771Y-109454676D01*
X136582762Y-109454681D01*
X136427092Y-109558697D01*
X136427088Y-109558700D01*
X136294700Y-109691088D01*
X136294697Y-109691092D01*
X136190681Y-109846762D01*
X136190676Y-109846771D01*
X136119027Y-110019748D01*
X136119025Y-110019756D01*
X136082500Y-110203379D01*
X136082500Y-111890620D01*
X136119025Y-112074243D01*
X136119027Y-112074251D01*
X136190676Y-112247228D01*
X136190678Y-112247231D01*
X136201621Y-112263608D01*
X136222499Y-112330286D01*
X136204015Y-112397666D01*
X136152036Y-112444357D01*
X136098519Y-112456500D01*
X123150519Y-112456500D01*
X123083480Y-112436815D01*
X123062838Y-112420181D01*
X120497819Y-109855162D01*
X120464334Y-109793839D01*
X120461500Y-109767481D01*
X120461500Y-107659994D01*
X120997357Y-107659994D01*
X120997357Y-107660005D01*
X121017890Y-107907812D01*
X121017892Y-107907824D01*
X121078936Y-108148881D01*
X121178826Y-108376606D01*
X121314833Y-108584782D01*
X121314836Y-108584785D01*
X121483256Y-108767738D01*
X121679491Y-108920474D01*
X121898190Y-109038828D01*
X122133386Y-109119571D01*
X122378665Y-109160500D01*
X122627335Y-109160500D01*
X122872614Y-109119571D01*
X123107810Y-109038828D01*
X123301266Y-108934135D01*
X169949500Y-108934135D01*
X169949500Y-111029870D01*
X169949501Y-111029876D01*
X169955908Y-111089483D01*
X170006202Y-111224328D01*
X170006206Y-111224335D01*
X170092452Y-111339544D01*
X170092455Y-111339547D01*
X170207664Y-111425793D01*
X170207671Y-111425797D01*
X170342517Y-111476091D01*
X170342516Y-111476091D01*
X170349444Y-111476835D01*
X170402127Y-111482500D01*
X172497872Y-111482499D01*
X172557483Y-111476091D01*
X172692331Y-111425796D01*
X172807546Y-111339546D01*
X172893796Y-111224331D01*
X172944091Y-111089483D01*
X172950500Y-111029873D01*
X172950499Y-108934128D01*
X172944091Y-108874517D01*
X172893796Y-108739669D01*
X172893795Y-108739668D01*
X172893793Y-108739664D01*
X172807547Y-108624455D01*
X172807544Y-108624452D01*
X172692335Y-108538206D01*
X172692328Y-108538202D01*
X172557482Y-108487908D01*
X172557483Y-108487908D01*
X172497883Y-108481501D01*
X172497881Y-108481500D01*
X172497873Y-108481500D01*
X172497864Y-108481500D01*
X170402129Y-108481500D01*
X170402123Y-108481501D01*
X170342516Y-108487908D01*
X170207671Y-108538202D01*
X170207664Y-108538206D01*
X170092455Y-108624452D01*
X170092452Y-108624455D01*
X170006206Y-108739664D01*
X170006202Y-108739671D01*
X169955908Y-108874517D01*
X169949501Y-108934116D01*
X169949501Y-108934123D01*
X169949500Y-108934135D01*
X123301266Y-108934135D01*
X123326509Y-108920474D01*
X123522744Y-108767738D01*
X123691164Y-108584785D01*
X123827173Y-108376607D01*
X123927063Y-108148881D01*
X123988108Y-107907821D01*
X124008643Y-107660000D01*
X123988108Y-107412179D01*
X123927063Y-107171119D01*
X123827173Y-106943393D01*
X123691166Y-106735217D01*
X123669557Y-106711744D01*
X123522744Y-106552262D01*
X123326509Y-106399526D01*
X123326507Y-106399525D01*
X123326506Y-106399524D01*
X123107811Y-106281172D01*
X123107802Y-106281169D01*
X122872616Y-106200429D01*
X122627335Y-106159500D01*
X122378665Y-106159500D01*
X122133383Y-106200429D01*
X121898197Y-106281169D01*
X121898188Y-106281172D01*
X121679493Y-106399524D01*
X121483257Y-106552261D01*
X121314833Y-106735217D01*
X121178826Y-106943393D01*
X121078936Y-107171118D01*
X121017892Y-107412175D01*
X121017890Y-107412187D01*
X120997357Y-107659994D01*
X120461500Y-107659994D01*
X120461500Y-106216493D01*
X120480508Y-106150519D01*
X120486787Y-106140525D01*
X120486786Y-106140525D01*
X120486789Y-106140522D01*
X120546368Y-105970255D01*
X120566565Y-105791000D01*
X120546368Y-105611745D01*
X120486789Y-105441478D01*
X120390816Y-105288738D01*
X120263262Y-105161184D01*
X120110523Y-105065211D01*
X119940254Y-105005631D01*
X119940249Y-105005630D01*
X119761004Y-104985435D01*
X119760996Y-104985435D01*
X119581750Y-105005630D01*
X119581745Y-105005631D01*
X119411476Y-105065211D01*
X119258737Y-105161184D01*
X119131184Y-105288737D01*
X119035211Y-105441476D01*
X118975631Y-105611745D01*
X118975630Y-105611750D01*
X118955435Y-105790996D01*
X118955435Y-105791003D01*
X118975630Y-105970249D01*
X118975631Y-105970254D01*
X119035212Y-106140525D01*
X119041492Y-106150519D01*
X119060500Y-106216493D01*
X119060500Y-110040006D01*
X119060500Y-110177994D01*
X119060500Y-110177996D01*
X119060499Y-110177996D01*
X119087418Y-110313322D01*
X119087421Y-110313332D01*
X119140222Y-110440807D01*
X119216887Y-110555545D01*
X122362454Y-113701112D01*
X122477192Y-113777777D01*
X122604667Y-113830578D01*
X122604672Y-113830580D01*
X122604676Y-113830580D01*
X122604677Y-113830581D01*
X122740003Y-113857500D01*
X122740006Y-113857500D01*
X122740007Y-113857500D01*
X135958500Y-113857500D01*
X136025539Y-113877185D01*
X136071294Y-113929989D01*
X136082500Y-113981500D01*
X136082500Y-114920620D01*
X136107899Y-115048309D01*
X136101672Y-115117901D01*
X136058809Y-115173078D01*
X135992919Y-115196322D01*
X135986282Y-115196500D01*
X114815880Y-115196500D01*
X114806925Y-115196176D01*
X114554750Y-115177917D01*
X114538756Y-115175705D01*
X114294461Y-115125526D01*
X114278890Y-115121255D01*
X114043176Y-115039755D01*
X114028292Y-115033496D01*
X113815411Y-114927176D01*
X113805174Y-114922063D01*
X113791230Y-114913924D01*
X113584486Y-114774446D01*
X113571717Y-114764564D01*
X113566873Y-114760282D01*
X113384841Y-114599398D01*
X113373467Y-114587943D01*
X113209639Y-114399896D01*
X113199848Y-114387058D01*
X113061835Y-114179308D01*
X113053806Y-114165324D01*
X112950017Y-113953752D01*
X112943963Y-113941410D01*
X112937811Y-113926482D01*
X112933750Y-113914461D01*
X112857996Y-113690202D01*
X112853836Y-113674605D01*
X112845234Y-113631159D01*
X112805397Y-113429950D01*
X112803300Y-113413941D01*
X112786750Y-113160279D01*
X112786487Y-113152206D01*
X112786487Y-112288713D01*
X114219500Y-112288713D01*
X114219500Y-112501287D01*
X114252754Y-112711243D01*
X114318099Y-112912354D01*
X114318444Y-112913414D01*
X114414951Y-113102820D01*
X114539890Y-113274786D01*
X114690213Y-113425109D01*
X114862179Y-113550048D01*
X114862181Y-113550049D01*
X114862184Y-113550051D01*
X115051588Y-113646557D01*
X115253757Y-113712246D01*
X115463713Y-113745500D01*
X115463714Y-113745500D01*
X115676286Y-113745500D01*
X115676287Y-113745500D01*
X115886243Y-113712246D01*
X116088412Y-113646557D01*
X116277816Y-113550051D01*
X116443121Y-113429951D01*
X116449786Y-113425109D01*
X116449788Y-113425106D01*
X116449792Y-113425104D01*
X116600104Y-113274792D01*
X116600106Y-113274788D01*
X116600109Y-113274786D01*
X116725048Y-113102820D01*
X116725047Y-113102820D01*
X116725051Y-113102816D01*
X116821557Y-112913412D01*
X116887246Y-112711243D01*
X116920500Y-112501287D01*
X116920500Y-112288713D01*
X116887246Y-112078757D01*
X116821557Y-111876588D01*
X116725051Y-111687184D01*
X116725049Y-111687181D01*
X116725048Y-111687179D01*
X116600109Y-111515213D01*
X116449786Y-111364890D01*
X116277820Y-111239951D01*
X116088414Y-111143444D01*
X116088413Y-111143443D01*
X116088412Y-111143443D01*
X115886243Y-111077754D01*
X115886241Y-111077753D01*
X115886240Y-111077753D01*
X115724957Y-111052208D01*
X115676287Y-111044500D01*
X115463713Y-111044500D01*
X115415042Y-111052208D01*
X115253760Y-111077753D01*
X115051585Y-111143444D01*
X114862179Y-111239951D01*
X114690213Y-111364890D01*
X114539890Y-111515213D01*
X114414951Y-111687179D01*
X114318444Y-111876585D01*
X114252753Y-112078760D01*
X114228747Y-112230329D01*
X114219500Y-112288713D01*
X112786487Y-112288713D01*
X112786487Y-107659994D01*
X114497357Y-107659994D01*
X114497357Y-107660005D01*
X114517890Y-107907812D01*
X114517892Y-107907824D01*
X114578936Y-108148881D01*
X114678826Y-108376606D01*
X114814833Y-108584782D01*
X114814836Y-108584785D01*
X114983256Y-108767738D01*
X115179491Y-108920474D01*
X115398190Y-109038828D01*
X115633386Y-109119571D01*
X115878665Y-109160500D01*
X116127335Y-109160500D01*
X116372614Y-109119571D01*
X116607810Y-109038828D01*
X116826509Y-108920474D01*
X117022744Y-108767738D01*
X117191164Y-108584785D01*
X117327173Y-108376607D01*
X117427063Y-108148881D01*
X117488108Y-107907821D01*
X117508643Y-107660000D01*
X117488108Y-107412179D01*
X117427063Y-107171119D01*
X117327173Y-106943393D01*
X117191166Y-106735217D01*
X117169557Y-106711744D01*
X117022744Y-106552262D01*
X116826509Y-106399526D01*
X116826507Y-106399525D01*
X116826506Y-106399524D01*
X116607811Y-106281172D01*
X116607802Y-106281169D01*
X116372616Y-106200429D01*
X116127335Y-106159500D01*
X115878665Y-106159500D01*
X115633383Y-106200429D01*
X115398197Y-106281169D01*
X115398188Y-106281172D01*
X115179493Y-106399524D01*
X114983257Y-106552261D01*
X114814833Y-106735217D01*
X114678826Y-106943393D01*
X114578936Y-107171118D01*
X114517892Y-107412175D01*
X114517890Y-107412187D01*
X114497357Y-107659994D01*
X112786487Y-107659994D01*
X112786487Y-103159994D01*
X114497357Y-103159994D01*
X114497357Y-103160005D01*
X114517890Y-103407812D01*
X114517892Y-103407824D01*
X114578936Y-103648881D01*
X114678826Y-103876606D01*
X114814833Y-104084782D01*
X114814836Y-104084785D01*
X114983256Y-104267738D01*
X115179491Y-104420474D01*
X115398190Y-104538828D01*
X115633386Y-104619571D01*
X115878665Y-104660500D01*
X116127335Y-104660500D01*
X116372614Y-104619571D01*
X116607810Y-104538828D01*
X116826509Y-104420474D01*
X117022744Y-104267738D01*
X117191164Y-104084785D01*
X117327173Y-103876607D01*
X117427063Y-103648881D01*
X117488108Y-103407821D01*
X117501532Y-103245816D01*
X117508643Y-103160005D01*
X117508643Y-103159994D01*
X120997357Y-103159994D01*
X120997357Y-103160005D01*
X121017890Y-103407812D01*
X121017892Y-103407824D01*
X121078936Y-103648881D01*
X121178826Y-103876606D01*
X121314833Y-104084782D01*
X121314836Y-104084785D01*
X121483256Y-104267738D01*
X121679491Y-104420474D01*
X121898190Y-104538828D01*
X122133386Y-104619571D01*
X122378665Y-104660500D01*
X122627335Y-104660500D01*
X122872614Y-104619571D01*
X123107810Y-104538828D01*
X123326509Y-104420474D01*
X123522744Y-104267738D01*
X123691164Y-104084785D01*
X123827173Y-103876607D01*
X123927063Y-103648881D01*
X123988108Y-103407821D01*
X124001532Y-103245816D01*
X124008643Y-103160005D01*
X124008643Y-103159994D01*
X123988109Y-102912187D01*
X123988107Y-102912175D01*
X123927063Y-102671118D01*
X123827173Y-102443393D01*
X123691166Y-102235217D01*
X123669557Y-102211744D01*
X123522744Y-102052262D01*
X123326509Y-101899526D01*
X123326507Y-101899525D01*
X123326506Y-101899524D01*
X123107811Y-101781172D01*
X123107802Y-101781169D01*
X122872616Y-101700429D01*
X122627335Y-101659500D01*
X122378665Y-101659500D01*
X122133383Y-101700429D01*
X121898197Y-101781169D01*
X121898188Y-101781172D01*
X121679493Y-101899524D01*
X121483257Y-102052261D01*
X121314833Y-102235217D01*
X121178826Y-102443393D01*
X121078936Y-102671118D01*
X121017892Y-102912175D01*
X121017890Y-102912187D01*
X120997357Y-103159994D01*
X117508643Y-103159994D01*
X117488109Y-102912187D01*
X117488107Y-102912175D01*
X117427063Y-102671118D01*
X117327173Y-102443393D01*
X117191166Y-102235217D01*
X117169557Y-102211744D01*
X117022744Y-102052262D01*
X116826509Y-101899526D01*
X116826507Y-101899525D01*
X116826506Y-101899524D01*
X116607811Y-101781172D01*
X116607802Y-101781169D01*
X116372616Y-101700429D01*
X116127335Y-101659500D01*
X115878665Y-101659500D01*
X115633383Y-101700429D01*
X115398197Y-101781169D01*
X115398188Y-101781172D01*
X115179493Y-101899524D01*
X114983257Y-102052261D01*
X114814833Y-102235217D01*
X114678826Y-102443393D01*
X114578936Y-102671118D01*
X114517892Y-102912175D01*
X114517890Y-102912187D01*
X114497357Y-103159994D01*
X112786487Y-103159994D01*
X112786487Y-99876994D01*
X114422357Y-99876994D01*
X114422357Y-99877005D01*
X114442890Y-100124812D01*
X114442892Y-100124824D01*
X114503936Y-100365881D01*
X114603826Y-100593606D01*
X114739833Y-100801782D01*
X114739836Y-100801785D01*
X114908256Y-100984738D01*
X115104491Y-101137474D01*
X115323190Y-101255828D01*
X115558386Y-101336571D01*
X115803665Y-101377500D01*
X116052335Y-101377500D01*
X116297614Y-101336571D01*
X116532810Y-101255828D01*
X116751509Y-101137474D01*
X116947744Y-100984738D01*
X117116164Y-100801785D01*
X117252173Y-100593607D01*
X117352063Y-100365881D01*
X117413108Y-100124821D01*
X117416678Y-100081738D01*
X117433643Y-99877005D01*
X117433643Y-99876994D01*
X120922357Y-99876994D01*
X120922357Y-99877005D01*
X120942890Y-100124812D01*
X120942892Y-100124824D01*
X121003936Y-100365881D01*
X121103826Y-100593606D01*
X121239833Y-100801782D01*
X121239836Y-100801785D01*
X121408256Y-100984738D01*
X121604491Y-101137474D01*
X121823190Y-101255828D01*
X122058386Y-101336571D01*
X122303665Y-101377500D01*
X122552335Y-101377500D01*
X122797614Y-101336571D01*
X123032810Y-101255828D01*
X123251509Y-101137474D01*
X123447744Y-100984738D01*
X123616164Y-100801785D01*
X123752173Y-100593607D01*
X123852063Y-100365881D01*
X123913108Y-100124821D01*
X123916678Y-100081738D01*
X123933643Y-99877005D01*
X123933643Y-99876994D01*
X123913109Y-99629187D01*
X123913107Y-99629175D01*
X123852063Y-99388118D01*
X123752173Y-99160393D01*
X123616166Y-98952217D01*
X123578025Y-98910785D01*
X123447744Y-98769262D01*
X123251509Y-98616526D01*
X123251507Y-98616525D01*
X123251506Y-98616524D01*
X123032811Y-98498172D01*
X123032802Y-98498169D01*
X122797616Y-98417429D01*
X122552335Y-98376500D01*
X122303665Y-98376500D01*
X122058383Y-98417429D01*
X121823197Y-98498169D01*
X121823188Y-98498172D01*
X121604493Y-98616524D01*
X121422656Y-98758054D01*
X121408256Y-98769262D01*
X121397452Y-98780997D01*
X121239833Y-98952217D01*
X121103826Y-99160393D01*
X121003936Y-99388118D01*
X120942892Y-99629175D01*
X120942890Y-99629187D01*
X120922357Y-99876994D01*
X117433643Y-99876994D01*
X117413109Y-99629187D01*
X117413107Y-99629175D01*
X117352063Y-99388118D01*
X117252173Y-99160393D01*
X117116166Y-98952217D01*
X117078025Y-98910785D01*
X116947744Y-98769262D01*
X116751509Y-98616526D01*
X116751507Y-98616525D01*
X116751506Y-98616524D01*
X116532811Y-98498172D01*
X116532802Y-98498169D01*
X116297616Y-98417429D01*
X116052335Y-98376500D01*
X115803665Y-98376500D01*
X115558383Y-98417429D01*
X115323197Y-98498169D01*
X115323188Y-98498172D01*
X115104493Y-98616524D01*
X114922656Y-98758054D01*
X114908256Y-98769262D01*
X114897452Y-98780997D01*
X114739833Y-98952217D01*
X114603826Y-99160393D01*
X114503936Y-99388118D01*
X114442892Y-99629175D01*
X114442890Y-99629187D01*
X114422357Y-99876994D01*
X112786487Y-99876994D01*
X112786487Y-95376994D01*
X114422357Y-95376994D01*
X114422357Y-95377005D01*
X114442890Y-95624812D01*
X114442892Y-95624824D01*
X114503936Y-95865881D01*
X114603826Y-96093606D01*
X114739833Y-96301782D01*
X114739836Y-96301785D01*
X114908256Y-96484738D01*
X115104491Y-96637474D01*
X115323190Y-96755828D01*
X115558386Y-96836571D01*
X115803665Y-96877500D01*
X116052335Y-96877500D01*
X116297614Y-96836571D01*
X116532810Y-96755828D01*
X116751509Y-96637474D01*
X116947744Y-96484738D01*
X117116164Y-96301785D01*
X117252173Y-96093607D01*
X117352063Y-95865881D01*
X117413108Y-95624821D01*
X117416416Y-95584903D01*
X117433643Y-95377005D01*
X117433643Y-95376994D01*
X120922357Y-95376994D01*
X120922357Y-95377005D01*
X120942890Y-95624812D01*
X120942892Y-95624824D01*
X121003936Y-95865881D01*
X121103826Y-96093606D01*
X121239833Y-96301782D01*
X121239836Y-96301785D01*
X121408256Y-96484738D01*
X121604491Y-96637474D01*
X121823190Y-96755828D01*
X122058386Y-96836571D01*
X122303665Y-96877500D01*
X122552335Y-96877500D01*
X122797614Y-96836571D01*
X123032810Y-96755828D01*
X123251509Y-96637474D01*
X123447744Y-96484738D01*
X123616164Y-96301785D01*
X123752173Y-96093607D01*
X123852063Y-95865881D01*
X123913108Y-95624821D01*
X123916416Y-95584903D01*
X123933643Y-95377005D01*
X123933643Y-95376994D01*
X123913109Y-95129187D01*
X123913107Y-95129175D01*
X123852063Y-94888118D01*
X123752173Y-94660393D01*
X123616166Y-94452217D01*
X123594557Y-94428744D01*
X123447744Y-94269262D01*
X123251509Y-94116526D01*
X123251507Y-94116525D01*
X123251506Y-94116524D01*
X123032811Y-93998172D01*
X123032802Y-93998169D01*
X122797616Y-93917429D01*
X122552335Y-93876500D01*
X122303665Y-93876500D01*
X122058383Y-93917429D01*
X121823197Y-93998169D01*
X121823188Y-93998172D01*
X121604493Y-94116524D01*
X121408257Y-94269261D01*
X121239833Y-94452217D01*
X121103826Y-94660393D01*
X121003936Y-94888118D01*
X120942892Y-95129175D01*
X120942890Y-95129187D01*
X120922357Y-95376994D01*
X117433643Y-95376994D01*
X117413109Y-95129187D01*
X117413107Y-95129175D01*
X117352063Y-94888118D01*
X117252173Y-94660393D01*
X117116166Y-94452217D01*
X117094557Y-94428744D01*
X116947744Y-94269262D01*
X116751509Y-94116526D01*
X116751507Y-94116525D01*
X116751506Y-94116524D01*
X116532811Y-93998172D01*
X116532802Y-93998169D01*
X116297616Y-93917429D01*
X116052335Y-93876500D01*
X115803665Y-93876500D01*
X115558383Y-93917429D01*
X115323197Y-93998169D01*
X115323188Y-93998172D01*
X115104493Y-94116524D01*
X114908257Y-94269261D01*
X114739833Y-94452217D01*
X114603826Y-94660393D01*
X114503936Y-94888118D01*
X114442892Y-95129175D01*
X114442890Y-95129187D01*
X114422357Y-95376994D01*
X112786487Y-95376994D01*
X112786487Y-90768994D01*
X114370859Y-90768994D01*
X114370859Y-90769005D01*
X114391385Y-91016729D01*
X114391387Y-91016738D01*
X114452412Y-91257717D01*
X114552266Y-91485364D01*
X114652564Y-91638882D01*
X115352212Y-90939234D01*
X115363482Y-90981292D01*
X115435890Y-91106708D01*
X115538292Y-91209110D01*
X115663708Y-91281518D01*
X115705765Y-91292787D01*
X115005942Y-91992609D01*
X115052768Y-92029055D01*
X115052770Y-92029056D01*
X115271385Y-92147364D01*
X115271396Y-92147369D01*
X115506506Y-92228083D01*
X115751707Y-92269000D01*
X116000293Y-92269000D01*
X116245493Y-92228083D01*
X116480603Y-92147369D01*
X116480614Y-92147364D01*
X116699228Y-92029057D01*
X116699231Y-92029055D01*
X116746056Y-91992609D01*
X116046234Y-91292787D01*
X116088292Y-91281518D01*
X116213708Y-91209110D01*
X116316110Y-91106708D01*
X116388518Y-90981292D01*
X116399787Y-90939235D01*
X117099434Y-91638882D01*
X117199731Y-91485369D01*
X117299587Y-91257717D01*
X117360612Y-91016738D01*
X117360614Y-91016729D01*
X117381141Y-90769005D01*
X117381141Y-90768994D01*
X120870859Y-90768994D01*
X120870859Y-90769005D01*
X120891385Y-91016729D01*
X120891387Y-91016738D01*
X120952412Y-91257717D01*
X121052266Y-91485364D01*
X121152564Y-91638882D01*
X121852212Y-90939234D01*
X121863482Y-90981292D01*
X121935890Y-91106708D01*
X122038292Y-91209110D01*
X122163708Y-91281518D01*
X122205765Y-91292787D01*
X121505942Y-91992609D01*
X121552768Y-92029055D01*
X121552770Y-92029056D01*
X121771385Y-92147364D01*
X121771396Y-92147369D01*
X122006506Y-92228083D01*
X122251707Y-92269000D01*
X122500293Y-92269000D01*
X122745493Y-92228083D01*
X122980603Y-92147369D01*
X122980614Y-92147364D01*
X123199228Y-92029057D01*
X123199231Y-92029055D01*
X123246056Y-91992609D01*
X122546234Y-91292787D01*
X122588292Y-91281518D01*
X122713708Y-91209110D01*
X122816110Y-91106708D01*
X122888518Y-90981292D01*
X122899787Y-90939235D01*
X123599434Y-91638882D01*
X123699731Y-91485369D01*
X123799587Y-91257717D01*
X123860612Y-91016738D01*
X123860614Y-91016729D01*
X123881141Y-90769005D01*
X123881141Y-90768994D01*
X123860614Y-90521270D01*
X123860612Y-90521261D01*
X123799587Y-90280282D01*
X123699731Y-90052630D01*
X123599434Y-89899116D01*
X122899787Y-90598764D01*
X122888518Y-90556708D01*
X122816110Y-90431292D01*
X122713708Y-90328890D01*
X122588292Y-90256482D01*
X122546235Y-90245212D01*
X123246057Y-89545390D01*
X123246056Y-89545389D01*
X123199229Y-89508943D01*
X122980614Y-89390635D01*
X122980603Y-89390630D01*
X122745493Y-89309916D01*
X122500293Y-89269000D01*
X122251707Y-89269000D01*
X122006506Y-89309916D01*
X121771396Y-89390630D01*
X121771390Y-89390632D01*
X121552761Y-89508949D01*
X121505942Y-89545388D01*
X121505942Y-89545390D01*
X122205765Y-90245212D01*
X122163708Y-90256482D01*
X122038292Y-90328890D01*
X121935890Y-90431292D01*
X121863482Y-90556708D01*
X121852212Y-90598764D01*
X121152564Y-89899116D01*
X121052267Y-90052632D01*
X120952412Y-90280282D01*
X120891387Y-90521261D01*
X120891385Y-90521270D01*
X120870859Y-90768994D01*
X117381141Y-90768994D01*
X117360614Y-90521270D01*
X117360612Y-90521261D01*
X117299587Y-90280282D01*
X117199731Y-90052630D01*
X117099434Y-89899116D01*
X116399787Y-90598764D01*
X116388518Y-90556708D01*
X116316110Y-90431292D01*
X116213708Y-90328890D01*
X116088292Y-90256482D01*
X116046235Y-90245212D01*
X116746057Y-89545390D01*
X116746056Y-89545389D01*
X116699229Y-89508943D01*
X116480614Y-89390635D01*
X116480603Y-89390630D01*
X116245493Y-89309916D01*
X116000293Y-89269000D01*
X115751707Y-89269000D01*
X115506506Y-89309916D01*
X115271396Y-89390630D01*
X115271390Y-89390632D01*
X115052761Y-89508949D01*
X115005942Y-89545388D01*
X115005942Y-89545390D01*
X115705765Y-90245212D01*
X115663708Y-90256482D01*
X115538292Y-90328890D01*
X115435890Y-90431292D01*
X115363482Y-90556708D01*
X115352212Y-90598764D01*
X114652564Y-89899116D01*
X114552267Y-90052632D01*
X114452412Y-90280282D01*
X114391387Y-90521261D01*
X114391385Y-90521270D01*
X114370859Y-90768994D01*
X112786487Y-90768994D01*
X112786487Y-86268994D01*
X114370357Y-86268994D01*
X114370357Y-86269005D01*
X114390890Y-86516812D01*
X114390892Y-86516824D01*
X114451936Y-86757881D01*
X114551826Y-86985606D01*
X114687833Y-87193782D01*
X114687836Y-87193785D01*
X114856256Y-87376738D01*
X115052491Y-87529474D01*
X115052493Y-87529475D01*
X115180080Y-87598522D01*
X115271190Y-87647828D01*
X115506386Y-87728571D01*
X115751665Y-87769500D01*
X116000335Y-87769500D01*
X116245614Y-87728571D01*
X116480810Y-87647828D01*
X116699509Y-87529474D01*
X116895744Y-87376738D01*
X117064164Y-87193785D01*
X117200173Y-86985607D01*
X117300063Y-86757881D01*
X117361108Y-86516821D01*
X117363295Y-86490429D01*
X117381643Y-86269005D01*
X117381643Y-86268994D01*
X120870357Y-86268994D01*
X120870357Y-86269005D01*
X120890890Y-86516812D01*
X120890892Y-86516824D01*
X120951936Y-86757881D01*
X121051826Y-86985606D01*
X121187833Y-87193782D01*
X121187836Y-87193785D01*
X121356256Y-87376738D01*
X121552491Y-87529474D01*
X121552493Y-87529475D01*
X121680080Y-87598522D01*
X121771190Y-87647828D01*
X122006386Y-87728571D01*
X122251665Y-87769500D01*
X122500335Y-87769500D01*
X122745614Y-87728571D01*
X122980810Y-87647828D01*
X123199509Y-87529474D01*
X123395744Y-87376738D01*
X123513339Y-87248996D01*
X124543435Y-87248996D01*
X124543435Y-87249003D01*
X124563630Y-87428249D01*
X124563631Y-87428254D01*
X124623211Y-87598523D01*
X124628039Y-87606206D01*
X124719184Y-87751262D01*
X124846738Y-87878816D01*
X124999478Y-87974789D01*
X125102982Y-88011006D01*
X125149709Y-88040367D01*
X125156454Y-88047112D01*
X125271190Y-88123776D01*
X125369790Y-88164617D01*
X125398671Y-88176580D01*
X125398672Y-88176580D01*
X125398677Y-88176582D01*
X125425545Y-88181925D01*
X125425551Y-88181926D01*
X125425591Y-88181934D01*
X125515937Y-88199905D01*
X125534006Y-88203500D01*
X125534007Y-88203500D01*
X129335500Y-88203500D01*
X129402539Y-88223185D01*
X129448294Y-88275989D01*
X129459500Y-88327500D01*
X129459500Y-89797870D01*
X129459501Y-89797876D01*
X129465908Y-89857483D01*
X129516202Y-89992328D01*
X129516206Y-89992335D01*
X129602452Y-90107544D01*
X129602455Y-90107547D01*
X129717664Y-90193793D01*
X129717671Y-90193797D01*
X129849081Y-90242810D01*
X129905015Y-90284681D01*
X129929432Y-90350145D01*
X129914580Y-90418418D01*
X129893430Y-90446673D01*
X129771503Y-90568600D01*
X129635965Y-90762169D01*
X129635964Y-90762171D01*
X129536098Y-90976335D01*
X129536094Y-90976344D01*
X129474938Y-91204586D01*
X129474936Y-91204596D01*
X129454341Y-91439999D01*
X129454341Y-91440000D01*
X129474936Y-91675403D01*
X129474938Y-91675413D01*
X129536094Y-91903655D01*
X129536096Y-91903659D01*
X129536097Y-91903663D01*
X129613317Y-92069262D01*
X129635965Y-92117830D01*
X129635967Y-92117834D01*
X129771501Y-92311395D01*
X129771506Y-92311402D01*
X129938597Y-92478493D01*
X129938603Y-92478498D01*
X130124158Y-92608425D01*
X130167783Y-92663002D01*
X130174977Y-92732500D01*
X130143454Y-92794855D01*
X130124158Y-92811575D01*
X129938597Y-92941505D01*
X129771505Y-93108597D01*
X129635965Y-93302169D01*
X129635964Y-93302171D01*
X129536098Y-93516335D01*
X129536094Y-93516344D01*
X129474938Y-93744586D01*
X129474936Y-93744596D01*
X129454341Y-93979999D01*
X129454341Y-93980000D01*
X129474936Y-94215403D01*
X129474938Y-94215413D01*
X129536094Y-94443655D01*
X129536096Y-94443659D01*
X129536097Y-94443663D01*
X129635847Y-94657578D01*
X129635965Y-94657830D01*
X129635967Y-94657834D01*
X129744281Y-94812521D01*
X129771505Y-94851401D01*
X129938599Y-95018495D01*
X130096683Y-95129187D01*
X130124594Y-95148730D01*
X130168219Y-95203307D01*
X130175413Y-95272805D01*
X130143890Y-95335160D01*
X130124595Y-95351880D01*
X129938922Y-95481890D01*
X129938920Y-95481891D01*
X129771891Y-95648920D01*
X129771886Y-95648926D01*
X129636400Y-95842420D01*
X129636399Y-95842422D01*
X129536570Y-96056507D01*
X129536567Y-96056513D01*
X129479364Y-96269999D01*
X129479364Y-96270000D01*
X130376988Y-96270000D01*
X130344075Y-96327007D01*
X130310000Y-96454174D01*
X130310000Y-96585826D01*
X130344075Y-96712993D01*
X130376988Y-96770000D01*
X129479364Y-96770000D01*
X129536567Y-96983486D01*
X129536570Y-96983492D01*
X129636400Y-97197579D01*
X129639109Y-97202271D01*
X129637685Y-97203092D01*
X129657619Y-97262202D01*
X129640609Y-97329970D01*
X129589661Y-97377783D01*
X129520951Y-97390461D01*
X129456295Y-97363980D01*
X129446036Y-97354801D01*
X127763819Y-95672584D01*
X127730334Y-95611261D01*
X127727500Y-95584903D01*
X127727500Y-93927412D01*
X127747185Y-93860373D01*
X127754555Y-93850097D01*
X127756810Y-93847267D01*
X127756816Y-93847262D01*
X127852789Y-93694522D01*
X127912368Y-93524255D01*
X127912854Y-93519943D01*
X127932565Y-93345003D01*
X127932565Y-93344996D01*
X127912369Y-93165750D01*
X127912368Y-93165745D01*
X127895829Y-93118480D01*
X127852789Y-92995478D01*
X127818875Y-92941505D01*
X127756815Y-92842737D01*
X127629262Y-92715184D01*
X127476523Y-92619211D01*
X127306254Y-92559631D01*
X127306249Y-92559630D01*
X127127004Y-92539435D01*
X127126996Y-92539435D01*
X126947750Y-92559630D01*
X126947745Y-92559631D01*
X126777476Y-92619211D01*
X126624737Y-92715184D01*
X126497184Y-92842737D01*
X126401211Y-92995476D01*
X126341631Y-93165745D01*
X126341630Y-93165750D01*
X126321435Y-93344996D01*
X126321435Y-93345003D01*
X126341630Y-93524249D01*
X126341631Y-93524254D01*
X126401211Y-93694523D01*
X126459323Y-93787007D01*
X126474660Y-93811416D01*
X126497185Y-93847263D01*
X126499445Y-93850097D01*
X126500334Y-93852275D01*
X126500889Y-93853158D01*
X126500734Y-93853255D01*
X126525855Y-93914783D01*
X126526500Y-93927412D01*
X126526500Y-95798330D01*
X126526499Y-95798348D01*
X126526499Y-95964054D01*
X126526498Y-95964054D01*
X126567424Y-96116789D01*
X126567425Y-96116790D01*
X126587340Y-96151283D01*
X126587341Y-96151284D01*
X126646477Y-96253712D01*
X126646481Y-96253717D01*
X126765349Y-96372585D01*
X126765355Y-96372590D01*
X127583856Y-97191091D01*
X127617341Y-97252414D01*
X127612357Y-97322106D01*
X127570485Y-97378039D01*
X127562148Y-97383765D01*
X127513740Y-97414182D01*
X127513737Y-97414184D01*
X127386184Y-97541737D01*
X127290211Y-97694476D01*
X127230631Y-97864745D01*
X127230630Y-97864750D01*
X127210435Y-98043996D01*
X127210435Y-98044003D01*
X127230630Y-98223249D01*
X127230631Y-98223254D01*
X127290211Y-98393523D01*
X127313298Y-98430265D01*
X127386184Y-98546262D01*
X127513738Y-98673816D01*
X127579514Y-98715145D01*
X127601221Y-98732457D01*
X127654349Y-98785585D01*
X127654355Y-98785590D01*
X130706139Y-101837374D01*
X130706149Y-101837385D01*
X130710479Y-101841715D01*
X130710480Y-101841716D01*
X130822284Y-101953520D01*
X130908359Y-102003215D01*
X130908360Y-102003216D01*
X130959209Y-102032574D01*
X130959210Y-102032574D01*
X130959215Y-102032577D01*
X131111942Y-102073500D01*
X131111943Y-102073500D01*
X139371588Y-102073500D01*
X139438627Y-102093185D01*
X139448903Y-102100555D01*
X139451736Y-102102814D01*
X139451738Y-102102816D01*
X139604478Y-102198789D01*
X139736439Y-102244964D01*
X139774745Y-102258368D01*
X139774750Y-102258369D01*
X139953996Y-102278565D01*
X139954000Y-102278565D01*
X139954004Y-102278565D01*
X140133249Y-102258369D01*
X140133252Y-102258368D01*
X140133255Y-102258368D01*
X140303522Y-102198789D01*
X140456262Y-102102816D01*
X140583816Y-101975262D01*
X140679789Y-101822522D01*
X140739368Y-101652255D01*
X140743211Y-101618143D01*
X140770276Y-101553733D01*
X140827870Y-101514176D01*
X140897707Y-101512037D01*
X140954111Y-101544346D01*
X141295240Y-101885476D01*
X141595197Y-102185433D01*
X141628682Y-102246756D01*
X141624558Y-102314068D01*
X141581632Y-102436742D01*
X141581630Y-102436750D01*
X141561435Y-102615996D01*
X141561435Y-102616003D01*
X141581630Y-102795249D01*
X141581631Y-102795254D01*
X141641211Y-102965523D01*
X141737184Y-103118262D01*
X141864738Y-103245816D01*
X142017478Y-103341789D01*
X142187745Y-103401368D01*
X142187750Y-103401369D01*
X142366996Y-103421565D01*
X142367000Y-103421565D01*
X142367004Y-103421565D01*
X142546249Y-103401369D01*
X142546252Y-103401368D01*
X142546255Y-103401368D01*
X142716522Y-103341789D01*
X142869262Y-103245816D01*
X142996816Y-103118262D01*
X143092789Y-102965522D01*
X143152368Y-102795255D01*
X143152369Y-102795249D01*
X143172565Y-102616003D01*
X143172565Y-102615996D01*
X143152369Y-102436750D01*
X143152368Y-102436745D01*
X143143315Y-102410873D01*
X143139754Y-102341094D01*
X143174483Y-102280466D01*
X143194378Y-102264929D01*
X143250262Y-102229816D01*
X143377816Y-102102262D01*
X143473789Y-101949522D01*
X143533368Y-101779255D01*
X143538609Y-101732738D01*
X143553565Y-101600003D01*
X143553565Y-101599996D01*
X143533369Y-101420750D01*
X143533368Y-101420745D01*
X143487987Y-101291054D01*
X143473789Y-101250478D01*
X143377816Y-101097738D01*
X143377814Y-101097736D01*
X143377813Y-101097734D01*
X143375550Y-101094896D01*
X143374659Y-101092715D01*
X143374111Y-101091842D01*
X143374264Y-101091745D01*
X143349144Y-101030209D01*
X143348500Y-101017587D01*
X143348500Y-99784059D01*
X143348501Y-99784046D01*
X143348501Y-99615945D01*
X143348501Y-99615943D01*
X143307577Y-99463215D01*
X143264220Y-99388119D01*
X143228520Y-99326284D01*
X143116716Y-99214480D01*
X143116715Y-99214479D01*
X143112385Y-99210149D01*
X143112374Y-99210139D01*
X142368819Y-98466584D01*
X142346112Y-98424999D01*
X147361341Y-98424999D01*
X147361341Y-98425000D01*
X147381936Y-98660403D01*
X147381938Y-98660413D01*
X147443094Y-98888655D01*
X147443096Y-98888659D01*
X147443097Y-98888663D01*
X147517265Y-99047716D01*
X147542965Y-99102830D01*
X147542967Y-99102834D01*
X147621142Y-99214478D01*
X147678505Y-99296401D01*
X147845599Y-99463495D01*
X147922135Y-99517086D01*
X148039165Y-99599032D01*
X148039167Y-99599033D01*
X148039170Y-99599035D01*
X148253337Y-99698903D01*
X148481592Y-99760063D01*
X148652319Y-99775000D01*
X148716999Y-99780659D01*
X148717000Y-99780659D01*
X148717001Y-99780659D01*
X148781681Y-99775000D01*
X148952408Y-99760063D01*
X149180663Y-99698903D01*
X149394830Y-99599035D01*
X149588401Y-99463495D01*
X149755495Y-99296401D01*
X149885425Y-99110842D01*
X149940002Y-99067217D01*
X150009500Y-99060023D01*
X150071855Y-99091546D01*
X150088575Y-99110842D01*
X150218500Y-99296395D01*
X150218505Y-99296401D01*
X150385599Y-99463495D01*
X150462135Y-99517086D01*
X150579165Y-99599032D01*
X150579167Y-99599033D01*
X150579170Y-99599035D01*
X150793337Y-99698903D01*
X151021592Y-99760063D01*
X151192319Y-99775000D01*
X151256999Y-99780659D01*
X151257000Y-99780659D01*
X151257001Y-99780659D01*
X151321681Y-99775000D01*
X151492408Y-99760063D01*
X151720663Y-99698903D01*
X151934830Y-99599035D01*
X152128401Y-99463495D01*
X152295495Y-99296401D01*
X152425425Y-99110842D01*
X152480002Y-99067217D01*
X152549500Y-99060023D01*
X152611855Y-99091546D01*
X152628575Y-99110842D01*
X152758500Y-99296395D01*
X152758505Y-99296401D01*
X152925599Y-99463495D01*
X153002135Y-99517086D01*
X153119165Y-99599032D01*
X153119167Y-99599033D01*
X153119170Y-99599035D01*
X153333337Y-99698903D01*
X153561592Y-99760063D01*
X153732319Y-99775000D01*
X153796999Y-99780659D01*
X153797000Y-99780659D01*
X153797001Y-99780659D01*
X153861681Y-99775000D01*
X154032408Y-99760063D01*
X154260663Y-99698903D01*
X154410096Y-99629220D01*
X154479172Y-99618729D01*
X154542956Y-99647249D01*
X154581196Y-99705725D01*
X154586500Y-99741603D01*
X154586500Y-101125330D01*
X154586499Y-101125348D01*
X154586499Y-101291054D01*
X154586498Y-101291054D01*
X154627423Y-101443785D01*
X154656358Y-101493900D01*
X154656359Y-101493904D01*
X154656360Y-101493904D01*
X154706479Y-101580714D01*
X154706481Y-101580717D01*
X154825349Y-101699585D01*
X154825355Y-101699590D01*
X155379298Y-102253533D01*
X155412783Y-102314856D01*
X155414837Y-102327330D01*
X155424630Y-102414249D01*
X155484210Y-102584521D01*
X155580184Y-102737262D01*
X155707738Y-102864816D01*
X155860478Y-102960789D01*
X156030745Y-103020368D01*
X156030750Y-103020369D01*
X156209996Y-103040565D01*
X156210000Y-103040565D01*
X156210004Y-103040565D01*
X156389249Y-103020369D01*
X156389252Y-103020368D01*
X156389255Y-103020368D01*
X156559522Y-102960789D01*
X156712262Y-102864816D01*
X156839816Y-102737262D01*
X156935789Y-102584522D01*
X156995368Y-102414255D01*
X156995749Y-102410873D01*
X157015565Y-102235003D01*
X157015565Y-102234996D01*
X156995369Y-102055750D01*
X156995368Y-102055745D01*
X156958199Y-101949522D01*
X156935789Y-101885478D01*
X156908291Y-101841716D01*
X156870247Y-101781169D01*
X156839816Y-101732738D01*
X156712262Y-101605184D01*
X156559521Y-101509210D01*
X156389249Y-101449630D01*
X156302330Y-101439837D01*
X156237916Y-101412770D01*
X156228533Y-101404298D01*
X155823819Y-100999584D01*
X155790334Y-100938261D01*
X155787500Y-100911903D01*
X155787500Y-99837503D01*
X155807185Y-99770464D01*
X155859989Y-99724709D01*
X155929147Y-99714765D01*
X155943593Y-99717728D01*
X155969647Y-99724709D01*
X156101592Y-99760063D01*
X156272319Y-99775000D01*
X156336999Y-99780659D01*
X156337000Y-99780659D01*
X156337001Y-99780659D01*
X156401681Y-99775000D01*
X156572408Y-99760063D01*
X156800663Y-99698903D01*
X157014830Y-99599035D01*
X157208401Y-99463495D01*
X157330717Y-99341178D01*
X157392036Y-99307696D01*
X157461728Y-99312680D01*
X157517662Y-99354551D01*
X157534577Y-99385528D01*
X157583646Y-99517088D01*
X157583649Y-99517093D01*
X157669809Y-99632187D01*
X157669812Y-99632190D01*
X157784906Y-99718350D01*
X157784913Y-99718354D01*
X157919620Y-99768596D01*
X157919627Y-99768598D01*
X157979155Y-99774999D01*
X157979172Y-99775000D01*
X158627000Y-99775000D01*
X158627000Y-98858012D01*
X158684007Y-98890925D01*
X158811174Y-98925000D01*
X158942826Y-98925000D01*
X159069993Y-98890925D01*
X159127000Y-98858012D01*
X159127000Y-99775000D01*
X159774828Y-99775000D01*
X159774844Y-99774999D01*
X159834372Y-99768598D01*
X159834379Y-99768596D01*
X159969086Y-99718354D01*
X159969093Y-99718350D01*
X160084187Y-99632190D01*
X160084190Y-99632187D01*
X160170350Y-99517093D01*
X160170354Y-99517086D01*
X160220596Y-99382379D01*
X160220598Y-99382372D01*
X160226999Y-99322844D01*
X160227000Y-99322827D01*
X160227000Y-98675000D01*
X159310012Y-98675000D01*
X159342925Y-98617993D01*
X159377000Y-98490826D01*
X159377000Y-98359174D01*
X159342925Y-98232007D01*
X159310012Y-98175000D01*
X160227000Y-98175000D01*
X160227000Y-97527172D01*
X160226999Y-97527155D01*
X160220598Y-97467627D01*
X160220596Y-97467620D01*
X160170354Y-97332913D01*
X160170350Y-97332906D01*
X160084190Y-97217812D01*
X160084187Y-97217809D01*
X159969093Y-97131649D01*
X159969086Y-97131645D01*
X159834379Y-97081403D01*
X159834372Y-97081401D01*
X159774844Y-97075000D01*
X159127000Y-97075000D01*
X159127000Y-97991988D01*
X159069993Y-97959075D01*
X158942826Y-97925000D01*
X158811174Y-97925000D01*
X158684007Y-97959075D01*
X158627000Y-97991988D01*
X158627000Y-97075000D01*
X157979155Y-97075000D01*
X157919627Y-97081401D01*
X157919620Y-97081403D01*
X157784913Y-97131645D01*
X157784906Y-97131649D01*
X157669812Y-97217809D01*
X157669809Y-97217812D01*
X157583649Y-97332906D01*
X157583645Y-97332913D01*
X157534578Y-97464470D01*
X157492707Y-97520404D01*
X157427242Y-97544821D01*
X157358969Y-97529969D01*
X157330715Y-97508819D01*
X157286366Y-97464470D01*
X157208401Y-97386505D01*
X157208397Y-97386502D01*
X157208396Y-97386501D01*
X157014834Y-97250967D01*
X157014830Y-97250965D01*
X156912166Y-97203092D01*
X156800663Y-97151097D01*
X156800659Y-97151096D01*
X156800655Y-97151094D01*
X156572413Y-97089938D01*
X156572403Y-97089936D01*
X156337001Y-97069341D01*
X156336999Y-97069341D01*
X156101596Y-97089936D01*
X156101583Y-97089939D01*
X156021629Y-97111362D01*
X155951780Y-97109699D01*
X155893917Y-97070536D01*
X155866414Y-97006307D01*
X155878001Y-96937405D01*
X155884544Y-96925614D01*
X155919788Y-96869524D01*
X155931319Y-96836570D01*
X155979368Y-96699255D01*
X155986329Y-96637474D01*
X155999565Y-96520003D01*
X155999565Y-96519996D01*
X155979369Y-96340750D01*
X155979368Y-96340745D01*
X155954613Y-96269999D01*
X155919789Y-96170478D01*
X155823816Y-96017738D01*
X155696262Y-95890184D01*
X155657584Y-95865881D01*
X155543523Y-95794211D01*
X155373254Y-95734631D01*
X155373249Y-95734630D01*
X155194004Y-95714435D01*
X155193996Y-95714435D01*
X155014750Y-95734630D01*
X155014745Y-95734631D01*
X154844476Y-95794211D01*
X154691737Y-95890184D01*
X154564184Y-96017737D01*
X154468211Y-96170476D01*
X154408631Y-96340745D01*
X154408630Y-96340750D01*
X154388435Y-96519996D01*
X154388435Y-96520003D01*
X154408630Y-96699249D01*
X154408631Y-96699254D01*
X154456681Y-96836571D01*
X154468211Y-96869522D01*
X154564184Y-97022262D01*
X154564185Y-97022263D01*
X154567494Y-97027529D01*
X154586500Y-97093501D01*
X154586500Y-97108396D01*
X154566815Y-97175435D01*
X154514011Y-97221190D01*
X154444853Y-97231134D01*
X154410096Y-97220778D01*
X154260669Y-97151099D01*
X154260655Y-97151094D01*
X154032413Y-97089938D01*
X154032403Y-97089936D01*
X153797001Y-97069341D01*
X153796999Y-97069341D01*
X153561596Y-97089936D01*
X153561586Y-97089938D01*
X153333344Y-97151094D01*
X153333335Y-97151098D01*
X153119171Y-97250964D01*
X153119169Y-97250965D01*
X152925597Y-97386505D01*
X152758505Y-97553597D01*
X152628575Y-97739158D01*
X152573998Y-97782783D01*
X152504500Y-97789977D01*
X152442145Y-97758454D01*
X152425425Y-97739158D01*
X152295494Y-97553597D01*
X152128402Y-97386506D01*
X152128395Y-97386501D01*
X151934834Y-97250967D01*
X151934830Y-97250965D01*
X151832166Y-97203092D01*
X151720663Y-97151097D01*
X151720659Y-97151096D01*
X151720655Y-97151094D01*
X151492413Y-97089938D01*
X151492403Y-97089936D01*
X151257001Y-97069341D01*
X151256999Y-97069341D01*
X151021596Y-97089936D01*
X151021586Y-97089938D01*
X150793344Y-97151094D01*
X150793335Y-97151098D01*
X150579171Y-97250964D01*
X150579169Y-97250965D01*
X150385597Y-97386505D01*
X150218505Y-97553597D01*
X150088575Y-97739158D01*
X150033998Y-97782783D01*
X149964500Y-97789977D01*
X149902145Y-97758454D01*
X149885425Y-97739158D01*
X149755494Y-97553597D01*
X149588402Y-97386506D01*
X149588395Y-97386501D01*
X149394834Y-97250967D01*
X149394830Y-97250965D01*
X149292166Y-97203092D01*
X149180663Y-97151097D01*
X149180659Y-97151096D01*
X149180655Y-97151094D01*
X148952413Y-97089938D01*
X148952403Y-97089936D01*
X148717001Y-97069341D01*
X148716999Y-97069341D01*
X148481596Y-97089936D01*
X148481586Y-97089938D01*
X148253344Y-97151094D01*
X148253335Y-97151098D01*
X148039171Y-97250964D01*
X148039169Y-97250965D01*
X147845597Y-97386505D01*
X147678505Y-97553597D01*
X147542965Y-97747169D01*
X147542964Y-97747171D01*
X147443098Y-97961335D01*
X147443094Y-97961344D01*
X147381938Y-98189586D01*
X147381936Y-98189596D01*
X147361341Y-98424999D01*
X142346112Y-98424999D01*
X142335334Y-98405261D01*
X142332500Y-98378903D01*
X142332500Y-93688059D01*
X142332501Y-93688046D01*
X142332501Y-93519945D01*
X142332501Y-93519943D01*
X142291577Y-93367215D01*
X142270190Y-93330174D01*
X142257844Y-93308788D01*
X142257843Y-93308787D01*
X142212521Y-93230286D01*
X142212520Y-93230284D01*
X142100716Y-93118480D01*
X142100715Y-93118479D01*
X142096385Y-93114149D01*
X142096374Y-93114139D01*
X141203590Y-92221355D01*
X141203588Y-92221352D01*
X141084717Y-92102481D01*
X141084709Y-92102475D01*
X140982936Y-92043717D01*
X140982934Y-92043716D01*
X140947790Y-92023425D01*
X140947789Y-92023424D01*
X140935263Y-92020067D01*
X140795057Y-91982499D01*
X140636943Y-91982499D01*
X140629347Y-91982499D01*
X140629331Y-91982500D01*
X140409412Y-91982500D01*
X140342373Y-91962815D01*
X140332097Y-91955445D01*
X140329263Y-91953185D01*
X140329262Y-91953184D01*
X140270915Y-91916522D01*
X140176523Y-91857211D01*
X140006254Y-91797631D01*
X140006249Y-91797630D01*
X139862160Y-91781396D01*
X139797746Y-91754330D01*
X139768657Y-91720178D01*
X139757639Y-91701095D01*
X139757637Y-91701092D01*
X139707520Y-91614284D01*
X139641700Y-91548464D01*
X139608215Y-91487141D01*
X139606163Y-91474684D01*
X139602255Y-91439999D01*
X156632341Y-91439999D01*
X156632341Y-91440000D01*
X156652936Y-91675403D01*
X156652938Y-91675413D01*
X156714094Y-91903655D01*
X156714096Y-91903659D01*
X156714097Y-91903663D01*
X156791317Y-92069262D01*
X156813965Y-92117830D01*
X156813967Y-92117834D01*
X156949501Y-92311395D01*
X156949506Y-92311402D01*
X157116597Y-92478493D01*
X157116603Y-92478498D01*
X157302594Y-92608730D01*
X157346219Y-92663307D01*
X157353413Y-92732805D01*
X157321890Y-92795160D01*
X157302595Y-92811880D01*
X157116922Y-92941890D01*
X157116920Y-92941891D01*
X156949891Y-93108920D01*
X156949886Y-93108926D01*
X156814400Y-93302420D01*
X156814399Y-93302422D01*
X156714570Y-93516507D01*
X156714567Y-93516513D01*
X156657364Y-93729999D01*
X156657364Y-93730000D01*
X157554988Y-93730000D01*
X157522075Y-93787007D01*
X157488000Y-93914174D01*
X157488000Y-94045826D01*
X157522075Y-94172993D01*
X157554988Y-94230000D01*
X156657364Y-94230000D01*
X156714567Y-94443486D01*
X156714570Y-94443492D01*
X156814399Y-94657578D01*
X156949894Y-94851082D01*
X157116917Y-95018105D01*
X157310421Y-95153600D01*
X157524507Y-95253429D01*
X157524516Y-95253433D01*
X157738000Y-95310634D01*
X157738000Y-94413012D01*
X157795007Y-94445925D01*
X157922174Y-94480000D01*
X158053826Y-94480000D01*
X158180993Y-94445925D01*
X158238000Y-94413012D01*
X158238000Y-95310633D01*
X158451483Y-95253433D01*
X158451492Y-95253429D01*
X158665578Y-95153600D01*
X158859082Y-95018105D01*
X159026105Y-94851082D01*
X159161600Y-94657578D01*
X159261429Y-94443492D01*
X159261432Y-94443486D01*
X159318636Y-94230000D01*
X158421012Y-94230000D01*
X158453925Y-94172993D01*
X158488000Y-94045826D01*
X158488000Y-93914174D01*
X158453925Y-93787007D01*
X158421012Y-93730000D01*
X159318636Y-93730000D01*
X159318635Y-93729999D01*
X159261432Y-93516513D01*
X159261429Y-93516507D01*
X159161600Y-93302422D01*
X159161599Y-93302420D01*
X159026113Y-93108926D01*
X159026108Y-93108920D01*
X158859078Y-92941890D01*
X158673405Y-92811879D01*
X158629780Y-92757302D01*
X158622588Y-92687804D01*
X158654110Y-92625449D01*
X158673406Y-92608730D01*
X158743525Y-92559632D01*
X158859401Y-92478495D01*
X159026495Y-92311401D01*
X159162035Y-92117830D01*
X159261903Y-91903663D01*
X159323063Y-91675408D01*
X159343659Y-91440000D01*
X159343659Y-91439999D01*
X160315341Y-91439999D01*
X160315341Y-91440000D01*
X160335936Y-91675403D01*
X160335938Y-91675413D01*
X160397094Y-91903655D01*
X160397096Y-91903659D01*
X160397097Y-91903663D01*
X160474317Y-92069262D01*
X160496965Y-92117830D01*
X160496967Y-92117834D01*
X160632501Y-92311395D01*
X160632506Y-92311402D01*
X160799597Y-92478493D01*
X160799603Y-92478498D01*
X160985594Y-92608730D01*
X161029219Y-92663307D01*
X161036413Y-92732805D01*
X161004890Y-92795160D01*
X160985595Y-92811880D01*
X160799922Y-92941890D01*
X160799920Y-92941891D01*
X160632891Y-93108920D01*
X160632886Y-93108926D01*
X160497400Y-93302420D01*
X160497399Y-93302422D01*
X160397570Y-93516507D01*
X160397567Y-93516513D01*
X160340364Y-93729999D01*
X160340364Y-93730000D01*
X161237988Y-93730000D01*
X161205075Y-93787007D01*
X161171000Y-93914174D01*
X161171000Y-94045826D01*
X161205075Y-94172993D01*
X161237988Y-94230000D01*
X160340364Y-94230000D01*
X160397567Y-94443486D01*
X160397570Y-94443492D01*
X160497399Y-94657578D01*
X160632894Y-94851082D01*
X160799917Y-95018105D01*
X160993421Y-95153600D01*
X161207507Y-95253429D01*
X161207516Y-95253433D01*
X161421000Y-95310634D01*
X161421000Y-94413012D01*
X161478007Y-94445925D01*
X161605174Y-94480000D01*
X161736826Y-94480000D01*
X161863993Y-94445925D01*
X161921000Y-94413012D01*
X161921000Y-95310633D01*
X162134483Y-95253433D01*
X162134492Y-95253429D01*
X162348578Y-95153600D01*
X162542082Y-95018105D01*
X162709105Y-94851082D01*
X162844600Y-94657578D01*
X162944429Y-94443492D01*
X162944432Y-94443486D01*
X163001636Y-94230000D01*
X162104012Y-94230000D01*
X162136925Y-94172993D01*
X162171000Y-94045826D01*
X162171000Y-93914174D01*
X162136925Y-93787007D01*
X162104012Y-93730000D01*
X163001636Y-93730000D01*
X163001635Y-93729999D01*
X162944432Y-93516513D01*
X162944429Y-93516507D01*
X162844600Y-93302422D01*
X162844599Y-93302420D01*
X162709113Y-93108926D01*
X162709108Y-93108920D01*
X162542078Y-92941890D01*
X162356405Y-92811879D01*
X162312780Y-92757302D01*
X162305588Y-92687804D01*
X162337110Y-92625449D01*
X162356406Y-92608730D01*
X162426525Y-92559632D01*
X162542401Y-92478495D01*
X162709495Y-92311401D01*
X162845035Y-92117830D01*
X162944903Y-91903663D01*
X163006063Y-91675408D01*
X163026659Y-91440000D01*
X163006063Y-91204592D01*
X162944903Y-90976337D01*
X162845035Y-90762171D01*
X162709495Y-90568599D01*
X162587567Y-90446671D01*
X162554084Y-90385351D01*
X162559068Y-90315659D01*
X162600939Y-90259725D01*
X162631915Y-90242810D01*
X162763331Y-90193796D01*
X162878546Y-90107546D01*
X162964796Y-89992331D01*
X163015091Y-89857483D01*
X163021500Y-89797873D01*
X163021499Y-88002128D01*
X163015091Y-87942517D01*
X163006771Y-87920211D01*
X162964797Y-87807671D01*
X162964793Y-87807664D01*
X162878547Y-87692455D01*
X162878544Y-87692452D01*
X162763335Y-87606206D01*
X162763328Y-87606202D01*
X162628482Y-87555908D01*
X162628483Y-87555908D01*
X162568883Y-87549501D01*
X162568881Y-87549500D01*
X162568873Y-87549500D01*
X162568864Y-87549500D01*
X160773129Y-87549500D01*
X160773123Y-87549501D01*
X160713516Y-87555908D01*
X160578671Y-87606202D01*
X160578664Y-87606206D01*
X160463455Y-87692452D01*
X160463452Y-87692455D01*
X160377206Y-87807664D01*
X160377202Y-87807671D01*
X160326908Y-87942517D01*
X160323439Y-87974788D01*
X160320501Y-88002123D01*
X160320500Y-88002135D01*
X160320500Y-89797870D01*
X160320501Y-89797876D01*
X160326908Y-89857483D01*
X160377202Y-89992328D01*
X160377206Y-89992335D01*
X160463452Y-90107544D01*
X160463455Y-90107547D01*
X160578664Y-90193793D01*
X160578671Y-90193797D01*
X160710081Y-90242810D01*
X160766015Y-90284681D01*
X160790432Y-90350145D01*
X160775580Y-90418418D01*
X160754430Y-90446673D01*
X160632503Y-90568600D01*
X160496965Y-90762169D01*
X160496964Y-90762171D01*
X160397098Y-90976335D01*
X160397094Y-90976344D01*
X160335938Y-91204586D01*
X160335936Y-91204596D01*
X160315341Y-91439999D01*
X159343659Y-91439999D01*
X159323063Y-91204592D01*
X159261903Y-90976337D01*
X159162035Y-90762171D01*
X159026495Y-90568599D01*
X158904567Y-90446671D01*
X158871084Y-90385351D01*
X158876068Y-90315659D01*
X158917939Y-90259725D01*
X158948915Y-90242810D01*
X159080331Y-90193796D01*
X159195546Y-90107546D01*
X159281796Y-89992331D01*
X159332091Y-89857483D01*
X159338500Y-89797873D01*
X159338499Y-88002128D01*
X159332091Y-87942517D01*
X159323771Y-87920211D01*
X159281797Y-87807671D01*
X159281793Y-87807664D01*
X159195547Y-87692455D01*
X159195544Y-87692452D01*
X159080335Y-87606206D01*
X159080328Y-87606202D01*
X158945482Y-87555908D01*
X158945483Y-87555908D01*
X158885883Y-87549501D01*
X158885881Y-87549500D01*
X158885873Y-87549500D01*
X158885864Y-87549500D01*
X157090129Y-87549500D01*
X157090123Y-87549501D01*
X157030516Y-87555908D01*
X156895671Y-87606202D01*
X156895664Y-87606206D01*
X156780455Y-87692452D01*
X156780452Y-87692455D01*
X156694206Y-87807664D01*
X156694202Y-87807671D01*
X156643908Y-87942517D01*
X156640439Y-87974788D01*
X156637501Y-88002123D01*
X156637500Y-88002135D01*
X156637500Y-89797870D01*
X156637501Y-89797876D01*
X156643908Y-89857483D01*
X156694202Y-89992328D01*
X156694206Y-89992335D01*
X156780452Y-90107544D01*
X156780455Y-90107547D01*
X156895664Y-90193793D01*
X156895671Y-90193797D01*
X157027081Y-90242810D01*
X157083015Y-90284681D01*
X157107432Y-90350145D01*
X157092580Y-90418418D01*
X157071430Y-90446673D01*
X156949503Y-90568600D01*
X156813965Y-90762169D01*
X156813964Y-90762171D01*
X156714098Y-90976335D01*
X156714094Y-90976344D01*
X156652938Y-91204586D01*
X156652936Y-91204596D01*
X156632341Y-91439999D01*
X139602255Y-91439999D01*
X139596368Y-91387745D01*
X139536789Y-91217478D01*
X139528688Y-91204586D01*
X139497582Y-91155080D01*
X139440816Y-91064738D01*
X139313262Y-90937184D01*
X139160523Y-90841211D01*
X138990254Y-90781631D01*
X138990249Y-90781630D01*
X138811004Y-90761435D01*
X138810996Y-90761435D01*
X138631750Y-90781630D01*
X138631745Y-90781631D01*
X138461476Y-90841211D01*
X138308737Y-90937184D01*
X138181184Y-91064737D01*
X138085211Y-91217476D01*
X138025631Y-91387745D01*
X138025630Y-91387750D01*
X138005435Y-91566996D01*
X138005435Y-91567003D01*
X138025630Y-91746249D01*
X138025631Y-91746254D01*
X138085211Y-91916523D01*
X138155920Y-92029055D01*
X138181184Y-92069262D01*
X138308738Y-92196816D01*
X138461478Y-92292789D01*
X138543454Y-92321473D01*
X138600230Y-92362195D01*
X138625978Y-92427147D01*
X138626500Y-92438515D01*
X138626500Y-98881330D01*
X138626499Y-98881348D01*
X138626499Y-99047054D01*
X138626498Y-99047054D01*
X138656867Y-99160393D01*
X138667423Y-99199785D01*
X138689820Y-99238577D01*
X138732603Y-99312680D01*
X138746479Y-99336714D01*
X138746481Y-99336717D01*
X138865349Y-99455585D01*
X138865355Y-99455590D01*
X138985518Y-99575753D01*
X139019003Y-99637076D01*
X139014019Y-99706768D01*
X138972147Y-99762701D01*
X138906683Y-99787118D01*
X138883954Y-99786654D01*
X138811004Y-99778435D01*
X138810996Y-99778435D01*
X138631753Y-99798630D01*
X138631747Y-99798631D01*
X138486252Y-99849542D01*
X138445298Y-99856500D01*
X131999097Y-99856500D01*
X131932058Y-99836815D01*
X131911416Y-99820181D01*
X129975198Y-97883963D01*
X129941713Y-97822640D01*
X129946697Y-97752948D01*
X129988569Y-97697015D01*
X130054033Y-97672598D01*
X130122306Y-97687450D01*
X130129493Y-97691909D01*
X130132420Y-97693599D01*
X130346507Y-97793429D01*
X130346516Y-97793433D01*
X130560000Y-97850634D01*
X130560000Y-96953012D01*
X130617007Y-96985925D01*
X130744174Y-97020000D01*
X130875826Y-97020000D01*
X131002993Y-96985925D01*
X131060000Y-96953012D01*
X131060000Y-97850633D01*
X131273483Y-97793433D01*
X131273492Y-97793429D01*
X131487578Y-97693600D01*
X131681082Y-97558105D01*
X131848105Y-97391082D01*
X131983600Y-97197578D01*
X132083429Y-96983492D01*
X132083432Y-96983486D01*
X132140636Y-96770000D01*
X131243012Y-96770000D01*
X131275925Y-96712993D01*
X131310000Y-96585826D01*
X131310000Y-96454174D01*
X131275925Y-96327007D01*
X131243012Y-96270000D01*
X132140636Y-96270000D01*
X132140635Y-96269999D01*
X132083432Y-96056513D01*
X132083429Y-96056507D01*
X131983600Y-95842422D01*
X131983599Y-95842420D01*
X131848113Y-95648926D01*
X131848108Y-95648920D01*
X131681078Y-95481890D01*
X131495405Y-95351879D01*
X131451780Y-95297302D01*
X131444588Y-95227804D01*
X131476110Y-95165449D01*
X131495406Y-95148730D01*
X131681401Y-95018495D01*
X131848495Y-94851401D01*
X131984035Y-94657830D01*
X132083903Y-94443663D01*
X132145063Y-94215408D01*
X132165659Y-93980000D01*
X132145063Y-93744592D01*
X132083903Y-93516337D01*
X131984035Y-93302171D01*
X131933700Y-93230284D01*
X131848494Y-93108597D01*
X131681402Y-92941506D01*
X131681396Y-92941501D01*
X131495842Y-92811575D01*
X131452217Y-92756998D01*
X131445023Y-92687500D01*
X131476546Y-92625145D01*
X131495842Y-92608425D01*
X131565528Y-92559630D01*
X131681401Y-92478495D01*
X131848495Y-92311401D01*
X131984035Y-92117830D01*
X132083903Y-91903663D01*
X132145063Y-91675408D01*
X132165659Y-91440000D01*
X132145063Y-91204592D01*
X132083903Y-90976337D01*
X131984035Y-90762171D01*
X131848495Y-90568599D01*
X131726567Y-90446671D01*
X131693084Y-90385351D01*
X131698068Y-90315659D01*
X131739939Y-90259725D01*
X131770915Y-90242810D01*
X131902331Y-90193796D01*
X132017546Y-90107546D01*
X132103796Y-89992331D01*
X132154091Y-89857483D01*
X132160500Y-89797873D01*
X132160499Y-88327499D01*
X132180184Y-88260461D01*
X132232987Y-88214706D01*
X132284499Y-88203500D01*
X133145500Y-88203500D01*
X133212539Y-88223185D01*
X133258294Y-88275989D01*
X133269500Y-88327500D01*
X133269500Y-89797870D01*
X133269501Y-89797876D01*
X133275908Y-89857483D01*
X133326202Y-89992328D01*
X133326206Y-89992335D01*
X133412452Y-90107544D01*
X133412455Y-90107547D01*
X133527664Y-90193793D01*
X133527671Y-90193797D01*
X133659081Y-90242810D01*
X133715015Y-90284681D01*
X133739432Y-90350145D01*
X133724580Y-90418418D01*
X133703430Y-90446673D01*
X133581503Y-90568600D01*
X133445965Y-90762169D01*
X133445964Y-90762171D01*
X133346098Y-90976335D01*
X133346094Y-90976344D01*
X133284938Y-91204586D01*
X133284936Y-91204596D01*
X133264341Y-91439999D01*
X133264341Y-91440000D01*
X133284936Y-91675403D01*
X133284938Y-91675413D01*
X133346094Y-91903655D01*
X133346096Y-91903659D01*
X133346097Y-91903663D01*
X133423317Y-92069262D01*
X133445965Y-92117830D01*
X133445967Y-92117834D01*
X133581501Y-92311395D01*
X133581506Y-92311402D01*
X133748597Y-92478493D01*
X133748603Y-92478498D01*
X133934158Y-92608425D01*
X133977783Y-92663002D01*
X133984977Y-92732500D01*
X133953454Y-92794855D01*
X133934158Y-92811575D01*
X133748597Y-92941505D01*
X133581505Y-93108597D01*
X133445965Y-93302169D01*
X133445964Y-93302171D01*
X133346098Y-93516335D01*
X133346094Y-93516344D01*
X133284938Y-93744586D01*
X133284936Y-93744596D01*
X133264341Y-93979999D01*
X133264341Y-93980000D01*
X133284936Y-94215403D01*
X133284938Y-94215413D01*
X133346094Y-94443655D01*
X133346096Y-94443659D01*
X133346097Y-94443663D01*
X133445847Y-94657578D01*
X133445965Y-94657830D01*
X133445967Y-94657834D01*
X133554281Y-94812521D01*
X133581505Y-94851401D01*
X133748599Y-95018495D01*
X133906683Y-95129187D01*
X133934594Y-95148730D01*
X133978219Y-95203307D01*
X133985413Y-95272805D01*
X133953890Y-95335160D01*
X133934595Y-95351880D01*
X133748922Y-95481890D01*
X133748920Y-95481891D01*
X133581891Y-95648920D01*
X133581886Y-95648926D01*
X133446400Y-95842420D01*
X133446399Y-95842422D01*
X133346570Y-96056507D01*
X133346567Y-96056513D01*
X133289364Y-96269999D01*
X133289364Y-96270000D01*
X134186988Y-96270000D01*
X134154075Y-96327007D01*
X134120000Y-96454174D01*
X134120000Y-96585826D01*
X134154075Y-96712993D01*
X134186988Y-96770000D01*
X133289364Y-96770000D01*
X133346567Y-96983486D01*
X133346570Y-96983492D01*
X133446399Y-97197578D01*
X133581894Y-97391082D01*
X133748917Y-97558105D01*
X133942421Y-97693600D01*
X134156507Y-97793429D01*
X134156516Y-97793433D01*
X134370000Y-97850634D01*
X134370000Y-96953012D01*
X134427007Y-96985925D01*
X134554174Y-97020000D01*
X134685826Y-97020000D01*
X134812993Y-96985925D01*
X134870000Y-96953012D01*
X134870000Y-97850633D01*
X135083483Y-97793433D01*
X135083492Y-97793429D01*
X135297578Y-97693600D01*
X135491082Y-97558105D01*
X135658105Y-97391082D01*
X135793600Y-97197578D01*
X135893429Y-96983492D01*
X135893432Y-96983486D01*
X135950636Y-96770000D01*
X135053012Y-96770000D01*
X135085925Y-96712993D01*
X135120000Y-96585826D01*
X135120000Y-96454174D01*
X135085925Y-96327007D01*
X135053012Y-96270000D01*
X135950636Y-96270000D01*
X135950635Y-96269999D01*
X135893432Y-96056513D01*
X135893429Y-96056507D01*
X135793600Y-95842422D01*
X135793599Y-95842420D01*
X135658113Y-95648926D01*
X135658108Y-95648920D01*
X135491078Y-95481890D01*
X135305405Y-95351879D01*
X135261780Y-95297302D01*
X135254588Y-95227804D01*
X135286110Y-95165449D01*
X135305406Y-95148730D01*
X135491401Y-95018495D01*
X135658495Y-94851401D01*
X135794035Y-94657830D01*
X135893903Y-94443663D01*
X135955063Y-94215408D01*
X135975659Y-93980000D01*
X135955063Y-93744592D01*
X135893903Y-93516337D01*
X135794035Y-93302171D01*
X135743700Y-93230284D01*
X135658494Y-93108597D01*
X135491402Y-92941506D01*
X135491396Y-92941501D01*
X135305842Y-92811575D01*
X135262217Y-92756998D01*
X135255023Y-92687500D01*
X135286546Y-92625145D01*
X135305842Y-92608425D01*
X135375528Y-92559630D01*
X135491401Y-92478495D01*
X135658495Y-92311401D01*
X135794035Y-92117830D01*
X135893903Y-91903663D01*
X135955063Y-91675408D01*
X135975659Y-91440000D01*
X135955063Y-91204592D01*
X135893903Y-90976337D01*
X135794035Y-90762171D01*
X135658495Y-90568599D01*
X135536567Y-90446671D01*
X135503084Y-90385351D01*
X135508068Y-90315659D01*
X135549939Y-90259725D01*
X135580915Y-90242810D01*
X135712331Y-90193796D01*
X135827546Y-90107546D01*
X135913796Y-89992331D01*
X135964091Y-89857483D01*
X135970500Y-89797873D01*
X135970499Y-88327499D01*
X135990184Y-88260461D01*
X136042987Y-88214706D01*
X136094499Y-88203500D01*
X150788481Y-88203500D01*
X150855520Y-88223185D01*
X150876162Y-88239819D01*
X151481630Y-88845287D01*
X151510990Y-88892013D01*
X151547209Y-88995519D01*
X151547211Y-88995522D01*
X151643184Y-89148262D01*
X151770738Y-89275816D01*
X151923478Y-89371789D01*
X151977337Y-89390635D01*
X152093745Y-89431368D01*
X152093750Y-89431369D01*
X152272996Y-89451565D01*
X152273000Y-89451565D01*
X152273004Y-89451565D01*
X152452249Y-89431369D01*
X152452252Y-89431368D01*
X152452255Y-89431368D01*
X152622522Y-89371789D01*
X152775262Y-89275816D01*
X152902816Y-89148262D01*
X152998789Y-88995522D01*
X153058368Y-88825255D01*
X153078565Y-88646000D01*
X153058368Y-88466745D01*
X152998789Y-88296478D01*
X152902816Y-88143738D01*
X152775262Y-88016184D01*
X152622522Y-87920211D01*
X152622519Y-87920209D01*
X152519013Y-87883990D01*
X152472287Y-87854630D01*
X151576546Y-86958888D01*
X151576545Y-86958887D01*
X151461807Y-86882222D01*
X151334332Y-86829421D01*
X151334322Y-86829418D01*
X151198996Y-86802500D01*
X151198994Y-86802500D01*
X151198993Y-86802500D01*
X134827231Y-86802500D01*
X134760192Y-86782815D01*
X134714437Y-86730011D01*
X134704493Y-86660853D01*
X134733518Y-86597297D01*
X134792296Y-86559523D01*
X134816424Y-86554972D01*
X134855315Y-86551569D01*
X134855326Y-86551567D01*
X135083483Y-86490433D01*
X135083492Y-86490429D01*
X135297578Y-86390600D01*
X135491082Y-86255105D01*
X135582527Y-86163660D01*
X143753892Y-86163660D01*
X143753892Y-86163661D01*
X143767692Y-86172333D01*
X143767691Y-86172333D01*
X143937861Y-86231878D01*
X144116997Y-86252062D01*
X144117003Y-86252062D01*
X144296138Y-86231878D01*
X144296141Y-86231877D01*
X144466305Y-86172334D01*
X144466306Y-86172334D01*
X144480106Y-86163661D01*
X144480106Y-86163660D01*
X145153892Y-86163660D01*
X145153892Y-86163661D01*
X145167692Y-86172333D01*
X145167691Y-86172333D01*
X145337861Y-86231878D01*
X145516997Y-86252062D01*
X145517003Y-86252062D01*
X145696138Y-86231878D01*
X145696141Y-86231877D01*
X145866305Y-86172334D01*
X145866306Y-86172334D01*
X145880106Y-86163661D01*
X145880106Y-86163660D01*
X145517001Y-85800553D01*
X145517000Y-85800553D01*
X145153892Y-86163660D01*
X144480106Y-86163660D01*
X144117001Y-85800553D01*
X144117000Y-85800553D01*
X143753892Y-86163660D01*
X135582527Y-86163660D01*
X135658105Y-86088082D01*
X135793600Y-85894578D01*
X135893429Y-85680492D01*
X135893432Y-85680486D01*
X135950636Y-85467000D01*
X135053012Y-85467000D01*
X135054940Y-85463660D01*
X143053892Y-85463660D01*
X143053892Y-85463661D01*
X143067692Y-85472333D01*
X143067691Y-85472333D01*
X143237862Y-85531878D01*
X143238644Y-85532057D01*
X143239097Y-85532310D01*
X143244431Y-85534177D01*
X143244104Y-85535111D01*
X143299623Y-85566166D01*
X143328952Y-85619874D01*
X143329822Y-85619570D01*
X143331670Y-85624852D01*
X143331940Y-85625346D01*
X143332121Y-85626142D01*
X143391663Y-85796300D01*
X143391663Y-85796301D01*
X143400338Y-85810107D01*
X143763446Y-85447000D01*
X143743555Y-85427109D01*
X144017000Y-85427109D01*
X144017000Y-85466891D01*
X144032224Y-85503645D01*
X144060355Y-85531776D01*
X144097109Y-85547000D01*
X144136891Y-85547000D01*
X144173645Y-85531776D01*
X144201776Y-85503645D01*
X144217000Y-85466891D01*
X144217000Y-85446999D01*
X144470553Y-85446999D01*
X144817000Y-85793446D01*
X144817001Y-85793446D01*
X145163446Y-85447000D01*
X145143555Y-85427109D01*
X145417000Y-85427109D01*
X145417000Y-85466891D01*
X145432224Y-85503645D01*
X145460355Y-85531776D01*
X145497109Y-85547000D01*
X145536891Y-85547000D01*
X145573645Y-85531776D01*
X145601776Y-85503645D01*
X145617000Y-85466891D01*
X145617000Y-85446999D01*
X145870553Y-85446999D01*
X146233660Y-85810106D01*
X146233661Y-85810106D01*
X146242334Y-85796306D01*
X146242334Y-85796305D01*
X146301876Y-85626144D01*
X146302056Y-85625358D01*
X146302311Y-85624901D01*
X146304177Y-85619570D01*
X146305110Y-85619896D01*
X146336164Y-85564379D01*
X146389875Y-85535049D01*
X146389570Y-85534177D01*
X146394870Y-85532322D01*
X146395358Y-85532056D01*
X146396144Y-85531876D01*
X146566305Y-85472334D01*
X146566306Y-85472334D01*
X146580106Y-85463661D01*
X146580106Y-85463660D01*
X146217000Y-85100553D01*
X146156292Y-85161262D01*
X146156291Y-85161262D01*
X145870553Y-85446999D01*
X145617000Y-85446999D01*
X145617000Y-85427109D01*
X145601776Y-85390355D01*
X145573645Y-85362224D01*
X145536891Y-85347000D01*
X145497109Y-85347000D01*
X145460355Y-85362224D01*
X145432224Y-85390355D01*
X145417000Y-85427109D01*
X145143555Y-85427109D01*
X144877708Y-85161262D01*
X144817000Y-85100553D01*
X144756292Y-85161262D01*
X144756291Y-85161262D01*
X144470553Y-85446999D01*
X144217000Y-85446999D01*
X144217000Y-85427109D01*
X144201776Y-85390355D01*
X144173645Y-85362224D01*
X144136891Y-85347000D01*
X144097109Y-85347000D01*
X144060355Y-85362224D01*
X144032224Y-85390355D01*
X144017000Y-85427109D01*
X143743555Y-85427109D01*
X143416999Y-85100553D01*
X143416998Y-85100553D01*
X143053892Y-85463660D01*
X135054940Y-85463660D01*
X135085925Y-85409993D01*
X135120000Y-85282826D01*
X135120000Y-85151174D01*
X135085925Y-85024007D01*
X135053012Y-84967000D01*
X135950636Y-84967000D01*
X135950635Y-84966999D01*
X135934100Y-84905288D01*
X135935763Y-84835438D01*
X135974925Y-84777575D01*
X136039153Y-84750071D01*
X136039839Y-84749991D01*
X136066411Y-84746997D01*
X142611938Y-84746997D01*
X142611938Y-84747002D01*
X142632121Y-84926138D01*
X142691665Y-85096304D01*
X142700338Y-85110107D01*
X143063446Y-84747000D01*
X143063446Y-84746999D01*
X143043556Y-84727109D01*
X143317000Y-84727109D01*
X143317000Y-84766891D01*
X143332224Y-84803645D01*
X143360355Y-84831776D01*
X143397109Y-84847000D01*
X143436891Y-84847000D01*
X143473645Y-84831776D01*
X143501776Y-84803645D01*
X143517000Y-84766891D01*
X143517000Y-84746999D01*
X143770553Y-84746999D01*
X144117000Y-85093446D01*
X144463446Y-84747000D01*
X144443555Y-84727109D01*
X144717000Y-84727109D01*
X144717000Y-84766891D01*
X144732224Y-84803645D01*
X144760355Y-84831776D01*
X144797109Y-84847000D01*
X144836891Y-84847000D01*
X144873645Y-84831776D01*
X144901776Y-84803645D01*
X144917000Y-84766891D01*
X144917000Y-84746999D01*
X145170553Y-84746999D01*
X145517000Y-85093446D01*
X145863446Y-84747000D01*
X145843555Y-84727109D01*
X146117000Y-84727109D01*
X146117000Y-84766891D01*
X146132224Y-84803645D01*
X146160355Y-84831776D01*
X146197109Y-84847000D01*
X146236891Y-84847000D01*
X146273645Y-84831776D01*
X146301776Y-84803645D01*
X146317000Y-84766891D01*
X146317000Y-84747000D01*
X146570553Y-84747000D01*
X146933660Y-85110106D01*
X146933661Y-85110106D01*
X146942334Y-85096306D01*
X146942334Y-85096305D01*
X147001877Y-84926141D01*
X147001878Y-84926138D01*
X147022062Y-84747002D01*
X147022062Y-84746997D01*
X147001878Y-84567861D01*
X146942333Y-84397692D01*
X146933661Y-84383892D01*
X146933660Y-84383892D01*
X146570553Y-84747000D01*
X146317000Y-84747000D01*
X146317000Y-84727109D01*
X146301776Y-84690355D01*
X146273645Y-84662224D01*
X146236891Y-84647000D01*
X146197109Y-84647000D01*
X146160355Y-84662224D01*
X146132224Y-84690355D01*
X146117000Y-84727109D01*
X145843555Y-84727109D01*
X145565707Y-84449261D01*
X145517000Y-84400553D01*
X145468293Y-84449261D01*
X145468292Y-84449262D01*
X145170553Y-84746999D01*
X144917000Y-84746999D01*
X144917000Y-84727109D01*
X144901776Y-84690355D01*
X144873645Y-84662224D01*
X144836891Y-84647000D01*
X144797109Y-84647000D01*
X144760355Y-84662224D01*
X144732224Y-84690355D01*
X144717000Y-84727109D01*
X144443555Y-84727109D01*
X144165707Y-84449261D01*
X144117000Y-84400553D01*
X144068293Y-84449261D01*
X144068292Y-84449262D01*
X143770553Y-84746999D01*
X143517000Y-84746999D01*
X143517000Y-84727109D01*
X143501776Y-84690355D01*
X143473645Y-84662224D01*
X143436891Y-84647000D01*
X143397109Y-84647000D01*
X143360355Y-84662224D01*
X143332224Y-84690355D01*
X143317000Y-84727109D01*
X143043556Y-84727109D01*
X142700338Y-84383891D01*
X142700337Y-84383891D01*
X142691667Y-84397691D01*
X142691662Y-84397701D01*
X142632122Y-84567858D01*
X142632121Y-84567861D01*
X142611938Y-84746997D01*
X136066411Y-84746997D01*
X136119111Y-84741059D01*
X136196250Y-84732369D01*
X136196253Y-84732368D01*
X136196255Y-84732368D01*
X136366522Y-84672789D01*
X136519262Y-84576816D01*
X136646816Y-84449262D01*
X136742789Y-84296522D01*
X136802368Y-84126255D01*
X136811298Y-84046999D01*
X143070553Y-84046999D01*
X143070553Y-84047001D01*
X143416998Y-84393446D01*
X143416999Y-84393446D01*
X143692869Y-84117577D01*
X143763446Y-84047000D01*
X143743555Y-84027109D01*
X144017000Y-84027109D01*
X144017000Y-84066891D01*
X144032224Y-84103645D01*
X144060355Y-84131776D01*
X144097109Y-84147000D01*
X144136891Y-84147000D01*
X144173645Y-84131776D01*
X144201776Y-84103645D01*
X144217000Y-84066891D01*
X144217000Y-84046999D01*
X144470553Y-84046999D01*
X144817000Y-84393446D01*
X145163446Y-84047000D01*
X145143555Y-84027109D01*
X145417000Y-84027109D01*
X145417000Y-84066891D01*
X145432224Y-84103645D01*
X145460355Y-84131776D01*
X145497109Y-84147000D01*
X145536891Y-84147000D01*
X145573645Y-84131776D01*
X145601776Y-84103645D01*
X145617000Y-84066891D01*
X145617000Y-84046999D01*
X145870553Y-84046999D01*
X146217000Y-84393446D01*
X146563446Y-84047000D01*
X146563446Y-84046999D01*
X146217000Y-83700553D01*
X146182057Y-83735497D01*
X146182055Y-83735499D01*
X145870553Y-84046999D01*
X145617000Y-84046999D01*
X145617000Y-84027109D01*
X145601776Y-83990355D01*
X145573645Y-83962224D01*
X145536891Y-83947000D01*
X145497109Y-83947000D01*
X145460355Y-83962224D01*
X145432224Y-83990355D01*
X145417000Y-84027109D01*
X145143555Y-84027109D01*
X144851943Y-83735497D01*
X144817000Y-83700553D01*
X144782057Y-83735497D01*
X144782055Y-83735499D01*
X144470553Y-84046999D01*
X144217000Y-84046999D01*
X144217000Y-84027109D01*
X144201776Y-83990355D01*
X144173645Y-83962224D01*
X144136891Y-83947000D01*
X144097109Y-83947000D01*
X144060355Y-83962224D01*
X144032224Y-83990355D01*
X144017000Y-84027109D01*
X143743555Y-84027109D01*
X143416999Y-83700553D01*
X143416998Y-83700553D01*
X143070553Y-84046999D01*
X136811298Y-84046999D01*
X136814466Y-84018882D01*
X136822565Y-83947003D01*
X136822565Y-83946996D01*
X136802369Y-83767750D01*
X136802368Y-83767745D01*
X136789333Y-83730493D01*
X136742789Y-83597478D01*
X136711952Y-83548402D01*
X136697963Y-83526138D01*
X136646816Y-83444738D01*
X136549075Y-83346997D01*
X142611938Y-83346997D01*
X142611938Y-83347002D01*
X142632121Y-83526138D01*
X142691665Y-83696304D01*
X142700338Y-83710107D01*
X143063446Y-83347000D01*
X143063446Y-83346999D01*
X143043556Y-83327109D01*
X143317000Y-83327109D01*
X143317000Y-83366891D01*
X143332224Y-83403645D01*
X143360355Y-83431776D01*
X143397109Y-83447000D01*
X143436891Y-83447000D01*
X143473645Y-83431776D01*
X143501776Y-83403645D01*
X143517000Y-83366891D01*
X143517000Y-83347000D01*
X143770553Y-83347000D01*
X143820292Y-83396738D01*
X144117000Y-83693446D01*
X144463446Y-83347000D01*
X144443555Y-83327109D01*
X144717000Y-83327109D01*
X144717000Y-83366891D01*
X144732224Y-83403645D01*
X144760355Y-83431776D01*
X144797109Y-83447000D01*
X144836891Y-83447000D01*
X144873645Y-83431776D01*
X144901776Y-83403645D01*
X144917000Y-83366891D01*
X144917000Y-83347000D01*
X145170553Y-83347000D01*
X145220292Y-83396738D01*
X145517000Y-83693446D01*
X145863446Y-83347000D01*
X145843555Y-83327109D01*
X146117000Y-83327109D01*
X146117000Y-83366891D01*
X146132224Y-83403645D01*
X146160355Y-83431776D01*
X146197109Y-83447000D01*
X146236891Y-83447000D01*
X146273645Y-83431776D01*
X146301776Y-83403645D01*
X146317000Y-83366891D01*
X146317000Y-83347000D01*
X146570553Y-83347000D01*
X146933660Y-83710106D01*
X146933661Y-83710106D01*
X146942334Y-83696306D01*
X146942334Y-83696305D01*
X147001877Y-83526141D01*
X147001878Y-83526138D01*
X147022062Y-83347002D01*
X147022062Y-83346997D01*
X147001878Y-83167861D01*
X146942333Y-82997692D01*
X146933661Y-82983892D01*
X146933660Y-82983892D01*
X146570553Y-83347000D01*
X146317000Y-83347000D01*
X146317000Y-83327109D01*
X146301776Y-83290355D01*
X146273645Y-83262224D01*
X146236891Y-83247000D01*
X146197109Y-83247000D01*
X146160355Y-83262224D01*
X146132224Y-83290355D01*
X146117000Y-83327109D01*
X145843555Y-83327109D01*
X145551079Y-83034633D01*
X145551077Y-83034630D01*
X145517001Y-83000553D01*
X145516999Y-83000553D01*
X145482921Y-83034632D01*
X145170553Y-83347000D01*
X144917000Y-83347000D01*
X144917000Y-83327109D01*
X144901776Y-83290355D01*
X144873645Y-83262224D01*
X144836891Y-83247000D01*
X144797109Y-83247000D01*
X144760355Y-83262224D01*
X144732224Y-83290355D01*
X144717000Y-83327109D01*
X144443555Y-83327109D01*
X144151079Y-83034633D01*
X144151077Y-83034630D01*
X144117001Y-83000553D01*
X144116999Y-83000553D01*
X144082921Y-83034632D01*
X143770553Y-83347000D01*
X143517000Y-83347000D01*
X143517000Y-83327109D01*
X143501776Y-83290355D01*
X143473645Y-83262224D01*
X143436891Y-83247000D01*
X143397109Y-83247000D01*
X143360355Y-83262224D01*
X143332224Y-83290355D01*
X143317000Y-83327109D01*
X143043556Y-83327109D01*
X142700338Y-82983891D01*
X142700337Y-82983891D01*
X142691667Y-82997691D01*
X142691662Y-82997701D01*
X142632122Y-83167858D01*
X142632121Y-83167861D01*
X142611938Y-83346997D01*
X136549075Y-83346997D01*
X136519262Y-83317184D01*
X136426117Y-83258657D01*
X136379826Y-83206322D01*
X136369178Y-83137268D01*
X136397553Y-83073420D01*
X136451135Y-83036621D01*
X136463688Y-83032228D01*
X136493522Y-83021789D01*
X136646262Y-82925816D01*
X136773816Y-82798262D01*
X136869789Y-82645522D01*
X136875102Y-82630337D01*
X143053891Y-82630337D01*
X143053891Y-82630338D01*
X143416998Y-82993446D01*
X143718447Y-82691999D01*
X143763446Y-82646998D01*
X143743557Y-82627109D01*
X144017000Y-82627109D01*
X144017000Y-82666891D01*
X144032224Y-82703645D01*
X144060355Y-82731776D01*
X144097109Y-82747000D01*
X144136891Y-82747000D01*
X144173645Y-82731776D01*
X144201776Y-82703645D01*
X144217000Y-82666891D01*
X144217000Y-82646998D01*
X144470553Y-82646998D01*
X144470553Y-82646999D01*
X144817000Y-82993446D01*
X145118445Y-82692001D01*
X145163446Y-82646998D01*
X145143557Y-82627109D01*
X145417000Y-82627109D01*
X145417000Y-82666891D01*
X145432224Y-82703645D01*
X145460355Y-82731776D01*
X145497109Y-82747000D01*
X145536891Y-82747000D01*
X145573645Y-82731776D01*
X145601776Y-82703645D01*
X145617000Y-82666891D01*
X145617000Y-82646998D01*
X145870553Y-82646998D01*
X145870553Y-82646999D01*
X146217000Y-82993446D01*
X146217001Y-82993446D01*
X146518446Y-82691999D01*
X156632341Y-82691999D01*
X156652936Y-82927403D01*
X156652938Y-82927413D01*
X156714094Y-83155655D01*
X156714096Y-83155659D01*
X156714097Y-83155663D01*
X156776905Y-83290355D01*
X156813965Y-83369830D01*
X156813967Y-83369834D01*
X156949501Y-83563395D01*
X156949506Y-83563402D01*
X157116597Y-83730493D01*
X157116603Y-83730498D01*
X157179652Y-83774645D01*
X157281171Y-83845730D01*
X157302594Y-83860730D01*
X157346219Y-83915307D01*
X157353413Y-83984805D01*
X157321890Y-84047160D01*
X157302595Y-84063880D01*
X157116922Y-84193890D01*
X157116920Y-84193891D01*
X156949891Y-84360920D01*
X156949886Y-84360926D01*
X156814400Y-84554420D01*
X156814399Y-84554422D01*
X156714570Y-84768507D01*
X156714567Y-84768513D01*
X156657364Y-84981999D01*
X156657364Y-84982000D01*
X157554988Y-84982000D01*
X157522075Y-85039007D01*
X157488000Y-85166174D01*
X157488000Y-85297826D01*
X157522075Y-85424993D01*
X157554988Y-85482000D01*
X156657364Y-85482000D01*
X156714567Y-85695486D01*
X156714570Y-85695492D01*
X156814399Y-85909578D01*
X156949894Y-86103082D01*
X157116917Y-86270105D01*
X157310421Y-86405600D01*
X157524507Y-86505429D01*
X157524516Y-86505433D01*
X157738000Y-86562634D01*
X157738000Y-85665012D01*
X157795007Y-85697925D01*
X157922174Y-85732000D01*
X158053826Y-85732000D01*
X158180993Y-85697925D01*
X158238000Y-85665012D01*
X158238000Y-86562633D01*
X158451483Y-86505433D01*
X158451492Y-86505429D01*
X158665578Y-86405600D01*
X158859082Y-86270105D01*
X159026105Y-86103082D01*
X159161600Y-85909578D01*
X159261429Y-85695492D01*
X159261432Y-85695486D01*
X159318636Y-85482000D01*
X158421012Y-85482000D01*
X158453925Y-85424993D01*
X158488000Y-85297826D01*
X158488000Y-85166174D01*
X158453925Y-85039007D01*
X158421012Y-84982000D01*
X159318636Y-84982000D01*
X159318635Y-84981999D01*
X159261432Y-84768513D01*
X159261429Y-84768507D01*
X159161600Y-84554422D01*
X159161599Y-84554420D01*
X159026113Y-84360926D01*
X159026108Y-84360920D01*
X158859078Y-84193890D01*
X158673405Y-84063879D01*
X158629780Y-84009302D01*
X158622588Y-83939804D01*
X158654110Y-83877449D01*
X158673406Y-83860730D01*
X158687252Y-83851035D01*
X158859401Y-83730495D01*
X159026495Y-83563401D01*
X159162035Y-83369830D01*
X159261903Y-83155663D01*
X159323063Y-82927408D01*
X159343659Y-82692000D01*
X159342347Y-82676999D01*
X160315341Y-82676999D01*
X160315341Y-82677000D01*
X160335936Y-82912403D01*
X160335938Y-82912413D01*
X160397094Y-83140655D01*
X160397096Y-83140659D01*
X160397097Y-83140663D01*
X160493081Y-83346500D01*
X160496965Y-83354830D01*
X160496967Y-83354834D01*
X160632501Y-83548395D01*
X160632506Y-83548402D01*
X160799597Y-83715493D01*
X160799603Y-83715498D01*
X160828169Y-83735500D01*
X160948847Y-83820000D01*
X160985594Y-83845730D01*
X161029219Y-83900307D01*
X161036413Y-83969805D01*
X161004890Y-84032160D01*
X160985595Y-84048880D01*
X160799922Y-84178890D01*
X160799920Y-84178891D01*
X160632891Y-84345920D01*
X160632886Y-84345926D01*
X160497400Y-84539420D01*
X160497399Y-84539422D01*
X160397570Y-84753507D01*
X160397567Y-84753513D01*
X160340364Y-84966999D01*
X160340364Y-84967000D01*
X161237988Y-84967000D01*
X161205075Y-85024007D01*
X161171000Y-85151174D01*
X161171000Y-85282826D01*
X161205075Y-85409993D01*
X161237988Y-85467000D01*
X160340364Y-85467000D01*
X160397567Y-85680486D01*
X160397570Y-85680492D01*
X160497399Y-85894578D01*
X160632894Y-86088082D01*
X160799917Y-86255105D01*
X160993421Y-86390600D01*
X161207507Y-86490429D01*
X161207516Y-86490433D01*
X161421000Y-86547634D01*
X161421000Y-85650012D01*
X161478007Y-85682925D01*
X161605174Y-85717000D01*
X161736826Y-85717000D01*
X161863993Y-85682925D01*
X161921000Y-85650012D01*
X161921000Y-86547633D01*
X162134483Y-86490433D01*
X162134492Y-86490429D01*
X162348578Y-86390600D01*
X162542082Y-86255105D01*
X162709105Y-86088082D01*
X162844600Y-85894578D01*
X162944429Y-85680492D01*
X162944432Y-85680486D01*
X163001636Y-85467000D01*
X162104012Y-85467000D01*
X162136925Y-85409993D01*
X162171000Y-85282826D01*
X162171000Y-85151174D01*
X162136925Y-85024007D01*
X162104012Y-84967000D01*
X163001636Y-84967000D01*
X163001635Y-84966999D01*
X162944432Y-84753513D01*
X162944429Y-84753507D01*
X162844600Y-84539422D01*
X162844599Y-84539420D01*
X162709113Y-84345926D01*
X162709108Y-84345920D01*
X162542078Y-84178890D01*
X162356405Y-84048879D01*
X162312780Y-83994302D01*
X162305588Y-83924804D01*
X162337110Y-83862449D01*
X162356406Y-83845730D01*
X162393151Y-83820001D01*
X162542401Y-83715495D01*
X162709495Y-83548401D01*
X162845035Y-83354830D01*
X162944903Y-83140663D01*
X163006063Y-82912408D01*
X163026659Y-82677000D01*
X163026659Y-82676999D01*
X163998341Y-82676999D01*
X163998341Y-82677000D01*
X164018936Y-82912403D01*
X164018938Y-82912413D01*
X164080094Y-83140655D01*
X164080096Y-83140659D01*
X164080097Y-83140663D01*
X164176081Y-83346500D01*
X164179965Y-83354830D01*
X164179967Y-83354834D01*
X164315501Y-83548395D01*
X164315506Y-83548402D01*
X164482597Y-83715493D01*
X164482603Y-83715498D01*
X164511169Y-83735500D01*
X164631847Y-83820000D01*
X164668594Y-83845730D01*
X164712219Y-83900307D01*
X164719413Y-83969805D01*
X164687890Y-84032160D01*
X164668595Y-84048880D01*
X164482922Y-84178890D01*
X164482920Y-84178891D01*
X164315891Y-84345920D01*
X164315886Y-84345926D01*
X164180400Y-84539420D01*
X164180399Y-84539422D01*
X164080570Y-84753507D01*
X164080567Y-84753513D01*
X164023364Y-84966999D01*
X164023364Y-84967000D01*
X164920988Y-84967000D01*
X164888075Y-85024007D01*
X164854000Y-85151174D01*
X164854000Y-85282826D01*
X164888075Y-85409993D01*
X164920988Y-85467000D01*
X164023364Y-85467000D01*
X164080567Y-85680486D01*
X164080570Y-85680492D01*
X164180399Y-85894578D01*
X164315894Y-86088082D01*
X164482917Y-86255105D01*
X164676421Y-86390600D01*
X164890507Y-86490429D01*
X164890516Y-86490433D01*
X165104000Y-86547634D01*
X165104000Y-85650012D01*
X165161007Y-85682925D01*
X165288174Y-85717000D01*
X165419826Y-85717000D01*
X165546993Y-85682925D01*
X165604000Y-85650012D01*
X165604000Y-86547633D01*
X165817483Y-86490433D01*
X165817492Y-86490429D01*
X166031578Y-86390600D01*
X166225082Y-86255105D01*
X166392105Y-86088082D01*
X166527600Y-85894578D01*
X166627429Y-85680492D01*
X166627432Y-85680486D01*
X166684636Y-85467000D01*
X165787012Y-85467000D01*
X165819925Y-85409993D01*
X165854000Y-85282826D01*
X165854000Y-85151174D01*
X165819925Y-85024007D01*
X165787012Y-84967000D01*
X166684636Y-84967000D01*
X166684635Y-84966999D01*
X166627432Y-84753513D01*
X166627429Y-84753507D01*
X166527600Y-84539422D01*
X166527599Y-84539420D01*
X166392113Y-84345926D01*
X166392108Y-84345920D01*
X166225078Y-84178890D01*
X166039405Y-84048879D01*
X165995780Y-83994302D01*
X165988588Y-83924804D01*
X166020110Y-83862449D01*
X166039406Y-83845730D01*
X166076151Y-83820001D01*
X166225401Y-83715495D01*
X166392495Y-83548401D01*
X166528035Y-83354830D01*
X166627903Y-83140663D01*
X166689063Y-82912408D01*
X166709659Y-82677000D01*
X166689063Y-82441592D01*
X166627903Y-82213337D01*
X166528035Y-81999171D01*
X166476373Y-81925390D01*
X166392496Y-81805600D01*
X166343418Y-81756522D01*
X166321879Y-81734983D01*
X180463500Y-81734983D01*
X180463500Y-83035001D01*
X180463501Y-83035018D01*
X180474000Y-83137796D01*
X180474001Y-83137799D01*
X180529185Y-83304331D01*
X180529187Y-83304336D01*
X180543234Y-83327109D01*
X180621288Y-83453656D01*
X180745344Y-83577712D01*
X180894666Y-83669814D01*
X181061203Y-83724999D01*
X181163991Y-83735500D01*
X182764008Y-83735499D01*
X182866797Y-83724999D01*
X183033334Y-83669814D01*
X183182656Y-83577712D01*
X183306712Y-83453656D01*
X183398814Y-83304334D01*
X183453999Y-83137797D01*
X183464500Y-83035009D01*
X183464499Y-81734992D01*
X183459894Y-81689916D01*
X183453999Y-81632203D01*
X183453998Y-81632200D01*
X183438773Y-81586255D01*
X183398814Y-81465666D01*
X183306712Y-81316344D01*
X183182656Y-81192288D01*
X183033334Y-81100186D01*
X183033332Y-81100185D01*
X183027440Y-81096551D01*
X182980716Y-81044603D01*
X182969493Y-80975641D01*
X182997337Y-80911558D01*
X183004856Y-80903330D01*
X183143728Y-80764458D01*
X183268620Y-80592557D01*
X183365095Y-80403217D01*
X183430757Y-80201129D01*
X183430757Y-80201126D01*
X183441231Y-80135000D01*
X182397012Y-80135000D01*
X182429925Y-80077993D01*
X182464000Y-79950826D01*
X182464000Y-79819174D01*
X182429925Y-79692007D01*
X182397012Y-79635000D01*
X183441231Y-79635000D01*
X183430757Y-79568873D01*
X183430757Y-79568870D01*
X183365095Y-79366782D01*
X183268620Y-79177442D01*
X183143727Y-79005540D01*
X183143723Y-79005535D01*
X182993464Y-78855276D01*
X182993459Y-78855272D01*
X182821557Y-78730379D01*
X182632217Y-78633904D01*
X182430129Y-78568242D01*
X182220246Y-78535000D01*
X182214000Y-78535000D01*
X182214000Y-79451988D01*
X182156993Y-79419075D01*
X182029826Y-79385000D01*
X181898174Y-79385000D01*
X181771007Y-79419075D01*
X181714000Y-79451988D01*
X181714000Y-78535000D01*
X181707754Y-78535000D01*
X181497872Y-78568242D01*
X181497869Y-78568242D01*
X181295782Y-78633904D01*
X181106442Y-78730379D01*
X180934540Y-78855272D01*
X180934535Y-78855276D01*
X180784276Y-79005535D01*
X180784272Y-79005540D01*
X180659379Y-79177442D01*
X180562904Y-79366782D01*
X180497242Y-79568870D01*
X180497242Y-79568873D01*
X180486769Y-79635000D01*
X181530988Y-79635000D01*
X181498075Y-79692007D01*
X181464000Y-79819174D01*
X181464000Y-79950826D01*
X181498075Y-80077993D01*
X181530988Y-80135000D01*
X180486769Y-80135000D01*
X180497242Y-80201126D01*
X180497242Y-80201129D01*
X180562904Y-80403217D01*
X180659379Y-80592557D01*
X180784272Y-80764459D01*
X180784276Y-80764464D01*
X180923143Y-80903331D01*
X180956628Y-80964654D01*
X180951644Y-81034346D01*
X180909772Y-81090279D01*
X180900559Y-81096551D01*
X180745342Y-81192289D01*
X180621289Y-81316342D01*
X180529187Y-81465663D01*
X180529185Y-81465668D01*
X180511856Y-81517965D01*
X180474001Y-81632203D01*
X180474001Y-81632204D01*
X180474000Y-81632204D01*
X180463500Y-81734983D01*
X166321879Y-81734983D01*
X166270567Y-81683671D01*
X166237084Y-81622351D01*
X166242068Y-81552659D01*
X166283939Y-81496725D01*
X166314915Y-81479810D01*
X166446331Y-81430796D01*
X166561546Y-81344546D01*
X166647796Y-81229331D01*
X166698091Y-81094483D01*
X166704500Y-81034873D01*
X166704499Y-79239128D01*
X166698091Y-79179517D01*
X166684722Y-79143674D01*
X166647797Y-79044671D01*
X166647793Y-79044664D01*
X166561547Y-78929455D01*
X166561544Y-78929452D01*
X166446335Y-78843206D01*
X166446328Y-78843202D01*
X166311482Y-78792908D01*
X166311483Y-78792908D01*
X166251883Y-78786501D01*
X166251881Y-78786500D01*
X166251873Y-78786500D01*
X166251864Y-78786500D01*
X164456129Y-78786500D01*
X164456123Y-78786501D01*
X164396516Y-78792908D01*
X164261671Y-78843202D01*
X164261664Y-78843206D01*
X164146455Y-78929452D01*
X164146452Y-78929455D01*
X164060206Y-79044664D01*
X164060202Y-79044671D01*
X164009908Y-79179517D01*
X164003501Y-79239116D01*
X164003501Y-79239123D01*
X164003500Y-79239135D01*
X164003500Y-81034870D01*
X164003501Y-81034876D01*
X164009908Y-81094483D01*
X164060202Y-81229328D01*
X164060206Y-81229335D01*
X164146452Y-81344544D01*
X164146455Y-81344547D01*
X164261664Y-81430793D01*
X164261671Y-81430797D01*
X164393081Y-81479810D01*
X164449015Y-81521681D01*
X164473432Y-81587145D01*
X164458580Y-81655418D01*
X164437430Y-81683673D01*
X164315503Y-81805600D01*
X164179965Y-81999169D01*
X164179964Y-81999171D01*
X164080098Y-82213335D01*
X164080094Y-82213344D01*
X164018938Y-82441586D01*
X164018936Y-82441596D01*
X163998341Y-82676999D01*
X163026659Y-82676999D01*
X163006063Y-82441592D01*
X162944903Y-82213337D01*
X162845035Y-81999171D01*
X162793373Y-81925390D01*
X162709496Y-81805600D01*
X162660418Y-81756522D01*
X162587567Y-81683671D01*
X162554084Y-81622351D01*
X162559068Y-81552659D01*
X162600939Y-81496725D01*
X162631915Y-81479810D01*
X162763331Y-81430796D01*
X162878546Y-81344546D01*
X162964796Y-81229331D01*
X163015091Y-81094483D01*
X163021500Y-81034873D01*
X163021499Y-79239128D01*
X163015091Y-79179517D01*
X163001722Y-79143674D01*
X162964797Y-79044671D01*
X162964793Y-79044664D01*
X162878547Y-78929455D01*
X162878544Y-78929452D01*
X162763335Y-78843206D01*
X162763328Y-78843202D01*
X162628482Y-78792908D01*
X162628483Y-78792908D01*
X162568883Y-78786501D01*
X162568881Y-78786500D01*
X162568873Y-78786500D01*
X162568864Y-78786500D01*
X160773129Y-78786500D01*
X160773123Y-78786501D01*
X160713516Y-78792908D01*
X160578671Y-78843202D01*
X160578664Y-78843206D01*
X160463455Y-78929452D01*
X160463452Y-78929455D01*
X160377206Y-79044664D01*
X160377202Y-79044671D01*
X160326908Y-79179517D01*
X160320501Y-79239116D01*
X160320501Y-79239123D01*
X160320500Y-79239135D01*
X160320500Y-81034870D01*
X160320501Y-81034876D01*
X160326908Y-81094483D01*
X160377202Y-81229328D01*
X160377206Y-81229335D01*
X160463452Y-81344544D01*
X160463455Y-81344547D01*
X160578664Y-81430793D01*
X160578671Y-81430797D01*
X160710081Y-81479810D01*
X160766015Y-81521681D01*
X160790432Y-81587145D01*
X160775580Y-81655418D01*
X160754430Y-81683673D01*
X160632503Y-81805600D01*
X160496965Y-81999169D01*
X160496964Y-81999171D01*
X160397098Y-82213335D01*
X160397094Y-82213344D01*
X160335938Y-82441586D01*
X160335936Y-82441596D01*
X160315341Y-82676999D01*
X159342347Y-82676999D01*
X159323063Y-82456592D01*
X159261903Y-82228337D01*
X159162035Y-82014171D01*
X159099869Y-81925389D01*
X159026496Y-81820600D01*
X158976526Y-81770630D01*
X158904567Y-81698671D01*
X158871084Y-81637351D01*
X158876068Y-81567659D01*
X158917939Y-81511725D01*
X158948915Y-81494810D01*
X159080331Y-81445796D01*
X159195546Y-81359546D01*
X159281796Y-81244331D01*
X159332091Y-81109483D01*
X159338500Y-81049873D01*
X159338499Y-79254128D01*
X159332091Y-79194517D01*
X159326496Y-79179517D01*
X159281797Y-79059671D01*
X159281793Y-79059664D01*
X159195547Y-78944455D01*
X159195544Y-78944452D01*
X159080335Y-78858206D01*
X159080328Y-78858202D01*
X158945482Y-78807908D01*
X158945483Y-78807908D01*
X158885883Y-78801501D01*
X158885881Y-78801500D01*
X158885873Y-78801500D01*
X158885864Y-78801500D01*
X157090129Y-78801500D01*
X157090123Y-78801501D01*
X157030516Y-78807908D01*
X156895671Y-78858202D01*
X156895664Y-78858206D01*
X156780455Y-78944452D01*
X156780452Y-78944455D01*
X156694206Y-79059664D01*
X156694202Y-79059671D01*
X156643908Y-79194517D01*
X156637501Y-79254116D01*
X156637501Y-79254123D01*
X156637500Y-79254135D01*
X156637500Y-81049870D01*
X156637501Y-81049876D01*
X156643908Y-81109483D01*
X156694202Y-81244328D01*
X156694206Y-81244335D01*
X156780452Y-81359544D01*
X156780455Y-81359547D01*
X156895664Y-81445793D01*
X156895671Y-81445797D01*
X157027081Y-81494810D01*
X157083015Y-81536681D01*
X157107432Y-81602145D01*
X157092580Y-81670418D01*
X157071430Y-81698673D01*
X156949503Y-81820600D01*
X156813965Y-82014169D01*
X156813964Y-82014171D01*
X156714098Y-82228335D01*
X156714094Y-82228344D01*
X156652938Y-82456586D01*
X156652936Y-82456596D01*
X156632341Y-82691999D01*
X146518446Y-82691999D01*
X146580107Y-82630338D01*
X146566301Y-82621663D01*
X146396142Y-82562121D01*
X146395346Y-82561940D01*
X146394883Y-82561681D01*
X146389570Y-82559822D01*
X146389895Y-82558890D01*
X146334370Y-82527827D01*
X146305049Y-82474125D01*
X146304177Y-82474431D01*
X146302321Y-82469128D01*
X146302057Y-82468644D01*
X146301878Y-82467862D01*
X146242333Y-82297692D01*
X146233661Y-82283892D01*
X146233660Y-82283892D01*
X145870553Y-82646998D01*
X145617000Y-82646998D01*
X145617000Y-82627109D01*
X145601776Y-82590355D01*
X145573645Y-82562224D01*
X145536891Y-82547000D01*
X145497109Y-82547000D01*
X145460355Y-82562224D01*
X145432224Y-82590355D01*
X145417000Y-82627109D01*
X145143557Y-82627109D01*
X144817001Y-82300553D01*
X144817000Y-82300553D01*
X144470553Y-82646998D01*
X144217000Y-82646998D01*
X144217000Y-82627109D01*
X144201776Y-82590355D01*
X144173645Y-82562224D01*
X144136891Y-82547000D01*
X144097109Y-82547000D01*
X144060355Y-82562224D01*
X144032224Y-82590355D01*
X144017000Y-82627109D01*
X143743557Y-82627109D01*
X143400338Y-82283891D01*
X143400337Y-82283891D01*
X143391667Y-82297691D01*
X143391662Y-82297701D01*
X143332119Y-82467866D01*
X143331939Y-82468656D01*
X143331682Y-82469113D01*
X143329823Y-82474429D01*
X143328891Y-82474103D01*
X143297824Y-82529631D01*
X143244124Y-82558952D01*
X143244429Y-82559823D01*
X143239145Y-82561671D01*
X143238656Y-82561939D01*
X143237866Y-82562119D01*
X143067701Y-82621662D01*
X143067691Y-82621667D01*
X143053891Y-82630337D01*
X136875102Y-82630337D01*
X136929368Y-82475255D01*
X136929461Y-82474429D01*
X136949565Y-82296003D01*
X136949565Y-82295996D01*
X136929369Y-82116750D01*
X136929368Y-82116745D01*
X136907004Y-82052832D01*
X136869789Y-81946478D01*
X136859647Y-81930337D01*
X143753891Y-81930337D01*
X143753891Y-81930338D01*
X144117000Y-82293446D01*
X144117001Y-82293446D01*
X144480107Y-81930338D01*
X144480105Y-81930337D01*
X145153891Y-81930337D01*
X145153891Y-81930338D01*
X145517000Y-82293446D01*
X145517001Y-82293446D01*
X145880107Y-81930338D01*
X145866304Y-81921665D01*
X145696138Y-81862121D01*
X145517003Y-81841938D01*
X145516997Y-81841938D01*
X145337861Y-81862121D01*
X145337858Y-81862122D01*
X145167701Y-81921662D01*
X145167691Y-81921667D01*
X145153891Y-81930337D01*
X144480105Y-81930337D01*
X144466304Y-81921665D01*
X144296138Y-81862121D01*
X144117003Y-81841938D01*
X144116997Y-81841938D01*
X143937861Y-81862121D01*
X143937858Y-81862122D01*
X143767701Y-81921662D01*
X143767691Y-81921667D01*
X143753891Y-81930337D01*
X136859647Y-81930337D01*
X136773816Y-81793738D01*
X136646262Y-81666184D01*
X136592177Y-81632200D01*
X136493521Y-81570210D01*
X136345849Y-81518538D01*
X136323255Y-81510632D01*
X136323254Y-81510631D01*
X136323249Y-81510630D01*
X136236330Y-81500837D01*
X136171916Y-81473770D01*
X136162533Y-81465298D01*
X135751482Y-81054247D01*
X135717997Y-80992924D01*
X135722981Y-80923232D01*
X135737586Y-80895445D01*
X135794035Y-80814830D01*
X135893903Y-80600663D01*
X135955063Y-80372408D01*
X135975659Y-80137000D01*
X135955063Y-79901592D01*
X135893903Y-79673337D01*
X135794035Y-79459171D01*
X135728520Y-79365606D01*
X135658496Y-79265600D01*
X135632012Y-79239116D01*
X135536567Y-79143671D01*
X135503084Y-79082351D01*
X135508068Y-79012659D01*
X135549939Y-78956725D01*
X135580915Y-78939810D01*
X135712331Y-78890796D01*
X135827546Y-78804546D01*
X135913796Y-78689331D01*
X135964091Y-78554483D01*
X135970500Y-78494873D01*
X135970499Y-76699128D01*
X135964091Y-76639517D01*
X135913796Y-76504669D01*
X135913795Y-76504668D01*
X135913793Y-76504664D01*
X135827547Y-76389455D01*
X135827544Y-76389452D01*
X135712335Y-76303206D01*
X135712328Y-76303202D01*
X135577482Y-76252908D01*
X135577483Y-76252908D01*
X135517883Y-76246501D01*
X135517881Y-76246500D01*
X135517873Y-76246500D01*
X135517864Y-76246500D01*
X133722129Y-76246500D01*
X133722123Y-76246501D01*
X133662516Y-76252908D01*
X133527671Y-76303202D01*
X133527664Y-76303206D01*
X133412455Y-76389452D01*
X133412452Y-76389455D01*
X133326206Y-76504664D01*
X133326202Y-76504671D01*
X133275908Y-76639517D01*
X133269501Y-76699116D01*
X133269501Y-76699123D01*
X133269500Y-76699135D01*
X133269500Y-78494870D01*
X133269501Y-78494876D01*
X133275908Y-78554483D01*
X133326202Y-78689328D01*
X133326206Y-78689335D01*
X133412452Y-78804544D01*
X133412455Y-78804547D01*
X133527664Y-78890793D01*
X133527671Y-78890797D01*
X133659081Y-78939810D01*
X133715015Y-78981681D01*
X133739432Y-79047145D01*
X133724580Y-79115418D01*
X133703430Y-79143673D01*
X133581503Y-79265600D01*
X133445965Y-79459169D01*
X133445964Y-79459171D01*
X133346098Y-79673335D01*
X133346094Y-79673344D01*
X133284938Y-79901586D01*
X133284936Y-79901596D01*
X133264341Y-80136999D01*
X133264341Y-80137000D01*
X133284936Y-80372403D01*
X133284938Y-80372413D01*
X133347280Y-80605080D01*
X133345617Y-80674930D01*
X133306454Y-80732792D01*
X133242225Y-80760296D01*
X133173323Y-80748709D01*
X133161533Y-80742167D01*
X133064523Y-80681211D01*
X132894254Y-80621631D01*
X132894249Y-80621630D01*
X132715004Y-80601435D01*
X132714996Y-80601435D01*
X132535750Y-80621630D01*
X132535745Y-80621631D01*
X132365476Y-80681211D01*
X132268466Y-80742167D01*
X132201229Y-80761167D01*
X132134394Y-80740799D01*
X132089180Y-80687531D01*
X132079943Y-80618275D01*
X132082719Y-80605080D01*
X132083901Y-80600665D01*
X132083903Y-80600663D01*
X132145063Y-80372408D01*
X132165659Y-80137000D01*
X132145063Y-79901592D01*
X132083903Y-79673337D01*
X131984035Y-79459171D01*
X131918520Y-79365606D01*
X131848496Y-79265600D01*
X131822012Y-79239116D01*
X131726567Y-79143671D01*
X131693084Y-79082351D01*
X131698068Y-79012659D01*
X131739939Y-78956725D01*
X131770915Y-78939810D01*
X131902331Y-78890796D01*
X132017546Y-78804546D01*
X132103796Y-78689331D01*
X132154091Y-78554483D01*
X132160500Y-78494873D01*
X132160499Y-76699128D01*
X132154091Y-76639517D01*
X132103796Y-76504669D01*
X132103795Y-76504668D01*
X132103793Y-76504664D01*
X132017547Y-76389455D01*
X132017544Y-76389452D01*
X131902335Y-76303206D01*
X131902328Y-76303202D01*
X131767482Y-76252908D01*
X131767483Y-76252908D01*
X131707883Y-76246501D01*
X131707881Y-76246500D01*
X131707873Y-76246500D01*
X131707864Y-76246500D01*
X129912129Y-76246500D01*
X129912123Y-76246501D01*
X129852516Y-76252908D01*
X129717671Y-76303202D01*
X129717664Y-76303206D01*
X129602455Y-76389452D01*
X129602452Y-76389455D01*
X129516206Y-76504664D01*
X129516202Y-76504671D01*
X129465908Y-76639517D01*
X129459501Y-76699116D01*
X129459501Y-76699123D01*
X129459500Y-76699135D01*
X129459500Y-78494870D01*
X129459501Y-78494876D01*
X129465908Y-78554483D01*
X129516202Y-78689328D01*
X129516206Y-78689335D01*
X129602452Y-78804544D01*
X129602455Y-78804547D01*
X129717664Y-78890793D01*
X129717671Y-78890797D01*
X129849081Y-78939810D01*
X129905015Y-78981681D01*
X129929432Y-79047145D01*
X129914580Y-79115418D01*
X129893430Y-79143673D01*
X129771503Y-79265600D01*
X129635965Y-79459169D01*
X129635964Y-79459171D01*
X129536098Y-79673335D01*
X129536094Y-79673344D01*
X129474938Y-79901586D01*
X129474936Y-79901596D01*
X129454341Y-80136999D01*
X129454341Y-80137000D01*
X129474936Y-80372403D01*
X129474938Y-80372413D01*
X129536094Y-80600655D01*
X129536096Y-80600659D01*
X129536097Y-80600663D01*
X129612476Y-80764458D01*
X129635965Y-80814830D01*
X129635967Y-80814834D01*
X129771501Y-81008395D01*
X129771506Y-81008402D01*
X129938597Y-81175493D01*
X129938603Y-81175498D01*
X130124158Y-81305425D01*
X130167783Y-81360002D01*
X130174977Y-81429500D01*
X130143454Y-81491855D01*
X130124158Y-81508575D01*
X129938597Y-81638505D01*
X129771505Y-81805597D01*
X129635965Y-81999169D01*
X129635964Y-81999171D01*
X129536098Y-82213335D01*
X129536094Y-82213344D01*
X129474938Y-82441586D01*
X129474936Y-82441596D01*
X129454341Y-82676999D01*
X129454341Y-82677000D01*
X129474936Y-82912403D01*
X129474938Y-82912413D01*
X129536094Y-83140655D01*
X129536096Y-83140659D01*
X129536097Y-83140663D01*
X129632081Y-83346500D01*
X129635965Y-83354830D01*
X129635967Y-83354834D01*
X129771501Y-83548395D01*
X129771506Y-83548402D01*
X129938597Y-83715493D01*
X129938603Y-83715498D01*
X129967169Y-83735500D01*
X130087847Y-83820000D01*
X130124594Y-83845730D01*
X130168219Y-83900307D01*
X130175413Y-83969805D01*
X130143890Y-84032160D01*
X130124595Y-84048880D01*
X129938922Y-84178890D01*
X129938920Y-84178891D01*
X129771891Y-84345920D01*
X129771886Y-84345926D01*
X129636400Y-84539420D01*
X129636399Y-84539422D01*
X129536570Y-84753507D01*
X129536567Y-84753513D01*
X129479364Y-84966999D01*
X129479364Y-84967000D01*
X130376988Y-84967000D01*
X130344075Y-85024007D01*
X130310000Y-85151174D01*
X130310000Y-85282826D01*
X130344075Y-85409993D01*
X130376988Y-85467000D01*
X129479364Y-85467000D01*
X129536567Y-85680486D01*
X129536570Y-85680492D01*
X129636399Y-85894578D01*
X129771894Y-86088082D01*
X129938917Y-86255105D01*
X130132421Y-86390600D01*
X130346507Y-86490429D01*
X130346516Y-86490433D01*
X130574673Y-86551567D01*
X130574684Y-86551569D01*
X130613576Y-86554972D01*
X130678645Y-86580424D01*
X130719624Y-86637015D01*
X130723502Y-86706777D01*
X130689048Y-86767561D01*
X130627201Y-86800069D01*
X130602769Y-86802500D01*
X127207231Y-86802500D01*
X127140192Y-86782815D01*
X127094437Y-86730011D01*
X127084493Y-86660853D01*
X127113518Y-86597297D01*
X127172296Y-86559523D01*
X127196424Y-86554972D01*
X127235315Y-86551569D01*
X127235326Y-86551567D01*
X127463483Y-86490433D01*
X127463492Y-86490429D01*
X127677578Y-86390600D01*
X127871082Y-86255105D01*
X128038105Y-86088082D01*
X128173600Y-85894578D01*
X128273429Y-85680492D01*
X128273432Y-85680486D01*
X128330636Y-85467000D01*
X127433012Y-85467000D01*
X127465925Y-85409993D01*
X127500000Y-85282826D01*
X127500000Y-85151174D01*
X127465925Y-85024007D01*
X127433012Y-84967000D01*
X128330636Y-84967000D01*
X128330635Y-84966999D01*
X128273432Y-84753513D01*
X128273429Y-84753507D01*
X128173600Y-84539422D01*
X128173599Y-84539420D01*
X128038113Y-84345926D01*
X128038108Y-84345920D01*
X127871078Y-84178890D01*
X127685405Y-84048879D01*
X127641780Y-83994302D01*
X127634588Y-83924804D01*
X127666110Y-83862449D01*
X127685406Y-83845730D01*
X127722151Y-83820001D01*
X127871401Y-83715495D01*
X128038495Y-83548401D01*
X128174035Y-83354830D01*
X128273903Y-83140663D01*
X128335063Y-82912408D01*
X128355659Y-82677000D01*
X128335063Y-82441592D01*
X128273903Y-82213337D01*
X128174035Y-81999171D01*
X128137140Y-81946478D01*
X128038494Y-81805597D01*
X127871402Y-81638506D01*
X127871396Y-81638501D01*
X127685842Y-81508575D01*
X127642217Y-81453998D01*
X127635023Y-81384500D01*
X127666546Y-81322145D01*
X127685842Y-81305425D01*
X127773097Y-81244328D01*
X127871401Y-81175495D01*
X128038495Y-81008401D01*
X128174035Y-80814830D01*
X128273903Y-80600663D01*
X128335063Y-80372408D01*
X128355659Y-80137000D01*
X128335063Y-79901592D01*
X128273903Y-79673337D01*
X128174035Y-79459171D01*
X128108520Y-79365606D01*
X128038496Y-79265600D01*
X128012012Y-79239116D01*
X127916567Y-79143671D01*
X127883084Y-79082351D01*
X127888068Y-79012659D01*
X127929939Y-78956725D01*
X127960915Y-78939810D01*
X128092331Y-78890796D01*
X128207546Y-78804546D01*
X128293796Y-78689331D01*
X128344091Y-78554483D01*
X128350500Y-78494873D01*
X128350499Y-76699128D01*
X128344091Y-76639517D01*
X128293796Y-76504669D01*
X128293795Y-76504668D01*
X128293793Y-76504664D01*
X128207547Y-76389455D01*
X128207544Y-76389452D01*
X128092335Y-76303206D01*
X128092328Y-76303202D01*
X127957482Y-76252908D01*
X127957483Y-76252908D01*
X127897883Y-76246501D01*
X127897881Y-76246500D01*
X127897873Y-76246500D01*
X127897864Y-76246500D01*
X126102129Y-76246500D01*
X126102123Y-76246501D01*
X126042516Y-76252908D01*
X125907671Y-76303202D01*
X125907664Y-76303206D01*
X125792455Y-76389452D01*
X125792452Y-76389455D01*
X125706206Y-76504664D01*
X125706202Y-76504671D01*
X125655908Y-76639517D01*
X125649501Y-76699116D01*
X125649501Y-76699123D01*
X125649500Y-76699135D01*
X125649500Y-78494870D01*
X125649501Y-78494876D01*
X125655908Y-78554483D01*
X125706202Y-78689328D01*
X125706206Y-78689335D01*
X125792452Y-78804544D01*
X125792455Y-78804547D01*
X125907664Y-78890793D01*
X125907671Y-78890797D01*
X126039081Y-78939810D01*
X126095015Y-78981681D01*
X126119432Y-79047145D01*
X126104580Y-79115418D01*
X126083430Y-79143673D01*
X125961503Y-79265600D01*
X125825965Y-79459169D01*
X125825964Y-79459171D01*
X125726098Y-79673335D01*
X125726094Y-79673344D01*
X125664938Y-79901586D01*
X125664936Y-79901596D01*
X125644341Y-80136999D01*
X125644341Y-80137000D01*
X125664936Y-80372403D01*
X125664938Y-80372413D01*
X125726094Y-80600655D01*
X125726096Y-80600659D01*
X125726097Y-80600663D01*
X125802476Y-80764458D01*
X125825965Y-80814830D01*
X125825967Y-80814834D01*
X125961501Y-81008395D01*
X125961506Y-81008402D01*
X126128597Y-81175493D01*
X126128603Y-81175498D01*
X126314158Y-81305425D01*
X126357783Y-81360002D01*
X126364977Y-81429500D01*
X126333454Y-81491855D01*
X126314158Y-81508575D01*
X126128597Y-81638505D01*
X125961505Y-81805597D01*
X125825965Y-81999169D01*
X125825964Y-81999171D01*
X125726098Y-82213335D01*
X125726094Y-82213344D01*
X125664938Y-82441586D01*
X125664936Y-82441596D01*
X125644341Y-82676999D01*
X125644341Y-82677000D01*
X125664936Y-82912403D01*
X125664938Y-82912413D01*
X125726094Y-83140655D01*
X125726096Y-83140659D01*
X125726097Y-83140663D01*
X125822081Y-83346500D01*
X125825965Y-83354830D01*
X125825967Y-83354834D01*
X125961501Y-83548395D01*
X125961506Y-83548402D01*
X126128597Y-83715493D01*
X126128603Y-83715498D01*
X126157169Y-83735500D01*
X126277847Y-83820000D01*
X126314594Y-83845730D01*
X126358219Y-83900307D01*
X126365413Y-83969805D01*
X126333890Y-84032160D01*
X126314595Y-84048880D01*
X126128922Y-84178890D01*
X126128920Y-84178891D01*
X125961891Y-84345920D01*
X125961886Y-84345926D01*
X125826400Y-84539420D01*
X125826399Y-84539422D01*
X125726570Y-84753507D01*
X125726567Y-84753513D01*
X125669364Y-84966999D01*
X125669364Y-84967000D01*
X126566988Y-84967000D01*
X126534075Y-85024007D01*
X126500000Y-85151174D01*
X126500000Y-85282826D01*
X126534075Y-85409993D01*
X126566988Y-85467000D01*
X125669364Y-85467000D01*
X125726567Y-85680486D01*
X125726570Y-85680492D01*
X125826399Y-85894578D01*
X125961894Y-86088082D01*
X126128917Y-86255105D01*
X126322421Y-86390600D01*
X126536507Y-86490429D01*
X126536516Y-86490433D01*
X126764673Y-86551567D01*
X126764684Y-86551569D01*
X126803576Y-86554972D01*
X126868645Y-86580424D01*
X126909624Y-86637015D01*
X126913502Y-86706777D01*
X126879048Y-86767561D01*
X126817201Y-86800069D01*
X126792769Y-86802500D01*
X126082386Y-86802500D01*
X126015347Y-86782815D01*
X125984208Y-86751354D01*
X125983163Y-86752188D01*
X125978817Y-86746739D01*
X125851262Y-86619184D01*
X125698523Y-86523211D01*
X125528254Y-86463631D01*
X125528249Y-86463630D01*
X125349004Y-86443435D01*
X125348996Y-86443435D01*
X125169750Y-86463630D01*
X125169745Y-86463631D01*
X124999476Y-86523211D01*
X124846737Y-86619184D01*
X124719184Y-86746737D01*
X124623211Y-86899476D01*
X124563631Y-87069745D01*
X124563630Y-87069750D01*
X124543435Y-87248996D01*
X123513339Y-87248996D01*
X123564164Y-87193785D01*
X123700173Y-86985607D01*
X123800063Y-86757881D01*
X123861108Y-86516821D01*
X123863295Y-86490429D01*
X123881643Y-86269005D01*
X123881643Y-86268994D01*
X123861109Y-86021187D01*
X123861107Y-86021175D01*
X123800063Y-85780118D01*
X123700173Y-85552393D01*
X123564166Y-85344217D01*
X123507651Y-85282826D01*
X123395744Y-85161262D01*
X123199509Y-85008526D01*
X123199507Y-85008525D01*
X123199506Y-85008524D01*
X122980811Y-84890172D01*
X122980802Y-84890169D01*
X122793932Y-84826016D01*
X122736917Y-84785631D01*
X122710786Y-84720831D01*
X122723837Y-84652191D01*
X122771926Y-84601503D01*
X122793932Y-84591454D01*
X122980604Y-84527369D01*
X122980614Y-84527364D01*
X123199228Y-84409057D01*
X123199231Y-84409055D01*
X123246056Y-84372609D01*
X122546234Y-83672787D01*
X122588292Y-83661518D01*
X122713708Y-83589110D01*
X122816110Y-83486708D01*
X122888518Y-83361292D01*
X122899787Y-83319235D01*
X123599434Y-84018882D01*
X123699731Y-83865369D01*
X123799587Y-83637717D01*
X123860612Y-83396738D01*
X123860614Y-83396729D01*
X123881141Y-83149005D01*
X123881141Y-83148994D01*
X123860614Y-82901270D01*
X123860612Y-82901261D01*
X123799587Y-82660282D01*
X123699731Y-82432630D01*
X123599434Y-82279116D01*
X122899787Y-82978764D01*
X122888518Y-82936708D01*
X122816110Y-82811292D01*
X122713708Y-82708890D01*
X122588292Y-82636482D01*
X122546235Y-82625212D01*
X123246057Y-81925390D01*
X123246056Y-81925389D01*
X123199229Y-81888943D01*
X122980614Y-81770635D01*
X122980603Y-81770630D01*
X122745493Y-81689916D01*
X122500293Y-81649000D01*
X122251707Y-81649000D01*
X122006506Y-81689916D01*
X121771396Y-81770630D01*
X121771390Y-81770632D01*
X121552761Y-81888949D01*
X121505942Y-81925388D01*
X121505942Y-81925390D01*
X122205765Y-82625212D01*
X122163708Y-82636482D01*
X122038292Y-82708890D01*
X121935890Y-82811292D01*
X121863482Y-82936708D01*
X121852212Y-82978764D01*
X121152564Y-82279116D01*
X121052267Y-82432632D01*
X120952412Y-82660282D01*
X120891387Y-82901261D01*
X120891385Y-82901270D01*
X120870859Y-83148994D01*
X120870859Y-83149005D01*
X120891385Y-83396729D01*
X120891387Y-83396738D01*
X120952412Y-83637717D01*
X121052266Y-83865364D01*
X121152564Y-84018882D01*
X121852212Y-83319234D01*
X121863482Y-83361292D01*
X121935890Y-83486708D01*
X122038292Y-83589110D01*
X122163708Y-83661518D01*
X122205765Y-83672787D01*
X121505942Y-84372609D01*
X121552768Y-84409055D01*
X121552770Y-84409056D01*
X121771385Y-84527364D01*
X121771396Y-84527369D01*
X121958067Y-84591454D01*
X122015082Y-84631840D01*
X122041213Y-84696639D01*
X122028161Y-84765279D01*
X121980073Y-84815967D01*
X121958067Y-84826016D01*
X121771197Y-84890169D01*
X121771188Y-84890172D01*
X121552493Y-85008524D01*
X121356257Y-85161261D01*
X121187833Y-85344217D01*
X121051826Y-85552393D01*
X120951936Y-85780118D01*
X120890892Y-86021175D01*
X120890890Y-86021187D01*
X120870357Y-86268994D01*
X117381643Y-86268994D01*
X117361109Y-86021187D01*
X117361107Y-86021175D01*
X117300063Y-85780118D01*
X117200173Y-85552393D01*
X117064166Y-85344217D01*
X117007651Y-85282826D01*
X116895744Y-85161262D01*
X116699509Y-85008526D01*
X116699507Y-85008525D01*
X116699506Y-85008524D01*
X116480811Y-84890172D01*
X116480802Y-84890169D01*
X116293932Y-84826016D01*
X116236917Y-84785631D01*
X116210786Y-84720831D01*
X116223837Y-84652191D01*
X116271926Y-84601503D01*
X116293932Y-84591454D01*
X116480604Y-84527369D01*
X116480614Y-84527364D01*
X116699228Y-84409057D01*
X116699231Y-84409055D01*
X116746056Y-84372609D01*
X116046234Y-83672787D01*
X116088292Y-83661518D01*
X116213708Y-83589110D01*
X116316110Y-83486708D01*
X116388518Y-83361292D01*
X116399787Y-83319235D01*
X117099434Y-84018882D01*
X117199731Y-83865369D01*
X117299587Y-83637717D01*
X117360612Y-83396738D01*
X117360614Y-83396729D01*
X117381141Y-83149005D01*
X117381141Y-83148994D01*
X117360614Y-82901270D01*
X117360612Y-82901261D01*
X117299587Y-82660282D01*
X117199731Y-82432630D01*
X117099434Y-82279116D01*
X116399787Y-82978764D01*
X116388518Y-82936708D01*
X116316110Y-82811292D01*
X116213708Y-82708890D01*
X116088292Y-82636482D01*
X116046235Y-82625212D01*
X116746057Y-81925390D01*
X116746056Y-81925389D01*
X116699229Y-81888943D01*
X116480614Y-81770635D01*
X116480603Y-81770630D01*
X116245493Y-81689916D01*
X116000293Y-81649000D01*
X115751707Y-81649000D01*
X115506506Y-81689916D01*
X115271396Y-81770630D01*
X115271390Y-81770632D01*
X115052761Y-81888949D01*
X115005942Y-81925388D01*
X115005942Y-81925390D01*
X115705765Y-82625212D01*
X115663708Y-82636482D01*
X115538292Y-82708890D01*
X115435890Y-82811292D01*
X115363482Y-82936708D01*
X115352212Y-82978764D01*
X114652564Y-82279116D01*
X114552267Y-82432632D01*
X114452412Y-82660282D01*
X114391387Y-82901261D01*
X114391385Y-82901270D01*
X114370859Y-83148994D01*
X114370859Y-83149005D01*
X114391385Y-83396729D01*
X114391387Y-83396738D01*
X114452412Y-83637717D01*
X114552266Y-83865364D01*
X114652564Y-84018882D01*
X115352212Y-83319234D01*
X115363482Y-83361292D01*
X115435890Y-83486708D01*
X115538292Y-83589110D01*
X115663708Y-83661518D01*
X115705765Y-83672787D01*
X115005942Y-84372609D01*
X115052768Y-84409055D01*
X115052770Y-84409056D01*
X115271385Y-84527364D01*
X115271396Y-84527369D01*
X115458067Y-84591454D01*
X115515082Y-84631840D01*
X115541213Y-84696639D01*
X115528161Y-84765279D01*
X115480073Y-84815967D01*
X115458067Y-84826016D01*
X115271197Y-84890169D01*
X115271188Y-84890172D01*
X115052493Y-85008524D01*
X114856257Y-85161261D01*
X114687833Y-85344217D01*
X114551826Y-85552393D01*
X114451936Y-85780118D01*
X114390892Y-86021175D01*
X114390890Y-86021187D01*
X114370357Y-86268994D01*
X112786487Y-86268994D01*
X112786487Y-78648994D01*
X114370357Y-78648994D01*
X114370357Y-78649005D01*
X114390890Y-78896812D01*
X114390892Y-78896824D01*
X114451936Y-79137881D01*
X114551826Y-79365606D01*
X114687833Y-79573782D01*
X114687836Y-79573785D01*
X114856256Y-79756738D01*
X115052491Y-79909474D01*
X115271190Y-80027828D01*
X115506386Y-80108571D01*
X115751665Y-80149500D01*
X116000335Y-80149500D01*
X116245614Y-80108571D01*
X116480810Y-80027828D01*
X116699509Y-79909474D01*
X116895744Y-79756738D01*
X117064164Y-79573785D01*
X117200173Y-79365607D01*
X117300063Y-79137881D01*
X117361108Y-78896821D01*
X117361607Y-78890797D01*
X117381643Y-78649005D01*
X117381643Y-78648994D01*
X120870357Y-78648994D01*
X120870357Y-78649005D01*
X120890890Y-78896812D01*
X120890892Y-78896824D01*
X120951936Y-79137881D01*
X121051826Y-79365606D01*
X121187833Y-79573782D01*
X121187836Y-79573785D01*
X121356256Y-79756738D01*
X121552491Y-79909474D01*
X121771190Y-80027828D01*
X122006386Y-80108571D01*
X122251665Y-80149500D01*
X122500335Y-80149500D01*
X122745614Y-80108571D01*
X122980810Y-80027828D01*
X123199509Y-79909474D01*
X123395744Y-79756738D01*
X123564164Y-79573785D01*
X123700173Y-79365607D01*
X123800063Y-79137881D01*
X123861108Y-78896821D01*
X123861607Y-78890797D01*
X123881643Y-78649005D01*
X123881643Y-78648994D01*
X123861109Y-78401187D01*
X123861107Y-78401175D01*
X123800063Y-78160118D01*
X123700173Y-77932393D01*
X123564166Y-77724217D01*
X123542557Y-77700744D01*
X123395744Y-77541262D01*
X123199509Y-77388526D01*
X123199507Y-77388525D01*
X123199506Y-77388524D01*
X122980811Y-77270172D01*
X122980802Y-77270169D01*
X122745616Y-77189429D01*
X122500335Y-77148500D01*
X122251665Y-77148500D01*
X122006383Y-77189429D01*
X121771197Y-77270169D01*
X121771188Y-77270172D01*
X121552493Y-77388524D01*
X121356257Y-77541261D01*
X121187833Y-77724217D01*
X121051826Y-77932393D01*
X120951936Y-78160118D01*
X120890892Y-78401175D01*
X120890890Y-78401187D01*
X120870357Y-78648994D01*
X117381643Y-78648994D01*
X117361109Y-78401187D01*
X117361107Y-78401175D01*
X117300063Y-78160118D01*
X117200173Y-77932393D01*
X117064166Y-77724217D01*
X117042557Y-77700744D01*
X116895744Y-77541262D01*
X116699509Y-77388526D01*
X116699507Y-77388525D01*
X116699506Y-77388524D01*
X116480811Y-77270172D01*
X116480802Y-77270169D01*
X116245616Y-77189429D01*
X116000335Y-77148500D01*
X115751665Y-77148500D01*
X115506383Y-77189429D01*
X115271197Y-77270169D01*
X115271188Y-77270172D01*
X115052493Y-77388524D01*
X114856257Y-77541261D01*
X114687833Y-77724217D01*
X114551826Y-77932393D01*
X114451936Y-78160118D01*
X114390892Y-78401175D01*
X114390890Y-78401187D01*
X114370357Y-78648994D01*
X112786487Y-78648994D01*
X112786487Y-76834996D01*
X119209435Y-76834996D01*
X119209435Y-76835003D01*
X119229630Y-77014249D01*
X119229631Y-77014254D01*
X119289211Y-77184523D01*
X119385184Y-77337262D01*
X119512738Y-77464816D01*
X119665478Y-77560789D01*
X119835745Y-77620368D01*
X119835750Y-77620369D01*
X120014996Y-77640565D01*
X120015000Y-77640565D01*
X120015004Y-77640565D01*
X120194249Y-77620369D01*
X120194252Y-77620368D01*
X120194255Y-77620368D01*
X120364522Y-77560789D01*
X120517262Y-77464816D01*
X120644816Y-77337262D01*
X120740789Y-77184522D01*
X120800368Y-77014255D01*
X120820565Y-76835000D01*
X120805256Y-76699129D01*
X120800369Y-76655750D01*
X120800366Y-76655737D01*
X120740790Y-76485479D01*
X120734506Y-76475478D01*
X120715500Y-76409507D01*
X120715500Y-74509518D01*
X120735185Y-74442479D01*
X120751815Y-74421841D01*
X120976290Y-74197365D01*
X121023013Y-74168007D01*
X121126522Y-74131789D01*
X121279262Y-74035816D01*
X121406816Y-73908262D01*
X121502789Y-73755522D01*
X121562368Y-73585255D01*
X121582565Y-73406000D01*
X121562368Y-73226745D01*
X121502789Y-73056478D01*
X121406816Y-72903738D01*
X121279262Y-72776184D01*
X121126523Y-72680211D01*
X120956254Y-72620631D01*
X120956249Y-72620630D01*
X120777004Y-72600435D01*
X120776996Y-72600435D01*
X120597750Y-72620630D01*
X120597745Y-72620631D01*
X120427476Y-72680211D01*
X120274737Y-72776184D01*
X120147184Y-72903737D01*
X120051212Y-73056475D01*
X120051211Y-73056476D01*
X120014992Y-73159984D01*
X119985632Y-73206709D01*
X119470887Y-73721454D01*
X119394223Y-73836192D01*
X119341421Y-73963668D01*
X119341421Y-73963669D01*
X119341420Y-73963672D01*
X119327070Y-74035816D01*
X119327070Y-74035817D01*
X119314500Y-74099005D01*
X119314500Y-76409507D01*
X119295494Y-76475478D01*
X119289209Y-76485479D01*
X119229633Y-76655737D01*
X119229630Y-76655750D01*
X119209435Y-76834996D01*
X112786487Y-76834996D01*
X112786487Y-68600713D01*
X114219500Y-68600713D01*
X114219500Y-68813286D01*
X114252753Y-69023239D01*
X114318444Y-69225414D01*
X114414951Y-69414820D01*
X114539890Y-69586786D01*
X114690213Y-69737109D01*
X114862179Y-69862048D01*
X114862181Y-69862049D01*
X114862184Y-69862051D01*
X115051588Y-69958557D01*
X115253757Y-70024246D01*
X115463713Y-70057500D01*
X115463714Y-70057500D01*
X115676286Y-70057500D01*
X115676287Y-70057500D01*
X115886243Y-70024246D01*
X116088412Y-69958557D01*
X116277816Y-69862051D01*
X116299789Y-69846086D01*
X116449786Y-69737109D01*
X116449788Y-69737106D01*
X116449792Y-69737104D01*
X116600104Y-69586792D01*
X116600106Y-69586788D01*
X116600109Y-69586786D01*
X116725048Y-69414820D01*
X116725047Y-69414820D01*
X116725051Y-69414816D01*
X116821557Y-69225412D01*
X116887246Y-69023243D01*
X116920500Y-68813287D01*
X116920500Y-68600713D01*
X116887246Y-68390757D01*
X116821557Y-68188588D01*
X116725051Y-67999184D01*
X116725049Y-67999181D01*
X116725048Y-67999179D01*
X116600109Y-67827213D01*
X116449786Y-67676890D01*
X116277820Y-67551951D01*
X116088414Y-67455444D01*
X116088413Y-67455443D01*
X116088412Y-67455443D01*
X115886243Y-67389754D01*
X115886241Y-67389753D01*
X115886240Y-67389753D01*
X115724957Y-67364208D01*
X115676287Y-67356500D01*
X115463713Y-67356500D01*
X115415042Y-67364208D01*
X115253760Y-67389753D01*
X115051585Y-67455444D01*
X114862179Y-67551951D01*
X114690213Y-67676890D01*
X114539890Y-67827213D01*
X114414951Y-67999179D01*
X114318444Y-68188585D01*
X114252753Y-68390760D01*
X114219500Y-68600713D01*
X112786487Y-68600713D01*
X112786487Y-66938148D01*
X112786833Y-66928895D01*
X112791601Y-66865173D01*
X112805649Y-66677449D01*
X112807889Y-66661517D01*
X112858531Y-66417696D01*
X112862828Y-66402162D01*
X112885758Y-66336266D01*
X112944670Y-66166976D01*
X112950938Y-66152148D01*
X113062603Y-65929559D01*
X113070740Y-65915672D01*
X113210342Y-65709445D01*
X113220210Y-65696733D01*
X113385377Y-65510368D01*
X113396815Y-65499039D01*
X113584763Y-65335676D01*
X113597589Y-65325918D01*
X113805133Y-65188323D01*
X113819107Y-65180314D01*
X114042763Y-65070798D01*
X114057646Y-65064676D01*
X114293616Y-64985102D01*
X114309184Y-64980958D01*
X114553465Y-64932672D01*
X114569440Y-64930581D01*
X114822267Y-64914111D01*
X114830311Y-64913850D01*
X114891881Y-64913850D01*
X122193000Y-64913850D01*
X122260039Y-64933535D01*
G37*
%TD.AperFunction*%
%TD*%
M02*
