M48
; DRILL file {KiCad 8.0.6} date 2025-03-31T15:52:10-0500
; FORMAT={-:-/ absolute / inch / decimal}
; #@! TF.CreationDate,2025-03-31T15:52:10-05:00
; #@! TF.GenerationSoftware,Kicad,Pcbnew,8.0.6
; #@! TF.FileFunction,Plated,1,2,PTH
FMAT,2
INCH
; #@! TA.AperFunction,Plated,PTH,ComponentDrill
T1C0.0079
; #@! TA.AperFunction,Plated,PTH,ViaDrill
T2C0.0118
; #@! TA.AperFunction,Plated,PTH,ComponentDrill
T3C0.0157
; #@! TA.AperFunction,Plated,PTH,ComponentDrill
T4C0.0236
; #@! TA.AperFunction,Plated,PTH,ComponentDrill
T5C0.0394
; #@! TA.AperFunction,Plated,PTH,ComponentDrill
T6C0.0433
%
G90
G05
T1
X5.6463Y-3.2814
X5.6463Y-3.3365
X5.6739Y-3.2538
X5.6739Y-3.3089
X5.6739Y-3.3641
X5.7015Y-3.2814
X5.7015Y-3.3365
X5.729Y-3.2538
X5.729Y-3.3089
X5.729Y-3.3641
X5.7566Y-3.2814
X5.7566Y-3.3365
T2
X4.68Y-2.835
X4.715Y-4.165
X4.725Y-3.025
X4.755Y-2.89
X4.935Y-3.435
X5.005Y-3.675
X5.04Y-3.86
X5.06Y-4.355
X5.075Y-3.98
X5.075Y-4.155
X5.155Y-4.195
X5.225Y-3.205
X5.225Y-3.3
X5.355Y-3.305
X5.36Y-3.24
X5.425Y-4.21
X5.465Y-3.605
X5.465Y-3.96
X5.505Y-3.645
X5.51Y-3.025
X5.51Y-3.995
X5.605Y-4.04
X5.62Y-4.0
X5.995Y-3.49
X6.0Y-3.035
X6.08Y-4.35
X6.11Y-3.8
X6.145Y-4.255
X6.15Y-4.025
X6.28Y-4.415
X6.295Y-3.98
X6.36Y-3.905
X6.36Y-3.98
X6.515Y-3.485
X6.805Y-3.77
X6.855Y-3.58
X6.88Y-3.065
X6.905Y-4.165
X7.07Y-3.39
T3
X5.4481Y-4.3333
X5.4481Y-4.3865
X5.4816Y-4.3333
X5.4816Y-4.3865
X5.5151Y-4.3333
X5.5151Y-4.3865
X5.5485Y-4.3333
X5.5485Y-4.3865
X5.582Y-4.3333
X5.582Y-4.3865
X5.6155Y-4.3333
X5.6155Y-4.3865
X5.6489Y-4.3333
X5.6489Y-4.3865
X5.6824Y-4.3333
X5.6824Y-4.3865
T5
X5.0Y-3.055
X5.0Y-3.155
X5.0Y-3.255
X5.0Y-3.355
X5.15Y-3.055
X5.15Y-3.155
X5.15Y-3.255
X5.15Y-3.355
X5.15Y-3.5
X5.15Y-3.6
X5.15Y-3.7
X5.15Y-3.8
X5.3Y-3.055
X5.3Y-3.155
X5.3Y-3.255
X5.3Y-3.355
X5.3Y-3.5
X5.3Y-3.6
X5.3Y-3.7
X5.3Y-3.8
X5.855Y-3.875
X5.955Y-3.875
X6.055Y-3.875
X6.155Y-3.875
X6.22Y-3.1556
X6.22Y-3.2556
X6.22Y-3.3556
X6.22Y-3.5
X6.22Y-3.6
X6.22Y-3.7
X6.255Y-3.875
X6.365Y-3.155
X6.365Y-3.255
X6.365Y-3.355
X6.365Y-3.5
X6.365Y-3.6
X6.365Y-3.7
X6.51Y-3.155
X6.51Y-3.255
X6.51Y-3.355
X6.75Y-4.33
X6.87Y-2.865
X7.1639Y-3.1451
X7.1639Y-3.2435
T6
X4.562Y-3.0964
X4.562Y-3.2736
X4.562Y-3.3964
X4.562Y-3.5736
X4.5641Y-3.755
X4.5641Y-3.9322
X4.567Y-4.0614
X4.567Y-4.2386
X4.818Y-3.0964
X4.818Y-3.2736
X4.818Y-3.3964
X4.818Y-3.5736
X4.82Y-3.755
X4.82Y-3.9322
X4.823Y-4.0614
X4.823Y-4.2386
T4
G00X5.395Y-4.3424
M15
G01X5.395Y-4.4015
M16
G05
G00X5.395Y-4.4893
M15
G01X5.395Y-4.5207
M16
G05
G00X5.7356Y-4.3424
M15
G01X5.7356Y-4.4015
M16
G05
G00X5.7356Y-4.4893
M15
G01X5.7356Y-4.5207
M16
G05
M30
