%TF.GenerationSoftware,KiCad,Pcbnew,8.0.6*%
%TF.CreationDate,2025-04-07T16:11:50-05:00*%
%TF.ProjectId,ESP32,45535033-322e-46b6-9963-61645f706362,rev?*%
%TF.SameCoordinates,Original*%
%TF.FileFunction,Copper,L1,Top*%
%TF.FilePolarity,Positive*%
%FSLAX46Y46*%
G04 Gerber Fmt 4.6, Leading zero omitted, Abs format (unit mm)*
G04 Created by KiCad (PCBNEW 8.0.6) date 2025-04-07 16:11:50*
%MOMM*%
%LPD*%
G01*
G04 APERTURE LIST*
G04 Aperture macros list*
%AMRoundRect*
0 Rectangle with rounded corners*
0 $1 Rounding radius*
0 $2 $3 $4 $5 $6 $7 $8 $9 X,Y pos of 4 corners*
0 Add a 4 corners polygon primitive as box body*
4,1,4,$2,$3,$4,$5,$6,$7,$8,$9,$2,$3,0*
0 Add four circle primitives for the rounded corners*
1,1,$1+$1,$2,$3*
1,1,$1+$1,$4,$5*
1,1,$1+$1,$6,$7*
1,1,$1+$1,$8,$9*
0 Add four rect primitives between the rounded corners*
20,1,$1+$1,$2,$3,$4,$5,0*
20,1,$1+$1,$4,$5,$6,$7,0*
20,1,$1+$1,$6,$7,$8,$9,0*
20,1,$1+$1,$8,$9,$2,$3,0*%
%AMFreePoly0*
4,1,19,0.500000,-0.750000,0.000000,-0.750000,0.000000,-0.744911,-0.071157,-0.744911,-0.207708,-0.704816,-0.327430,-0.627875,-0.420627,-0.520320,-0.479746,-0.390866,-0.500000,-0.250000,-0.500000,0.250000,-0.479746,0.390866,-0.420627,0.520320,-0.327430,0.627875,-0.207708,0.704816,-0.071157,0.744911,0.000000,0.744911,0.000000,0.750000,0.500000,0.750000,0.500000,-0.750000,0.500000,-0.750000,
$1*%
%AMFreePoly1*
4,1,19,0.000000,0.744911,0.071157,0.744911,0.207708,0.704816,0.327430,0.627875,0.420627,0.520320,0.479746,0.390866,0.500000,0.250000,0.500000,-0.250000,0.479746,-0.390866,0.420627,-0.520320,0.327430,-0.627875,0.207708,-0.704816,0.071157,-0.744911,0.000000,-0.744911,0.000000,-0.750000,-0.500000,-0.750000,-0.500000,0.750000,0.000000,0.750000,0.000000,0.744911,0.000000,0.744911,
$1*%
G04 Aperture macros list end*
%TA.AperFunction,SMDPad,CuDef*%
%ADD10RoundRect,0.250000X-0.350000X-0.450000X0.350000X-0.450000X0.350000X0.450000X-0.350000X0.450000X0*%
%TD*%
%TA.AperFunction,ComponentPad*%
%ADD11R,1.700000X1.700000*%
%TD*%
%TA.AperFunction,ComponentPad*%
%ADD12O,1.700000X1.700000*%
%TD*%
%TA.AperFunction,SMDPad,CuDef*%
%ADD13RoundRect,0.250000X-0.475000X0.337500X-0.475000X-0.337500X0.475000X-0.337500X0.475000X0.337500X0*%
%TD*%
%TA.AperFunction,SMDPad,CuDef*%
%ADD14RoundRect,0.250000X-0.300000X2.050000X-0.300000X-2.050000X0.300000X-2.050000X0.300000X2.050000X0*%
%TD*%
%TA.AperFunction,SMDPad,CuDef*%
%ADD15RoundRect,0.250000X-2.375000X2.025000X-2.375000X-2.025000X2.375000X-2.025000X2.375000X2.025000X0*%
%TD*%
%TA.AperFunction,SMDPad,CuDef*%
%ADD16RoundRect,0.250002X-5.149998X4.449998X-5.149998X-4.449998X5.149998X-4.449998X5.149998X4.449998X0*%
%TD*%
%TA.AperFunction,ComponentPad*%
%ADD17R,1.000000X1.000000*%
%TD*%
%TA.AperFunction,ComponentPad*%
%ADD18O,1.000000X1.000000*%
%TD*%
%TA.AperFunction,SMDPad,CuDef*%
%ADD19RoundRect,0.250000X0.350000X0.450000X-0.350000X0.450000X-0.350000X-0.450000X0.350000X-0.450000X0*%
%TD*%
%TA.AperFunction,SMDPad,CuDef*%
%ADD20RoundRect,0.250000X0.450000X-0.350000X0.450000X0.350000X-0.450000X0.350000X-0.450000X-0.350000X0*%
%TD*%
%TA.AperFunction,SMDPad,CuDef*%
%ADD21RoundRect,0.250000X-0.450000X0.350000X-0.450000X-0.350000X0.450000X-0.350000X0.450000X0.350000X0*%
%TD*%
%TA.AperFunction,SMDPad,CuDef*%
%ADD22FreePoly0,0.000000*%
%TD*%
%TA.AperFunction,SMDPad,CuDef*%
%ADD23FreePoly1,0.000000*%
%TD*%
%TA.AperFunction,ComponentPad*%
%ADD24C,2.000000*%
%TD*%
%TA.AperFunction,SMDPad,CuDef*%
%ADD25FreePoly0,180.000000*%
%TD*%
%TA.AperFunction,SMDPad,CuDef*%
%ADD26FreePoly1,180.000000*%
%TD*%
%TA.AperFunction,SMDPad,CuDef*%
%ADD27RoundRect,0.375000X-0.375000X0.625000X-0.375000X-0.625000X0.375000X-0.625000X0.375000X0.625000X0*%
%TD*%
%TA.AperFunction,SMDPad,CuDef*%
%ADD28RoundRect,0.500000X-1.400000X0.500000X-1.400000X-0.500000X1.400000X-0.500000X1.400000X0.500000X0*%
%TD*%
%TA.AperFunction,SMDPad,CuDef*%
%ADD29R,1.500000X0.900000*%
%TD*%
%TA.AperFunction,SMDPad,CuDef*%
%ADD30R,0.900000X1.500000*%
%TD*%
%TA.AperFunction,HeatsinkPad*%
%ADD31C,0.600000*%
%TD*%
%TA.AperFunction,SMDPad,CuDef*%
%ADD32R,3.900000X3.900000*%
%TD*%
%TA.AperFunction,SMDPad,CuDef*%
%ADD33RoundRect,0.250000X-0.337500X-0.475000X0.337500X-0.475000X0.337500X0.475000X-0.337500X0.475000X0*%
%TD*%
%TA.AperFunction,SMDPad,CuDef*%
%ADD34RoundRect,0.250000X0.650000X-1.000000X0.650000X1.000000X-0.650000X1.000000X-0.650000X-1.000000X0*%
%TD*%
%TA.AperFunction,SMDPad,CuDef*%
%ADD35RoundRect,0.150000X0.150000X-0.587500X0.150000X0.587500X-0.150000X0.587500X-0.150000X-0.587500X0*%
%TD*%
%TA.AperFunction,SMDPad,CuDef*%
%ADD36RoundRect,0.250000X0.475000X-0.337500X0.475000X0.337500X-0.475000X0.337500X-0.475000X-0.337500X0*%
%TD*%
%TA.AperFunction,SMDPad,CuDef*%
%ADD37RoundRect,0.250000X0.325000X0.450000X-0.325000X0.450000X-0.325000X-0.450000X0.325000X-0.450000X0*%
%TD*%
%TA.AperFunction,SMDPad,CuDef*%
%ADD38RoundRect,0.250000X0.337500X0.475000X-0.337500X0.475000X-0.337500X-0.475000X0.337500X-0.475000X0*%
%TD*%
%TA.AperFunction,SMDPad,CuDef*%
%ADD39RoundRect,0.150000X-0.587500X-0.150000X0.587500X-0.150000X0.587500X0.150000X-0.587500X0.150000X0*%
%TD*%
%TA.AperFunction,ViaPad*%
%ADD40C,0.600000*%
%TD*%
%TA.AperFunction,Conductor*%
%ADD41C,0.200000*%
%TD*%
%TA.AperFunction,Conductor*%
%ADD42C,1.000000*%
%TD*%
%TA.AperFunction,Conductor*%
%ADD43C,0.400000*%
%TD*%
%TA.AperFunction,Conductor*%
%ADD44C,0.600000*%
%TD*%
G04 APERTURE END LIST*
D10*
%TO.P,R4,1*%
%TO.N,/IO0*%
X126127000Y-103124000D03*
%TO.P,R4,2*%
%TO.N,+3.3V*%
X128127000Y-103124000D03*
%TD*%
D11*
%TO.P,J3,1,Pin_1*%
%TO.N,+5V*%
X138938000Y-107823000D03*
D12*
%TO.P,J3,2,Pin_2*%
%TO.N,/21*%
X138938000Y-110363000D03*
%TO.P,J3,3,Pin_3*%
%TO.N,GND*%
X138938000Y-112903000D03*
%TD*%
D11*
%TO.P,J2,1,Pin_1*%
%TO.N,+5V*%
X134874000Y-107823000D03*
D12*
%TO.P,J2,2,Pin_2*%
%TO.N,/ADC8*%
X134874000Y-110363000D03*
%TO.P,J2,3,Pin_3*%
%TO.N,GND*%
X134874000Y-112903000D03*
%TD*%
D13*
%TO.P,C3,1*%
%TO.N,+5V*%
X163566000Y-97750500D03*
%TO.P,C3,2*%
%TO.N,GND*%
X163566000Y-99825500D03*
%TD*%
D11*
%TO.P,TP1,1,1*%
%TO.N,+5V*%
X146431000Y-103505000D03*
%TD*%
D14*
%TO.P,U3,1,VIN*%
%TO.N,Net-(BT1-+)*%
X183505000Y-90152000D03*
%TO.P,U3,2,OUT*%
%TO.N,Net-(D2-A)*%
X181805000Y-90152000D03*
%TO.P,U3,3,GND*%
%TO.N,GND*%
X180105000Y-90152000D03*
D15*
X182880000Y-96877000D03*
X177330000Y-96877000D03*
D16*
X180105000Y-99302000D03*
D15*
X182880000Y-101727000D03*
X177330000Y-101727000D03*
D14*
%TO.P,U3,4,FB*%
%TO.N,Net-(D2-A)*%
X178405000Y-90152000D03*
%TO.P,U3,5,~{ON}/OFF*%
%TO.N,GND*%
X176705000Y-90152000D03*
%TD*%
D11*
%TO.P,J5,1,Pin_1*%
%TO.N,+5V*%
X146812000Y-107823000D03*
D12*
%TO.P,J5,2,Pin_2*%
%TO.N,/48*%
X146812000Y-110363000D03*
%TO.P,J5,3,Pin_3*%
%TO.N,GND*%
X146812000Y-112903000D03*
%TD*%
D17*
%TO.P,J7,1,VTref*%
%TO.N,+3.3V*%
X161163000Y-87122000D03*
D18*
%TO.P,J7,2,SWDIO/TMS*%
%TO.N,/IO42*%
X159893000Y-87122000D03*
%TO.P,J7,3,GND*%
%TO.N,GND*%
X161163000Y-85852000D03*
%TO.P,J7,4,SWCLK/TCK*%
%TO.N,/IO39*%
X159893000Y-85852000D03*
%TO.P,J7,5,GND*%
%TO.N,GND*%
X161163000Y-84582000D03*
%TO.P,J7,6,SWO/TDO*%
%TO.N,/IO40*%
X159893000Y-84582000D03*
%TO.P,J7,7,KEY*%
%TO.N,unconnected-(J7-KEY-Pad7)*%
X161163000Y-83312000D03*
%TO.P,J7,8,NC/TDI*%
%TO.N,/IO41*%
X159893000Y-83312000D03*
%TO.P,J7,9,GNDDetect*%
%TO.N,GND*%
X161163000Y-82042000D03*
%TO.P,J7,10,~{RESET}*%
%TO.N,/EN*%
X159893000Y-82042000D03*
%TD*%
D19*
%TO.P,R1,1*%
%TO.N,+3.3V*%
X117153500Y-73503000D03*
%TO.P,R1,2*%
%TO.N,/EN*%
X115153500Y-73503000D03*
%TD*%
D20*
%TO.P,R2,1*%
%TO.N,/DTR*%
X116205000Y-93202000D03*
%TO.P,R2,2*%
%TO.N,Net-(Q1-B)*%
X116205000Y-91202000D03*
%TD*%
D11*
%TO.P,J16,1,Pin_1*%
%TO.N,+3.3V*%
X134620000Y-88900000D03*
D12*
%TO.P,J16,2,Pin_2*%
%TO.N,/6ADC*%
X134620000Y-91440000D03*
%TO.P,J16,3,Pin_3*%
%TO.N,/7ADC*%
X134620000Y-93980000D03*
%TO.P,J16,4,Pin_4*%
%TO.N,GND*%
X134620000Y-96520000D03*
%TD*%
D21*
%TO.P,R3,1*%
%TO.N,/RTS*%
X116078000Y-95536000D03*
%TO.P,R3,2*%
%TO.N,Net-(Q2-B)*%
X116078000Y-97536000D03*
%TD*%
D10*
%TO.P,R9,1*%
%TO.N,Net-(Q2-E)*%
X124095000Y-99822000D03*
%TO.P,R9,2*%
%TO.N,/IO0*%
X126095000Y-99822000D03*
%TD*%
D13*
%TO.P,C6,1*%
%TO.N,Net-(D2-A)*%
X166995000Y-88860500D03*
%TO.P,C6,2*%
%TO.N,GND*%
X166995000Y-90935500D03*
%TD*%
D22*
%TO.P,JP2,1,A*%
%TO.N,Net-(JP2-A)*%
X163830000Y-109982000D03*
D23*
%TO.P,JP2,2,B*%
%TO.N,+3.3V*%
X165130000Y-109982000D03*
%TD*%
D11*
%TO.P,J12,1,Pin_1*%
%TO.N,+3.3V*%
X134620000Y-77597000D03*
D12*
%TO.P,J12,2,Pin_2*%
%TO.N,/ADC3*%
X134620000Y-80137000D03*
%TO.P,J12,3,Pin_3*%
%TO.N,/ADC4*%
X134620000Y-82677000D03*
%TO.P,J12,4,Pin_4*%
%TO.N,GND*%
X134620000Y-85217000D03*
%TD*%
D11*
%TO.P,J1,1,Pin_1*%
%TO.N,+5V*%
X130556000Y-107838000D03*
D12*
%TO.P,J1,2,Pin_2*%
%TO.N,/ADC2*%
X130556000Y-110378000D03*
%TO.P,J1,3,Pin_3*%
%TO.N,GND*%
X130556000Y-112918000D03*
%TD*%
D11*
%TO.P,J11,1,Pin_1*%
%TO.N,GND*%
X158877000Y-98425000D03*
D12*
%TO.P,J11,2,Pin_2*%
%TO.N,+5V*%
X156337000Y-98425000D03*
%TO.P,J11,3,Pin_3*%
%TO.N,/3ADC*%
X153797000Y-98425000D03*
%TO.P,J11,4,Pin_4*%
%TO.N,/2ADC*%
X151257000Y-98425000D03*
%TO.P,J11,5,Pin_5*%
%TO.N,/1ADC*%
X148717000Y-98425000D03*
%TD*%
D24*
%TO.P,SW2,1,1*%
%TO.N,/EN*%
X115876000Y-78649000D03*
X122376000Y-78649000D03*
%TO.P,SW2,2,2*%
%TO.N,GND*%
X115876000Y-83149000D03*
X122376000Y-83149000D03*
%TD*%
D25*
%TO.P,JP1,1,A*%
%TO.N,Net-(D2-K)*%
X163210000Y-92456000D03*
D26*
%TO.P,JP1,2,B*%
%TO.N,+5V*%
X161910000Y-92456000D03*
%TD*%
D11*
%TO.P,J4,1,Pin_1*%
%TO.N,+5V*%
X143002000Y-107823000D03*
D12*
%TO.P,J4,2,Pin_2*%
%TO.N,/47*%
X143002000Y-110363000D03*
%TO.P,J4,3,Pin_3*%
%TO.N,GND*%
X143002000Y-112903000D03*
%TD*%
D27*
%TO.P,U2,1,GND*%
%TO.N,GND*%
X171440000Y-98026000D03*
%TO.P,U2,2,VO*%
%TO.N,Net-(JP2-A)*%
X169140000Y-98026000D03*
D28*
X169140000Y-104326000D03*
D27*
%TO.P,U2,3,VI*%
%TO.N,+5V*%
X166840000Y-98026000D03*
%TD*%
D19*
%TO.P,R5,1*%
%TO.N,Net-(D1-K)*%
X159734000Y-107442000D03*
%TO.P,R5,2*%
%TO.N,GND*%
X157734000Y-107442000D03*
%TD*%
D29*
%TO.P,U1,1,GND*%
%TO.N,GND*%
X137567000Y-76327000D03*
%TO.P,U1,2,3V3*%
%TO.N,+3.3V*%
X137567000Y-77597000D03*
%TO.P,U1,3,EN*%
%TO.N,/EN*%
X137567000Y-78867000D03*
%TO.P,U1,4,IO4*%
%TO.N,/ADC3*%
X137567000Y-80137000D03*
%TO.P,U1,5,IO5*%
%TO.N,/ADC4*%
X137567000Y-81407000D03*
%TO.P,U1,6,IO6*%
%TO.N,/ADC5*%
X137567000Y-82677000D03*
%TO.P,U1,7,IO7*%
%TO.N,/ADC6*%
X137567000Y-83947000D03*
%TO.P,U1,8,IO15*%
%TO.N,/4ADC*%
X137567000Y-85217000D03*
%TO.P,U1,9,IO16*%
%TO.N,/5ADC*%
X137567000Y-86487000D03*
%TO.P,U1,10,IO17*%
%TO.N,/6ADC*%
X137567000Y-87757000D03*
%TO.P,U1,11,IO18*%
%TO.N,/7ADC*%
X137567000Y-89027000D03*
%TO.P,U1,12,IO8*%
%TO.N,/ADC7*%
X137567000Y-90297000D03*
%TO.P,U1,13,IO19*%
%TO.N,/D-*%
X137567000Y-91567000D03*
%TO.P,U1,14,IO20*%
%TO.N,/D+*%
X137567000Y-92837000D03*
D30*
%TO.P,U1,15,IO3*%
%TO.N,/ADC2*%
X139332000Y-94087000D03*
%TO.P,U1,16,IO46*%
%TO.N,/46*%
X140602000Y-94087000D03*
%TO.P,U1,17,IO9*%
%TO.N,/ADC8*%
X141872000Y-94087000D03*
%TO.P,U1,18,IO10*%
%TO.N,/ADC9*%
X143142000Y-94087000D03*
%TO.P,U1,19,IO11*%
%TO.N,/0ADC*%
X144412000Y-94087000D03*
%TO.P,U1,20,IO12*%
%TO.N,/1ADC*%
X145682000Y-94087000D03*
%TO.P,U1,21,IO13*%
%TO.N,/2ADC*%
X146952000Y-94087000D03*
%TO.P,U1,22,IO14*%
%TO.N,/3ADC*%
X148222000Y-94087000D03*
%TO.P,U1,23,IO21*%
%TO.N,/21*%
X149492000Y-94087000D03*
%TO.P,U1,24,IO47*%
%TO.N,/47*%
X150762000Y-94087000D03*
%TO.P,U1,25,IO48*%
%TO.N,/48*%
X152032000Y-94087000D03*
%TO.P,U1,26,IO45*%
%TO.N,/45*%
X153302000Y-94087000D03*
D29*
%TO.P,U1,27,IO0*%
%TO.N,/IO0*%
X155067000Y-92837000D03*
%TO.P,U1,28,IO35*%
%TO.N,/35*%
X155067000Y-91567000D03*
%TO.P,U1,29,IO36*%
%TO.N,/36*%
X155067000Y-90297000D03*
%TO.P,U1,30,IO37*%
%TO.N,/37*%
X155067000Y-89027000D03*
%TO.P,U1,31,IO38*%
%TO.N,/38*%
X155067000Y-87757000D03*
%TO.P,U1,32,IO39*%
%TO.N,/IO39*%
X155067000Y-86487000D03*
%TO.P,U1,33,IO40*%
%TO.N,/IO40*%
X155067000Y-85217000D03*
%TO.P,U1,34,IO41*%
%TO.N,/IO41*%
X155067000Y-83947000D03*
%TO.P,U1,35,IO42*%
%TO.N,/IO42*%
X155067000Y-82677000D03*
%TO.P,U1,36,RXD0*%
%TO.N,/RX*%
X155067000Y-81407000D03*
%TO.P,U1,37,TXD0*%
%TO.N,/TX*%
X155067000Y-80137000D03*
%TO.P,U1,38,IO2*%
%TO.N,/ADC1*%
X155067000Y-78867000D03*
%TO.P,U1,39,IO1*%
%TO.N,/ADC0*%
X155067000Y-77597000D03*
%TO.P,U1,40,GND*%
%TO.N,GND*%
X155067000Y-76327000D03*
D31*
%TO.P,U1,41,GND*%
X143417000Y-83347000D03*
X143417000Y-84747000D03*
X144117000Y-82647000D03*
X144117000Y-84047000D03*
X144117000Y-85447000D03*
X144817000Y-83347000D03*
D32*
X144817000Y-84047000D03*
D31*
X144817000Y-84747000D03*
X145517000Y-82647000D03*
X145517000Y-84047000D03*
X145517000Y-85447000D03*
X146217000Y-83347000D03*
X146217000Y-84747000D03*
%TD*%
D33*
%TO.P,C7,1*%
%TO.N,GND*%
X122131000Y-75946000D03*
%TO.P,C7,2*%
%TO.N,+3.3V*%
X124206000Y-75946000D03*
%TD*%
D11*
%TO.P,J13,1,Pin_1*%
%TO.N,+3.3V*%
X130810000Y-88900000D03*
D12*
%TO.P,J13,2,Pin_2*%
%TO.N,/ADC9*%
X130810000Y-91440000D03*
%TO.P,J13,3,Pin_3*%
%TO.N,/0ADC*%
X130810000Y-93980000D03*
%TO.P,J13,4,Pin_4*%
%TO.N,GND*%
X130810000Y-96520000D03*
%TD*%
D34*
%TO.P,D2,1,K*%
%TO.N,Net-(D2-K)*%
X171059000Y-92787000D03*
%TO.P,D2,2,A*%
%TO.N,Net-(D2-A)*%
X171059000Y-88787000D03*
%TD*%
D11*
%TO.P,TP2,1,1*%
%TO.N,+3.3V*%
X171577000Y-109982000D03*
%TD*%
D35*
%TO.P,Q2,1,B*%
%TO.N,Net-(Q2-B)*%
X120970000Y-96871000D03*
%TO.P,Q2,2,E*%
%TO.N,Net-(Q2-E)*%
X122870000Y-96871000D03*
%TO.P,Q2,3,C*%
%TO.N,/DTR*%
X121920000Y-94996000D03*
%TD*%
D11*
%TO.P,J6,1,Pin_1*%
%TO.N,GND*%
X159512000Y-78232000D03*
D12*
%TO.P,J6,2,Pin_2*%
%TO.N,/TX*%
X162052000Y-78232000D03*
%TO.P,J6,3,Pin_3*%
%TO.N,/RX*%
X164592000Y-78232000D03*
%TO.P,J6,4,Pin_4*%
%TO.N,/RTS*%
X167132000Y-78232000D03*
%TO.P,J6,5,Pin_5*%
%TO.N,/DTR*%
X169672000Y-78232000D03*
%TD*%
D11*
%TO.P,J14,1,Pin_1*%
%TO.N,+3.3V*%
X130810000Y-77597000D03*
D12*
%TO.P,J14,2,Pin_2*%
%TO.N,/ADC5*%
X130810000Y-80137000D03*
%TO.P,J14,3,Pin_3*%
%TO.N,/ADC6*%
X130810000Y-82677000D03*
%TO.P,J14,4,Pin_4*%
%TO.N,GND*%
X130810000Y-85217000D03*
%TD*%
D36*
%TO.P,C5,1*%
%TO.N,Net-(BT1-+)*%
X173599000Y-82172500D03*
%TO.P,C5,2*%
%TO.N,GND*%
X173599000Y-80097500D03*
%TD*%
D37*
%TO.P,D1,1,K*%
%TO.N,Net-(D1-K)*%
X159648000Y-103632000D03*
%TO.P,D1,2,A*%
%TO.N,/45*%
X157598000Y-103632000D03*
%TD*%
D38*
%TO.P,C1,1*%
%TO.N,GND*%
X117221000Y-75692000D03*
%TO.P,C1,2*%
%TO.N,/EN*%
X115146000Y-75692000D03*
%TD*%
D11*
%TO.P,J15,1,Pin_1*%
%TO.N,+3.3V*%
X127000000Y-77597000D03*
D12*
%TO.P,J15,2,Pin_2*%
%TO.N,/4ADC*%
X127000000Y-80137000D03*
%TO.P,J15,3,Pin_3*%
%TO.N,/5ADC*%
X127000000Y-82677000D03*
%TO.P,J15,4,Pin_4*%
%TO.N,GND*%
X127000000Y-85217000D03*
%TD*%
D24*
%TO.P,SW1,1,1*%
%TO.N,/IO0*%
X116459000Y-103124000D03*
X122959000Y-103124000D03*
%TO.P,SW1,2,2*%
%TO.N,GND*%
X116459000Y-107624000D03*
X122959000Y-107624000D03*
%TD*%
D39*
%TO.P,Q1,1,B*%
%TO.N,Net-(Q1-B)*%
X120396000Y-90805000D03*
%TO.P,Q1,2,E*%
%TO.N,/RTS*%
X120396000Y-92705000D03*
%TO.P,Q1,3,C*%
%TO.N,Net-(Q1-C)*%
X122271000Y-91755000D03*
%TD*%
D11*
%TO.P,+,1,+*%
%TO.N,Net-(BT1-+)*%
X181964000Y-82385000D03*
D12*
%TO.P,+,2,-*%
%TO.N,GND*%
X184504000Y-82385000D03*
%TD*%
D19*
%TO.P,R8,1*%
%TO.N,Net-(Q1-C)*%
X122666000Y-86487000D03*
%TO.P,R8,2*%
%TO.N,/EN*%
X120666000Y-86487000D03*
%TD*%
D36*
%TO.P,C2,1*%
%TO.N,Net-(JP2-A)*%
X163566000Y-104270500D03*
%TO.P,C2,2*%
%TO.N,GND*%
X163566000Y-102195500D03*
%TD*%
D40*
%TO.N,GND*%
X175387000Y-105791000D03*
X152400000Y-77089000D03*
X118872000Y-72009000D03*
X161544000Y-99187000D03*
X139954000Y-76835000D03*
X172847000Y-95758000D03*
X159893000Y-101092000D03*
X156083000Y-108077000D03*
X163703000Y-82042000D03*
X163703000Y-83439000D03*
X174498000Y-88646000D03*
X174752000Y-77851000D03*
X161544000Y-101092000D03*
X179578000Y-86106000D03*
%TO.N,/EN*%
X152019000Y-81534000D03*
%TO.N,+3.3V*%
X120777000Y-73406000D03*
X164846000Y-94615000D03*
X124460000Y-77978000D03*
X124460000Y-80645000D03*
X164719000Y-90551000D03*
X120015000Y-76835000D03*
%TO.N,/RTS*%
X127635000Y-87630000D03*
%TO.N,/21*%
X140589000Y-109601000D03*
X149649265Y-95587735D03*
%TO.N,/ADC2*%
X138049000Y-95885000D03*
X138049000Y-99822000D03*
%TO.N,/ADC6*%
X136017000Y-83947000D03*
X132715000Y-83820000D03*
%TO.N,/ADC5*%
X136144000Y-82296000D03*
X132715000Y-81407000D03*
%TO.N,/48*%
X152527000Y-106934000D03*
X152527000Y-96012000D03*
%TO.N,/0ADC*%
X128016000Y-98044000D03*
X139954000Y-101473000D03*
%TO.N,/45*%
X155194000Y-96520000D03*
X156210000Y-102235000D03*
%TO.N,/47*%
X149733000Y-107442000D03*
X150876000Y-95885000D03*
%TO.N,/DTR*%
X120269000Y-94996000D03*
X124396500Y-92519500D03*
X118110000Y-93599000D03*
%TO.N,/IO42*%
X156972000Y-83185000D03*
X158496000Y-87122000D03*
%TO.N,/ADC8*%
X139192000Y-96266000D03*
X136652000Y-109601000D03*
%TO.N,/ADC9*%
X127127000Y-93345000D03*
X138811000Y-100584000D03*
%TO.N,/IO0*%
X152273000Y-92329000D03*
X140335000Y-96393000D03*
%TD*%
D41*
%TO.N,GND*%
X177330000Y-101727000D02*
X177330000Y-103848000D01*
X117475000Y-75946000D02*
X122131000Y-75946000D01*
X161163000Y-82042000D02*
X163703000Y-82042000D01*
X176705000Y-90152000D02*
X175199000Y-88646000D01*
X153162000Y-76327000D02*
X152400000Y-77089000D01*
X163566000Y-99825500D02*
X162182500Y-99825500D01*
X137567000Y-76327000D02*
X139446000Y-76327000D01*
X173599000Y-80097500D02*
X173599000Y-79004000D01*
X162182500Y-99825500D02*
X161544000Y-99187000D01*
X171440000Y-98026000D02*
X171440000Y-97165000D01*
X161911500Y-85852000D02*
X161163000Y-85852000D01*
X162647500Y-102195500D02*
X161544000Y-101092000D01*
X161163000Y-85852000D02*
X161163000Y-84582000D01*
X163566000Y-102195500D02*
X162647500Y-102195500D01*
X146797000Y-112918000D02*
X146812000Y-112903000D01*
X171440000Y-97165000D02*
X172847000Y-95758000D01*
X175925000Y-90932000D02*
X174117000Y-90932000D01*
X173599000Y-79004000D02*
X174752000Y-77851000D01*
X130556000Y-112918000D02*
X146797000Y-112918000D01*
X158877000Y-98425000D02*
X158877000Y-100076000D01*
X118872000Y-74041000D02*
X118872000Y-72009000D01*
X162560000Y-84582000D02*
X163703000Y-83439000D01*
X174117000Y-90932000D02*
X174113500Y-90935500D01*
X180105000Y-86633000D02*
X179578000Y-86106000D01*
X139446000Y-76327000D02*
X139954000Y-76835000D01*
X156718000Y-107442000D02*
X156083000Y-108077000D01*
X174113500Y-90935500D02*
X166995000Y-90935500D01*
X175199000Y-88646000D02*
X174498000Y-88646000D01*
X161163000Y-84582000D02*
X162560000Y-84582000D01*
X180105000Y-90152000D02*
X180105000Y-86633000D01*
X177330000Y-103848000D02*
X175387000Y-105791000D01*
X117221000Y-75692000D02*
X117475000Y-75946000D01*
X155067000Y-76327000D02*
X153162000Y-76327000D01*
X176705000Y-90152000D02*
X175925000Y-90932000D01*
X157734000Y-107442000D02*
X156718000Y-107442000D01*
X158877000Y-100076000D02*
X159893000Y-101092000D01*
X116459000Y-107624000D02*
X122959000Y-107624000D01*
X166995000Y-90935500D02*
X161911500Y-85852000D01*
X117221000Y-75692000D02*
X118872000Y-74041000D01*
D42*
%TO.N,Net-(BT1-+)*%
X173811500Y-82385000D02*
X173599000Y-82172500D01*
X181964000Y-82385000D02*
X173811500Y-82385000D01*
X183505000Y-83926000D02*
X183505000Y-90152000D01*
X181964000Y-82385000D02*
X183505000Y-83926000D01*
D43*
%TO.N,/EN*%
X115153500Y-75684500D02*
X115146000Y-75692000D01*
X115146000Y-77919000D02*
X115876000Y-78649000D01*
X120666000Y-86487000D02*
X120666000Y-80359000D01*
X120666000Y-80359000D02*
X122376000Y-78649000D01*
X137567000Y-78867000D02*
X149352000Y-78867000D01*
X115153500Y-73503000D02*
X115153500Y-75684500D01*
X149352000Y-78867000D02*
X152019000Y-81534000D01*
X122376000Y-78649000D02*
X115876000Y-78649000D01*
X122376000Y-78649000D02*
X122594000Y-78867000D01*
X115146000Y-75692000D02*
X115146000Y-77919000D01*
X122594000Y-78867000D02*
X137567000Y-78867000D01*
%TO.N,+3.3V*%
X123081000Y-77071000D02*
X120251000Y-77071000D01*
X124206000Y-75946000D02*
X124206000Y-77724000D01*
X120251000Y-77071000D02*
X120015000Y-76835000D01*
X124206000Y-75946000D02*
X125857000Y-77597000D01*
X124206000Y-75946000D02*
X123081000Y-77071000D01*
X134620000Y-88900000D02*
X130810000Y-88900000D01*
X164592000Y-90551000D02*
X164719000Y-90551000D01*
X161163000Y-87122000D02*
X164592000Y-90551000D01*
X125857000Y-77597000D02*
X137567000Y-77597000D01*
X124206000Y-77724000D02*
X124460000Y-77978000D01*
D41*
%TO.N,/RTS*%
X122699052Y-92705000D02*
X127635000Y-87769052D01*
X120396000Y-92705000D02*
X122699052Y-92705000D01*
X117565000Y-95536000D02*
X120396000Y-92705000D01*
X127635000Y-87769052D02*
X127635000Y-87630000D01*
X116078000Y-95536000D02*
X117565000Y-95536000D01*
D44*
%TO.N,+5V*%
X146812000Y-103886000D02*
X146431000Y-103505000D01*
X156337000Y-98425000D02*
X146939000Y-107823000D01*
X166840000Y-98026000D02*
X163841500Y-98026000D01*
X143002000Y-107823000D02*
X138938000Y-107823000D01*
X130571000Y-107823000D02*
X130556000Y-107838000D01*
X146812000Y-107823000D02*
X143002000Y-107823000D01*
X146812000Y-107823000D02*
X146812000Y-103886000D01*
X161910000Y-92456000D02*
X161910000Y-96094500D01*
X146939000Y-107823000D02*
X146812000Y-107823000D01*
X161910000Y-96094500D02*
X163566000Y-97750500D01*
X138938000Y-107823000D02*
X134874000Y-107823000D01*
X161910000Y-92456000D02*
X156337000Y-98029000D01*
X134874000Y-107823000D02*
X130571000Y-107823000D01*
X156337000Y-98029000D02*
X156337000Y-98425000D01*
D41*
%TO.N,/21*%
X138938000Y-110363000D02*
X139827000Y-110363000D01*
X149649265Y-94244265D02*
X149492000Y-94087000D01*
X139827000Y-110363000D02*
X140589000Y-109601000D01*
X149649265Y-95587735D02*
X149649265Y-94244265D01*
%TO.N,/ADC2*%
X129936000Y-110378000D02*
X130556000Y-110378000D01*
X138049000Y-95885000D02*
X138049000Y-95370000D01*
X128397000Y-108839000D02*
X129936000Y-110378000D01*
X133223000Y-104648000D02*
X130175000Y-104648000D01*
X128397000Y-106426000D02*
X128397000Y-108839000D01*
X130175000Y-104648000D02*
X128397000Y-106426000D01*
X138049000Y-95370000D02*
X139332000Y-94087000D01*
X138049000Y-99822000D02*
X133223000Y-104648000D01*
%TO.N,/ADC3*%
X134620000Y-80137000D02*
X137567000Y-80137000D01*
%TO.N,/ADC4*%
X134620000Y-82677000D02*
X135890000Y-81407000D01*
X135890000Y-81407000D02*
X137567000Y-81407000D01*
%TO.N,/ADC6*%
X131953000Y-83820000D02*
X132715000Y-83820000D01*
X130810000Y-82677000D02*
X131953000Y-83820000D01*
X136017000Y-83947000D02*
X137567000Y-83947000D01*
%TO.N,/ADC5*%
X130810000Y-80137000D02*
X132080000Y-81407000D01*
X137186000Y-82296000D02*
X137567000Y-82677000D01*
X136144000Y-82296000D02*
X137186000Y-82296000D01*
X132080000Y-81407000D02*
X132715000Y-81407000D01*
%TO.N,/48*%
X152527000Y-95631000D02*
X152032000Y-95136000D01*
X152032000Y-95136000D02*
X152032000Y-94087000D01*
X149098000Y-110363000D02*
X152527000Y-106934000D01*
X152527000Y-96012000D02*
X152527000Y-95631000D01*
X146812000Y-110363000D02*
X149098000Y-110363000D01*
%TO.N,/TX*%
X162052000Y-78232000D02*
X160039000Y-80245000D01*
X155175000Y-80245000D02*
X155067000Y-80137000D01*
X160039000Y-80245000D02*
X155175000Y-80245000D01*
%TO.N,/0ADC*%
X130810000Y-93980000D02*
X128016000Y-96774000D01*
X144412000Y-97015000D02*
X144412000Y-94087000D01*
X139954000Y-101473000D02*
X144412000Y-97015000D01*
X128016000Y-96774000D02*
X128016000Y-98044000D01*
%TO.N,/RX*%
X164592000Y-78232000D02*
X162052000Y-80772000D01*
X155597000Y-81407000D02*
X155067000Y-81407000D01*
X162052000Y-80772000D02*
X156232000Y-80772000D01*
X156232000Y-80772000D02*
X155597000Y-81407000D01*
%TO.N,/45*%
X156210000Y-102235000D02*
X156210000Y-102244000D01*
X153302000Y-94087000D02*
X154829500Y-95614500D01*
X154829500Y-95614500D02*
X155194000Y-95979000D01*
X156210000Y-102244000D02*
X157598000Y-103632000D01*
X155194000Y-95979000D02*
X155194000Y-96520000D01*
%TO.N,/1ADC*%
X148717000Y-98425000D02*
X145682000Y-95390000D01*
X145682000Y-95390000D02*
X145682000Y-94087000D01*
%TO.N,/47*%
X150876000Y-95885000D02*
X150876000Y-94201000D01*
X150876000Y-94201000D02*
X150762000Y-94087000D01*
X148202000Y-108973000D02*
X149733000Y-107442000D01*
X144392000Y-108973000D02*
X148202000Y-108973000D01*
X143002000Y-110363000D02*
X144392000Y-108973000D01*
%TO.N,/DTR*%
X120269000Y-94996000D02*
X121920000Y-94996000D01*
X117713000Y-93202000D02*
X118110000Y-93599000D01*
X116205000Y-93202000D02*
X117713000Y-93202000D01*
X124396500Y-92519500D02*
X121920000Y-94996000D01*
%TO.N,/IO42*%
X156972000Y-83185000D02*
X156464000Y-82677000D01*
X159893000Y-87122000D02*
X158496000Y-87122000D01*
X156464000Y-82677000D02*
X155067000Y-82677000D01*
%TO.N,/IO39*%
X159893000Y-85852000D02*
X159766000Y-85852000D01*
X159766000Y-85852000D02*
X159131000Y-86487000D01*
X159131000Y-86487000D02*
X155067000Y-86487000D01*
%TO.N,/ADC8*%
X141872000Y-94617000D02*
X141872000Y-94087000D01*
X139665000Y-95793000D02*
X140696000Y-95793000D01*
X134874000Y-110363000D02*
X135890000Y-110363000D01*
X135890000Y-110363000D02*
X136652000Y-109601000D01*
X139192000Y-96266000D02*
X139665000Y-95793000D01*
X140696000Y-95793000D02*
X141872000Y-94617000D01*
%TO.N,/ADC9*%
X130810000Y-91440000D02*
X129032000Y-91440000D01*
X138811000Y-100584000D02*
X143142000Y-96253000D01*
X143142000Y-96253000D02*
X143142000Y-94087000D01*
X129032000Y-91440000D02*
X127127000Y-93345000D01*
%TO.N,Net-(D1-K)*%
X159648000Y-103632000D02*
X159648000Y-107356000D01*
X159648000Y-107356000D02*
X159734000Y-107442000D01*
%TO.N,/3ADC*%
X152400000Y-97028000D02*
X149987000Y-97028000D01*
X148222000Y-95263000D02*
X148222000Y-94087000D01*
X153797000Y-98425000D02*
X152400000Y-97028000D01*
X149987000Y-97028000D02*
X148222000Y-95263000D01*
%TO.N,/7ADC*%
X134620000Y-93980000D02*
X136417000Y-92183000D01*
X137033000Y-89027000D02*
X137567000Y-89027000D01*
X136417000Y-89643000D02*
X137033000Y-89027000D01*
X136417000Y-92183000D02*
X136417000Y-89643000D01*
%TO.N,/2ADC*%
X150622000Y-98425000D02*
X146952000Y-94755000D01*
X151257000Y-98425000D02*
X150622000Y-98425000D01*
X146952000Y-94755000D02*
X146952000Y-94087000D01*
%TO.N,/4ADC*%
X134054314Y-83947000D02*
X135128000Y-83947000D01*
X127000000Y-80137000D02*
X128270000Y-81407000D01*
X136398000Y-85217000D02*
X137567000Y-85217000D01*
X131514314Y-81407000D02*
X134054314Y-83947000D01*
X128270000Y-81407000D02*
X131514314Y-81407000D01*
X135128000Y-83947000D02*
X136398000Y-85217000D01*
%TO.N,/5ADC*%
X133731000Y-86487000D02*
X137567000Y-86487000D01*
X127000000Y-82677000D02*
X128270000Y-83947000D01*
X131191000Y-83947000D02*
X133731000Y-86487000D01*
X128270000Y-83947000D02*
X131191000Y-83947000D01*
%TO.N,/6ADC*%
X136017000Y-90043000D02*
X136017000Y-88646000D01*
X136017000Y-88646000D02*
X136906000Y-87757000D01*
X136906000Y-87757000D02*
X137567000Y-87757000D01*
X134620000Y-91440000D02*
X136017000Y-90043000D01*
D44*
%TO.N,Net-(D2-A)*%
X171059000Y-87739000D02*
X171059000Y-88787000D01*
X181219000Y-93454000D02*
X178933000Y-93454000D01*
X181805000Y-92868000D02*
X181219000Y-93454000D01*
X178405000Y-90152000D02*
X178405000Y-87852000D01*
X178405000Y-92926000D02*
X178405000Y-90152000D01*
X178405000Y-87852000D02*
X176895000Y-86342000D01*
X171059000Y-88787000D02*
X167068500Y-88787000D01*
X181805000Y-90152000D02*
X181805000Y-92868000D01*
X176895000Y-86342000D02*
X172456000Y-86342000D01*
X172456000Y-86342000D02*
X171059000Y-87739000D01*
X178933000Y-93454000D02*
X178405000Y-92926000D01*
X167068500Y-88787000D02*
X166995000Y-88860500D01*
D41*
%TO.N,/IO41*%
X159893000Y-83312000D02*
X159258000Y-83947000D01*
X159258000Y-83947000D02*
X155067000Y-83947000D01*
%TO.N,/IO40*%
X159258000Y-85217000D02*
X155067000Y-85217000D01*
X159893000Y-84582000D02*
X159258000Y-85217000D01*
%TO.N,Net-(Q1-C)*%
X122666000Y-91360000D02*
X122271000Y-91755000D01*
X122666000Y-86487000D02*
X122666000Y-91360000D01*
%TO.N,Net-(Q1-B)*%
X119999000Y-91202000D02*
X120396000Y-90805000D01*
X116205000Y-91202000D02*
X119999000Y-91202000D01*
%TO.N,Net-(Q2-E)*%
X122870000Y-96871000D02*
X122870000Y-98597000D01*
X122870000Y-98597000D02*
X124095000Y-99822000D01*
%TO.N,Net-(Q2-B)*%
X116078000Y-97536000D02*
X120305000Y-97536000D01*
X120305000Y-97536000D02*
X120970000Y-96871000D01*
%TO.N,/IO0*%
X152273000Y-92329000D02*
X152654000Y-92329000D01*
X126095000Y-103092000D02*
X126127000Y-103124000D01*
X126095000Y-99822000D02*
X136906000Y-99822000D01*
X152654000Y-92329000D02*
X153162000Y-92837000D01*
X126095000Y-99822000D02*
X126095000Y-103092000D01*
X136906000Y-99822000D02*
X140335000Y-96393000D01*
X122959000Y-103124000D02*
X126127000Y-103124000D01*
X116459000Y-103124000D02*
X122959000Y-103124000D01*
X153162000Y-92837000D02*
X155067000Y-92837000D01*
D43*
%TO.N,Net-(JP2-A)*%
X163566000Y-104270500D02*
X163566000Y-104277000D01*
X169140000Y-98026000D02*
X169140000Y-104326000D01*
X163621500Y-104326000D02*
X163566000Y-104270500D01*
X163830000Y-104541000D02*
X163830000Y-109982000D01*
X163566000Y-104277000D02*
X163830000Y-104541000D01*
X169140000Y-104326000D02*
X163621500Y-104326000D01*
D44*
%TO.N,Net-(D2-K)*%
X170258630Y-92456000D02*
X170493315Y-92221315D01*
X163210000Y-92456000D02*
X170258630Y-92456000D01*
X171059000Y-92787000D02*
X170848500Y-92997500D01*
%TD*%
%TA.AperFunction,Conductor*%
%TO.N,+3.3V*%
G36*
X122260039Y-64933535D02*
G01*
X122305794Y-64986339D01*
X122317000Y-65037850D01*
X122317000Y-74596500D01*
X122297315Y-74663539D01*
X122244511Y-74709294D01*
X122193000Y-74720500D01*
X121743498Y-74720500D01*
X121743480Y-74720501D01*
X121640703Y-74731000D01*
X121640700Y-74731001D01*
X121474168Y-74786185D01*
X121474163Y-74786187D01*
X121324842Y-74878289D01*
X121200789Y-75002342D01*
X121108687Y-75151663D01*
X121108685Y-75151668D01*
X121072621Y-75260504D01*
X121032848Y-75317949D01*
X120968333Y-75344772D01*
X120954915Y-75345500D01*
X118716097Y-75345500D01*
X118649058Y-75325815D01*
X118603303Y-75273011D01*
X118593359Y-75203853D01*
X118622384Y-75140297D01*
X118628416Y-75133819D01*
X118883947Y-74878288D01*
X119352520Y-74409716D01*
X119431577Y-74272784D01*
X119472501Y-74120057D01*
X119472501Y-73961942D01*
X119472501Y-73954347D01*
X119472500Y-73954329D01*
X119472500Y-72591412D01*
X119492185Y-72524373D01*
X119499555Y-72514097D01*
X119501810Y-72511267D01*
X119501816Y-72511262D01*
X119597789Y-72358522D01*
X119657368Y-72188255D01*
X119677565Y-72009000D01*
X119657368Y-71829745D01*
X119597789Y-71659478D01*
X119501816Y-71506738D01*
X119374262Y-71379184D01*
X119221523Y-71283211D01*
X119051254Y-71223631D01*
X119051249Y-71223630D01*
X118872004Y-71203435D01*
X118871996Y-71203435D01*
X118692750Y-71223630D01*
X118692745Y-71223631D01*
X118522476Y-71283211D01*
X118369737Y-71379184D01*
X118242184Y-71506737D01*
X118146211Y-71659476D01*
X118086631Y-71829745D01*
X118086630Y-71829750D01*
X118066435Y-72008996D01*
X118066435Y-72009003D01*
X118086630Y-72188249D01*
X118086631Y-72188254D01*
X118146211Y-72358523D01*
X118242185Y-72511263D01*
X118244445Y-72514097D01*
X118245334Y-72516275D01*
X118245889Y-72517158D01*
X118245734Y-72517255D01*
X118270855Y-72578783D01*
X118271500Y-72591412D01*
X118271500Y-73740902D01*
X118251815Y-73807941D01*
X118235181Y-73828583D01*
X117633582Y-74430181D01*
X117572259Y-74463666D01*
X117545901Y-74466500D01*
X116833498Y-74466500D01*
X116833480Y-74466501D01*
X116730703Y-74477000D01*
X116730700Y-74477001D01*
X116564168Y-74532185D01*
X116564163Y-74532187D01*
X116414842Y-74624289D01*
X116290785Y-74748346D01*
X116289037Y-74751182D01*
X116287329Y-74752717D01*
X116286307Y-74754011D01*
X116286085Y-74753836D01*
X116237089Y-74797905D01*
X116168126Y-74809126D01*
X116104044Y-74781282D01*
X116077963Y-74751182D01*
X116076214Y-74748346D01*
X116010549Y-74682681D01*
X115977064Y-74621358D01*
X115982048Y-74551666D01*
X116010549Y-74507319D01*
X116051368Y-74466500D01*
X116096212Y-74421656D01*
X116188314Y-74272334D01*
X116243499Y-74105797D01*
X116254000Y-74003009D01*
X116253999Y-73002992D01*
X116243499Y-72900203D01*
X116188314Y-72733666D01*
X116096212Y-72584344D01*
X115972156Y-72460288D01*
X115822834Y-72368186D01*
X115656297Y-72313001D01*
X115656295Y-72313000D01*
X115553510Y-72302500D01*
X114753498Y-72302500D01*
X114753480Y-72302501D01*
X114650703Y-72313000D01*
X114650700Y-72313001D01*
X114484168Y-72368185D01*
X114484163Y-72368187D01*
X114334842Y-72460289D01*
X114210789Y-72584342D01*
X114118687Y-72733663D01*
X114118686Y-72733666D01*
X114063501Y-72900203D01*
X114063501Y-72900204D01*
X114063500Y-72900204D01*
X114053000Y-73002983D01*
X114053000Y-74003001D01*
X114053001Y-74003019D01*
X114063500Y-74105796D01*
X114063501Y-74105799D01*
X114118685Y-74272331D01*
X114118687Y-74272336D01*
X114118964Y-74272785D01*
X114203423Y-74409716D01*
X114210789Y-74421657D01*
X114288951Y-74499819D01*
X114322436Y-74561142D01*
X114317452Y-74630834D01*
X114288951Y-74675181D01*
X114215789Y-74748342D01*
X114123687Y-74897663D01*
X114123686Y-74897666D01*
X114068501Y-75064203D01*
X114068501Y-75064204D01*
X114068500Y-75064204D01*
X114058000Y-75166983D01*
X114058000Y-76217001D01*
X114058001Y-76217019D01*
X114068500Y-76319796D01*
X114068501Y-76319799D01*
X114123685Y-76486331D01*
X114123687Y-76486336D01*
X114158569Y-76542888D01*
X114215788Y-76635656D01*
X114339844Y-76759712D01*
X114386596Y-76788548D01*
X114433320Y-76840494D01*
X114445500Y-76894087D01*
X114445500Y-77987998D01*
X114463451Y-78078243D01*
X114457224Y-78147834D01*
X114455393Y-78152236D01*
X114451938Y-78160113D01*
X114390892Y-78401175D01*
X114390890Y-78401187D01*
X114370357Y-78648994D01*
X114370357Y-78649005D01*
X114390890Y-78896812D01*
X114390892Y-78896824D01*
X114451936Y-79137881D01*
X114551826Y-79365606D01*
X114687833Y-79573782D01*
X114700608Y-79587659D01*
X114856256Y-79756738D01*
X115052491Y-79909474D01*
X115271190Y-80027828D01*
X115506386Y-80108571D01*
X115751665Y-80149500D01*
X116000335Y-80149500D01*
X116245614Y-80108571D01*
X116480810Y-80027828D01*
X116699509Y-79909474D01*
X116895744Y-79756738D01*
X117064164Y-79573785D01*
X117118154Y-79491147D01*
X117173993Y-79405679D01*
X117227139Y-79360322D01*
X117277802Y-79349500D01*
X120385481Y-79349500D01*
X120452520Y-79369185D01*
X120498275Y-79421989D01*
X120508219Y-79491147D01*
X120479194Y-79554703D01*
X120473162Y-79561181D01*
X120121888Y-79912453D01*
X120121887Y-79912454D01*
X120045223Y-80027192D01*
X119992421Y-80154668D01*
X119992418Y-80154680D01*
X119980932Y-80212424D01*
X119980932Y-80212425D01*
X119965500Y-80290004D01*
X119965500Y-85302201D01*
X119945815Y-85369240D01*
X119906598Y-85407739D01*
X119847344Y-85444287D01*
X119723289Y-85568342D01*
X119631187Y-85717663D01*
X119631185Y-85717668D01*
X119618325Y-85756478D01*
X119576001Y-85884203D01*
X119576001Y-85884204D01*
X119576000Y-85884204D01*
X119565500Y-85986983D01*
X119565500Y-86987001D01*
X119565501Y-86987019D01*
X119576000Y-87089796D01*
X119576001Y-87089799D01*
X119631185Y-87256331D01*
X119631187Y-87256336D01*
X119640867Y-87272030D01*
X119723288Y-87405656D01*
X119847344Y-87529712D01*
X119996666Y-87621814D01*
X120163203Y-87676999D01*
X120265991Y-87687500D01*
X121066008Y-87687499D01*
X121066016Y-87687498D01*
X121066019Y-87687498D01*
X121134152Y-87680538D01*
X121168797Y-87676999D01*
X121335334Y-87621814D01*
X121484656Y-87529712D01*
X121578319Y-87436049D01*
X121639642Y-87402564D01*
X121709334Y-87407548D01*
X121753681Y-87436049D01*
X121847344Y-87529712D01*
X121996666Y-87621814D01*
X121996667Y-87621814D01*
X122002813Y-87625605D01*
X122001706Y-87627399D01*
X122046337Y-87666687D01*
X122065500Y-87732908D01*
X122065500Y-90830500D01*
X122045815Y-90897539D01*
X121993011Y-90943294D01*
X121941500Y-90954500D01*
X121758000Y-90954500D01*
X121690961Y-90934815D01*
X121645206Y-90882011D01*
X121634000Y-90830500D01*
X121634000Y-90589313D01*
X121633999Y-90589298D01*
X121631098Y-90552432D01*
X121631097Y-90552426D01*
X121592050Y-90418029D01*
X121585244Y-90394602D01*
X121501581Y-90253135D01*
X121501579Y-90253133D01*
X121501576Y-90253129D01*
X121385370Y-90136923D01*
X121385362Y-90136917D01*
X121243896Y-90053255D01*
X121243893Y-90053254D01*
X121086073Y-90007402D01*
X121086067Y-90007401D01*
X121049201Y-90004500D01*
X121049194Y-90004500D01*
X119742806Y-90004500D01*
X119742798Y-90004500D01*
X119705932Y-90007401D01*
X119705926Y-90007402D01*
X119548106Y-90053254D01*
X119548103Y-90053255D01*
X119406637Y-90136917D01*
X119406629Y-90136923D01*
X119290423Y-90253129D01*
X119290417Y-90253137D01*
X119206755Y-90394603D01*
X119206753Y-90394606D01*
X119172620Y-90512095D01*
X119135014Y-90570981D01*
X119071541Y-90600187D01*
X119053544Y-90601500D01*
X117450908Y-90601500D01*
X117383869Y-90581815D01*
X117345363Y-90537728D01*
X117343605Y-90538813D01*
X117333800Y-90522916D01*
X117247712Y-90383344D01*
X117123656Y-90259288D01*
X116974334Y-90167186D01*
X116807797Y-90112001D01*
X116807795Y-90112000D01*
X116705010Y-90101500D01*
X115704998Y-90101500D01*
X115704980Y-90101501D01*
X115602203Y-90112000D01*
X115602200Y-90112001D01*
X115435668Y-90167185D01*
X115435663Y-90167187D01*
X115286342Y-90259289D01*
X115162289Y-90383342D01*
X115070187Y-90532663D01*
X115070185Y-90532668D01*
X115053096Y-90584239D01*
X115015001Y-90699203D01*
X115015001Y-90699204D01*
X115015000Y-90699204D01*
X115004500Y-90801983D01*
X115004500Y-91602001D01*
X115004501Y-91602019D01*
X115015000Y-91704796D01*
X115015001Y-91704799D01*
X115070185Y-91871331D01*
X115070187Y-91871336D01*
X115090127Y-91903664D01*
X115160179Y-92017237D01*
X115162289Y-92020657D01*
X115255951Y-92114319D01*
X115289436Y-92175642D01*
X115284452Y-92245334D01*
X115255951Y-92289681D01*
X115162289Y-92383342D01*
X115070187Y-92532663D01*
X115070185Y-92532668D01*
X115047377Y-92601499D01*
X115015001Y-92699203D01*
X115015001Y-92699204D01*
X115015000Y-92699204D01*
X115004500Y-92801983D01*
X115004500Y-93602001D01*
X115004501Y-93602019D01*
X115015000Y-93704796D01*
X115015001Y-93704799D01*
X115070185Y-93871331D01*
X115070187Y-93871336D01*
X115081960Y-93890423D01*
X115162288Y-94020656D01*
X115286344Y-94144712D01*
X115435666Y-94236814D01*
X115435667Y-94236814D01*
X115441813Y-94240605D01*
X115440466Y-94242788D01*
X115483886Y-94281009D01*
X115503046Y-94348200D01*
X115482839Y-94415084D01*
X115429679Y-94460425D01*
X115418055Y-94464938D01*
X115308666Y-94501186D01*
X115308663Y-94501187D01*
X115159342Y-94593289D01*
X115035289Y-94717342D01*
X114943187Y-94866663D01*
X114943185Y-94866668D01*
X114933526Y-94895818D01*
X114888001Y-95033203D01*
X114888001Y-95033204D01*
X114888000Y-95033204D01*
X114877500Y-95135983D01*
X114877500Y-95936001D01*
X114877501Y-95936019D01*
X114888000Y-96038796D01*
X114888001Y-96038799D01*
X114943185Y-96205331D01*
X114943187Y-96205336D01*
X114950659Y-96217450D01*
X114992072Y-96284592D01*
X115035289Y-96354657D01*
X115128951Y-96448319D01*
X115162436Y-96509642D01*
X115157452Y-96579334D01*
X115128951Y-96623681D01*
X115035289Y-96717342D01*
X114943187Y-96866663D01*
X114943185Y-96866668D01*
X114923447Y-96926234D01*
X114888001Y-97033203D01*
X114888001Y-97033204D01*
X114888000Y-97033204D01*
X114877500Y-97135983D01*
X114877500Y-97936001D01*
X114877501Y-97936019D01*
X114888000Y-98038796D01*
X114888001Y-98038799D01*
X114937967Y-98189583D01*
X114943186Y-98205334D01*
X115035288Y-98354656D01*
X115159344Y-98478712D01*
X115308666Y-98570814D01*
X115475203Y-98625999D01*
X115577991Y-98636500D01*
X116578008Y-98636499D01*
X116578016Y-98636498D01*
X116578019Y-98636498D01*
X116634302Y-98630748D01*
X116680797Y-98625999D01*
X116847334Y-98570814D01*
X116996656Y-98478712D01*
X117120712Y-98354656D01*
X117212814Y-98205334D01*
X117212815Y-98205331D01*
X117216605Y-98199187D01*
X117218399Y-98200293D01*
X117257687Y-98155663D01*
X117323908Y-98136500D01*
X120218331Y-98136500D01*
X120218347Y-98136501D01*
X120225943Y-98136501D01*
X120384054Y-98136501D01*
X120384057Y-98136501D01*
X120536785Y-98095577D01*
X120539324Y-98094110D01*
X120541742Y-98093524D01*
X120544297Y-98092466D01*
X120544461Y-98092864D01*
X120607223Y-98077634D01*
X120635925Y-98082417D01*
X120717431Y-98106098D01*
X120754306Y-98109000D01*
X120754314Y-98109000D01*
X121185686Y-98109000D01*
X121185694Y-98109000D01*
X121222569Y-98106098D01*
X121222571Y-98106097D01*
X121222573Y-98106097D01*
X121304075Y-98082418D01*
X121380398Y-98060244D01*
X121521865Y-97976581D01*
X121638081Y-97860365D01*
X121721744Y-97718898D01*
X121767598Y-97561069D01*
X121770500Y-97524194D01*
X121770500Y-96358000D01*
X121790185Y-96290961D01*
X121842989Y-96245206D01*
X121894500Y-96234000D01*
X121945500Y-96234000D01*
X122012539Y-96253685D01*
X122058294Y-96306489D01*
X122069500Y-96358000D01*
X122069500Y-97524201D01*
X122072401Y-97561067D01*
X122072402Y-97561073D01*
X122118254Y-97718893D01*
X122118255Y-97718896D01*
X122201917Y-97860362D01*
X122201923Y-97860370D01*
X122233180Y-97891626D01*
X122266666Y-97952948D01*
X122269500Y-97979308D01*
X122269500Y-98510330D01*
X122269499Y-98510348D01*
X122269499Y-98676054D01*
X122269498Y-98676054D01*
X122303564Y-98803186D01*
X122310423Y-98828785D01*
X122332750Y-98867456D01*
X122339358Y-98878900D01*
X122339359Y-98878904D01*
X122339360Y-98878904D01*
X122389479Y-98965714D01*
X122389481Y-98965717D01*
X122508349Y-99084585D01*
X122508355Y-99084590D01*
X122958181Y-99534416D01*
X122991666Y-99595739D01*
X122994500Y-99622097D01*
X122994500Y-100322001D01*
X122994501Y-100322019D01*
X123005000Y-100424796D01*
X123005001Y-100424799D01*
X123051177Y-100564147D01*
X123060186Y-100591334D01*
X123152288Y-100740656D01*
X123276344Y-100864712D01*
X123425666Y-100956814D01*
X123592203Y-101011999D01*
X123694991Y-101022500D01*
X124495008Y-101022499D01*
X124495016Y-101022498D01*
X124495019Y-101022498D01*
X124551302Y-101016748D01*
X124597797Y-101011999D01*
X124764334Y-100956814D01*
X124913656Y-100864712D01*
X125007319Y-100771049D01*
X125068642Y-100737564D01*
X125138334Y-100742548D01*
X125182681Y-100771049D01*
X125276344Y-100864712D01*
X125425666Y-100956814D01*
X125425667Y-100956814D01*
X125431813Y-100960605D01*
X125430706Y-100962399D01*
X125475337Y-101001687D01*
X125494500Y-101067908D01*
X125494500Y-101897259D01*
X125474815Y-101964298D01*
X125435597Y-102002798D01*
X125308342Y-102081289D01*
X125184289Y-102205342D01*
X125092187Y-102354663D01*
X125092185Y-102354668D01*
X125092115Y-102354880D01*
X125066726Y-102431501D01*
X125064405Y-102438504D01*
X125024632Y-102495949D01*
X124960116Y-102522772D01*
X124946699Y-102523500D01*
X124415116Y-102523500D01*
X124348077Y-102503815D01*
X124302322Y-102451011D01*
X124301560Y-102449311D01*
X124283172Y-102407391D01*
X124147166Y-102199217D01*
X124104444Y-102152809D01*
X123978744Y-102016262D01*
X123782509Y-101863526D01*
X123782507Y-101863525D01*
X123782506Y-101863524D01*
X123563811Y-101745172D01*
X123563802Y-101745169D01*
X123328616Y-101664429D01*
X123083335Y-101623500D01*
X122834665Y-101623500D01*
X122589383Y-101664429D01*
X122354197Y-101745169D01*
X122354188Y-101745172D01*
X122135493Y-101863524D01*
X121939257Y-102016261D01*
X121770833Y-102199217D01*
X121634827Y-102407391D01*
X121616440Y-102449311D01*
X121571483Y-102502796D01*
X121504747Y-102523486D01*
X121502884Y-102523500D01*
X117915116Y-102523500D01*
X117848077Y-102503815D01*
X117802322Y-102451011D01*
X117801560Y-102449311D01*
X117783172Y-102407391D01*
X117647166Y-102199217D01*
X117604444Y-102152809D01*
X117478744Y-102016262D01*
X117282509Y-101863526D01*
X117282507Y-101863525D01*
X117282506Y-101863524D01*
X117063811Y-101745172D01*
X117063802Y-101745169D01*
X116828616Y-101664429D01*
X116583335Y-101623500D01*
X116334665Y-101623500D01*
X116089383Y-101664429D01*
X115854197Y-101745169D01*
X115854188Y-101745172D01*
X115635493Y-101863524D01*
X115439257Y-102016261D01*
X115270833Y-102199217D01*
X115134826Y-102407393D01*
X115034936Y-102635118D01*
X114973892Y-102876175D01*
X114973890Y-102876187D01*
X114953357Y-103123994D01*
X114953357Y-103124005D01*
X114973890Y-103371812D01*
X114973892Y-103371824D01*
X115034936Y-103612881D01*
X115134826Y-103840606D01*
X115270833Y-104048782D01*
X115270836Y-104048785D01*
X115439256Y-104231738D01*
X115635491Y-104384474D01*
X115635493Y-104384475D01*
X115850989Y-104501096D01*
X115854190Y-104502828D01*
X116089386Y-104583571D01*
X116334665Y-104624500D01*
X116583335Y-104624500D01*
X116828614Y-104583571D01*
X117063810Y-104502828D01*
X117282509Y-104384474D01*
X117478744Y-104231738D01*
X117647164Y-104048785D01*
X117783173Y-103840607D01*
X117801560Y-103798689D01*
X117846517Y-103745204D01*
X117913253Y-103724514D01*
X117915116Y-103724500D01*
X121502884Y-103724500D01*
X121569923Y-103744185D01*
X121615678Y-103796989D01*
X121616440Y-103798689D01*
X121634827Y-103840608D01*
X121770833Y-104048782D01*
X121770836Y-104048785D01*
X121939256Y-104231738D01*
X122135491Y-104384474D01*
X122135493Y-104384475D01*
X122350989Y-104501096D01*
X122354190Y-104502828D01*
X122589386Y-104583571D01*
X122834665Y-104624500D01*
X123083335Y-104624500D01*
X123328614Y-104583571D01*
X123563810Y-104502828D01*
X123782509Y-104384474D01*
X123978744Y-104231738D01*
X124147164Y-104048785D01*
X124283173Y-103840607D01*
X124301560Y-103798689D01*
X124346517Y-103745204D01*
X124413253Y-103724514D01*
X124415116Y-103724500D01*
X124946699Y-103724500D01*
X125013738Y-103744185D01*
X125059493Y-103796989D01*
X125064405Y-103809496D01*
X125092185Y-103893331D01*
X125092187Y-103893336D01*
X125127069Y-103949888D01*
X125184288Y-104042656D01*
X125308344Y-104166712D01*
X125457666Y-104258814D01*
X125624203Y-104313999D01*
X125726991Y-104324500D01*
X126527008Y-104324499D01*
X126527016Y-104324498D01*
X126527019Y-104324498D01*
X126583302Y-104318748D01*
X126629797Y-104313999D01*
X126796334Y-104258814D01*
X126945656Y-104166712D01*
X127039675Y-104072692D01*
X127100994Y-104039210D01*
X127170686Y-104044194D01*
X127215034Y-104072695D01*
X127308654Y-104166315D01*
X127457875Y-104258356D01*
X127457880Y-104258358D01*
X127624302Y-104313505D01*
X127624309Y-104313506D01*
X127727019Y-104323999D01*
X127876999Y-104323999D01*
X128377000Y-104323999D01*
X128526972Y-104323999D01*
X128526986Y-104323998D01*
X128629697Y-104313505D01*
X128796119Y-104258358D01*
X128796124Y-104258356D01*
X128945345Y-104166315D01*
X129069315Y-104042345D01*
X129161356Y-103893124D01*
X129161358Y-103893119D01*
X129216505Y-103726697D01*
X129216506Y-103726690D01*
X129226999Y-103623986D01*
X129227000Y-103623973D01*
X129227000Y-103374000D01*
X128377000Y-103374000D01*
X128377000Y-104323999D01*
X127876999Y-104323999D01*
X127877000Y-104323998D01*
X127877000Y-102874000D01*
X128377000Y-102874000D01*
X129226999Y-102874000D01*
X129226999Y-102624028D01*
X129226998Y-102624013D01*
X129216505Y-102521302D01*
X129161358Y-102354880D01*
X129161356Y-102354875D01*
X129069315Y-102205654D01*
X128945345Y-102081684D01*
X128796124Y-101989643D01*
X128796119Y-101989641D01*
X128629697Y-101934494D01*
X128629690Y-101934493D01*
X128526986Y-101924000D01*
X128377000Y-101924000D01*
X128377000Y-102874000D01*
X127877000Y-102874000D01*
X127877000Y-101924000D01*
X127727027Y-101924000D01*
X127727012Y-101924001D01*
X127624302Y-101934494D01*
X127457880Y-101989641D01*
X127457875Y-101989643D01*
X127308657Y-102081682D01*
X127215034Y-102175305D01*
X127153710Y-102208789D01*
X127084019Y-102203805D01*
X127039672Y-102175304D01*
X126945657Y-102081289D01*
X126945656Y-102081288D01*
X126796334Y-101989186D01*
X126796332Y-101989185D01*
X126796330Y-101989184D01*
X126796327Y-101989183D01*
X126780492Y-101983935D01*
X126723048Y-101944161D01*
X126696228Y-101879644D01*
X126695500Y-101866231D01*
X126695500Y-101067908D01*
X126715185Y-101000869D01*
X126759271Y-100962363D01*
X126758187Y-100960605D01*
X126764332Y-100956814D01*
X126764334Y-100956814D01*
X126913656Y-100864712D01*
X127037712Y-100740656D01*
X127129814Y-100591334D01*
X127157595Y-100507495D01*
X127197368Y-100450051D01*
X127261884Y-100423228D01*
X127275301Y-100422500D01*
X136299902Y-100422500D01*
X136366941Y-100442185D01*
X136412696Y-100494989D01*
X136422640Y-100564147D01*
X136393615Y-100627703D01*
X136387583Y-100634181D01*
X133010584Y-104011181D01*
X132949261Y-104044666D01*
X132922903Y-104047500D01*
X130261670Y-104047500D01*
X130261654Y-104047499D01*
X130254058Y-104047499D01*
X130095943Y-104047499D01*
X130019579Y-104067961D01*
X129943214Y-104088423D01*
X129943209Y-104088426D01*
X129806290Y-104167475D01*
X129806282Y-104167481D01*
X127916481Y-106057282D01*
X127916480Y-106057284D01*
X127875402Y-106128435D01*
X127868424Y-106140521D01*
X127868422Y-106140523D01*
X127837425Y-106194209D01*
X127837423Y-106194212D01*
X127823769Y-106245172D01*
X127796499Y-106346943D01*
X127796499Y-106346945D01*
X127796499Y-106515046D01*
X127796500Y-106515059D01*
X127796500Y-108752330D01*
X127796499Y-108752348D01*
X127796499Y-108918054D01*
X127796498Y-108918054D01*
X127837423Y-109070786D01*
X127844805Y-109083570D01*
X127847996Y-109089097D01*
X127916460Y-109207681D01*
X127916479Y-109207714D01*
X127916481Y-109207717D01*
X128035349Y-109326585D01*
X128035355Y-109326590D01*
X129179316Y-110470552D01*
X129212801Y-110531875D01*
X129215163Y-110547423D01*
X129220936Y-110613404D01*
X129220938Y-110613413D01*
X129282094Y-110841655D01*
X129282096Y-110841659D01*
X129282097Y-110841663D01*
X129374970Y-111040830D01*
X129381965Y-111055830D01*
X129381967Y-111055834D01*
X129517501Y-111249395D01*
X129517506Y-111249402D01*
X129684597Y-111416493D01*
X129684603Y-111416498D01*
X129870158Y-111546425D01*
X129913783Y-111601002D01*
X129920977Y-111670500D01*
X129889454Y-111732855D01*
X129870158Y-111749575D01*
X129684597Y-111879505D01*
X129517505Y-112046597D01*
X129381965Y-112240169D01*
X129381964Y-112240171D01*
X129282098Y-112454335D01*
X129282094Y-112454344D01*
X129220938Y-112682586D01*
X129220936Y-112682596D01*
X129200341Y-112917999D01*
X129200341Y-112918000D01*
X129220936Y-113153403D01*
X129220938Y-113153413D01*
X129282094Y-113381655D01*
X129282096Y-113381659D01*
X129282097Y-113381663D01*
X129360618Y-113550051D01*
X129381965Y-113595830D01*
X129381967Y-113595834D01*
X129463480Y-113712246D01*
X129517505Y-113789401D01*
X129684599Y-113956495D01*
X129781384Y-114024265D01*
X129878165Y-114092032D01*
X129878167Y-114092033D01*
X129878170Y-114092035D01*
X130092337Y-114191903D01*
X130320592Y-114253063D01*
X130508918Y-114269539D01*
X130555999Y-114273659D01*
X130556000Y-114273659D01*
X130556001Y-114273659D01*
X130595234Y-114270226D01*
X130791408Y-114253063D01*
X131019663Y-114191903D01*
X131233830Y-114092035D01*
X131427401Y-113956495D01*
X131594495Y-113789401D01*
X131730035Y-113595830D01*
X131732707Y-113590097D01*
X131778878Y-113537658D01*
X131845091Y-113518500D01*
X133592387Y-113518500D01*
X133659426Y-113538185D01*
X133696261Y-113576814D01*
X133696860Y-113576396D01*
X133699617Y-113580333D01*
X133699772Y-113580496D01*
X133699965Y-113580831D01*
X133805242Y-113731182D01*
X133835505Y-113774401D01*
X134002599Y-113941495D01*
X134099384Y-114009265D01*
X134196165Y-114077032D01*
X134196167Y-114077033D01*
X134196170Y-114077035D01*
X134410337Y-114176903D01*
X134638592Y-114238063D01*
X134810016Y-114253061D01*
X134873999Y-114258659D01*
X134874000Y-114258659D01*
X134874001Y-114258659D01*
X134913234Y-114255226D01*
X135109408Y-114238063D01*
X135337663Y-114176903D01*
X135551830Y-114077035D01*
X135745401Y-113941495D01*
X135912495Y-113774401D01*
X136048035Y-113580830D01*
X136048036Y-113580826D01*
X136048228Y-113580496D01*
X136048351Y-113580377D01*
X136051140Y-113576396D01*
X136051940Y-113576956D01*
X136098798Y-113532282D01*
X136155613Y-113518500D01*
X137656387Y-113518500D01*
X137723426Y-113538185D01*
X137760261Y-113576814D01*
X137760860Y-113576396D01*
X137763617Y-113580333D01*
X137763772Y-113580496D01*
X137763965Y-113580831D01*
X137869242Y-113731182D01*
X137899505Y-113774401D01*
X138066599Y-113941495D01*
X138163384Y-114009265D01*
X138260165Y-114077032D01*
X138260167Y-114077033D01*
X138260170Y-114077035D01*
X138474337Y-114176903D01*
X138702592Y-114238063D01*
X138874016Y-114253061D01*
X138937999Y-114258659D01*
X138938000Y-114258659D01*
X138938001Y-114258659D01*
X138977234Y-114255226D01*
X139173408Y-114238063D01*
X139401663Y-114176903D01*
X139615830Y-114077035D01*
X139809401Y-113941495D01*
X139976495Y-113774401D01*
X140112035Y-113580830D01*
X140112036Y-113580826D01*
X140112228Y-113580496D01*
X140112351Y-113580377D01*
X140115140Y-113576396D01*
X140115940Y-113576956D01*
X140162798Y-113532282D01*
X140219613Y-113518500D01*
X141720387Y-113518500D01*
X141787426Y-113538185D01*
X141824261Y-113576814D01*
X141824860Y-113576396D01*
X141827617Y-113580333D01*
X141827772Y-113580496D01*
X141827965Y-113580831D01*
X141933242Y-113731182D01*
X141963505Y-113774401D01*
X142130599Y-113941495D01*
X142227384Y-114009265D01*
X142324165Y-114077032D01*
X142324167Y-114077033D01*
X142324170Y-114077035D01*
X142538337Y-114176903D01*
X142766592Y-114238063D01*
X142938016Y-114253061D01*
X143001999Y-114258659D01*
X143002000Y-114258659D01*
X143002001Y-114258659D01*
X143041234Y-114255226D01*
X143237408Y-114238063D01*
X143465663Y-114176903D01*
X143679830Y-114077035D01*
X143873401Y-113941495D01*
X144040495Y-113774401D01*
X144176035Y-113580830D01*
X144176036Y-113580826D01*
X144176228Y-113580496D01*
X144176351Y-113580377D01*
X144179140Y-113576396D01*
X144179940Y-113576956D01*
X144226798Y-113532282D01*
X144283613Y-113518500D01*
X145530387Y-113518500D01*
X145597426Y-113538185D01*
X145634261Y-113576814D01*
X145634860Y-113576396D01*
X145637617Y-113580333D01*
X145637772Y-113580496D01*
X145637965Y-113580831D01*
X145743242Y-113731182D01*
X145773505Y-113774401D01*
X145940599Y-113941495D01*
X146037384Y-114009265D01*
X146134165Y-114077032D01*
X146134167Y-114077033D01*
X146134170Y-114077035D01*
X146348337Y-114176903D01*
X146576592Y-114238063D01*
X146748016Y-114253061D01*
X146811999Y-114258659D01*
X146812000Y-114258659D01*
X146812001Y-114258659D01*
X146851234Y-114255226D01*
X147047408Y-114238063D01*
X147275663Y-114176903D01*
X147489830Y-114077035D01*
X147683401Y-113941495D01*
X147850495Y-113774401D01*
X147986035Y-113580830D01*
X148085903Y-113366663D01*
X148147063Y-113138408D01*
X148167659Y-112903000D01*
X148147063Y-112667592D01*
X148085903Y-112439337D01*
X148015665Y-112288713D01*
X180894500Y-112288713D01*
X180894500Y-112501286D01*
X180927753Y-112711239D01*
X180993444Y-112913414D01*
X181089951Y-113102820D01*
X181214890Y-113274786D01*
X181365213Y-113425109D01*
X181537179Y-113550048D01*
X181537181Y-113550049D01*
X181537184Y-113550051D01*
X181726588Y-113646557D01*
X181928757Y-113712246D01*
X182138713Y-113745500D01*
X182138714Y-113745500D01*
X182351286Y-113745500D01*
X182351287Y-113745500D01*
X182561243Y-113712246D01*
X182763412Y-113646557D01*
X182952816Y-113550051D01*
X183118121Y-113429951D01*
X183124786Y-113425109D01*
X183124788Y-113425106D01*
X183124792Y-113425104D01*
X183275104Y-113274792D01*
X183275106Y-113274788D01*
X183275109Y-113274786D01*
X183400048Y-113102820D01*
X183400047Y-113102820D01*
X183400051Y-113102816D01*
X183496557Y-112913412D01*
X183562246Y-112711243D01*
X183595500Y-112501287D01*
X183595500Y-112288713D01*
X183562246Y-112078757D01*
X183496557Y-111876588D01*
X183400051Y-111687184D01*
X183400049Y-111687181D01*
X183400048Y-111687179D01*
X183275109Y-111515213D01*
X183124786Y-111364890D01*
X182952820Y-111239951D01*
X182763414Y-111143444D01*
X182763413Y-111143443D01*
X182763412Y-111143443D01*
X182561243Y-111077754D01*
X182561241Y-111077753D01*
X182561240Y-111077753D01*
X182399957Y-111052208D01*
X182351287Y-111044500D01*
X182138713Y-111044500D01*
X182090042Y-111052208D01*
X181928760Y-111077753D01*
X181726585Y-111143444D01*
X181537179Y-111239951D01*
X181365213Y-111364890D01*
X181214890Y-111515213D01*
X181089951Y-111687179D01*
X180993444Y-111876585D01*
X180927753Y-112078760D01*
X180894500Y-112288713D01*
X148015665Y-112288713D01*
X147986035Y-112225171D01*
X147883518Y-112078760D01*
X147850494Y-112031597D01*
X147683402Y-111864506D01*
X147683396Y-111864501D01*
X147497842Y-111734575D01*
X147454217Y-111679998D01*
X147447023Y-111610500D01*
X147478546Y-111548145D01*
X147497842Y-111531425D01*
X147521002Y-111515208D01*
X147683401Y-111401495D01*
X147850495Y-111234401D01*
X147986035Y-111040830D01*
X147988707Y-111035097D01*
X148034878Y-110982658D01*
X148101091Y-110963500D01*
X149011331Y-110963500D01*
X149011347Y-110963501D01*
X149018943Y-110963501D01*
X149177054Y-110963501D01*
X149177057Y-110963501D01*
X149329785Y-110922577D01*
X149379904Y-110893639D01*
X149466716Y-110843520D01*
X149578520Y-110731716D01*
X149578520Y-110731714D01*
X149588728Y-110721507D01*
X149588730Y-110721504D01*
X152233237Y-108076996D01*
X155277435Y-108076996D01*
X155277435Y-108077003D01*
X155297630Y-108256249D01*
X155297631Y-108256254D01*
X155357211Y-108426523D01*
X155393773Y-108484710D01*
X155453184Y-108579262D01*
X155580738Y-108706816D01*
X155626982Y-108735873D01*
X155721850Y-108795483D01*
X155733478Y-108802789D01*
X155903745Y-108862368D01*
X155903750Y-108862369D01*
X156082996Y-108882565D01*
X156083000Y-108882565D01*
X156083004Y-108882565D01*
X156262249Y-108862369D01*
X156262252Y-108862368D01*
X156262255Y-108862368D01*
X156432522Y-108802789D01*
X156585262Y-108706816D01*
X156712816Y-108579262D01*
X156746776Y-108525213D01*
X156799107Y-108478926D01*
X156868161Y-108468276D01*
X156916860Y-108485647D01*
X157064666Y-108576814D01*
X157231203Y-108631999D01*
X157333991Y-108642500D01*
X158134008Y-108642499D01*
X158134016Y-108642498D01*
X158134019Y-108642498D01*
X158190302Y-108636748D01*
X158236797Y-108631999D01*
X158403334Y-108576814D01*
X158552656Y-108484712D01*
X158646319Y-108391049D01*
X158707642Y-108357564D01*
X158777334Y-108362548D01*
X158821681Y-108391049D01*
X158915344Y-108484712D01*
X159064666Y-108576814D01*
X159231203Y-108631999D01*
X159333991Y-108642500D01*
X160134008Y-108642499D01*
X160134016Y-108642498D01*
X160134019Y-108642498D01*
X160190302Y-108636748D01*
X160236797Y-108631999D01*
X160403334Y-108576814D01*
X160552656Y-108484712D01*
X160676712Y-108360656D01*
X160768814Y-108211334D01*
X160823999Y-108044797D01*
X160834500Y-107942009D01*
X160834499Y-106941992D01*
X160834308Y-106940127D01*
X160823999Y-106839203D01*
X160823998Y-106839200D01*
X160815046Y-106812184D01*
X160768814Y-106672666D01*
X160676712Y-106523344D01*
X160552656Y-106399288D01*
X160403334Y-106307186D01*
X160403332Y-106307185D01*
X160403330Y-106307184D01*
X160403329Y-106307183D01*
X160333495Y-106284042D01*
X160276050Y-106244269D01*
X160249228Y-106179753D01*
X160248500Y-106166337D01*
X160248500Y-104863057D01*
X160268185Y-104796018D01*
X160307401Y-104757520D01*
X160441656Y-104674712D01*
X160565712Y-104550656D01*
X160657814Y-104401334D01*
X160712999Y-104234797D01*
X160723500Y-104132009D01*
X160723499Y-103131992D01*
X160723036Y-103127463D01*
X160712999Y-103029203D01*
X160712998Y-103029200D01*
X160703871Y-103001656D01*
X160657814Y-102862666D01*
X160565712Y-102713344D01*
X160441656Y-102589288D01*
X160333816Y-102522772D01*
X160292336Y-102497187D01*
X160292331Y-102497185D01*
X160288601Y-102495949D01*
X160125797Y-102442001D01*
X160125795Y-102442000D01*
X160023010Y-102431500D01*
X159272998Y-102431500D01*
X159272980Y-102431501D01*
X159170203Y-102442000D01*
X159170200Y-102442001D01*
X159003668Y-102497185D01*
X159003663Y-102497187D01*
X158854342Y-102589289D01*
X158730285Y-102713346D01*
X158728537Y-102716182D01*
X158726829Y-102717717D01*
X158725807Y-102719011D01*
X158725585Y-102718836D01*
X158676589Y-102762905D01*
X158607626Y-102774126D01*
X158543544Y-102746282D01*
X158517463Y-102716182D01*
X158515714Y-102713346D01*
X158391657Y-102589289D01*
X158391656Y-102589288D01*
X158283816Y-102522772D01*
X158242336Y-102497187D01*
X158242331Y-102497185D01*
X158238601Y-102495949D01*
X158075797Y-102442001D01*
X158075795Y-102442000D01*
X157973016Y-102431500D01*
X157973009Y-102431500D01*
X157298097Y-102431500D01*
X157231058Y-102411815D01*
X157210416Y-102395181D01*
X157041843Y-102226608D01*
X157008358Y-102165285D01*
X157006304Y-102152809D01*
X156995369Y-102055750D01*
X156995368Y-102055745D01*
X156972077Y-101989183D01*
X156935789Y-101885478D01*
X156921994Y-101863524D01*
X156893257Y-101817789D01*
X156839816Y-101732738D01*
X156712262Y-101605184D01*
X156648840Y-101565333D01*
X156559523Y-101509211D01*
X156389254Y-101449631D01*
X156389249Y-101449630D01*
X156210004Y-101429435D01*
X156209996Y-101429435D01*
X156030750Y-101449630D01*
X156030745Y-101449631D01*
X155860476Y-101509211D01*
X155707737Y-101605184D01*
X155580184Y-101732737D01*
X155484211Y-101885476D01*
X155424631Y-102055745D01*
X155424630Y-102055750D01*
X155404435Y-102234996D01*
X155404435Y-102235003D01*
X155424630Y-102414249D01*
X155424631Y-102414254D01*
X155484211Y-102584523D01*
X155567903Y-102717717D01*
X155580184Y-102737262D01*
X155707738Y-102864816D01*
X155860478Y-102960789D01*
X155933390Y-102986302D01*
X156030745Y-103020368D01*
X156030749Y-103020369D01*
X156107525Y-103029019D01*
X156171939Y-103056085D01*
X156181323Y-103064558D01*
X156486181Y-103369416D01*
X156519666Y-103430739D01*
X156522500Y-103457097D01*
X156522500Y-104132001D01*
X156522501Y-104132019D01*
X156533000Y-104234796D01*
X156533001Y-104234799D01*
X156588185Y-104401331D01*
X156588187Y-104401336D01*
X156589135Y-104402873D01*
X156680288Y-104550656D01*
X156804344Y-104674712D01*
X156953666Y-104766814D01*
X157120203Y-104821999D01*
X157222991Y-104832500D01*
X157973008Y-104832499D01*
X157973016Y-104832498D01*
X157973019Y-104832498D01*
X158029302Y-104826748D01*
X158075797Y-104821999D01*
X158242334Y-104766814D01*
X158391656Y-104674712D01*
X158515712Y-104550656D01*
X158517461Y-104547819D01*
X158519169Y-104546283D01*
X158520193Y-104544989D01*
X158520414Y-104545163D01*
X158569406Y-104501096D01*
X158638368Y-104489872D01*
X158702451Y-104517713D01*
X158728537Y-104547817D01*
X158730288Y-104550656D01*
X158854344Y-104674712D01*
X158988597Y-104757519D01*
X159035321Y-104809465D01*
X159047500Y-104863057D01*
X159047500Y-106248567D01*
X159027815Y-106315606D01*
X158988596Y-106354106D01*
X158915345Y-106399287D01*
X158915343Y-106399288D01*
X158821681Y-106492951D01*
X158760358Y-106526436D01*
X158690666Y-106521452D01*
X158646319Y-106492951D01*
X158552657Y-106399289D01*
X158552656Y-106399288D01*
X158403334Y-106307186D01*
X158236797Y-106252001D01*
X158236795Y-106252000D01*
X158134010Y-106241500D01*
X157333998Y-106241500D01*
X157333980Y-106241501D01*
X157231203Y-106252000D01*
X157231200Y-106252001D01*
X157064668Y-106307185D01*
X157064663Y-106307187D01*
X156915342Y-106399289D01*
X156791289Y-106523342D01*
X156699187Y-106672663D01*
X156699186Y-106672666D01*
X156664689Y-106776770D01*
X156624916Y-106834215D01*
X156579078Y-106857539D01*
X156486220Y-106882421D01*
X156486209Y-106882426D01*
X156349290Y-106961475D01*
X156349282Y-106961481D01*
X156064465Y-107246298D01*
X156003142Y-107279783D01*
X155990668Y-107281837D01*
X155903750Y-107291630D01*
X155733478Y-107351210D01*
X155580737Y-107447184D01*
X155453184Y-107574737D01*
X155357211Y-107727476D01*
X155297631Y-107897745D01*
X155297630Y-107897750D01*
X155277435Y-108076996D01*
X152233237Y-108076996D01*
X152545535Y-107764698D01*
X152606856Y-107731215D01*
X152619311Y-107729163D01*
X152706255Y-107719368D01*
X152876522Y-107659789D01*
X153029262Y-107563816D01*
X153156816Y-107436262D01*
X153252789Y-107283522D01*
X153312368Y-107113255D01*
X153314709Y-107092478D01*
X153332565Y-106934003D01*
X153332565Y-106933996D01*
X153312369Y-106754750D01*
X153312368Y-106754745D01*
X153278036Y-106656630D01*
X153252789Y-106584478D01*
X153156816Y-106431738D01*
X153029262Y-106304184D01*
X152952384Y-106255878D01*
X152876523Y-106208211D01*
X152706254Y-106148631D01*
X152706249Y-106148630D01*
X152527004Y-106128435D01*
X152526996Y-106128435D01*
X152347750Y-106148630D01*
X152347745Y-106148631D01*
X152177476Y-106208211D01*
X152024737Y-106304184D01*
X151897184Y-106431737D01*
X151801210Y-106584478D01*
X151741630Y-106754750D01*
X151731837Y-106841668D01*
X151704770Y-106906082D01*
X151696298Y-106915465D01*
X150625892Y-107985871D01*
X150564569Y-108019356D01*
X150494877Y-108014372D01*
X150438944Y-107972500D01*
X150414527Y-107907036D01*
X150429379Y-107838763D01*
X150433219Y-107832216D01*
X150458787Y-107791525D01*
X150458786Y-107791525D01*
X150458789Y-107791522D01*
X150518368Y-107621255D01*
X150523609Y-107574738D01*
X150538565Y-107442003D01*
X150538565Y-107441996D01*
X150518369Y-107262750D01*
X150518368Y-107262745D01*
X150458788Y-107092476D01*
X150364232Y-106941992D01*
X150362816Y-106939738D01*
X150235262Y-106812184D01*
X150178901Y-106776770D01*
X150082523Y-106716211D01*
X149912254Y-106656631D01*
X149912249Y-106656630D01*
X149733004Y-106636435D01*
X149732996Y-106636435D01*
X149549423Y-106657118D01*
X149480601Y-106645063D01*
X149429222Y-106597714D01*
X149411598Y-106530104D01*
X149433325Y-106463698D01*
X149447854Y-106446222D01*
X156090521Y-99803555D01*
X156151842Y-99770072D01*
X156189002Y-99767710D01*
X156337000Y-99780659D01*
X156337001Y-99780659D01*
X156392366Y-99775815D01*
X156572408Y-99760063D01*
X156800663Y-99698903D01*
X157014830Y-99599035D01*
X157208401Y-99463495D01*
X157330329Y-99341566D01*
X157391648Y-99308084D01*
X157461340Y-99313068D01*
X157517274Y-99354939D01*
X157534189Y-99385917D01*
X157583202Y-99517328D01*
X157583206Y-99517335D01*
X157669452Y-99632544D01*
X157669455Y-99632547D01*
X157784664Y-99718793D01*
X157784671Y-99718797D01*
X157829618Y-99735561D01*
X157919517Y-99769091D01*
X157979127Y-99775500D01*
X158152500Y-99775499D01*
X158219539Y-99795183D01*
X158265294Y-99847987D01*
X158276500Y-99899499D01*
X158276500Y-99989330D01*
X158276499Y-99989348D01*
X158276499Y-100155054D01*
X158276498Y-100155054D01*
X158276499Y-100155057D01*
X158317114Y-100306632D01*
X158317424Y-100307787D01*
X158326935Y-100324260D01*
X158326936Y-100324262D01*
X158396477Y-100444712D01*
X158396481Y-100444717D01*
X158515349Y-100563585D01*
X158515355Y-100563590D01*
X159062298Y-101110533D01*
X159095783Y-101171856D01*
X159097837Y-101184330D01*
X159107630Y-101271249D01*
X159167210Y-101441521D01*
X159172306Y-101449631D01*
X159263184Y-101594262D01*
X159390738Y-101721816D01*
X159427904Y-101745169D01*
X159527895Y-101807998D01*
X159543478Y-101817789D01*
X159674181Y-101863524D01*
X159713745Y-101877368D01*
X159713750Y-101877369D01*
X159892996Y-101897565D01*
X159893000Y-101897565D01*
X159893004Y-101897565D01*
X160072249Y-101877369D01*
X160072252Y-101877368D01*
X160072255Y-101877368D01*
X160242522Y-101817789D01*
X160395262Y-101721816D01*
X160522816Y-101594262D01*
X160613506Y-101449930D01*
X160665841Y-101403639D01*
X160734895Y-101392991D01*
X160798743Y-101421366D01*
X160823494Y-101449930D01*
X160914184Y-101594262D01*
X161041738Y-101721816D01*
X161194478Y-101817789D01*
X161364745Y-101877368D01*
X161451669Y-101887161D01*
X161516080Y-101914226D01*
X161525464Y-101922699D01*
X161957427Y-102354663D01*
X162278782Y-102676018D01*
X162278784Y-102676020D01*
X162323214Y-102701671D01*
X162371430Y-102752238D01*
X162378920Y-102770053D01*
X162397294Y-102825501D01*
X162406186Y-102852333D01*
X162406187Y-102852336D01*
X162498289Y-103001657D01*
X162622346Y-103125714D01*
X162625182Y-103127463D01*
X162626717Y-103129170D01*
X162628011Y-103130193D01*
X162627836Y-103130414D01*
X162671905Y-103179411D01*
X162683126Y-103248374D01*
X162655282Y-103312456D01*
X162625182Y-103338537D01*
X162622346Y-103340285D01*
X162498289Y-103464342D01*
X162406187Y-103613663D01*
X162406185Y-103613668D01*
X162394616Y-103648582D01*
X162351001Y-103780203D01*
X162351001Y-103780204D01*
X162351000Y-103780204D01*
X162340500Y-103882983D01*
X162340500Y-104658001D01*
X162340501Y-104658019D01*
X162351000Y-104760796D01*
X162351001Y-104760799D01*
X162388905Y-104875183D01*
X162406186Y-104927334D01*
X162498288Y-105076656D01*
X162622344Y-105200712D01*
X162771666Y-105292814D01*
X162938203Y-105347999D01*
X163018104Y-105356161D01*
X163082793Y-105382557D01*
X163122945Y-105439737D01*
X163129500Y-105479519D01*
X163129500Y-108958728D01*
X163109815Y-109025767D01*
X163099213Y-109039930D01*
X163023018Y-109127863D01*
X163023015Y-109127867D01*
X162945231Y-109248905D01*
X162945223Y-109248918D01*
X162888263Y-109373643D01*
X162886015Y-109377939D01*
X162844966Y-109517738D01*
X162844963Y-109517748D01*
X162824503Y-109660059D01*
X162824503Y-109716399D01*
X162824500Y-109716409D01*
X162824500Y-110247573D01*
X162824503Y-110247601D01*
X162824503Y-110303941D01*
X162835151Y-110377999D01*
X162843703Y-110437478D01*
X162843703Y-110437481D01*
X162844964Y-110446255D01*
X162885503Y-110584313D01*
X162945223Y-110715081D01*
X162945227Y-110715087D01*
X162945230Y-110715094D01*
X162956095Y-110732000D01*
X163023015Y-110836132D01*
X163023018Y-110836136D01*
X163117152Y-110944773D01*
X163117168Y-110944791D01*
X163117171Y-110944794D01*
X163225909Y-111039015D01*
X163280481Y-111074086D01*
X163346857Y-111116744D01*
X163346863Y-111116747D01*
X163477741Y-111176517D01*
X163615696Y-111217024D01*
X163758111Y-111237500D01*
X163758114Y-111237500D01*
X164330000Y-111237500D01*
X164401940Y-111232355D01*
X164539992Y-111191819D01*
X164661032Y-111114031D01*
X164755254Y-111005294D01*
X164815024Y-110874416D01*
X164835500Y-110732000D01*
X164835500Y-110267763D01*
X164835500Y-109232000D01*
X164830355Y-109160060D01*
X164808067Y-109084155D01*
X170227000Y-109084155D01*
X170227000Y-109732000D01*
X171143988Y-109732000D01*
X171111075Y-109789007D01*
X171077000Y-109916174D01*
X171077000Y-110047826D01*
X171111075Y-110174993D01*
X171143988Y-110232000D01*
X170227000Y-110232000D01*
X170227000Y-110879844D01*
X170233401Y-110939372D01*
X170233403Y-110939379D01*
X170283645Y-111074086D01*
X170283649Y-111074093D01*
X170369809Y-111189187D01*
X170369812Y-111189190D01*
X170484906Y-111275350D01*
X170484913Y-111275354D01*
X170619620Y-111325596D01*
X170619627Y-111325598D01*
X170679155Y-111331999D01*
X170679172Y-111332000D01*
X171327000Y-111332000D01*
X171327000Y-110415012D01*
X171384007Y-110447925D01*
X171511174Y-110482000D01*
X171642826Y-110482000D01*
X171769993Y-110447925D01*
X171827000Y-110415012D01*
X171827000Y-111332000D01*
X172474828Y-111332000D01*
X172474844Y-111331999D01*
X172534372Y-111325598D01*
X172534379Y-111325596D01*
X172669086Y-111275354D01*
X172669093Y-111275350D01*
X172784187Y-111189190D01*
X172784190Y-111189187D01*
X172870350Y-111074093D01*
X172870354Y-111074086D01*
X172920596Y-110939379D01*
X172920598Y-110939372D01*
X172926999Y-110879844D01*
X172927000Y-110879827D01*
X172927000Y-110232000D01*
X172010012Y-110232000D01*
X172042925Y-110174993D01*
X172077000Y-110047826D01*
X172077000Y-109916174D01*
X172042925Y-109789007D01*
X172010012Y-109732000D01*
X172927000Y-109732000D01*
X172927000Y-109084172D01*
X172926999Y-109084155D01*
X172920598Y-109024627D01*
X172920596Y-109024620D01*
X172870354Y-108889913D01*
X172870350Y-108889906D01*
X172784190Y-108774812D01*
X172784187Y-108774809D01*
X172669093Y-108688649D01*
X172669086Y-108688645D01*
X172534379Y-108638403D01*
X172534372Y-108638401D01*
X172474844Y-108632000D01*
X171827000Y-108632000D01*
X171827000Y-109548988D01*
X171769993Y-109516075D01*
X171642826Y-109482000D01*
X171511174Y-109482000D01*
X171384007Y-109516075D01*
X171327000Y-109548988D01*
X171327000Y-108632000D01*
X170679155Y-108632000D01*
X170619627Y-108638401D01*
X170619620Y-108638403D01*
X170484913Y-108688645D01*
X170484906Y-108688649D01*
X170369812Y-108774809D01*
X170369809Y-108774812D01*
X170283649Y-108889906D01*
X170283645Y-108889913D01*
X170233403Y-109024620D01*
X170233401Y-109024627D01*
X170227000Y-109084155D01*
X164808067Y-109084155D01*
X164789819Y-109022008D01*
X164730900Y-108930328D01*
X164712032Y-108900969D01*
X164712028Y-108900965D01*
X164603299Y-108806750D01*
X164603297Y-108806748D01*
X164603294Y-108806746D01*
X164603291Y-108806744D01*
X164603286Y-108806741D01*
X164602987Y-108806605D01*
X164602738Y-108806389D01*
X164595832Y-108801951D01*
X164596470Y-108800958D01*
X164550183Y-108760850D01*
X164530500Y-108693812D01*
X164530500Y-105231230D01*
X164550185Y-105164191D01*
X164566819Y-105143549D01*
X164593980Y-105116388D01*
X164633712Y-105076656D01*
X164633715Y-105076650D01*
X164636137Y-105073589D01*
X164638336Y-105072031D01*
X164638819Y-105071549D01*
X164638901Y-105071631D01*
X164693158Y-105033212D01*
X164733403Y-105026500D01*
X166663223Y-105026500D01*
X166730262Y-105046185D01*
X166776017Y-105098989D01*
X166782438Y-105116387D01*
X166806091Y-105199049D01*
X166852940Y-105288737D01*
X166900302Y-105379407D01*
X167028890Y-105537109D01*
X167120425Y-105611745D01*
X167186593Y-105665698D01*
X167366951Y-105759909D01*
X167562582Y-105815886D01*
X167681963Y-105826500D01*
X170598036Y-105826499D01*
X170717418Y-105815886D01*
X170913049Y-105759909D01*
X171093407Y-105665698D01*
X171251109Y-105537109D01*
X171379698Y-105379407D01*
X171473909Y-105199049D01*
X171529886Y-105003418D01*
X171540500Y-104884037D01*
X171540499Y-103767964D01*
X171529886Y-103648582D01*
X171473909Y-103452951D01*
X171379698Y-103272593D01*
X171303718Y-103179411D01*
X171251109Y-103114890D01*
X171093409Y-102986304D01*
X171093410Y-102986304D01*
X171093407Y-102986302D01*
X170913049Y-102892091D01*
X170913048Y-102892090D01*
X170913045Y-102892089D01*
X170774104Y-102852334D01*
X170717418Y-102836114D01*
X170717415Y-102836113D01*
X170717413Y-102836113D01*
X170644631Y-102829642D01*
X170598037Y-102825500D01*
X170598033Y-102825500D01*
X169964500Y-102825500D01*
X169897461Y-102805815D01*
X169851706Y-102753011D01*
X169840500Y-102701500D01*
X169840500Y-99543739D01*
X169860185Y-99476700D01*
X169909402Y-99432652D01*
X169989296Y-99393030D01*
X170137722Y-99273722D01*
X170193353Y-99204514D01*
X170250696Y-99164595D01*
X170320518Y-99162015D01*
X170380651Y-99197594D01*
X170386647Y-99204514D01*
X170442277Y-99273721D01*
X170442278Y-99273722D01*
X170590704Y-99393030D01*
X170590707Y-99393032D01*
X170761302Y-99477639D01*
X170761303Y-99477639D01*
X170761307Y-99477641D01*
X170946111Y-99523600D01*
X170988877Y-99526500D01*
X171891122Y-99526499D01*
X171933889Y-99523600D01*
X172118693Y-99477641D01*
X172289296Y-99393030D01*
X172437722Y-99273722D01*
X172557030Y-99125296D01*
X172564199Y-99110842D01*
X172609577Y-99019344D01*
X172641641Y-98954693D01*
X172687600Y-98769889D01*
X172690500Y-98727123D01*
X172690499Y-97324878D01*
X172687600Y-97282111D01*
X172641641Y-97097307D01*
X172641639Y-97097302D01*
X172586824Y-96986777D01*
X172574672Y-96917972D01*
X172601649Y-96853520D01*
X172610221Y-96844012D01*
X172865535Y-96588698D01*
X172926856Y-96555215D01*
X172939311Y-96553163D01*
X173026255Y-96543368D01*
X173196522Y-96483789D01*
X173349262Y-96387816D01*
X173476816Y-96260262D01*
X173572789Y-96107522D01*
X173632368Y-95937255D01*
X173632369Y-95937249D01*
X173652565Y-95758003D01*
X173652565Y-95757996D01*
X173632369Y-95578750D01*
X173632368Y-95578745D01*
X173617228Y-95535478D01*
X173572789Y-95408478D01*
X173566969Y-95399216D01*
X173476815Y-95255737D01*
X173349262Y-95128184D01*
X173196523Y-95032211D01*
X173026254Y-94972631D01*
X173026249Y-94972630D01*
X172847004Y-94952435D01*
X172846996Y-94952435D01*
X172667750Y-94972630D01*
X172667745Y-94972631D01*
X172497476Y-95032211D01*
X172344737Y-95128184D01*
X172217184Y-95255737D01*
X172121210Y-95408478D01*
X172061630Y-95578750D01*
X172051837Y-95665668D01*
X172024770Y-95730082D01*
X172016298Y-95739465D01*
X171266582Y-96489181D01*
X171205259Y-96522666D01*
X171178902Y-96525500D01*
X170988878Y-96525500D01*
X170988874Y-96525501D01*
X170946113Y-96528399D01*
X170946112Y-96528399D01*
X170761303Y-96574360D01*
X170590707Y-96658967D01*
X170590704Y-96658969D01*
X170442278Y-96778277D01*
X170442277Y-96778278D01*
X170386647Y-96847486D01*
X170329304Y-96887405D01*
X170259482Y-96889985D01*
X170199349Y-96854406D01*
X170193353Y-96847486D01*
X170137722Y-96778278D01*
X170137721Y-96778277D01*
X169989295Y-96658969D01*
X169989292Y-96658967D01*
X169818697Y-96574360D01*
X169633892Y-96528400D01*
X169612506Y-96526950D01*
X169591123Y-96525500D01*
X169591120Y-96525500D01*
X168688877Y-96525500D01*
X168688874Y-96525501D01*
X168646113Y-96528399D01*
X168646112Y-96528399D01*
X168461303Y-96574360D01*
X168290707Y-96658967D01*
X168290704Y-96658969D01*
X168142278Y-96778277D01*
X168142277Y-96778278D01*
X168086647Y-96847486D01*
X168029304Y-96887405D01*
X167959482Y-96889985D01*
X167899349Y-96854406D01*
X167893353Y-96847486D01*
X167837722Y-96778278D01*
X167837721Y-96778277D01*
X167689295Y-96658969D01*
X167689292Y-96658967D01*
X167518697Y-96574360D01*
X167333892Y-96528400D01*
X167312506Y-96526950D01*
X167291123Y-96525500D01*
X167291120Y-96525500D01*
X166388877Y-96525500D01*
X166388874Y-96525501D01*
X166346113Y-96528399D01*
X166346112Y-96528399D01*
X166161303Y-96574360D01*
X165990707Y-96658967D01*
X165990704Y-96658969D01*
X165842278Y-96778277D01*
X165842277Y-96778278D01*
X165722969Y-96926704D01*
X165722967Y-96926707D01*
X165638360Y-97097304D01*
X165638357Y-97097312D01*
X165629873Y-97131427D01*
X165594591Y-97191734D01*
X165532305Y-97223392D01*
X165509539Y-97225500D01*
X164859041Y-97225500D01*
X164792002Y-97205815D01*
X164746247Y-97153011D01*
X164741335Y-97140505D01*
X164739839Y-97135991D01*
X164725814Y-97093666D01*
X164633712Y-96944344D01*
X164509656Y-96820288D01*
X164383578Y-96742523D01*
X164360336Y-96728187D01*
X164360331Y-96728185D01*
X164293239Y-96705953D01*
X164193797Y-96673001D01*
X164193795Y-96673000D01*
X164091016Y-96662500D01*
X164091009Y-96662500D01*
X163661440Y-96662500D01*
X163594401Y-96642815D01*
X163573759Y-96626181D01*
X162746819Y-95799241D01*
X162713334Y-95737918D01*
X162710500Y-95711560D01*
X162710500Y-93835500D01*
X162730185Y-93768461D01*
X162782989Y-93722706D01*
X162834500Y-93711500D01*
X163281886Y-93711500D01*
X163281889Y-93711500D01*
X163424304Y-93691024D01*
X163562259Y-93650517D01*
X163693137Y-93590747D01*
X163808477Y-93516622D01*
X163809915Y-93515804D01*
X163814098Y-93513011D01*
X163879032Y-93456744D01*
X163922832Y-93418791D01*
X164016986Y-93310130D01*
X164016993Y-93310118D01*
X164019639Y-93306586D01*
X164021331Y-93307853D01*
X164067607Y-93267725D01*
X164119161Y-93256500D01*
X169534501Y-93256500D01*
X169601540Y-93276185D01*
X169647295Y-93328989D01*
X169658501Y-93380500D01*
X169658501Y-93837018D01*
X169669000Y-93939796D01*
X169669001Y-93939799D01*
X169724185Y-94106331D01*
X169724187Y-94106336D01*
X169749949Y-94148103D01*
X169816288Y-94255656D01*
X169940344Y-94379712D01*
X170089666Y-94471814D01*
X170256203Y-94526999D01*
X170358991Y-94537500D01*
X171759008Y-94537499D01*
X171861797Y-94526999D01*
X172028334Y-94471814D01*
X172177656Y-94379712D01*
X172301712Y-94255656D01*
X172393814Y-94106334D01*
X172448999Y-93939797D01*
X172459500Y-93837009D01*
X172459499Y-91736992D01*
X172452921Y-91672600D01*
X172465690Y-91603909D01*
X172513571Y-91553025D01*
X172576279Y-91536000D01*
X174026831Y-91536000D01*
X174026847Y-91536001D01*
X174034443Y-91536001D01*
X174192555Y-91536001D01*
X174192557Y-91536001D01*
X174192558Y-91536000D01*
X174200613Y-91534940D01*
X174200660Y-91535301D01*
X174221947Y-91532500D01*
X175530501Y-91532500D01*
X175597540Y-91552185D01*
X175643295Y-91604989D01*
X175654501Y-91656500D01*
X175654501Y-92252018D01*
X175665000Y-92354796D01*
X175665001Y-92354799D01*
X175720185Y-92521331D01*
X175720187Y-92521336D01*
X175727177Y-92532668D01*
X175812288Y-92670656D01*
X175936344Y-92794712D01*
X176085666Y-92886814D01*
X176252203Y-92941999D01*
X176354991Y-92952500D01*
X177055008Y-92952499D01*
X177055016Y-92952498D01*
X177055019Y-92952498D01*
X177111302Y-92946748D01*
X177157797Y-92941999D01*
X177324334Y-92886814D01*
X177415404Y-92830641D01*
X177482796Y-92812202D01*
X177549459Y-92833125D01*
X177594229Y-92886767D01*
X177604500Y-92936181D01*
X177604500Y-93004846D01*
X177635261Y-93159489D01*
X177635264Y-93159501D01*
X177695602Y-93305172D01*
X177695609Y-93305185D01*
X177783210Y-93436288D01*
X177783213Y-93436292D01*
X178236740Y-93889819D01*
X178270225Y-93951142D01*
X178265241Y-94020834D01*
X178223369Y-94076767D01*
X178157905Y-94101184D01*
X178149059Y-94101500D01*
X174904998Y-94101500D01*
X174904981Y-94101501D01*
X174802203Y-94112000D01*
X174802200Y-94112001D01*
X174635668Y-94167185D01*
X174635663Y-94167187D01*
X174486342Y-94259289D01*
X174362289Y-94383342D01*
X174270187Y-94532663D01*
X174270185Y-94532668D01*
X174215001Y-94699201D01*
X174207820Y-94769498D01*
X174207820Y-94769500D01*
X174204500Y-94801988D01*
X174204500Y-103802001D01*
X174204501Y-103802018D01*
X174215000Y-103904796D01*
X174215001Y-103904799D01*
X174270185Y-104071331D01*
X174270187Y-104071336D01*
X174305069Y-104127888D01*
X174362288Y-104220656D01*
X174486344Y-104344712D01*
X174635666Y-104436814D01*
X174802203Y-104491999D01*
X174886925Y-104500654D01*
X174894233Y-104502499D01*
X174898665Y-104502499D01*
X174911280Y-104503142D01*
X174918432Y-104503873D01*
X174926384Y-104502499D01*
X175526903Y-104502499D01*
X175593941Y-104522184D01*
X175639696Y-104574988D01*
X175649640Y-104644146D01*
X175620615Y-104707702D01*
X175614583Y-104714180D01*
X175368465Y-104960298D01*
X175307142Y-104993783D01*
X175294668Y-104995837D01*
X175207750Y-105005630D01*
X175037478Y-105065210D01*
X174884737Y-105161184D01*
X174757184Y-105288737D01*
X174661211Y-105441476D01*
X174601631Y-105611745D01*
X174601630Y-105611750D01*
X174581435Y-105790996D01*
X174581435Y-105791003D01*
X174601630Y-105970249D01*
X174601631Y-105970254D01*
X174661211Y-106140523D01*
X174726965Y-106245169D01*
X174757184Y-106293262D01*
X174884738Y-106420816D01*
X174938871Y-106454830D01*
X175036637Y-106516261D01*
X175037478Y-106516789D01*
X175131358Y-106549639D01*
X175207745Y-106576368D01*
X175207750Y-106576369D01*
X175386996Y-106596565D01*
X175387000Y-106596565D01*
X175387004Y-106596565D01*
X175566249Y-106576369D01*
X175566252Y-106576368D01*
X175566255Y-106576368D01*
X175736522Y-106516789D01*
X175889262Y-106420816D01*
X176016816Y-106293262D01*
X176112789Y-106140522D01*
X176172368Y-105970255D01*
X176182161Y-105883329D01*
X176209226Y-105818918D01*
X176217690Y-105809543D01*
X177488416Y-104538818D01*
X177549739Y-104505333D01*
X177576097Y-104502499D01*
X180454985Y-104502499D01*
X180454991Y-104502500D01*
X185305008Y-104502499D01*
X185407797Y-104491999D01*
X185574334Y-104436814D01*
X185723656Y-104344712D01*
X185723657Y-104344710D01*
X185728355Y-104341813D01*
X185795748Y-104323373D01*
X185862411Y-104344296D01*
X185907181Y-104397938D01*
X185917452Y-104447352D01*
X185917452Y-113191450D01*
X185917223Y-113198988D01*
X185903790Y-113419562D01*
X185901738Y-113435698D01*
X185854155Y-113680342D01*
X185850009Y-113696071D01*
X185770808Y-113932394D01*
X185764638Y-113947447D01*
X185655185Y-114171361D01*
X185647098Y-114185474D01*
X185509280Y-114393131D01*
X185499416Y-114406065D01*
X185335593Y-114593905D01*
X185324120Y-114605436D01*
X185137125Y-114770207D01*
X185124246Y-114780135D01*
X184917280Y-114919018D01*
X184903208Y-114927176D01*
X184679854Y-115037767D01*
X184664841Y-115044010D01*
X184492788Y-115102650D01*
X184428931Y-115124414D01*
X184413223Y-115128640D01*
X184168815Y-115177470D01*
X184152689Y-115179604D01*
X183900830Y-115196231D01*
X183892662Y-115196500D01*
X114815880Y-115196500D01*
X114806925Y-115196176D01*
X114554750Y-115177917D01*
X114538756Y-115175705D01*
X114294461Y-115125526D01*
X114278890Y-115121255D01*
X114043176Y-115039755D01*
X114028292Y-115033496D01*
X113815411Y-114927176D01*
X113805174Y-114922063D01*
X113791230Y-114913924D01*
X113584486Y-114774446D01*
X113571717Y-114764564D01*
X113566873Y-114760282D01*
X113384841Y-114599398D01*
X113373467Y-114587943D01*
X113209639Y-114399896D01*
X113199848Y-114387058D01*
X113061835Y-114179308D01*
X113053806Y-114165324D01*
X112950017Y-113953752D01*
X112943963Y-113941410D01*
X112937811Y-113926482D01*
X112857996Y-113690202D01*
X112853836Y-113674605D01*
X112845234Y-113631159D01*
X112805397Y-113429950D01*
X112803300Y-113413941D01*
X112800215Y-113366664D01*
X112786750Y-113160279D01*
X112786487Y-113152206D01*
X112786487Y-112288713D01*
X114219500Y-112288713D01*
X114219500Y-112501286D01*
X114252753Y-112711239D01*
X114318444Y-112913414D01*
X114414951Y-113102820D01*
X114539890Y-113274786D01*
X114690213Y-113425109D01*
X114862179Y-113550048D01*
X114862181Y-113550049D01*
X114862184Y-113550051D01*
X115051588Y-113646557D01*
X115253757Y-113712246D01*
X115463713Y-113745500D01*
X115463714Y-113745500D01*
X115676286Y-113745500D01*
X115676287Y-113745500D01*
X115886243Y-113712246D01*
X116088412Y-113646557D01*
X116277816Y-113550051D01*
X116443121Y-113429951D01*
X116449786Y-113425109D01*
X116449788Y-113425106D01*
X116449792Y-113425104D01*
X116600104Y-113274792D01*
X116600106Y-113274788D01*
X116600109Y-113274786D01*
X116725048Y-113102820D01*
X116725047Y-113102820D01*
X116725051Y-113102816D01*
X116821557Y-112913412D01*
X116887246Y-112711243D01*
X116920500Y-112501287D01*
X116920500Y-112288713D01*
X116887246Y-112078757D01*
X116821557Y-111876588D01*
X116725051Y-111687184D01*
X116725049Y-111687181D01*
X116725048Y-111687179D01*
X116600109Y-111515213D01*
X116449786Y-111364890D01*
X116277820Y-111239951D01*
X116088414Y-111143444D01*
X116088413Y-111143443D01*
X116088412Y-111143443D01*
X115886243Y-111077754D01*
X115886241Y-111077753D01*
X115886240Y-111077753D01*
X115724957Y-111052208D01*
X115676287Y-111044500D01*
X115463713Y-111044500D01*
X115415042Y-111052208D01*
X115253760Y-111077753D01*
X115051585Y-111143444D01*
X114862179Y-111239951D01*
X114690213Y-111364890D01*
X114539890Y-111515213D01*
X114414951Y-111687179D01*
X114318444Y-111876585D01*
X114252753Y-112078760D01*
X114219500Y-112288713D01*
X112786487Y-112288713D01*
X112786487Y-107623994D01*
X114953357Y-107623994D01*
X114953357Y-107624005D01*
X114973890Y-107871812D01*
X114973892Y-107871824D01*
X115034936Y-108112881D01*
X115134826Y-108340606D01*
X115270833Y-108548782D01*
X115270836Y-108548785D01*
X115439256Y-108731738D01*
X115635491Y-108884474D01*
X115854190Y-109002828D01*
X116089386Y-109083571D01*
X116334665Y-109124500D01*
X116583335Y-109124500D01*
X116828614Y-109083571D01*
X117063810Y-109002828D01*
X117282509Y-108884474D01*
X117478744Y-108731738D01*
X117647164Y-108548785D01*
X117783173Y-108340607D01*
X117801560Y-108298689D01*
X117846517Y-108245204D01*
X117913253Y-108224514D01*
X117915116Y-108224500D01*
X121502884Y-108224500D01*
X121569923Y-108244185D01*
X121615678Y-108296989D01*
X121616440Y-108298689D01*
X121634827Y-108340608D01*
X121770833Y-108548782D01*
X121770836Y-108548785D01*
X121939256Y-108731738D01*
X122135491Y-108884474D01*
X122354190Y-109002828D01*
X122589386Y-109083571D01*
X122834665Y-109124500D01*
X123083335Y-109124500D01*
X123328614Y-109083571D01*
X123563810Y-109002828D01*
X123782509Y-108884474D01*
X123978744Y-108731738D01*
X124147164Y-108548785D01*
X124283173Y-108340607D01*
X124383063Y-108112881D01*
X124444108Y-107871821D01*
X124444764Y-107863903D01*
X124464643Y-107624005D01*
X124464643Y-107623994D01*
X124444109Y-107376187D01*
X124444107Y-107376175D01*
X124383063Y-107135118D01*
X124283173Y-106907393D01*
X124147166Y-106699217D01*
X124108411Y-106657118D01*
X123978744Y-106516262D01*
X123782509Y-106363526D01*
X123782507Y-106363525D01*
X123782506Y-106363524D01*
X123563811Y-106245172D01*
X123563802Y-106245169D01*
X123328616Y-106164429D01*
X123083335Y-106123500D01*
X122834665Y-106123500D01*
X122589383Y-106164429D01*
X122354197Y-106245169D01*
X122354188Y-106245172D01*
X122135493Y-106363524D01*
X121939257Y-106516261D01*
X121770833Y-106699217D01*
X121634827Y-106907391D01*
X121616440Y-106949311D01*
X121571483Y-107002796D01*
X121504747Y-107023486D01*
X121502884Y-107023500D01*
X117915116Y-107023500D01*
X117848077Y-107003815D01*
X117802322Y-106951011D01*
X117801560Y-106949311D01*
X117783172Y-106907391D01*
X117647166Y-106699217D01*
X117608411Y-106657118D01*
X117478744Y-106516262D01*
X117282509Y-106363526D01*
X117282507Y-106363525D01*
X117282506Y-106363524D01*
X117063811Y-106245172D01*
X117063802Y-106245169D01*
X116828616Y-106164429D01*
X116583335Y-106123500D01*
X116334665Y-106123500D01*
X116089383Y-106164429D01*
X115854197Y-106245169D01*
X115854188Y-106245172D01*
X115635493Y-106363524D01*
X115439257Y-106516261D01*
X115270833Y-106699217D01*
X115134826Y-106907393D01*
X115034936Y-107135118D01*
X114973892Y-107376175D01*
X114973890Y-107376187D01*
X114953357Y-107623994D01*
X112786487Y-107623994D01*
X112786487Y-83148994D01*
X114370357Y-83148994D01*
X114370357Y-83149005D01*
X114390890Y-83396812D01*
X114390892Y-83396824D01*
X114451936Y-83637881D01*
X114551826Y-83865606D01*
X114687833Y-84073782D01*
X114687836Y-84073785D01*
X114856256Y-84256738D01*
X115052491Y-84409474D01*
X115127155Y-84449880D01*
X115228048Y-84504481D01*
X115271190Y-84527828D01*
X115506386Y-84608571D01*
X115751665Y-84649500D01*
X116000335Y-84649500D01*
X116245614Y-84608571D01*
X116480810Y-84527828D01*
X116699509Y-84409474D01*
X116895744Y-84256738D01*
X117064164Y-84073785D01*
X117200173Y-83865607D01*
X117300063Y-83637881D01*
X117361108Y-83396821D01*
X117364587Y-83354834D01*
X117381643Y-83149005D01*
X117381643Y-83148994D01*
X117361109Y-82901187D01*
X117361107Y-82901175D01*
X117300063Y-82660118D01*
X117200173Y-82432393D01*
X117064166Y-82224217D01*
X117022659Y-82179129D01*
X116895744Y-82041262D01*
X116699509Y-81888526D01*
X116699507Y-81888525D01*
X116699506Y-81888524D01*
X116480811Y-81770172D01*
X116480802Y-81770169D01*
X116245616Y-81689429D01*
X116000335Y-81648500D01*
X115751665Y-81648500D01*
X115506383Y-81689429D01*
X115271197Y-81770169D01*
X115271188Y-81770172D01*
X115052493Y-81888524D01*
X114856257Y-82041261D01*
X114687833Y-82224217D01*
X114551826Y-82432393D01*
X114451936Y-82660118D01*
X114390892Y-82901175D01*
X114390890Y-82901187D01*
X114370357Y-83148994D01*
X112786487Y-83148994D01*
X112786487Y-68600713D01*
X114219500Y-68600713D01*
X114219500Y-68813286D01*
X114252753Y-69023239D01*
X114318444Y-69225414D01*
X114414951Y-69414820D01*
X114539890Y-69586786D01*
X114690213Y-69737109D01*
X114862179Y-69862048D01*
X114862181Y-69862049D01*
X114862184Y-69862051D01*
X115051588Y-69958557D01*
X115253757Y-70024246D01*
X115463713Y-70057500D01*
X115463714Y-70057500D01*
X115676286Y-70057500D01*
X115676287Y-70057500D01*
X115886243Y-70024246D01*
X116088412Y-69958557D01*
X116277816Y-69862051D01*
X116299789Y-69846086D01*
X116449786Y-69737109D01*
X116449788Y-69737106D01*
X116449792Y-69737104D01*
X116600104Y-69586792D01*
X116600106Y-69586788D01*
X116600109Y-69586786D01*
X116725048Y-69414820D01*
X116725047Y-69414820D01*
X116725051Y-69414816D01*
X116821557Y-69225412D01*
X116887246Y-69023243D01*
X116920500Y-68813287D01*
X116920500Y-68600713D01*
X116887246Y-68390757D01*
X116821557Y-68188588D01*
X116725051Y-67999184D01*
X116725049Y-67999181D01*
X116725048Y-67999179D01*
X116600109Y-67827213D01*
X116449786Y-67676890D01*
X116277820Y-67551951D01*
X116088414Y-67455444D01*
X116088413Y-67455443D01*
X116088412Y-67455443D01*
X115886243Y-67389754D01*
X115886241Y-67389753D01*
X115886240Y-67389753D01*
X115724957Y-67364208D01*
X115676287Y-67356500D01*
X115463713Y-67356500D01*
X115415042Y-67364208D01*
X115253760Y-67389753D01*
X115051585Y-67455444D01*
X114862179Y-67551951D01*
X114690213Y-67676890D01*
X114539890Y-67827213D01*
X114414951Y-67999179D01*
X114318444Y-68188585D01*
X114252753Y-68390760D01*
X114219500Y-68600713D01*
X112786487Y-68600713D01*
X112786487Y-66938148D01*
X112786833Y-66928895D01*
X112791601Y-66865173D01*
X112805649Y-66677449D01*
X112807889Y-66661517D01*
X112858531Y-66417696D01*
X112862828Y-66402162D01*
X112885758Y-66336266D01*
X112944670Y-66166976D01*
X112950938Y-66152148D01*
X113062603Y-65929559D01*
X113070740Y-65915672D01*
X113210342Y-65709445D01*
X113220210Y-65696733D01*
X113385377Y-65510368D01*
X113396815Y-65499039D01*
X113584763Y-65335676D01*
X113597589Y-65325918D01*
X113805133Y-65188323D01*
X113819107Y-65180314D01*
X114042763Y-65070798D01*
X114057646Y-65064676D01*
X114293616Y-64985102D01*
X114309184Y-64980958D01*
X114553465Y-64932672D01*
X114569440Y-64930581D01*
X114822267Y-64914111D01*
X114830311Y-64913850D01*
X114891881Y-64913850D01*
X122193000Y-64913850D01*
X122260039Y-64933535D01*
G37*
%TD.AperFunction*%
%TA.AperFunction,Conductor*%
G36*
X125659895Y-79587185D02*
G01*
X125705650Y-79639989D01*
X125715594Y-79709147D01*
X125712631Y-79723593D01*
X125664938Y-79901586D01*
X125664936Y-79901596D01*
X125644341Y-80136999D01*
X125644341Y-80137000D01*
X125664936Y-80372403D01*
X125664938Y-80372413D01*
X125726094Y-80600655D01*
X125726095Y-80600657D01*
X125726097Y-80600663D01*
X125792813Y-80743735D01*
X125825965Y-80814830D01*
X125825967Y-80814834D01*
X125961501Y-81008395D01*
X125961506Y-81008402D01*
X126128597Y-81175493D01*
X126128603Y-81175498D01*
X126314158Y-81305425D01*
X126357783Y-81360002D01*
X126364977Y-81429500D01*
X126333454Y-81491855D01*
X126314158Y-81508575D01*
X126128597Y-81638505D01*
X125961505Y-81805597D01*
X125825965Y-81999169D01*
X125825964Y-81999171D01*
X125726098Y-82213335D01*
X125726094Y-82213344D01*
X125664938Y-82441586D01*
X125664936Y-82441596D01*
X125644341Y-82676999D01*
X125644341Y-82677000D01*
X125664936Y-82912403D01*
X125664938Y-82912413D01*
X125726094Y-83140655D01*
X125726096Y-83140659D01*
X125726097Y-83140663D01*
X125793702Y-83285642D01*
X125825965Y-83354830D01*
X125825967Y-83354834D01*
X125961501Y-83548395D01*
X125961506Y-83548402D01*
X126128597Y-83715493D01*
X126128603Y-83715498D01*
X126314158Y-83845425D01*
X126357783Y-83900002D01*
X126364977Y-83969500D01*
X126333454Y-84031855D01*
X126314158Y-84048575D01*
X126128597Y-84178505D01*
X125961505Y-84345597D01*
X125825965Y-84539169D01*
X125825964Y-84539171D01*
X125726098Y-84753335D01*
X125726094Y-84753344D01*
X125664938Y-84981586D01*
X125664936Y-84981596D01*
X125644341Y-85216999D01*
X125644341Y-85217000D01*
X125664936Y-85452403D01*
X125664938Y-85452413D01*
X125726094Y-85680655D01*
X125726096Y-85680659D01*
X125726097Y-85680663D01*
X125805993Y-85852000D01*
X125825965Y-85894830D01*
X125825967Y-85894834D01*
X125891993Y-85989128D01*
X125961505Y-86088401D01*
X126128599Y-86255495D01*
X126171101Y-86285255D01*
X126322165Y-86391032D01*
X126322167Y-86391033D01*
X126322170Y-86391035D01*
X126536337Y-86490903D01*
X126536343Y-86490904D01*
X126536344Y-86490905D01*
X126591285Y-86505626D01*
X126764592Y-86552063D01*
X126952918Y-86568539D01*
X126999999Y-86572659D01*
X127000000Y-86572659D01*
X127000001Y-86572659D01*
X127039234Y-86569226D01*
X127235408Y-86552063D01*
X127463663Y-86490903D01*
X127677830Y-86391035D01*
X127871401Y-86255495D01*
X128038495Y-86088401D01*
X128174035Y-85894830D01*
X128273903Y-85680663D01*
X128335063Y-85452408D01*
X128355659Y-85217000D01*
X128354804Y-85207233D01*
X128335063Y-84981596D01*
X128335063Y-84981592D01*
X128273903Y-84753337D01*
X128260177Y-84723902D01*
X128249686Y-84654829D01*
X128278205Y-84591044D01*
X128336681Y-84552804D01*
X128372560Y-84547500D01*
X129437440Y-84547500D01*
X129504479Y-84567185D01*
X129550234Y-84619989D01*
X129560178Y-84689147D01*
X129549823Y-84723900D01*
X129536098Y-84753335D01*
X129536096Y-84753340D01*
X129536094Y-84753344D01*
X129474938Y-84981586D01*
X129474936Y-84981596D01*
X129454341Y-85216999D01*
X129454341Y-85217000D01*
X129474936Y-85452403D01*
X129474938Y-85452413D01*
X129536094Y-85680655D01*
X129536096Y-85680659D01*
X129536097Y-85680663D01*
X129615993Y-85852000D01*
X129635965Y-85894830D01*
X129635967Y-85894834D01*
X129701993Y-85989128D01*
X129771505Y-86088401D01*
X129938599Y-86255495D01*
X129981101Y-86285255D01*
X130132165Y-86391032D01*
X130132167Y-86391033D01*
X130132170Y-86391035D01*
X130346337Y-86490903D01*
X130346343Y-86490904D01*
X130346344Y-86490905D01*
X130401285Y-86505626D01*
X130574592Y-86552063D01*
X130762918Y-86568539D01*
X130809999Y-86572659D01*
X130810000Y-86572659D01*
X130810001Y-86572659D01*
X130849234Y-86569226D01*
X131045408Y-86552063D01*
X131273663Y-86490903D01*
X131487830Y-86391035D01*
X131681401Y-86255495D01*
X131848495Y-86088401D01*
X131984035Y-85894830D01*
X132006367Y-85846936D01*
X132052535Y-85794502D01*
X132119728Y-85775348D01*
X132186609Y-85795562D01*
X132206428Y-85811663D01*
X133246139Y-86851374D01*
X133246149Y-86851385D01*
X133250479Y-86855715D01*
X133250480Y-86855716D01*
X133362284Y-86967520D01*
X133362286Y-86967521D01*
X133362290Y-86967524D01*
X133495589Y-87044483D01*
X133499216Y-87046577D01*
X133588211Y-87070423D01*
X133651942Y-87087500D01*
X133651943Y-87087500D01*
X136196906Y-87087500D01*
X136263945Y-87107185D01*
X136309700Y-87159989D01*
X136320195Y-87224752D01*
X136316500Y-87259127D01*
X136316500Y-87259128D01*
X136316500Y-87259132D01*
X136316500Y-87445901D01*
X136296815Y-87512940D01*
X136280181Y-87533582D01*
X136054142Y-87759621D01*
X135992819Y-87793106D01*
X135923127Y-87788122D01*
X135867195Y-87746252D01*
X135827187Y-87692809D01*
X135712093Y-87606649D01*
X135712086Y-87606645D01*
X135577379Y-87556403D01*
X135577372Y-87556401D01*
X135517844Y-87550000D01*
X134870000Y-87550000D01*
X134870000Y-88466988D01*
X134812993Y-88434075D01*
X134685826Y-88400000D01*
X134554174Y-88400000D01*
X134427007Y-88434075D01*
X134370000Y-88466988D01*
X134370000Y-87550000D01*
X133722155Y-87550000D01*
X133662627Y-87556401D01*
X133662620Y-87556403D01*
X133527913Y-87606645D01*
X133527906Y-87606649D01*
X133412812Y-87692809D01*
X133412809Y-87692812D01*
X133326649Y-87807906D01*
X133326645Y-87807913D01*
X133276403Y-87942620D01*
X133276401Y-87942627D01*
X133270000Y-88002155D01*
X133270000Y-88650000D01*
X134186988Y-88650000D01*
X134154075Y-88707007D01*
X134120000Y-88834174D01*
X134120000Y-88965826D01*
X134154075Y-89092993D01*
X134186988Y-89150000D01*
X133270000Y-89150000D01*
X133270000Y-89797844D01*
X133276401Y-89857372D01*
X133276403Y-89857379D01*
X133326645Y-89992086D01*
X133326649Y-89992093D01*
X133412809Y-90107187D01*
X133412812Y-90107190D01*
X133527906Y-90193350D01*
X133527913Y-90193354D01*
X133659470Y-90242421D01*
X133715403Y-90284292D01*
X133739821Y-90349756D01*
X133724970Y-90418029D01*
X133703819Y-90446284D01*
X133581503Y-90568600D01*
X133445965Y-90762169D01*
X133445964Y-90762171D01*
X133346098Y-90976335D01*
X133346094Y-90976344D01*
X133284938Y-91204586D01*
X133284936Y-91204596D01*
X133264341Y-91439999D01*
X133264341Y-91440000D01*
X133284936Y-91675403D01*
X133284938Y-91675413D01*
X133346094Y-91903655D01*
X133346096Y-91903659D01*
X133346097Y-91903663D01*
X133421269Y-92064870D01*
X133445965Y-92117830D01*
X133445967Y-92117834D01*
X133545015Y-92259288D01*
X133566296Y-92289681D01*
X133581501Y-92311395D01*
X133581506Y-92311402D01*
X133748597Y-92478493D01*
X133748603Y-92478498D01*
X133934158Y-92608425D01*
X133977783Y-92663002D01*
X133984977Y-92732500D01*
X133953454Y-92794855D01*
X133934158Y-92811575D01*
X133748597Y-92941505D01*
X133581505Y-93108597D01*
X133445965Y-93302169D01*
X133445964Y-93302171D01*
X133346098Y-93516335D01*
X133346094Y-93516344D01*
X133284938Y-93744586D01*
X133284936Y-93744596D01*
X133264341Y-93979999D01*
X133264341Y-93980000D01*
X133284936Y-94215403D01*
X133284938Y-94215413D01*
X133346094Y-94443655D01*
X133346096Y-94443659D01*
X133346097Y-94443663D01*
X133415869Y-94593289D01*
X133445965Y-94657830D01*
X133445967Y-94657834D01*
X133487637Y-94717344D01*
X133573345Y-94839748D01*
X133581501Y-94851395D01*
X133581506Y-94851402D01*
X133748597Y-95018493D01*
X133748603Y-95018498D01*
X133934158Y-95148425D01*
X133977783Y-95203002D01*
X133984977Y-95272500D01*
X133953454Y-95334855D01*
X133934158Y-95351575D01*
X133748597Y-95481505D01*
X133581505Y-95648597D01*
X133445965Y-95842169D01*
X133445964Y-95842171D01*
X133364096Y-96017738D01*
X133346098Y-96056336D01*
X133346094Y-96056344D01*
X133284938Y-96284586D01*
X133284936Y-96284596D01*
X133264341Y-96519999D01*
X133264341Y-96520000D01*
X133284936Y-96755403D01*
X133284938Y-96755413D01*
X133346094Y-96983655D01*
X133346096Y-96983659D01*
X133346097Y-96983663D01*
X133436889Y-97178367D01*
X133445965Y-97197830D01*
X133445967Y-97197834D01*
X133533621Y-97323016D01*
X133581505Y-97391401D01*
X133748599Y-97558495D01*
X133752281Y-97561073D01*
X133942165Y-97694032D01*
X133942167Y-97694033D01*
X133942170Y-97694035D01*
X134156337Y-97793903D01*
X134384592Y-97855063D01*
X134572918Y-97871539D01*
X134619999Y-97875659D01*
X134620000Y-97875659D01*
X134620001Y-97875659D01*
X134659234Y-97872226D01*
X134855408Y-97855063D01*
X135083663Y-97793903D01*
X135297830Y-97694035D01*
X135491401Y-97558495D01*
X135658495Y-97391401D01*
X135794035Y-97197830D01*
X135893903Y-96983663D01*
X135955063Y-96755408D01*
X135975659Y-96520000D01*
X135975205Y-96514816D01*
X135961794Y-96361523D01*
X135955063Y-96284592D01*
X135904417Y-96095575D01*
X135893905Y-96056344D01*
X135893904Y-96056343D01*
X135893903Y-96056337D01*
X135794035Y-95842171D01*
X135787439Y-95832750D01*
X135658494Y-95648597D01*
X135491402Y-95481506D01*
X135491396Y-95481501D01*
X135305842Y-95351575D01*
X135262217Y-95296998D01*
X135255023Y-95227500D01*
X135286546Y-95165145D01*
X135305842Y-95148425D01*
X135380575Y-95096096D01*
X135491401Y-95018495D01*
X135658495Y-94851401D01*
X135794035Y-94657830D01*
X135893903Y-94443663D01*
X135955063Y-94215408D01*
X135975659Y-93980000D01*
X135975205Y-93974816D01*
X135963919Y-93845811D01*
X135955063Y-93744592D01*
X135920671Y-93616239D01*
X135922334Y-93546393D01*
X135952763Y-93496470D01*
X136114431Y-93334802D01*
X136175752Y-93301319D01*
X136245444Y-93306303D01*
X136301377Y-93348175D01*
X136319714Y-93387395D01*
X136320198Y-93387215D01*
X136322434Y-93393211D01*
X136322784Y-93393959D01*
X136322906Y-93394476D01*
X136373202Y-93529328D01*
X136373206Y-93529335D01*
X136459452Y-93644544D01*
X136459455Y-93644547D01*
X136574664Y-93730793D01*
X136574671Y-93730797D01*
X136709517Y-93781091D01*
X136709516Y-93781091D01*
X136716444Y-93781835D01*
X136769127Y-93787500D01*
X138257500Y-93787499D01*
X138324539Y-93807184D01*
X138370294Y-93859987D01*
X138381500Y-93911499D01*
X138381500Y-94136902D01*
X138361815Y-94203941D01*
X138345181Y-94224583D01*
X137568481Y-95001282D01*
X137568479Y-95001285D01*
X137536347Y-95056941D01*
X137536346Y-95056943D01*
X137489423Y-95138214D01*
X137489423Y-95138215D01*
X137448499Y-95290943D01*
X137448499Y-95290945D01*
X137448499Y-95302589D01*
X137428814Y-95369628D01*
X137421445Y-95379903D01*
X137419184Y-95382737D01*
X137323211Y-95535476D01*
X137263631Y-95705745D01*
X137263630Y-95705750D01*
X137243435Y-95884996D01*
X137243435Y-95885003D01*
X137263630Y-96064249D01*
X137263631Y-96064254D01*
X137323211Y-96234523D01*
X137419184Y-96387262D01*
X137546738Y-96514816D01*
X137592177Y-96543367D01*
X137689933Y-96604792D01*
X137699478Y-96610789D01*
X137847260Y-96662500D01*
X137869745Y-96670368D01*
X137869750Y-96670369D01*
X138048996Y-96690565D01*
X138049000Y-96690565D01*
X138049004Y-96690565D01*
X138228249Y-96670369D01*
X138228251Y-96670368D01*
X138228255Y-96670368D01*
X138228258Y-96670366D01*
X138228262Y-96670366D01*
X138358235Y-96624886D01*
X138428013Y-96621323D01*
X138488641Y-96656052D01*
X138504181Y-96675952D01*
X138546011Y-96742523D01*
X138562184Y-96768262D01*
X138689739Y-96895817D01*
X138738147Y-96926234D01*
X138784437Y-96978569D01*
X138795085Y-97047622D01*
X138766710Y-97111470D01*
X138759855Y-97118908D01*
X136693584Y-99185181D01*
X136632261Y-99218666D01*
X136605903Y-99221500D01*
X127275301Y-99221500D01*
X127208262Y-99201815D01*
X127162507Y-99149011D01*
X127157595Y-99136504D01*
X127157241Y-99135436D01*
X127129814Y-99052666D01*
X127037712Y-98903344D01*
X126913656Y-98779288D01*
X126764334Y-98687186D01*
X126597797Y-98632001D01*
X126597795Y-98632000D01*
X126495010Y-98621500D01*
X125694998Y-98621500D01*
X125694980Y-98621501D01*
X125592203Y-98632000D01*
X125592200Y-98632001D01*
X125425668Y-98687185D01*
X125425663Y-98687187D01*
X125276342Y-98779289D01*
X125182681Y-98872951D01*
X125121358Y-98906436D01*
X125051666Y-98901452D01*
X125007319Y-98872951D01*
X124913657Y-98779289D01*
X124913656Y-98779288D01*
X124764334Y-98687186D01*
X124597797Y-98632001D01*
X124597795Y-98632000D01*
X124495016Y-98621500D01*
X124495009Y-98621500D01*
X123795098Y-98621500D01*
X123728059Y-98601815D01*
X123707417Y-98585181D01*
X123506819Y-98384583D01*
X123473334Y-98323260D01*
X123470500Y-98296902D01*
X123470500Y-97979308D01*
X123490185Y-97912269D01*
X123506820Y-97891626D01*
X123538076Y-97860370D01*
X123538081Y-97860365D01*
X123621744Y-97718898D01*
X123667598Y-97561069D01*
X123670500Y-97524194D01*
X123670500Y-96217806D01*
X123667598Y-96180931D01*
X123665939Y-96175221D01*
X123626304Y-96038797D01*
X123621744Y-96023102D01*
X123538081Y-95881635D01*
X123538079Y-95881633D01*
X123538076Y-95881629D01*
X123421870Y-95765423D01*
X123421862Y-95765417D01*
X123280396Y-95681755D01*
X123280393Y-95681754D01*
X123122573Y-95635902D01*
X123122567Y-95635901D01*
X123085701Y-95633000D01*
X123085694Y-95633000D01*
X122844500Y-95633000D01*
X122777461Y-95613315D01*
X122731706Y-95560511D01*
X122720500Y-95509000D01*
X122720500Y-95096096D01*
X122740185Y-95029057D01*
X122756814Y-95008420D01*
X124415035Y-93350198D01*
X124424562Y-93344996D01*
X126321435Y-93344996D01*
X126321435Y-93345003D01*
X126341630Y-93524249D01*
X126341631Y-93524254D01*
X126401211Y-93694523D01*
X126471731Y-93806754D01*
X126497184Y-93847262D01*
X126624738Y-93974816D01*
X126777478Y-94070789D01*
X126947745Y-94130368D01*
X126947750Y-94130369D01*
X127126996Y-94150565D01*
X127127000Y-94150565D01*
X127127004Y-94150565D01*
X127306249Y-94130369D01*
X127306252Y-94130368D01*
X127306255Y-94130368D01*
X127476522Y-94070789D01*
X127629262Y-93974816D01*
X127756816Y-93847262D01*
X127852789Y-93694522D01*
X127912368Y-93524255D01*
X127922161Y-93437329D01*
X127949226Y-93372918D01*
X127957690Y-93363543D01*
X129244416Y-92076819D01*
X129305739Y-92043334D01*
X129332097Y-92040500D01*
X129520909Y-92040500D01*
X129587948Y-92060185D01*
X129633292Y-92112097D01*
X129635965Y-92117830D01*
X129759742Y-92294602D01*
X129771501Y-92311395D01*
X129771506Y-92311402D01*
X129938597Y-92478493D01*
X129938603Y-92478498D01*
X130124158Y-92608425D01*
X130167783Y-92663002D01*
X130174977Y-92732500D01*
X130143454Y-92794855D01*
X130124158Y-92811575D01*
X129938597Y-92941505D01*
X129771505Y-93108597D01*
X129635965Y-93302169D01*
X129635964Y-93302171D01*
X129536098Y-93516335D01*
X129536094Y-93516344D01*
X129474938Y-93744586D01*
X129474936Y-93744596D01*
X129454341Y-93979999D01*
X129454341Y-93980000D01*
X129474936Y-94215403D01*
X129474938Y-94215413D01*
X129509327Y-94343755D01*
X129507664Y-94413605D01*
X129477233Y-94463529D01*
X127647286Y-96293478D01*
X127535481Y-96405282D01*
X127535475Y-96405290D01*
X127489168Y-96485498D01*
X127489168Y-96485499D01*
X127456423Y-96542214D01*
X127456423Y-96542215D01*
X127415499Y-96694943D01*
X127415499Y-96694945D01*
X127415499Y-96863046D01*
X127415500Y-96863059D01*
X127415500Y-97461587D01*
X127395815Y-97528626D01*
X127388450Y-97538896D01*
X127386186Y-97541734D01*
X127290211Y-97694476D01*
X127230631Y-97864745D01*
X127230630Y-97864750D01*
X127210435Y-98043996D01*
X127210435Y-98044003D01*
X127230630Y-98223249D01*
X127230631Y-98223254D01*
X127290211Y-98393523D01*
X127332743Y-98461211D01*
X127386184Y-98546262D01*
X127513738Y-98673816D01*
X127666478Y-98769789D01*
X127828549Y-98826500D01*
X127836745Y-98829368D01*
X127836750Y-98829369D01*
X128015996Y-98849565D01*
X128016000Y-98849565D01*
X128016004Y-98849565D01*
X128195249Y-98829369D01*
X128195252Y-98829368D01*
X128195255Y-98829368D01*
X128365522Y-98769789D01*
X128518262Y-98673816D01*
X128645816Y-98546262D01*
X128741789Y-98393522D01*
X128801368Y-98223255D01*
X128803387Y-98205336D01*
X128821565Y-98044003D01*
X128821565Y-98043996D01*
X128801369Y-97864750D01*
X128801368Y-97864745D01*
X128776579Y-97793903D01*
X128741789Y-97694478D01*
X128645816Y-97541738D01*
X128645814Y-97541736D01*
X128645813Y-97541734D01*
X128643550Y-97538896D01*
X128642659Y-97536715D01*
X128642111Y-97535842D01*
X128642264Y-97535745D01*
X128617144Y-97474209D01*
X128616500Y-97461587D01*
X128616500Y-97074096D01*
X128636185Y-97007057D01*
X128652815Y-96986419D01*
X129245568Y-96393665D01*
X129306891Y-96360181D01*
X129376583Y-96365165D01*
X129432516Y-96407037D01*
X129456933Y-96472501D01*
X129456777Y-96492154D01*
X129454341Y-96519997D01*
X129454341Y-96520000D01*
X129474936Y-96755403D01*
X129474938Y-96755413D01*
X129536094Y-96983655D01*
X129536096Y-96983659D01*
X129536097Y-96983663D01*
X129626889Y-97178367D01*
X129635965Y-97197830D01*
X129635967Y-97197834D01*
X129723621Y-97323016D01*
X129771505Y-97391401D01*
X129938599Y-97558495D01*
X129942281Y-97561073D01*
X130132165Y-97694032D01*
X130132167Y-97694033D01*
X130132170Y-97694035D01*
X130346337Y-97793903D01*
X130574592Y-97855063D01*
X130762918Y-97871539D01*
X130809999Y-97875659D01*
X130810000Y-97875659D01*
X130810001Y-97875659D01*
X130849234Y-97872226D01*
X131045408Y-97855063D01*
X131273663Y-97793903D01*
X131487830Y-97694035D01*
X131681401Y-97558495D01*
X131848495Y-97391401D01*
X131984035Y-97197830D01*
X132083903Y-96983663D01*
X132145063Y-96755408D01*
X132165659Y-96520000D01*
X132165205Y-96514816D01*
X132151794Y-96361523D01*
X132145063Y-96284592D01*
X132094417Y-96095575D01*
X132083905Y-96056344D01*
X132083904Y-96056343D01*
X132083903Y-96056337D01*
X131984035Y-95842171D01*
X131977439Y-95832750D01*
X131848494Y-95648597D01*
X131681402Y-95481506D01*
X131681396Y-95481501D01*
X131495842Y-95351575D01*
X131452217Y-95296998D01*
X131445023Y-95227500D01*
X131476546Y-95165145D01*
X131495842Y-95148425D01*
X131570575Y-95096096D01*
X131681401Y-95018495D01*
X131848495Y-94851401D01*
X131984035Y-94657830D01*
X132083903Y-94443663D01*
X132145063Y-94215408D01*
X132165659Y-93980000D01*
X132165205Y-93974816D01*
X132153919Y-93845811D01*
X132145063Y-93744592D01*
X132086023Y-93524249D01*
X132083905Y-93516344D01*
X132083904Y-93516343D01*
X132083903Y-93516337D01*
X131984035Y-93302171D01*
X131983439Y-93301319D01*
X131848494Y-93108597D01*
X131681402Y-92941506D01*
X131681396Y-92941501D01*
X131495842Y-92811575D01*
X131452217Y-92756998D01*
X131445023Y-92687500D01*
X131476546Y-92625145D01*
X131495842Y-92608425D01*
X131579514Y-92549837D01*
X131681401Y-92478495D01*
X131848495Y-92311401D01*
X131984035Y-92117830D01*
X132083903Y-91903663D01*
X132145063Y-91675408D01*
X132165659Y-91440000D01*
X132145063Y-91204592D01*
X132089654Y-90997799D01*
X132083905Y-90976344D01*
X132083904Y-90976343D01*
X132083903Y-90976337D01*
X131984035Y-90762171D01*
X131984034Y-90762169D01*
X131848496Y-90568600D01*
X131791991Y-90512095D01*
X131726179Y-90446283D01*
X131692696Y-90384963D01*
X131697680Y-90315271D01*
X131739551Y-90259337D01*
X131770529Y-90242422D01*
X131902086Y-90193354D01*
X131902093Y-90193350D01*
X132017187Y-90107190D01*
X132017190Y-90107187D01*
X132103350Y-89992093D01*
X132103354Y-89992086D01*
X132153596Y-89857379D01*
X132153598Y-89857372D01*
X132159999Y-89797844D01*
X132160000Y-89797827D01*
X132160000Y-89150000D01*
X131243012Y-89150000D01*
X131275925Y-89092993D01*
X131310000Y-88965826D01*
X131310000Y-88834174D01*
X131275925Y-88707007D01*
X131243012Y-88650000D01*
X132160000Y-88650000D01*
X132160000Y-88002172D01*
X132159999Y-88002155D01*
X132153598Y-87942627D01*
X132153596Y-87942620D01*
X132103354Y-87807913D01*
X132103350Y-87807906D01*
X132017190Y-87692812D01*
X132017187Y-87692809D01*
X131902093Y-87606649D01*
X131902086Y-87606645D01*
X131767379Y-87556403D01*
X131767372Y-87556401D01*
X131707844Y-87550000D01*
X131060000Y-87550000D01*
X131060000Y-88466988D01*
X131002993Y-88434075D01*
X130875826Y-88400000D01*
X130744174Y-88400000D01*
X130617007Y-88434075D01*
X130560000Y-88466988D01*
X130560000Y-87550000D01*
X129912155Y-87550000D01*
X129852627Y-87556401D01*
X129852620Y-87556403D01*
X129717913Y-87606645D01*
X129717906Y-87606649D01*
X129602812Y-87692809D01*
X129602809Y-87692812D01*
X129516649Y-87807906D01*
X129516645Y-87807913D01*
X129466403Y-87942620D01*
X129466401Y-87942627D01*
X129460000Y-88002155D01*
X129460000Y-88650000D01*
X130376988Y-88650000D01*
X130344075Y-88707007D01*
X130310000Y-88834174D01*
X130310000Y-88965826D01*
X130344075Y-89092993D01*
X130376988Y-89150000D01*
X129460000Y-89150000D01*
X129460000Y-89797844D01*
X129466401Y-89857372D01*
X129466403Y-89857379D01*
X129516645Y-89992086D01*
X129516649Y-89992093D01*
X129602809Y-90107187D01*
X129602812Y-90107190D01*
X129717906Y-90193350D01*
X129717913Y-90193354D01*
X129849470Y-90242421D01*
X129905403Y-90284292D01*
X129929821Y-90349756D01*
X129914970Y-90418029D01*
X129893819Y-90446284D01*
X129771503Y-90568600D01*
X129635965Y-90762170D01*
X129635962Y-90762175D01*
X129633289Y-90767909D01*
X129587115Y-90820346D01*
X129520909Y-90839500D01*
X129118669Y-90839500D01*
X129118653Y-90839499D01*
X129111057Y-90839499D01*
X128952943Y-90839499D01*
X128845587Y-90868265D01*
X128800210Y-90880424D01*
X128800209Y-90880425D01*
X128750096Y-90909359D01*
X128750095Y-90909360D01*
X128710881Y-90932000D01*
X128663285Y-90959479D01*
X128663282Y-90959481D01*
X128551478Y-91071286D01*
X127108465Y-92514298D01*
X127047142Y-92547783D01*
X127034668Y-92549837D01*
X126947750Y-92559630D01*
X126777478Y-92619210D01*
X126624737Y-92715184D01*
X126497184Y-92842737D01*
X126401211Y-92995476D01*
X126341631Y-93165745D01*
X126341630Y-93165750D01*
X126321435Y-93344996D01*
X124424562Y-93344996D01*
X124476356Y-93316715D01*
X124488811Y-93314663D01*
X124575755Y-93304868D01*
X124746022Y-93245289D01*
X124898762Y-93149316D01*
X125026316Y-93021762D01*
X125122289Y-92869022D01*
X125181868Y-92698755D01*
X125183136Y-92687500D01*
X125202065Y-92519503D01*
X125202065Y-92519496D01*
X125181869Y-92340250D01*
X125181868Y-92340245D01*
X125150993Y-92252009D01*
X125122289Y-92169978D01*
X125026316Y-92017238D01*
X124898762Y-91889684D01*
X124869558Y-91871334D01*
X124746021Y-91793710D01*
X124720096Y-91784639D01*
X124663320Y-91743918D01*
X124637572Y-91678965D01*
X124651028Y-91610403D01*
X124673366Y-91579919D01*
X127830645Y-88422641D01*
X127877367Y-88393283D01*
X127984522Y-88355789D01*
X128137262Y-88259816D01*
X128264816Y-88132262D01*
X128360789Y-87979522D01*
X128420368Y-87809255D01*
X128420369Y-87809249D01*
X128440565Y-87630003D01*
X128440565Y-87629996D01*
X128420369Y-87450750D01*
X128420368Y-87450745D01*
X128411307Y-87424851D01*
X128360789Y-87280478D01*
X128347376Y-87259132D01*
X128306632Y-87194288D01*
X128264816Y-87127738D01*
X128137262Y-87000184D01*
X128137257Y-87000181D01*
X127984523Y-86904211D01*
X127814254Y-86844631D01*
X127814249Y-86844630D01*
X127635004Y-86824435D01*
X127634996Y-86824435D01*
X127455750Y-86844630D01*
X127455745Y-86844631D01*
X127285476Y-86904211D01*
X127132737Y-87000184D01*
X127005184Y-87127737D01*
X126909211Y-87280476D01*
X126849631Y-87450745D01*
X126849630Y-87450750D01*
X126829435Y-87629996D01*
X126829435Y-87630003D01*
X126832407Y-87656382D01*
X126820352Y-87725204D01*
X126796868Y-87757946D01*
X123478181Y-91076634D01*
X123416858Y-91110119D01*
X123347166Y-91105135D01*
X123291233Y-91063263D01*
X123266816Y-90997799D01*
X123266500Y-90988953D01*
X123266500Y-87732908D01*
X123286185Y-87665869D01*
X123330271Y-87627363D01*
X123329187Y-87625605D01*
X123335332Y-87621814D01*
X123335334Y-87621814D01*
X123484656Y-87529712D01*
X123608712Y-87405656D01*
X123700814Y-87256334D01*
X123755999Y-87089797D01*
X123766500Y-86987009D01*
X123766499Y-85986992D01*
X123755999Y-85884203D01*
X123700814Y-85717666D01*
X123608712Y-85568344D01*
X123484656Y-85444288D01*
X123335334Y-85352186D01*
X123168797Y-85297001D01*
X123168795Y-85297000D01*
X123066010Y-85286500D01*
X122265998Y-85286500D01*
X122265980Y-85286501D01*
X122163203Y-85297000D01*
X122163200Y-85297001D01*
X121996668Y-85352185D01*
X121996663Y-85352187D01*
X121847342Y-85444289D01*
X121753681Y-85537951D01*
X121692358Y-85571436D01*
X121622666Y-85566452D01*
X121578319Y-85537951D01*
X121484655Y-85444287D01*
X121425402Y-85407739D01*
X121378678Y-85355791D01*
X121366500Y-85302201D01*
X121366500Y-84516919D01*
X121386185Y-84449880D01*
X121438989Y-84404125D01*
X121508147Y-84394181D01*
X121549518Y-84407864D01*
X121552486Y-84409470D01*
X121552491Y-84409474D01*
X121771190Y-84527828D01*
X122006386Y-84608571D01*
X122251665Y-84649500D01*
X122500335Y-84649500D01*
X122745614Y-84608571D01*
X122980810Y-84527828D01*
X123199509Y-84409474D01*
X123395744Y-84256738D01*
X123564164Y-84073785D01*
X123700173Y-83865607D01*
X123800063Y-83637881D01*
X123861108Y-83396821D01*
X123864587Y-83354834D01*
X123881643Y-83149005D01*
X123881643Y-83148994D01*
X123861109Y-82901187D01*
X123861107Y-82901175D01*
X123800063Y-82660118D01*
X123700173Y-82432393D01*
X123564166Y-82224217D01*
X123522659Y-82179129D01*
X123395744Y-82041262D01*
X123199509Y-81888526D01*
X123199507Y-81888525D01*
X123199506Y-81888524D01*
X122980811Y-81770172D01*
X122980802Y-81770169D01*
X122745616Y-81689429D01*
X122500335Y-81648500D01*
X122251665Y-81648500D01*
X122006383Y-81689429D01*
X121771197Y-81770169D01*
X121771183Y-81770175D01*
X121549517Y-81890135D01*
X121481189Y-81904730D01*
X121415817Y-81880067D01*
X121374156Y-81823977D01*
X121366500Y-81781080D01*
X121366500Y-80700518D01*
X121386185Y-80633479D01*
X121402815Y-80612841D01*
X121877731Y-80137924D01*
X121939052Y-80104441D01*
X122001220Y-80108070D01*
X122001412Y-80107312D01*
X122005360Y-80108311D01*
X122005686Y-80108330D01*
X122006386Y-80108571D01*
X122251665Y-80149500D01*
X122500335Y-80149500D01*
X122745614Y-80108571D01*
X122980810Y-80027828D01*
X123199509Y-79909474D01*
X123395744Y-79756738D01*
X123533112Y-79607516D01*
X123592998Y-79571527D01*
X123624341Y-79567500D01*
X125592856Y-79567500D01*
X125659895Y-79587185D01*
G37*
%TD.AperFunction*%
%TA.AperFunction,Conductor*%
G36*
X157642773Y-87107185D02*
G01*
X157688528Y-87159989D01*
X157698954Y-87197616D01*
X157710630Y-87301250D01*
X157710631Y-87301254D01*
X157770211Y-87471523D01*
X157819522Y-87550000D01*
X157866184Y-87624262D01*
X157993738Y-87751816D01*
X158042839Y-87782668D01*
X158131196Y-87838187D01*
X158146478Y-87847789D01*
X158316745Y-87907368D01*
X158316750Y-87907369D01*
X158495996Y-87927565D01*
X158496000Y-87927565D01*
X158496004Y-87927565D01*
X158675249Y-87907369D01*
X158675252Y-87907368D01*
X158675255Y-87907368D01*
X158845522Y-87847789D01*
X158860804Y-87838187D01*
X158881023Y-87825482D01*
X158983158Y-87761306D01*
X159050393Y-87742306D01*
X159117228Y-87762673D01*
X159144982Y-87787635D01*
X159182116Y-87832883D01*
X159334460Y-87957909D01*
X159334467Y-87957913D01*
X159508266Y-88050811D01*
X159508269Y-88050811D01*
X159508273Y-88050814D01*
X159696868Y-88108024D01*
X159893000Y-88127341D01*
X160089132Y-88108024D01*
X160277727Y-88050814D01*
X160280338Y-88049418D01*
X160281864Y-88049100D01*
X160283355Y-88048483D01*
X160283472Y-88048765D01*
X160348737Y-88035174D01*
X160413106Y-88059510D01*
X160420908Y-88065351D01*
X160555623Y-88115597D01*
X160555627Y-88115598D01*
X160615155Y-88121999D01*
X160615172Y-88122000D01*
X160913000Y-88122000D01*
X160913000Y-87331618D01*
X160963446Y-87382064D01*
X161037555Y-87424851D01*
X161120213Y-87447000D01*
X161205787Y-87447000D01*
X161288445Y-87424851D01*
X161362554Y-87382064D01*
X161413000Y-87331618D01*
X161413000Y-88122000D01*
X161710828Y-88122000D01*
X161710844Y-88121999D01*
X161770372Y-88115598D01*
X161770379Y-88115596D01*
X161905086Y-88065354D01*
X161905093Y-88065350D01*
X162020187Y-87979190D01*
X162020190Y-87979187D01*
X162106350Y-87864093D01*
X162106354Y-87864086D01*
X162156596Y-87729379D01*
X162156598Y-87729372D01*
X162162999Y-87669844D01*
X162163000Y-87669827D01*
X162163000Y-87252097D01*
X162182685Y-87185058D01*
X162235489Y-87139303D01*
X162304647Y-87129359D01*
X162368203Y-87158384D01*
X162374681Y-87164416D01*
X165733181Y-90522916D01*
X165766666Y-90584239D01*
X165769500Y-90610597D01*
X165769500Y-91323001D01*
X165769501Y-91323019D01*
X165780000Y-91425796D01*
X165802103Y-91492495D01*
X165804505Y-91562324D01*
X165768774Y-91622366D01*
X165706253Y-91653559D01*
X165684397Y-91655500D01*
X164119161Y-91655500D01*
X164052122Y-91635815D01*
X164020835Y-91604518D01*
X164019639Y-91605414D01*
X164016981Y-91601863D01*
X163922847Y-91493226D01*
X163922830Y-91493207D01*
X163922829Y-91493206D01*
X163814091Y-91398985D01*
X163778858Y-91376342D01*
X163693142Y-91321255D01*
X163693136Y-91321252D01*
X163622028Y-91288778D01*
X163562259Y-91261483D01*
X163444650Y-91226950D01*
X163424308Y-91220977D01*
X163424296Y-91220974D01*
X163281889Y-91200500D01*
X162710000Y-91200500D01*
X162709997Y-91200500D01*
X162638061Y-91205644D01*
X162638056Y-91205645D01*
X162600735Y-91216603D01*
X162548158Y-91220363D01*
X162410001Y-91200500D01*
X162410000Y-91200500D01*
X161838111Y-91200500D01*
X161838110Y-91200500D01*
X161695703Y-91220974D01*
X161695691Y-91220977D01*
X161557741Y-91261483D01*
X161426863Y-91321252D01*
X161426861Y-91321254D01*
X161311523Y-91395376D01*
X161310083Y-91396196D01*
X161305901Y-91398988D01*
X161197169Y-91493207D01*
X161197166Y-91493210D01*
X161103018Y-91601864D01*
X161103015Y-91601867D01*
X161067906Y-91656500D01*
X161036867Y-91704799D01*
X161025231Y-91722905D01*
X161025223Y-91722918D01*
X160968263Y-91847643D01*
X160966015Y-91851939D01*
X160924966Y-91991738D01*
X160924963Y-91991748D01*
X160904503Y-92134059D01*
X160904503Y-92190399D01*
X160904500Y-92190409D01*
X160904500Y-92278059D01*
X160884815Y-92345098D01*
X160868181Y-92365740D01*
X156179961Y-97053959D01*
X156118638Y-97087444D01*
X156103093Y-97089805D01*
X156102515Y-97089856D01*
X156101589Y-97089937D01*
X156021629Y-97111362D01*
X155951780Y-97109699D01*
X155893917Y-97070536D01*
X155866414Y-97006307D01*
X155878001Y-96937405D01*
X155884544Y-96925614D01*
X155919788Y-96869524D01*
X155919789Y-96869522D01*
X155979368Y-96699255D01*
X155981359Y-96681587D01*
X155999565Y-96520003D01*
X155999565Y-96519996D01*
X155979369Y-96340750D01*
X155979368Y-96340745D01*
X155962829Y-96293480D01*
X155919789Y-96170478D01*
X155914283Y-96161716D01*
X155880231Y-96107522D01*
X155823816Y-96017738D01*
X155823815Y-96017737D01*
X155821555Y-96014903D01*
X155820665Y-96012724D01*
X155820111Y-96011842D01*
X155820265Y-96011744D01*
X155795146Y-95950216D01*
X155794501Y-95937589D01*
X155794501Y-95899945D01*
X155794501Y-95899943D01*
X155753577Y-95747215D01*
X155714160Y-95678943D01*
X155674520Y-95610284D01*
X155562716Y-95498480D01*
X155562715Y-95498479D01*
X155558385Y-95494149D01*
X155558374Y-95494139D01*
X154288818Y-94224583D01*
X154255333Y-94163260D01*
X154252499Y-94136902D01*
X154252499Y-93911499D01*
X154272184Y-93844460D01*
X154324988Y-93798705D01*
X154376494Y-93787499D01*
X155864872Y-93787499D01*
X155924483Y-93781091D01*
X156059331Y-93730796D01*
X156174546Y-93644546D01*
X156260796Y-93529331D01*
X156311091Y-93394483D01*
X156317500Y-93334873D01*
X156317499Y-92339128D01*
X156311091Y-92279517D01*
X156298340Y-92245332D01*
X156293357Y-92175642D01*
X156298338Y-92158672D01*
X156311091Y-92124483D01*
X156317500Y-92064873D01*
X156317499Y-91069128D01*
X156311091Y-91009517D01*
X156298340Y-90975332D01*
X156293357Y-90905642D01*
X156298340Y-90888669D01*
X156311091Y-90854483D01*
X156317500Y-90794873D01*
X156317499Y-89799128D01*
X156311091Y-89739517D01*
X156298340Y-89705332D01*
X156293357Y-89635642D01*
X156298340Y-89618669D01*
X156311091Y-89584483D01*
X156317500Y-89524873D01*
X156317499Y-88529128D01*
X156311091Y-88469517D01*
X156298340Y-88435332D01*
X156293357Y-88365642D01*
X156298340Y-88348669D01*
X156311091Y-88314483D01*
X156317500Y-88254873D01*
X156317499Y-87259128D01*
X156313804Y-87224753D01*
X156326211Y-87155994D01*
X156373822Y-87104857D01*
X156437094Y-87087500D01*
X157575734Y-87087500D01*
X157642773Y-87107185D01*
G37*
%TD.AperFunction*%
%TA.AperFunction,Conductor*%
G36*
X183823951Y-64913970D02*
G01*
X183830940Y-64913958D01*
X183830943Y-64913959D01*
X183892787Y-64913855D01*
X183900859Y-64914107D01*
X184152325Y-64930185D01*
X184168412Y-64932277D01*
X184411617Y-64980284D01*
X184427292Y-64984461D01*
X184662126Y-65063830D01*
X184677133Y-65070024D01*
X184899573Y-65179392D01*
X184913643Y-65187495D01*
X185119890Y-65324992D01*
X185132782Y-65334864D01*
X185319288Y-65498126D01*
X185330779Y-65509597D01*
X185494363Y-65695839D01*
X185504256Y-65708714D01*
X185642095Y-65914720D01*
X185650222Y-65928777D01*
X185759967Y-66151040D01*
X185766187Y-66166039D01*
X185845946Y-66400727D01*
X185850153Y-66416409D01*
X185898565Y-66659511D01*
X185900687Y-66675608D01*
X185917186Y-66927001D01*
X185917452Y-66935122D01*
X185917452Y-81661274D01*
X185897767Y-81728313D01*
X185844963Y-81774068D01*
X185775805Y-81784012D01*
X185712249Y-81754987D01*
X185681070Y-81713679D01*
X185678035Y-81707171D01*
X185678034Y-81707169D01*
X185542494Y-81513597D01*
X185375402Y-81346506D01*
X185375395Y-81346501D01*
X185354081Y-81331577D01*
X185298518Y-81292671D01*
X185181834Y-81210967D01*
X185181830Y-81210965D01*
X185133855Y-81188594D01*
X184967663Y-81111097D01*
X184967659Y-81111096D01*
X184967655Y-81111094D01*
X184739413Y-81049938D01*
X184739403Y-81049936D01*
X184504001Y-81029341D01*
X184503999Y-81029341D01*
X184268596Y-81049936D01*
X184268586Y-81049938D01*
X184040344Y-81111094D01*
X184040335Y-81111098D01*
X183826171Y-81210964D01*
X183826169Y-81210965D01*
X183632600Y-81346503D01*
X183510673Y-81468430D01*
X183449350Y-81501914D01*
X183379658Y-81496930D01*
X183323725Y-81455058D01*
X183306810Y-81424081D01*
X183257797Y-81292671D01*
X183257793Y-81292664D01*
X183171547Y-81177455D01*
X183171544Y-81177452D01*
X183056335Y-81091206D01*
X183056328Y-81091202D01*
X182921482Y-81040908D01*
X182921483Y-81040908D01*
X182861883Y-81034501D01*
X182861881Y-81034500D01*
X182861873Y-81034500D01*
X182861864Y-81034500D01*
X181066129Y-81034500D01*
X181066123Y-81034501D01*
X181006516Y-81040908D01*
X180871671Y-81091202D01*
X180871664Y-81091206D01*
X180756455Y-81177452D01*
X180756452Y-81177455D01*
X180670206Y-81292664D01*
X180670204Y-81292668D01*
X180670204Y-81292669D01*
X180666039Y-81303834D01*
X180624171Y-81359766D01*
X180558707Y-81384184D01*
X180549859Y-81384500D01*
X174736231Y-81384500D01*
X174669192Y-81364815D01*
X174648550Y-81348182D01*
X174600221Y-81299853D01*
X174542656Y-81242288D01*
X174539819Y-81240538D01*
X174538283Y-81238830D01*
X174536989Y-81237807D01*
X174537163Y-81237585D01*
X174493096Y-81188594D01*
X174481872Y-81119632D01*
X174509713Y-81055549D01*
X174539817Y-81029462D01*
X174542656Y-81027712D01*
X174666712Y-80903656D01*
X174758814Y-80754334D01*
X174813999Y-80587797D01*
X174824500Y-80485009D01*
X174824499Y-79709992D01*
X174816259Y-79629332D01*
X174813999Y-79607203D01*
X174813998Y-79607200D01*
X174807366Y-79587185D01*
X174758814Y-79440666D01*
X174666712Y-79291344D01*
X174542656Y-79167288D01*
X174516735Y-79151299D01*
X174470012Y-79099353D01*
X174458789Y-79030390D01*
X174486633Y-78966308D01*
X174494141Y-78958092D01*
X174770535Y-78681698D01*
X174831856Y-78648215D01*
X174844311Y-78646163D01*
X174931255Y-78636368D01*
X175101522Y-78576789D01*
X175254262Y-78480816D01*
X175381816Y-78353262D01*
X175477789Y-78200522D01*
X175537368Y-78030255D01*
X175541104Y-77997099D01*
X175557565Y-77851003D01*
X175557565Y-77850996D01*
X175537369Y-77671750D01*
X175537368Y-77671745D01*
X175519390Y-77620368D01*
X175477789Y-77501478D01*
X175381816Y-77348738D01*
X175254262Y-77221184D01*
X175210205Y-77193501D01*
X175101523Y-77125211D01*
X174931254Y-77065631D01*
X174931249Y-77065630D01*
X174752004Y-77045435D01*
X174751996Y-77045435D01*
X174572750Y-77065630D01*
X174572745Y-77065631D01*
X174402476Y-77125211D01*
X174249737Y-77221184D01*
X174122184Y-77348737D01*
X174026210Y-77501478D01*
X173966630Y-77671750D01*
X173956837Y-77758668D01*
X173929770Y-77823082D01*
X173921298Y-77832465D01*
X173230286Y-78523478D01*
X173118481Y-78635282D01*
X173118479Y-78635285D01*
X173110561Y-78649000D01*
X173077702Y-78705914D01*
X173047513Y-78758202D01*
X173039424Y-78772213D01*
X172998498Y-78924945D01*
X172997438Y-78933003D01*
X172995183Y-78932706D01*
X172978814Y-78988454D01*
X172926010Y-79034209D01*
X172913503Y-79039121D01*
X172804668Y-79075185D01*
X172804663Y-79075187D01*
X172655342Y-79167289D01*
X172531289Y-79291342D01*
X172439187Y-79440663D01*
X172439185Y-79440668D01*
X172417568Y-79505905D01*
X172384001Y-79607203D01*
X172384001Y-79607204D01*
X172384000Y-79607204D01*
X172373500Y-79709983D01*
X172373500Y-80485001D01*
X172373501Y-80485019D01*
X172384000Y-80587796D01*
X172384001Y-80587799D01*
X172439185Y-80754331D01*
X172439187Y-80754336D01*
X172531289Y-80903657D01*
X172655346Y-81027714D01*
X172658182Y-81029463D01*
X172659717Y-81031170D01*
X172661011Y-81032193D01*
X172660836Y-81032414D01*
X172704905Y-81081411D01*
X172716126Y-81150374D01*
X172688282Y-81214456D01*
X172658182Y-81240537D01*
X172655346Y-81242285D01*
X172531289Y-81366342D01*
X172439187Y-81515663D01*
X172439185Y-81515668D01*
X172415795Y-81586255D01*
X172384001Y-81682203D01*
X172384001Y-81682204D01*
X172384000Y-81682204D01*
X172373500Y-81784983D01*
X172373500Y-82560001D01*
X172373501Y-82560019D01*
X172384000Y-82662796D01*
X172384001Y-82662799D01*
X172439185Y-82829331D01*
X172439187Y-82829336D01*
X172450516Y-82847703D01*
X172531288Y-82978656D01*
X172655344Y-83102712D01*
X172804666Y-83194814D01*
X172971203Y-83249999D01*
X173073991Y-83260500D01*
X173286042Y-83260499D01*
X173333494Y-83269937D01*
X173337585Y-83271631D01*
X173337586Y-83271632D01*
X173435044Y-83312000D01*
X173519664Y-83347051D01*
X173712954Y-83385499D01*
X173712957Y-83385500D01*
X173712959Y-83385500D01*
X180549859Y-83385500D01*
X180616898Y-83405185D01*
X180662653Y-83457989D01*
X180666030Y-83466140D01*
X180670204Y-83477331D01*
X180670205Y-83477332D01*
X180670206Y-83477335D01*
X180756452Y-83592544D01*
X180756455Y-83592547D01*
X180871664Y-83678793D01*
X180871671Y-83678797D01*
X181006517Y-83729091D01*
X181006516Y-83729091D01*
X181013444Y-83729835D01*
X181066127Y-83735500D01*
X181848217Y-83735499D01*
X181915256Y-83755183D01*
X181935898Y-83771818D01*
X182468181Y-84304101D01*
X182501666Y-84365424D01*
X182504500Y-84391782D01*
X182504500Y-87272030D01*
X182484815Y-87339069D01*
X182432011Y-87384824D01*
X182362853Y-87394768D01*
X182341497Y-87389736D01*
X182257799Y-87362001D01*
X182257795Y-87362000D01*
X182155010Y-87351500D01*
X181454998Y-87351500D01*
X181454980Y-87351501D01*
X181352203Y-87362000D01*
X181352200Y-87362001D01*
X181185668Y-87417185D01*
X181185663Y-87417187D01*
X181036342Y-87509289D01*
X181031909Y-87512795D01*
X180967113Y-87538934D01*
X180898471Y-87525892D01*
X180878091Y-87512795D01*
X180873657Y-87509289D01*
X180873656Y-87509288D01*
X180764402Y-87441900D01*
X180717679Y-87389953D01*
X180705500Y-87336362D01*
X180705500Y-86722060D01*
X180705501Y-86722047D01*
X180705501Y-86553944D01*
X180704997Y-86552063D01*
X180664577Y-86401216D01*
X180658699Y-86391035D01*
X180585524Y-86264290D01*
X180585518Y-86264282D01*
X180408700Y-86087465D01*
X180375215Y-86026142D01*
X180373163Y-86013686D01*
X180363368Y-85926745D01*
X180303789Y-85756478D01*
X180207816Y-85603738D01*
X180080262Y-85476184D01*
X180042415Y-85452403D01*
X179927523Y-85380211D01*
X179757254Y-85320631D01*
X179757249Y-85320630D01*
X179578004Y-85300435D01*
X179577996Y-85300435D01*
X179398750Y-85320630D01*
X179398745Y-85320631D01*
X179228476Y-85380211D01*
X179075737Y-85476184D01*
X178948184Y-85603737D01*
X178852211Y-85756476D01*
X178792631Y-85926745D01*
X178792630Y-85926750D01*
X178772435Y-86105996D01*
X178772435Y-86106003D01*
X178792630Y-86285249D01*
X178792631Y-86285254D01*
X178852211Y-86455523D01*
X178925813Y-86572659D01*
X178948184Y-86608262D01*
X179075738Y-86735816D01*
X179228478Y-86831789D01*
X179343394Y-86872000D01*
X179398748Y-86891369D01*
X179405534Y-86892918D01*
X179404982Y-86895333D01*
X179458789Y-86917937D01*
X179498349Y-86975529D01*
X179504500Y-87014097D01*
X179504500Y-87336362D01*
X179484815Y-87403401D01*
X179445598Y-87441899D01*
X179403821Y-87467668D01*
X179336342Y-87509289D01*
X179331909Y-87512795D01*
X179267113Y-87538934D01*
X179198471Y-87525892D01*
X179178091Y-87512795D01*
X179173651Y-87509284D01*
X179137291Y-87486857D01*
X179099286Y-87450210D01*
X179026790Y-87341712D01*
X178986328Y-87301250D01*
X178915289Y-87230211D01*
X178175979Y-86490901D01*
X177405292Y-85720213D01*
X177405288Y-85720210D01*
X177274185Y-85632609D01*
X177274172Y-85632602D01*
X177128501Y-85572264D01*
X177128489Y-85572261D01*
X176973845Y-85541500D01*
X176973842Y-85541500D01*
X172534842Y-85541500D01*
X172377157Y-85541500D01*
X172377154Y-85541500D01*
X172222509Y-85572261D01*
X172222501Y-85572263D01*
X172190024Y-85585716D01*
X172190023Y-85585716D01*
X172076827Y-85632602D01*
X172076815Y-85632609D01*
X172004897Y-85680664D01*
X171953700Y-85714873D01*
X171953699Y-85714874D01*
X171953698Y-85714874D01*
X171945716Y-85720206D01*
X171945707Y-85720214D01*
X170665739Y-87000181D01*
X170604416Y-87033666D01*
X170578059Y-87036500D01*
X170358999Y-87036500D01*
X170358980Y-87036501D01*
X170256203Y-87047000D01*
X170256200Y-87047001D01*
X170089668Y-87102185D01*
X170089663Y-87102187D01*
X169940342Y-87194289D01*
X169816289Y-87318342D01*
X169724187Y-87467663D01*
X169724185Y-87467668D01*
X169700570Y-87538934D01*
X169669001Y-87634203D01*
X169669001Y-87634204D01*
X169669000Y-87634204D01*
X169658500Y-87736983D01*
X169658500Y-87862500D01*
X169638815Y-87929539D01*
X169586011Y-87975294D01*
X169534500Y-87986500D01*
X168046230Y-87986500D01*
X167979191Y-87966815D01*
X167958549Y-87950181D01*
X167938657Y-87930289D01*
X167938656Y-87930288D01*
X167804903Y-87847789D01*
X167789336Y-87838187D01*
X167789331Y-87838185D01*
X167787862Y-87837698D01*
X167622797Y-87783001D01*
X167622795Y-87783000D01*
X167520010Y-87772500D01*
X166469998Y-87772500D01*
X166469980Y-87772501D01*
X166367203Y-87783000D01*
X166367200Y-87783001D01*
X166200668Y-87838185D01*
X166200663Y-87838187D01*
X166051342Y-87930289D01*
X165927289Y-88054342D01*
X165835187Y-88203663D01*
X165835185Y-88203668D01*
X165818219Y-88254870D01*
X165780001Y-88370203D01*
X165780001Y-88370204D01*
X165780000Y-88370204D01*
X165769500Y-88472983D01*
X165769500Y-88561402D01*
X165749815Y-88628441D01*
X165697011Y-88674196D01*
X165627853Y-88684140D01*
X165564297Y-88655115D01*
X165557819Y-88649083D01*
X162399090Y-85490355D01*
X162399088Y-85490352D01*
X162302917Y-85394181D01*
X162269432Y-85332858D01*
X162274416Y-85263166D01*
X162316288Y-85207233D01*
X162381752Y-85182816D01*
X162390598Y-85182500D01*
X162473331Y-85182500D01*
X162473347Y-85182501D01*
X162480943Y-85182501D01*
X162639054Y-85182501D01*
X162639057Y-85182501D01*
X162791785Y-85141577D01*
X162869822Y-85096522D01*
X162928716Y-85062520D01*
X163040520Y-84950716D01*
X163040520Y-84950714D01*
X163050724Y-84940511D01*
X163050728Y-84940506D01*
X163721535Y-84269698D01*
X163782856Y-84236215D01*
X163795311Y-84234163D01*
X163882255Y-84224368D01*
X164052522Y-84164789D01*
X164205262Y-84068816D01*
X164332816Y-83941262D01*
X164428789Y-83788522D01*
X164488368Y-83618255D01*
X164491265Y-83592544D01*
X164508565Y-83439003D01*
X164508565Y-83438996D01*
X164488369Y-83259750D01*
X164488368Y-83259745D01*
X164465647Y-83194812D01*
X164428789Y-83089478D01*
X164332816Y-82936738D01*
X164224259Y-82828181D01*
X164190774Y-82766858D01*
X164195758Y-82697166D01*
X164224259Y-82652819D01*
X164276546Y-82600532D01*
X164332816Y-82544262D01*
X164428789Y-82391522D01*
X164488368Y-82221255D01*
X164488369Y-82221249D01*
X164508565Y-82042003D01*
X164508565Y-82041996D01*
X164488369Y-81862750D01*
X164488368Y-81862745D01*
X164459419Y-81780013D01*
X164428789Y-81692478D01*
X164422333Y-81682204D01*
X164372508Y-81602908D01*
X164332816Y-81539738D01*
X164205262Y-81412184D01*
X164161203Y-81384500D01*
X164052523Y-81316211D01*
X163882254Y-81256631D01*
X163882249Y-81256630D01*
X163703004Y-81236435D01*
X163702996Y-81236435D01*
X163523750Y-81256630D01*
X163523745Y-81256631D01*
X163353476Y-81316211D01*
X163200736Y-81412185D01*
X163197903Y-81414445D01*
X163195724Y-81415334D01*
X163194842Y-81415889D01*
X163194744Y-81415734D01*
X163133217Y-81440855D01*
X163120588Y-81441500D01*
X162531098Y-81441500D01*
X162464059Y-81421815D01*
X162418304Y-81369011D01*
X162408360Y-81299853D01*
X162437385Y-81236297D01*
X162443417Y-81229819D01*
X162488760Y-81184476D01*
X162532520Y-81140716D01*
X162532520Y-81140714D01*
X162542724Y-81130511D01*
X162542728Y-81130506D01*
X164108470Y-79564763D01*
X164169791Y-79531280D01*
X164228238Y-79532670D01*
X164356592Y-79567063D01*
X164533034Y-79582500D01*
X164591999Y-79587659D01*
X164592000Y-79587659D01*
X164592001Y-79587659D01*
X164650966Y-79582500D01*
X164827408Y-79567063D01*
X165055663Y-79505903D01*
X165269830Y-79406035D01*
X165463401Y-79270495D01*
X165630495Y-79103401D01*
X165760425Y-78917842D01*
X165815002Y-78874217D01*
X165884500Y-78867023D01*
X165946855Y-78898546D01*
X165963575Y-78917842D01*
X166093500Y-79103395D01*
X166093505Y-79103401D01*
X166260599Y-79270495D01*
X166337485Y-79324331D01*
X166454165Y-79406032D01*
X166454167Y-79406033D01*
X166454170Y-79406035D01*
X166668337Y-79505903D01*
X166668343Y-79505904D01*
X166668344Y-79505905D01*
X166699089Y-79514143D01*
X166896592Y-79567063D01*
X167073034Y-79582500D01*
X167131999Y-79587659D01*
X167132000Y-79587659D01*
X167132001Y-79587659D01*
X167190966Y-79582500D01*
X167367408Y-79567063D01*
X167595663Y-79505903D01*
X167809830Y-79406035D01*
X168003401Y-79270495D01*
X168170495Y-79103401D01*
X168300425Y-78917842D01*
X168355002Y-78874217D01*
X168424500Y-78867023D01*
X168486855Y-78898546D01*
X168503575Y-78917842D01*
X168633500Y-79103395D01*
X168633505Y-79103401D01*
X168800599Y-79270495D01*
X168877485Y-79324331D01*
X168994165Y-79406032D01*
X168994167Y-79406033D01*
X168994170Y-79406035D01*
X169208337Y-79505903D01*
X169208343Y-79505904D01*
X169208344Y-79505905D01*
X169239089Y-79514143D01*
X169436592Y-79567063D01*
X169613034Y-79582500D01*
X169671999Y-79587659D01*
X169672000Y-79587659D01*
X169672001Y-79587659D01*
X169730966Y-79582500D01*
X169907408Y-79567063D01*
X170135663Y-79505903D01*
X170349830Y-79406035D01*
X170543401Y-79270495D01*
X170710495Y-79103401D01*
X170846035Y-78909830D01*
X170945903Y-78695663D01*
X171007063Y-78467408D01*
X171027659Y-78232000D01*
X171007063Y-77996592D01*
X170945903Y-77768337D01*
X170846035Y-77554171D01*
X170840425Y-77546158D01*
X170710494Y-77360597D01*
X170543402Y-77193506D01*
X170543395Y-77193501D01*
X170530570Y-77184521D01*
X170466518Y-77139671D01*
X170349834Y-77057967D01*
X170349830Y-77057965D01*
X170278064Y-77024500D01*
X170135663Y-76958097D01*
X170135659Y-76958096D01*
X170135655Y-76958094D01*
X169907413Y-76896938D01*
X169907403Y-76896936D01*
X169672001Y-76876341D01*
X169671999Y-76876341D01*
X169436596Y-76896936D01*
X169436586Y-76896938D01*
X169208344Y-76958094D01*
X169208335Y-76958098D01*
X168994171Y-77057964D01*
X168994169Y-77057965D01*
X168800597Y-77193505D01*
X168633505Y-77360597D01*
X168503575Y-77546158D01*
X168448998Y-77589783D01*
X168379500Y-77596977D01*
X168317145Y-77565454D01*
X168300425Y-77546158D01*
X168170494Y-77360597D01*
X168003402Y-77193506D01*
X168003395Y-77193501D01*
X167990570Y-77184521D01*
X167926518Y-77139671D01*
X167809834Y-77057967D01*
X167809830Y-77057965D01*
X167738064Y-77024500D01*
X167595663Y-76958097D01*
X167595659Y-76958096D01*
X167595655Y-76958094D01*
X167367413Y-76896938D01*
X167367403Y-76896936D01*
X167132001Y-76876341D01*
X167131999Y-76876341D01*
X166896596Y-76896936D01*
X166896586Y-76896938D01*
X166668344Y-76958094D01*
X166668335Y-76958098D01*
X166454171Y-77057964D01*
X166454169Y-77057965D01*
X166260597Y-77193505D01*
X166093505Y-77360597D01*
X165963575Y-77546158D01*
X165908998Y-77589783D01*
X165839500Y-77596977D01*
X165777145Y-77565454D01*
X165760425Y-77546158D01*
X165630494Y-77360597D01*
X165463402Y-77193506D01*
X165463395Y-77193501D01*
X165450570Y-77184521D01*
X165386518Y-77139671D01*
X165269834Y-77057967D01*
X165269830Y-77057965D01*
X165198064Y-77024500D01*
X165055663Y-76958097D01*
X165055659Y-76958096D01*
X165055655Y-76958094D01*
X164827413Y-76896938D01*
X164827403Y-76896936D01*
X164592001Y-76876341D01*
X164591999Y-76876341D01*
X164356596Y-76896936D01*
X164356586Y-76896938D01*
X164128344Y-76958094D01*
X164128335Y-76958098D01*
X163914171Y-77057964D01*
X163914169Y-77057965D01*
X163720597Y-77193505D01*
X163553505Y-77360597D01*
X163423575Y-77546158D01*
X163368998Y-77589783D01*
X163299500Y-77596977D01*
X163237145Y-77565454D01*
X163220425Y-77546158D01*
X163090494Y-77360597D01*
X162923402Y-77193506D01*
X162923395Y-77193501D01*
X162910570Y-77184521D01*
X162846518Y-77139671D01*
X162729834Y-77057967D01*
X162729830Y-77057965D01*
X162658064Y-77024500D01*
X162515663Y-76958097D01*
X162515659Y-76958096D01*
X162515655Y-76958094D01*
X162287413Y-76896938D01*
X162287403Y-76896936D01*
X162052001Y-76876341D01*
X162051999Y-76876341D01*
X161816596Y-76896936D01*
X161816586Y-76896938D01*
X161588344Y-76958094D01*
X161588335Y-76958098D01*
X161374171Y-77057964D01*
X161374169Y-77057965D01*
X161180600Y-77193503D01*
X161058673Y-77315430D01*
X160997350Y-77348914D01*
X160927658Y-77343930D01*
X160871725Y-77302058D01*
X160854810Y-77271081D01*
X160805797Y-77139671D01*
X160805793Y-77139664D01*
X160719547Y-77024455D01*
X160719544Y-77024452D01*
X160604335Y-76938206D01*
X160604328Y-76938202D01*
X160469482Y-76887908D01*
X160469483Y-76887908D01*
X160409883Y-76881501D01*
X160409881Y-76881500D01*
X160409873Y-76881500D01*
X160409864Y-76881500D01*
X158614129Y-76881500D01*
X158614123Y-76881501D01*
X158554516Y-76887908D01*
X158419671Y-76938202D01*
X158419664Y-76938206D01*
X158304455Y-77024452D01*
X158304452Y-77024455D01*
X158218206Y-77139664D01*
X158218202Y-77139671D01*
X158167908Y-77274517D01*
X158161501Y-77334116D01*
X158161500Y-77334135D01*
X158161500Y-79129870D01*
X158161501Y-79129876D01*
X158167908Y-79189483D01*
X158218202Y-79324328D01*
X158218204Y-79324331D01*
X158304454Y-79439546D01*
X158304455Y-79439547D01*
X158309427Y-79446188D01*
X158333845Y-79511653D01*
X158318994Y-79579926D01*
X158269589Y-79629332D01*
X158210161Y-79644500D01*
X156421423Y-79644500D01*
X156354384Y-79624815D01*
X156308629Y-79572011D01*
X156305241Y-79563833D01*
X156298341Y-79545333D01*
X156293357Y-79475641D01*
X156298340Y-79458669D01*
X156311091Y-79424483D01*
X156317500Y-79364873D01*
X156317499Y-78369128D01*
X156311091Y-78309517D01*
X156298340Y-78275332D01*
X156293357Y-78205642D01*
X156298340Y-78188669D01*
X156311091Y-78154483D01*
X156317500Y-78094873D01*
X156317499Y-77099128D01*
X156311091Y-77039517D01*
X156298340Y-77005332D01*
X156293357Y-76935642D01*
X156298338Y-76918672D01*
X156311091Y-76884483D01*
X156317500Y-76824873D01*
X156317499Y-75829128D01*
X156311091Y-75769517D01*
X156295046Y-75726499D01*
X156260797Y-75634671D01*
X156260793Y-75634664D01*
X156174547Y-75519455D01*
X156174544Y-75519452D01*
X156059335Y-75433206D01*
X156059328Y-75433202D01*
X155924482Y-75382908D01*
X155924483Y-75382908D01*
X155864883Y-75376501D01*
X155864881Y-75376500D01*
X155864873Y-75376500D01*
X155864864Y-75376500D01*
X154269129Y-75376500D01*
X154269123Y-75376501D01*
X154209516Y-75382908D01*
X154074671Y-75433202D01*
X154074664Y-75433206D01*
X153959455Y-75519452D01*
X153959452Y-75519455D01*
X153873206Y-75634664D01*
X153873204Y-75634668D01*
X153873204Y-75634669D01*
X153869039Y-75645834D01*
X153827171Y-75701766D01*
X153761707Y-75726184D01*
X153752859Y-75726500D01*
X153248670Y-75726500D01*
X153248654Y-75726499D01*
X153241058Y-75726499D01*
X153082943Y-75726499D01*
X153006579Y-75746961D01*
X152930214Y-75767423D01*
X152930209Y-75767426D01*
X152793290Y-75846475D01*
X152793282Y-75846481D01*
X152381465Y-76258298D01*
X152320142Y-76291783D01*
X152307668Y-76293837D01*
X152220750Y-76303630D01*
X152050478Y-76363210D01*
X151897737Y-76459184D01*
X151770184Y-76586737D01*
X151674211Y-76739476D01*
X151614631Y-76909745D01*
X151614630Y-76909750D01*
X151594435Y-77088996D01*
X151594435Y-77089003D01*
X151614630Y-77268249D01*
X151614631Y-77268254D01*
X151674211Y-77438523D01*
X151753968Y-77565454D01*
X151770184Y-77591262D01*
X151897738Y-77718816D01*
X151976547Y-77768335D01*
X152029780Y-77801784D01*
X152050478Y-77814789D01*
X152153952Y-77850996D01*
X152220745Y-77874368D01*
X152220750Y-77874369D01*
X152399996Y-77894565D01*
X152400000Y-77894565D01*
X152400004Y-77894565D01*
X152579249Y-77874369D01*
X152579252Y-77874368D01*
X152579255Y-77874368D01*
X152749522Y-77814789D01*
X152902262Y-77718816D01*
X153029816Y-77591262D01*
X153125789Y-77438522D01*
X153185368Y-77268255D01*
X153195161Y-77181329D01*
X153222226Y-77116919D01*
X153230701Y-77107533D01*
X153374419Y-76963818D01*
X153435742Y-76930334D01*
X153462099Y-76927500D01*
X153696906Y-76927500D01*
X153763945Y-76947185D01*
X153809700Y-76999989D01*
X153820195Y-77064752D01*
X153816500Y-77099127D01*
X153816500Y-77099128D01*
X153816500Y-77099132D01*
X153816500Y-78094870D01*
X153816501Y-78094876D01*
X153822908Y-78154481D01*
X153835659Y-78188669D01*
X153840642Y-78258361D01*
X153835659Y-78275331D01*
X153822908Y-78309518D01*
X153816501Y-78369116D01*
X153816501Y-78369123D01*
X153816500Y-78369135D01*
X153816500Y-79364870D01*
X153816501Y-79364876D01*
X153822908Y-79424481D01*
X153835659Y-79458669D01*
X153840642Y-79528361D01*
X153835659Y-79545331D01*
X153822908Y-79579518D01*
X153816501Y-79639116D01*
X153816500Y-79639135D01*
X153816500Y-80634870D01*
X153816501Y-80634876D01*
X153822908Y-80694481D01*
X153835659Y-80728669D01*
X153840642Y-80798361D01*
X153835659Y-80815331D01*
X153822908Y-80849518D01*
X153817088Y-80903656D01*
X153816501Y-80909123D01*
X153816500Y-80909135D01*
X153816500Y-81904870D01*
X153816501Y-81904876D01*
X153822908Y-81964481D01*
X153835659Y-81998669D01*
X153840642Y-82068361D01*
X153835659Y-82085331D01*
X153822908Y-82119518D01*
X153819723Y-82149147D01*
X153816501Y-82179123D01*
X153816500Y-82179135D01*
X153816500Y-83174870D01*
X153816501Y-83174876D01*
X153822908Y-83234481D01*
X153835659Y-83268669D01*
X153840642Y-83338361D01*
X153835659Y-83355331D01*
X153822908Y-83389518D01*
X153817589Y-83438996D01*
X153816501Y-83449123D01*
X153816500Y-83449135D01*
X153816500Y-84444870D01*
X153816501Y-84444876D01*
X153822908Y-84504481D01*
X153835659Y-84538669D01*
X153840642Y-84608361D01*
X153835659Y-84625331D01*
X153822908Y-84659518D01*
X153819723Y-84689147D01*
X153816501Y-84719123D01*
X153816500Y-84719135D01*
X153816500Y-85714870D01*
X153816501Y-85714874D01*
X153822908Y-85774481D01*
X153835659Y-85808669D01*
X153840642Y-85878361D01*
X153835659Y-85895331D01*
X153822908Y-85929518D01*
X153816729Y-85986998D01*
X153816501Y-85989123D01*
X153816500Y-85989135D01*
X153816500Y-86984870D01*
X153816501Y-86984876D01*
X153822908Y-87044481D01*
X153835659Y-87078669D01*
X153840642Y-87148361D01*
X153835659Y-87165331D01*
X153822908Y-87199518D01*
X153816800Y-87256334D01*
X153816501Y-87259123D01*
X153816500Y-87259135D01*
X153816500Y-88254870D01*
X153816501Y-88254876D01*
X153822908Y-88314481D01*
X153835659Y-88348669D01*
X153840642Y-88418361D01*
X153835659Y-88435331D01*
X153822908Y-88469518D01*
X153822535Y-88472991D01*
X153816501Y-88529123D01*
X153816500Y-88529135D01*
X153816500Y-89524870D01*
X153816501Y-89524876D01*
X153822908Y-89584481D01*
X153835659Y-89618669D01*
X153840642Y-89688361D01*
X153835659Y-89705331D01*
X153822908Y-89739518D01*
X153817217Y-89792459D01*
X153816501Y-89799123D01*
X153816500Y-89799135D01*
X153816500Y-90794870D01*
X153816501Y-90794876D01*
X153822908Y-90854481D01*
X153835659Y-90888669D01*
X153840642Y-90958361D01*
X153835659Y-90975331D01*
X153822908Y-91009518D01*
X153817130Y-91063263D01*
X153816501Y-91069123D01*
X153816500Y-91069135D01*
X153816500Y-92064870D01*
X153816501Y-92064876D01*
X153820196Y-92099247D01*
X153807789Y-92168006D01*
X153760178Y-92219143D01*
X153696906Y-92236500D01*
X153462097Y-92236500D01*
X153395058Y-92216815D01*
X153374416Y-92200181D01*
X153141590Y-91967355D01*
X153141588Y-91967352D01*
X153022717Y-91848481D01*
X153022716Y-91848480D01*
X152935904Y-91798360D01*
X152935904Y-91798359D01*
X152935900Y-91798358D01*
X152885785Y-91769423D01*
X152885784Y-91769422D01*
X152885783Y-91769422D01*
X152885782Y-91769421D01*
X152862847Y-91763276D01*
X152807261Y-91731183D01*
X152775262Y-91699184D01*
X152622523Y-91603211D01*
X152452254Y-91543631D01*
X152452249Y-91543630D01*
X152273004Y-91523435D01*
X152272996Y-91523435D01*
X152093750Y-91543630D01*
X152093745Y-91543631D01*
X151923476Y-91603211D01*
X151770737Y-91699184D01*
X151643184Y-91826737D01*
X151547211Y-91979476D01*
X151487631Y-92149745D01*
X151487630Y-92149750D01*
X151467435Y-92328996D01*
X151467435Y-92329003D01*
X151487630Y-92508249D01*
X151487631Y-92508254D01*
X151549511Y-92685095D01*
X151546570Y-92686123D01*
X151555590Y-92741610D01*
X151527736Y-92805687D01*
X151475882Y-92842399D01*
X151440333Y-92855658D01*
X151370642Y-92860642D01*
X151353669Y-92855659D01*
X151336140Y-92849121D01*
X151319483Y-92842909D01*
X151319482Y-92842908D01*
X151259883Y-92836501D01*
X151259881Y-92836500D01*
X151259873Y-92836500D01*
X151259864Y-92836500D01*
X150264129Y-92836500D01*
X150264123Y-92836501D01*
X150204518Y-92842908D01*
X150170331Y-92855659D01*
X150100639Y-92860642D01*
X150083669Y-92855659D01*
X150066140Y-92849121D01*
X150049483Y-92842909D01*
X150049482Y-92842908D01*
X149989883Y-92836501D01*
X149989881Y-92836500D01*
X149989873Y-92836500D01*
X149989864Y-92836500D01*
X148994129Y-92836500D01*
X148994123Y-92836501D01*
X148934518Y-92842908D01*
X148900331Y-92855659D01*
X148830639Y-92860642D01*
X148813669Y-92855659D01*
X148796140Y-92849121D01*
X148779483Y-92842909D01*
X148779482Y-92842908D01*
X148719883Y-92836501D01*
X148719881Y-92836500D01*
X148719873Y-92836500D01*
X148719864Y-92836500D01*
X147724129Y-92836500D01*
X147724123Y-92836501D01*
X147664518Y-92842908D01*
X147630331Y-92855659D01*
X147560639Y-92860642D01*
X147543669Y-92855659D01*
X147526140Y-92849121D01*
X147509483Y-92842909D01*
X147509482Y-92842908D01*
X147449883Y-92836501D01*
X147449881Y-92836500D01*
X147449873Y-92836500D01*
X147449864Y-92836500D01*
X146454129Y-92836500D01*
X146454123Y-92836501D01*
X146394518Y-92842908D01*
X146360331Y-92855659D01*
X146290639Y-92860642D01*
X146273669Y-92855659D01*
X146256140Y-92849121D01*
X146239483Y-92842909D01*
X146239482Y-92842908D01*
X146179883Y-92836501D01*
X146179881Y-92836500D01*
X146179873Y-92836500D01*
X146179864Y-92836500D01*
X145184129Y-92836500D01*
X145184123Y-92836501D01*
X145124518Y-92842908D01*
X145090331Y-92855659D01*
X145020639Y-92860642D01*
X145003669Y-92855659D01*
X144986140Y-92849121D01*
X144969483Y-92842909D01*
X144969482Y-92842908D01*
X144909883Y-92836501D01*
X144909881Y-92836500D01*
X144909873Y-92836500D01*
X144909864Y-92836500D01*
X143914129Y-92836500D01*
X143914123Y-92836501D01*
X143854518Y-92842908D01*
X143820331Y-92855659D01*
X143750639Y-92860642D01*
X143733669Y-92855659D01*
X143716140Y-92849121D01*
X143699483Y-92842909D01*
X143699482Y-92842908D01*
X143639883Y-92836501D01*
X143639881Y-92836500D01*
X143639873Y-92836500D01*
X143639864Y-92836500D01*
X142644129Y-92836500D01*
X142644123Y-92836501D01*
X142584518Y-92842908D01*
X142550331Y-92855659D01*
X142480639Y-92860642D01*
X142463669Y-92855659D01*
X142446140Y-92849121D01*
X142429483Y-92842909D01*
X142429482Y-92842908D01*
X142369883Y-92836501D01*
X142369881Y-92836500D01*
X142369873Y-92836500D01*
X142369864Y-92836500D01*
X141374129Y-92836500D01*
X141374123Y-92836501D01*
X141314518Y-92842908D01*
X141280331Y-92855659D01*
X141210639Y-92860642D01*
X141193669Y-92855659D01*
X141176140Y-92849121D01*
X141159483Y-92842909D01*
X141159482Y-92842908D01*
X141099883Y-92836501D01*
X141099881Y-92836500D01*
X141099873Y-92836500D01*
X141099864Y-92836500D01*
X140104129Y-92836500D01*
X140104123Y-92836501D01*
X140044518Y-92842908D01*
X140010331Y-92855659D01*
X139940639Y-92860642D01*
X139923669Y-92855659D01*
X139906140Y-92849121D01*
X139889483Y-92842909D01*
X139889482Y-92842908D01*
X139829883Y-92836501D01*
X139829881Y-92836500D01*
X139829873Y-92836500D01*
X139829865Y-92836500D01*
X138941499Y-92836500D01*
X138874460Y-92816815D01*
X138828705Y-92764011D01*
X138817499Y-92712500D01*
X138817499Y-92339129D01*
X138817498Y-92339123D01*
X138816455Y-92329422D01*
X138811091Y-92279517D01*
X138798340Y-92245332D01*
X138793357Y-92175642D01*
X138798338Y-92158672D01*
X138811091Y-92124483D01*
X138817500Y-92064873D01*
X138817499Y-91069128D01*
X138811091Y-91009517D01*
X138798340Y-90975332D01*
X138793357Y-90905642D01*
X138798340Y-90888669D01*
X138811091Y-90854483D01*
X138817500Y-90794873D01*
X138817499Y-89799128D01*
X138811091Y-89739517D01*
X138798340Y-89705332D01*
X138793357Y-89635642D01*
X138798340Y-89618669D01*
X138811091Y-89584483D01*
X138817500Y-89524873D01*
X138817499Y-88529128D01*
X138811091Y-88469517D01*
X138798340Y-88435332D01*
X138793357Y-88365642D01*
X138798340Y-88348669D01*
X138811091Y-88314483D01*
X138817500Y-88254873D01*
X138817499Y-87259128D01*
X138811091Y-87199517D01*
X138798340Y-87165332D01*
X138793357Y-87095642D01*
X138798340Y-87078669D01*
X138811091Y-87044483D01*
X138817500Y-86984873D01*
X138817499Y-85989128D01*
X138811091Y-85929517D01*
X138798340Y-85895332D01*
X138793357Y-85825642D01*
X138798340Y-85808669D01*
X138811091Y-85774483D01*
X138817500Y-85714873D01*
X138817499Y-84719128D01*
X138811091Y-84659517D01*
X138798340Y-84625332D01*
X138793357Y-84555642D01*
X138798340Y-84538669D01*
X138811091Y-84504483D01*
X138817500Y-84444873D01*
X138817499Y-83449128D01*
X138811091Y-83389517D01*
X138798340Y-83355332D01*
X138793357Y-83285642D01*
X138798340Y-83268669D01*
X138811091Y-83234483D01*
X138817500Y-83174873D01*
X138817499Y-82179128D01*
X138811091Y-82119517D01*
X138798340Y-82085332D01*
X138795752Y-82049135D01*
X142366500Y-82049135D01*
X142366500Y-86044870D01*
X142366501Y-86044876D01*
X142372908Y-86104483D01*
X142423202Y-86239328D01*
X142423206Y-86239335D01*
X142509452Y-86354544D01*
X142509455Y-86354547D01*
X142624664Y-86440793D01*
X142624671Y-86440797D01*
X142759517Y-86491091D01*
X142759516Y-86491091D01*
X142766444Y-86491835D01*
X142819127Y-86497500D01*
X146814872Y-86497499D01*
X146874483Y-86491091D01*
X147009331Y-86440796D01*
X147124546Y-86354546D01*
X147210796Y-86239331D01*
X147261091Y-86104483D01*
X147267500Y-86044873D01*
X147267499Y-82049128D01*
X147262075Y-81998669D01*
X147261091Y-81989516D01*
X147210797Y-81854671D01*
X147210793Y-81854664D01*
X147124547Y-81739455D01*
X147124544Y-81739452D01*
X147009335Y-81653206D01*
X147009328Y-81653202D01*
X146874482Y-81602908D01*
X146874483Y-81602908D01*
X146814883Y-81596501D01*
X146814881Y-81596500D01*
X146814873Y-81596500D01*
X146814864Y-81596500D01*
X142819129Y-81596500D01*
X142819123Y-81596501D01*
X142759516Y-81602908D01*
X142624671Y-81653202D01*
X142624664Y-81653206D01*
X142509455Y-81739452D01*
X142509452Y-81739455D01*
X142423206Y-81854664D01*
X142423202Y-81854671D01*
X142372908Y-81989517D01*
X142367266Y-82042000D01*
X142366501Y-82049123D01*
X142366500Y-82049135D01*
X138795752Y-82049135D01*
X138793357Y-82015642D01*
X138798340Y-81998669D01*
X138811091Y-81964483D01*
X138817500Y-81904873D01*
X138817499Y-80909128D01*
X138811091Y-80849517D01*
X138798340Y-80815332D01*
X138793357Y-80745642D01*
X138798340Y-80728669D01*
X138811091Y-80694483D01*
X138817500Y-80634873D01*
X138817499Y-79691499D01*
X138837183Y-79624461D01*
X138889987Y-79578706D01*
X138941499Y-79567500D01*
X149010481Y-79567500D01*
X149077520Y-79587185D01*
X149098162Y-79603819D01*
X151227630Y-81733287D01*
X151256990Y-81780013D01*
X151293209Y-81883519D01*
X151359812Y-81989517D01*
X151389184Y-82036262D01*
X151516738Y-82163816D01*
X151669478Y-82259789D01*
X151828268Y-82315352D01*
X151839745Y-82319368D01*
X151839750Y-82319369D01*
X152018996Y-82339565D01*
X152019000Y-82339565D01*
X152019004Y-82339565D01*
X152198249Y-82319369D01*
X152198252Y-82319368D01*
X152198255Y-82319368D01*
X152368522Y-82259789D01*
X152521262Y-82163816D01*
X152648816Y-82036262D01*
X152744789Y-81883522D01*
X152804368Y-81713255D01*
X152804983Y-81707797D01*
X152824565Y-81534003D01*
X152824565Y-81533996D01*
X152804369Y-81354750D01*
X152804368Y-81354745D01*
X152744789Y-81184478D01*
X152739146Y-81175498D01*
X152686180Y-81091202D01*
X152648816Y-81031738D01*
X152521262Y-80904184D01*
X152379858Y-80815334D01*
X152368519Y-80808209D01*
X152265013Y-80771990D01*
X152218287Y-80742630D01*
X149798546Y-78322888D01*
X149798545Y-78322887D01*
X149683807Y-78246222D01*
X149556332Y-78193421D01*
X149556322Y-78193418D01*
X149420996Y-78166500D01*
X149420994Y-78166500D01*
X149420993Y-78166500D01*
X138941000Y-78166500D01*
X138873961Y-78146815D01*
X138828206Y-78094011D01*
X138817000Y-78042500D01*
X138817000Y-77847000D01*
X136317000Y-77847000D01*
X136317000Y-78042500D01*
X136297315Y-78109539D01*
X136244511Y-78155294D01*
X136193000Y-78166500D01*
X136094000Y-78166500D01*
X136026961Y-78146815D01*
X135981206Y-78094011D01*
X135970000Y-78042500D01*
X135970000Y-77847000D01*
X135053012Y-77847000D01*
X135085925Y-77789993D01*
X135120000Y-77662826D01*
X135120000Y-77531174D01*
X135085925Y-77404007D01*
X135053012Y-77347000D01*
X135970000Y-77347000D01*
X135970000Y-76699172D01*
X135969999Y-76699155D01*
X135963598Y-76639627D01*
X135963596Y-76639620D01*
X135913354Y-76504913D01*
X135913350Y-76504906D01*
X135827190Y-76389812D01*
X135827187Y-76389809D01*
X135712093Y-76303649D01*
X135712086Y-76303645D01*
X135577379Y-76253403D01*
X135577372Y-76253401D01*
X135517844Y-76247000D01*
X134870000Y-76247000D01*
X134870000Y-77163988D01*
X134812993Y-77131075D01*
X134685826Y-77097000D01*
X134554174Y-77097000D01*
X134427007Y-77131075D01*
X134370000Y-77163988D01*
X134370000Y-76247000D01*
X133722155Y-76247000D01*
X133662627Y-76253401D01*
X133662620Y-76253403D01*
X133527913Y-76303645D01*
X133527906Y-76303649D01*
X133412812Y-76389809D01*
X133412809Y-76389812D01*
X133326649Y-76504906D01*
X133326645Y-76504913D01*
X133276403Y-76639620D01*
X133276401Y-76639627D01*
X133270000Y-76699155D01*
X133270000Y-77347000D01*
X134186988Y-77347000D01*
X134154075Y-77404007D01*
X134120000Y-77531174D01*
X134120000Y-77662826D01*
X134154075Y-77789993D01*
X134186988Y-77847000D01*
X133270000Y-77847000D01*
X133270000Y-78042500D01*
X133250315Y-78109539D01*
X133197511Y-78155294D01*
X133146000Y-78166500D01*
X132284000Y-78166500D01*
X132216961Y-78146815D01*
X132171206Y-78094011D01*
X132160000Y-78042500D01*
X132160000Y-77847000D01*
X131243012Y-77847000D01*
X131275925Y-77789993D01*
X131310000Y-77662826D01*
X131310000Y-77531174D01*
X131275925Y-77404007D01*
X131243012Y-77347000D01*
X132160000Y-77347000D01*
X132160000Y-76699172D01*
X132159999Y-76699155D01*
X132153598Y-76639627D01*
X132153596Y-76639620D01*
X132103354Y-76504913D01*
X132103350Y-76504906D01*
X132017190Y-76389812D01*
X132017187Y-76389809D01*
X131902093Y-76303649D01*
X131902086Y-76303645D01*
X131767379Y-76253403D01*
X131767372Y-76253401D01*
X131707844Y-76247000D01*
X131060000Y-76247000D01*
X131060000Y-77163988D01*
X131002993Y-77131075D01*
X130875826Y-77097000D01*
X130744174Y-77097000D01*
X130617007Y-77131075D01*
X130560000Y-77163988D01*
X130560000Y-76247000D01*
X129912155Y-76247000D01*
X129852627Y-76253401D01*
X129852620Y-76253403D01*
X129717913Y-76303645D01*
X129717906Y-76303649D01*
X129602812Y-76389809D01*
X129602809Y-76389812D01*
X129516649Y-76504906D01*
X129516645Y-76504913D01*
X129466403Y-76639620D01*
X129466401Y-76639627D01*
X129460000Y-76699155D01*
X129460000Y-77347000D01*
X130376988Y-77347000D01*
X130344075Y-77404007D01*
X130310000Y-77531174D01*
X130310000Y-77662826D01*
X130344075Y-77789993D01*
X130376988Y-77847000D01*
X129460000Y-77847000D01*
X129460000Y-78042500D01*
X129440315Y-78109539D01*
X129387511Y-78155294D01*
X129336000Y-78166500D01*
X128474000Y-78166500D01*
X128406961Y-78146815D01*
X128361206Y-78094011D01*
X128350000Y-78042500D01*
X128350000Y-77847000D01*
X127433012Y-77847000D01*
X127465925Y-77789993D01*
X127500000Y-77662826D01*
X127500000Y-77531174D01*
X127465925Y-77404007D01*
X127433012Y-77347000D01*
X128350000Y-77347000D01*
X128350000Y-76699172D01*
X128349999Y-76699155D01*
X128343598Y-76639627D01*
X128343596Y-76639620D01*
X128293354Y-76504913D01*
X128293350Y-76504906D01*
X128207190Y-76389812D01*
X128207187Y-76389809D01*
X128092093Y-76303649D01*
X128092086Y-76303645D01*
X127957379Y-76253403D01*
X127957372Y-76253401D01*
X127897844Y-76247000D01*
X127250000Y-76247000D01*
X127250000Y-77163988D01*
X127192993Y-77131075D01*
X127065826Y-77097000D01*
X126934174Y-77097000D01*
X126807007Y-77131075D01*
X126750000Y-77163988D01*
X126750000Y-76247000D01*
X126102155Y-76247000D01*
X126042627Y-76253401D01*
X126042620Y-76253403D01*
X125907913Y-76303645D01*
X125907906Y-76303649D01*
X125792812Y-76389809D01*
X125792809Y-76389812D01*
X125706649Y-76504906D01*
X125706645Y-76504913D01*
X125656403Y-76639620D01*
X125656401Y-76639627D01*
X125650000Y-76699155D01*
X125650000Y-77347000D01*
X126566988Y-77347000D01*
X126534075Y-77404007D01*
X126500000Y-77531174D01*
X126500000Y-77662826D01*
X126534075Y-77789993D01*
X126566988Y-77847000D01*
X125650000Y-77847000D01*
X125650000Y-78042500D01*
X125630315Y-78109539D01*
X125577511Y-78155294D01*
X125526000Y-78166500D01*
X123883875Y-78166500D01*
X123816836Y-78146815D01*
X123771081Y-78094011D01*
X123770319Y-78092310D01*
X123700173Y-77932393D01*
X123564166Y-77724217D01*
X123542557Y-77700744D01*
X123395744Y-77541262D01*
X123199509Y-77388526D01*
X123199507Y-77388525D01*
X123199506Y-77388524D01*
X122980811Y-77270172D01*
X122980802Y-77270169D01*
X122933681Y-77253992D01*
X122876665Y-77213606D01*
X122850535Y-77148807D01*
X122863587Y-77080167D01*
X122908847Y-77031172D01*
X122937156Y-77013712D01*
X123061212Y-76889656D01*
X123063252Y-76886347D01*
X123065245Y-76884555D01*
X123065693Y-76883989D01*
X123065789Y-76884065D01*
X123115194Y-76839623D01*
X123184156Y-76828395D01*
X123248240Y-76856234D01*
X123274329Y-76886339D01*
X123276181Y-76889341D01*
X123276183Y-76889344D01*
X123400154Y-77013315D01*
X123549375Y-77105356D01*
X123549380Y-77105358D01*
X123715802Y-77160505D01*
X123715809Y-77160506D01*
X123818519Y-77170999D01*
X123955999Y-77170999D01*
X124456000Y-77170999D01*
X124593472Y-77170999D01*
X124593486Y-77170998D01*
X124696197Y-77160505D01*
X124862619Y-77105358D01*
X124862624Y-77105356D01*
X125011845Y-77013315D01*
X125135815Y-76889345D01*
X125227856Y-76740124D01*
X125227858Y-76740119D01*
X125283005Y-76573697D01*
X125283006Y-76573690D01*
X125293499Y-76470986D01*
X125293500Y-76470973D01*
X125293500Y-76196000D01*
X124456000Y-76196000D01*
X124456000Y-77170999D01*
X123955999Y-77170999D01*
X123956000Y-77170998D01*
X123956000Y-75829135D01*
X136316500Y-75829135D01*
X136316500Y-76824870D01*
X136316501Y-76824876D01*
X136322908Y-76884483D01*
X136335925Y-76919381D01*
X136340909Y-76989072D01*
X136335925Y-77006047D01*
X136323403Y-77039619D01*
X136323401Y-77039627D01*
X136317000Y-77099155D01*
X136317000Y-77347000D01*
X138817000Y-77347000D01*
X138817000Y-77099172D01*
X138816999Y-77099160D01*
X138813300Y-77064758D01*
X138825704Y-76995998D01*
X138873313Y-76944860D01*
X138936589Y-76927500D01*
X139050293Y-76927500D01*
X139117332Y-76947185D01*
X139163087Y-76999989D01*
X139167335Y-77010546D01*
X139168631Y-77014249D01*
X139168632Y-77014255D01*
X139197586Y-77097000D01*
X139228210Y-77184521D01*
X139282600Y-77271081D01*
X139324184Y-77337262D01*
X139451738Y-77464816D01*
X139510082Y-77501476D01*
X139593945Y-77554171D01*
X139604478Y-77560789D01*
X139774745Y-77620368D01*
X139774750Y-77620369D01*
X139953996Y-77640565D01*
X139954000Y-77640565D01*
X139954004Y-77640565D01*
X140133249Y-77620369D01*
X140133252Y-77620368D01*
X140133255Y-77620368D01*
X140303522Y-77560789D01*
X140456262Y-77464816D01*
X140583816Y-77337262D01*
X140679789Y-77184522D01*
X140739368Y-77014255D01*
X140739369Y-77014249D01*
X140759565Y-76835003D01*
X140759565Y-76834996D01*
X140739369Y-76655750D01*
X140739368Y-76655745D01*
X140730356Y-76629989D01*
X140679789Y-76485478D01*
X140663267Y-76459184D01*
X140583815Y-76332737D01*
X140456262Y-76205184D01*
X140303521Y-76109210D01*
X140133249Y-76049630D01*
X140046330Y-76039837D01*
X139981916Y-76012770D01*
X139972533Y-76004298D01*
X139933590Y-75965355D01*
X139933588Y-75965352D01*
X139814717Y-75846481D01*
X139814716Y-75846480D01*
X139727904Y-75796360D01*
X139727904Y-75796359D01*
X139727900Y-75796358D01*
X139677785Y-75767423D01*
X139525057Y-75726499D01*
X139366943Y-75726499D01*
X139359347Y-75726499D01*
X139359331Y-75726500D01*
X138881141Y-75726500D01*
X138814102Y-75706815D01*
X138768347Y-75654011D01*
X138764969Y-75645859D01*
X138760796Y-75634669D01*
X138760793Y-75634665D01*
X138760793Y-75634664D01*
X138674547Y-75519455D01*
X138674544Y-75519452D01*
X138559335Y-75433206D01*
X138559328Y-75433202D01*
X138424482Y-75382908D01*
X138424483Y-75382908D01*
X138364883Y-75376501D01*
X138364881Y-75376500D01*
X138364873Y-75376500D01*
X138364864Y-75376500D01*
X136769129Y-75376500D01*
X136769123Y-75376501D01*
X136709516Y-75382908D01*
X136574671Y-75433202D01*
X136574664Y-75433206D01*
X136459455Y-75519452D01*
X136459452Y-75519455D01*
X136373206Y-75634664D01*
X136373202Y-75634671D01*
X136322908Y-75769517D01*
X136317481Y-75820000D01*
X136316501Y-75829123D01*
X136316500Y-75829135D01*
X123956000Y-75829135D01*
X123956000Y-75820000D01*
X123975685Y-75752961D01*
X124028489Y-75707206D01*
X124080000Y-75696000D01*
X125293499Y-75696000D01*
X125293499Y-75421028D01*
X125293498Y-75421013D01*
X125283005Y-75318302D01*
X125227858Y-75151880D01*
X125227856Y-75151875D01*
X125150275Y-75026097D01*
X125131835Y-74958704D01*
X125152757Y-74892041D01*
X125206399Y-74847271D01*
X125255814Y-74837000D01*
X170317000Y-74837000D01*
X170317000Y-68600713D01*
X180894500Y-68600713D01*
X180894500Y-68813286D01*
X180927753Y-69023239D01*
X180993444Y-69225414D01*
X181089951Y-69414820D01*
X181214890Y-69586786D01*
X181365213Y-69737109D01*
X181537179Y-69862048D01*
X181537181Y-69862049D01*
X181537184Y-69862051D01*
X181726588Y-69958557D01*
X181928757Y-70024246D01*
X182138713Y-70057500D01*
X182138714Y-70057500D01*
X182351286Y-70057500D01*
X182351287Y-70057500D01*
X182561243Y-70024246D01*
X182763412Y-69958557D01*
X182952816Y-69862051D01*
X182974789Y-69846086D01*
X183124786Y-69737109D01*
X183124788Y-69737106D01*
X183124792Y-69737104D01*
X183275104Y-69586792D01*
X183275106Y-69586788D01*
X183275109Y-69586786D01*
X183400048Y-69414820D01*
X183400047Y-69414820D01*
X183400051Y-69414816D01*
X183496557Y-69225412D01*
X183562246Y-69023243D01*
X183595500Y-68813287D01*
X183595500Y-68600713D01*
X183562246Y-68390757D01*
X183496557Y-68188588D01*
X183400051Y-67999184D01*
X183400049Y-67999181D01*
X183400048Y-67999179D01*
X183275109Y-67827213D01*
X183124786Y-67676890D01*
X182952820Y-67551951D01*
X182763414Y-67455444D01*
X182763413Y-67455443D01*
X182763412Y-67455443D01*
X182561243Y-67389754D01*
X182561241Y-67389753D01*
X182561240Y-67389753D01*
X182399957Y-67364208D01*
X182351287Y-67356500D01*
X182138713Y-67356500D01*
X182090042Y-67364208D01*
X181928760Y-67389753D01*
X181726585Y-67455444D01*
X181537179Y-67551951D01*
X181365213Y-67676890D01*
X181214890Y-67827213D01*
X181089951Y-67999179D01*
X180993444Y-68188585D01*
X180927753Y-68390760D01*
X180894500Y-68600713D01*
X170317000Y-68600713D01*
X170317000Y-65037850D01*
X170336685Y-64970811D01*
X170389489Y-64925056D01*
X170441000Y-64913850D01*
X183822092Y-64913850D01*
X183823951Y-64913970D01*
G37*
%TD.AperFunction*%
%TA.AperFunction,Conductor*%
G36*
X121021954Y-76566185D02*
G01*
X121067709Y-76618989D01*
X121072618Y-76631489D01*
X121108686Y-76740334D01*
X121200788Y-76889656D01*
X121324844Y-77013712D01*
X121474166Y-77105814D01*
X121574458Y-77139047D01*
X121631901Y-77178818D01*
X121658725Y-77243334D01*
X121646410Y-77312110D01*
X121598868Y-77363310D01*
X121594472Y-77365806D01*
X121552496Y-77388522D01*
X121552494Y-77388523D01*
X121356257Y-77541261D01*
X121187833Y-77724217D01*
X121078007Y-77892321D01*
X121024861Y-77937678D01*
X120974198Y-77948500D01*
X117277802Y-77948500D01*
X117210763Y-77928815D01*
X117173993Y-77892321D01*
X117064166Y-77724217D01*
X117042557Y-77700744D01*
X116895744Y-77541262D01*
X116699509Y-77388526D01*
X116699507Y-77388525D01*
X116699506Y-77388524D01*
X116480811Y-77270172D01*
X116480802Y-77270169D01*
X116245616Y-77189429D01*
X116000335Y-77148500D01*
X115970500Y-77148500D01*
X115903461Y-77128815D01*
X115857706Y-77076011D01*
X115846500Y-77024500D01*
X115846500Y-76894087D01*
X115866185Y-76827048D01*
X115905402Y-76788548D01*
X115952156Y-76759712D01*
X116076212Y-76635656D01*
X116077961Y-76632819D01*
X116079669Y-76631283D01*
X116080693Y-76629989D01*
X116080914Y-76630163D01*
X116129906Y-76586096D01*
X116198868Y-76574872D01*
X116262951Y-76602713D01*
X116289037Y-76632817D01*
X116290788Y-76635656D01*
X116414844Y-76759712D01*
X116564166Y-76851814D01*
X116730703Y-76906999D01*
X116833491Y-76917500D01*
X117608508Y-76917499D01*
X117608516Y-76917498D01*
X117608519Y-76917498D01*
X117684415Y-76909745D01*
X117711297Y-76906999D01*
X117877834Y-76851814D01*
X118027156Y-76759712D01*
X118151212Y-76635656D01*
X118158358Y-76624070D01*
X118169873Y-76605403D01*
X118221821Y-76558678D01*
X118275411Y-76546500D01*
X120954915Y-76546500D01*
X121021954Y-76566185D01*
G37*
%TD.AperFunction*%
%TD*%
M02*
