%TF.GenerationSoftware,KiCad,Pcbnew,8.0.6*%
%TF.CreationDate,2025-04-07T16:11:50-05:00*%
%TF.ProjectId,ESP32,45535033-322e-46b6-9963-61645f706362,rev?*%
%TF.SameCoordinates,Original*%
%TF.FileFunction,Soldermask,Top*%
%TF.FilePolarity,Negative*%
%FSLAX46Y46*%
G04 Gerber Fmt 4.6, Leading zero omitted, Abs format (unit mm)*
G04 Created by KiCad (PCBNEW 8.0.6) date 2025-04-07 16:11:50*
%MOMM*%
%LPD*%
G01*
G04 APERTURE LIST*
G04 Aperture macros list*
%AMRoundRect*
0 Rectangle with rounded corners*
0 $1 Rounding radius*
0 $2 $3 $4 $5 $6 $7 $8 $9 X,Y pos of 4 corners*
0 Add a 4 corners polygon primitive as box body*
4,1,4,$2,$3,$4,$5,$6,$7,$8,$9,$2,$3,0*
0 Add four circle primitives for the rounded corners*
1,1,$1+$1,$2,$3*
1,1,$1+$1,$4,$5*
1,1,$1+$1,$6,$7*
1,1,$1+$1,$8,$9*
0 Add four rect primitives between the rounded corners*
20,1,$1+$1,$2,$3,$4,$5,0*
20,1,$1+$1,$4,$5,$6,$7,0*
20,1,$1+$1,$6,$7,$8,$9,0*
20,1,$1+$1,$8,$9,$2,$3,0*%
%AMFreePoly0*
4,1,19,0.500000,-0.750000,0.000000,-0.750000,0.000000,-0.744911,-0.071157,-0.744911,-0.207708,-0.704816,-0.327430,-0.627875,-0.420627,-0.520320,-0.479746,-0.390866,-0.500000,-0.250000,-0.500000,0.250000,-0.479746,0.390866,-0.420627,0.520320,-0.327430,0.627875,-0.207708,0.704816,-0.071157,0.744911,0.000000,0.744911,0.000000,0.750000,0.500000,0.750000,0.500000,-0.750000,0.500000,-0.750000,
$1*%
%AMFreePoly1*
4,1,19,0.000000,0.744911,0.071157,0.744911,0.207708,0.704816,0.327430,0.627875,0.420627,0.520320,0.479746,0.390866,0.500000,0.250000,0.500000,-0.250000,0.479746,-0.390866,0.420627,-0.520320,0.327430,-0.627875,0.207708,-0.704816,0.071157,-0.744911,0.000000,-0.744911,0.000000,-0.750000,-0.500000,-0.750000,-0.500000,0.750000,0.000000,0.750000,0.000000,0.744911,0.000000,0.744911,
$1*%
G04 Aperture macros list end*
%ADD10RoundRect,0.250000X-0.350000X-0.450000X0.350000X-0.450000X0.350000X0.450000X-0.350000X0.450000X0*%
%ADD11C,2.200000*%
%ADD12R,1.700000X1.700000*%
%ADD13O,1.700000X1.700000*%
%ADD14RoundRect,0.250000X-0.475000X0.337500X-0.475000X-0.337500X0.475000X-0.337500X0.475000X0.337500X0*%
%ADD15RoundRect,0.250000X-0.300000X2.050000X-0.300000X-2.050000X0.300000X-2.050000X0.300000X2.050000X0*%
%ADD16RoundRect,0.250002X-5.149998X4.449998X-5.149998X-4.449998X5.149998X-4.449998X5.149998X4.449998X0*%
%ADD17R,1.000000X1.000000*%
%ADD18O,1.000000X1.000000*%
%ADD19RoundRect,0.250000X0.350000X0.450000X-0.350000X0.450000X-0.350000X-0.450000X0.350000X-0.450000X0*%
%ADD20RoundRect,0.250000X0.450000X-0.350000X0.450000X0.350000X-0.450000X0.350000X-0.450000X-0.350000X0*%
%ADD21RoundRect,0.250000X-0.450000X0.350000X-0.450000X-0.350000X0.450000X-0.350000X0.450000X0.350000X0*%
%ADD22FreePoly0,0.000000*%
%ADD23FreePoly1,0.000000*%
%ADD24C,2.000000*%
%ADD25FreePoly0,180.000000*%
%ADD26FreePoly1,180.000000*%
%ADD27RoundRect,0.375000X-0.375000X0.625000X-0.375000X-0.625000X0.375000X-0.625000X0.375000X0.625000X0*%
%ADD28RoundRect,0.500000X-1.400000X0.500000X-1.400000X-0.500000X1.400000X-0.500000X1.400000X0.500000X0*%
%ADD29R,1.500000X0.900000*%
%ADD30R,0.900000X1.500000*%
%ADD31C,0.600000*%
%ADD32R,3.900000X3.900000*%
%ADD33RoundRect,0.250000X-0.337500X-0.475000X0.337500X-0.475000X0.337500X0.475000X-0.337500X0.475000X0*%
%ADD34RoundRect,0.250000X0.650000X-1.000000X0.650000X1.000000X-0.650000X1.000000X-0.650000X-1.000000X0*%
%ADD35RoundRect,0.150000X0.150000X-0.587500X0.150000X0.587500X-0.150000X0.587500X-0.150000X-0.587500X0*%
%ADD36RoundRect,0.250000X0.475000X-0.337500X0.475000X0.337500X-0.475000X0.337500X-0.475000X-0.337500X0*%
%ADD37RoundRect,0.250000X0.325000X0.450000X-0.325000X0.450000X-0.325000X-0.450000X0.325000X-0.450000X0*%
%ADD38RoundRect,0.250000X0.337500X0.475000X-0.337500X0.475000X-0.337500X-0.475000X0.337500X-0.475000X0*%
%ADD39RoundRect,0.150000X-0.587500X-0.150000X0.587500X-0.150000X0.587500X0.150000X-0.587500X0.150000X0*%
G04 APERTURE END LIST*
D10*
%TO.C,R4*%
X126127000Y-103124000D03*
X128127000Y-103124000D03*
%TD*%
D11*
%TO.C,H4*%
X115570000Y-112395000D03*
%TD*%
D12*
%TO.C,J3*%
X138938000Y-107823000D03*
D13*
X138938000Y-110363000D03*
X138938000Y-112903000D03*
%TD*%
D12*
%TO.C,J2*%
X134874000Y-107823000D03*
D13*
X134874000Y-110363000D03*
X134874000Y-112903000D03*
%TD*%
D14*
%TO.C,C3*%
X163566000Y-97750500D03*
X163566000Y-99825500D03*
%TD*%
D12*
%TO.C,TP1*%
X146431000Y-103505000D03*
%TD*%
D15*
%TO.C,U3*%
X183505000Y-90152000D03*
X181805000Y-90152000D03*
X180105000Y-90152000D03*
D16*
X180105000Y-99302000D03*
D15*
X178405000Y-90152000D03*
X176705000Y-90152000D03*
%TD*%
D12*
%TO.C,J5*%
X146812000Y-107823000D03*
D13*
X146812000Y-110363000D03*
X146812000Y-112903000D03*
%TD*%
D17*
%TO.C,J7*%
X161163000Y-87122000D03*
D18*
X159893000Y-87122000D03*
X161163000Y-85852000D03*
X159893000Y-85852000D03*
X161163000Y-84582000D03*
X159893000Y-84582000D03*
X161163000Y-83312000D03*
X159893000Y-83312000D03*
X161163000Y-82042000D03*
X159893000Y-82042000D03*
%TD*%
D19*
%TO.C,R1*%
X117153500Y-73503000D03*
X115153500Y-73503000D03*
%TD*%
D20*
%TO.C,R2*%
X116205000Y-93202000D03*
X116205000Y-91202000D03*
%TD*%
D12*
%TO.C,J16*%
X134620000Y-88900000D03*
D13*
X134620000Y-91440000D03*
X134620000Y-93980000D03*
X134620000Y-96520000D03*
%TD*%
D21*
%TO.C,R3*%
X116078000Y-95536000D03*
X116078000Y-97536000D03*
%TD*%
D10*
%TO.C,R9*%
X124095000Y-99822000D03*
X126095000Y-99822000D03*
%TD*%
D14*
%TO.C,C6*%
X166995000Y-88860500D03*
X166995000Y-90935500D03*
%TD*%
D11*
%TO.C,H2*%
X115570000Y-68707000D03*
%TD*%
D22*
%TO.C,JP2*%
X163830000Y-109982000D03*
D23*
X165130000Y-109982000D03*
%TD*%
D12*
%TO.C,J12*%
X134620000Y-77597000D03*
D13*
X134620000Y-80137000D03*
X134620000Y-82677000D03*
X134620000Y-85217000D03*
%TD*%
D12*
%TO.C,J1*%
X130556000Y-107838000D03*
D13*
X130556000Y-110378000D03*
X130556000Y-112918000D03*
%TD*%
D12*
%TO.C,J11*%
X158877000Y-98425000D03*
D13*
X156337000Y-98425000D03*
X153797000Y-98425000D03*
X151257000Y-98425000D03*
X148717000Y-98425000D03*
%TD*%
D24*
%TO.C,SW2*%
X115876000Y-78649000D03*
X122376000Y-78649000D03*
X115876000Y-83149000D03*
X122376000Y-83149000D03*
%TD*%
D25*
%TO.C,JP1*%
X163210000Y-92456000D03*
D26*
X161910000Y-92456000D03*
%TD*%
D11*
%TO.C,H3*%
X182245000Y-112395000D03*
%TD*%
D12*
%TO.C,J4*%
X143002000Y-107823000D03*
D13*
X143002000Y-110363000D03*
X143002000Y-112903000D03*
%TD*%
D27*
%TO.C,U2*%
X171440000Y-98026000D03*
X169140000Y-98026000D03*
D28*
X169140000Y-104326000D03*
D27*
X166840000Y-98026000D03*
%TD*%
D19*
%TO.C,R5*%
X159734000Y-107442000D03*
X157734000Y-107442000D03*
%TD*%
D29*
%TO.C,U1*%
X137567000Y-76327000D03*
X137567000Y-77597000D03*
X137567000Y-78867000D03*
X137567000Y-80137000D03*
X137567000Y-81407000D03*
X137567000Y-82677000D03*
X137567000Y-83947000D03*
X137567000Y-85217000D03*
X137567000Y-86487000D03*
X137567000Y-87757000D03*
X137567000Y-89027000D03*
X137567000Y-90297000D03*
X137567000Y-91567000D03*
X137567000Y-92837000D03*
D30*
X139332000Y-94087000D03*
X140602000Y-94087000D03*
X141872000Y-94087000D03*
X143142000Y-94087000D03*
X144412000Y-94087000D03*
X145682000Y-94087000D03*
X146952000Y-94087000D03*
X148222000Y-94087000D03*
X149492000Y-94087000D03*
X150762000Y-94087000D03*
X152032000Y-94087000D03*
X153302000Y-94087000D03*
D29*
X155067000Y-92837000D03*
X155067000Y-91567000D03*
X155067000Y-90297000D03*
X155067000Y-89027000D03*
X155067000Y-87757000D03*
X155067000Y-86487000D03*
X155067000Y-85217000D03*
X155067000Y-83947000D03*
X155067000Y-82677000D03*
X155067000Y-81407000D03*
X155067000Y-80137000D03*
X155067000Y-78867000D03*
X155067000Y-77597000D03*
X155067000Y-76327000D03*
D31*
X143417000Y-83347000D03*
X143417000Y-84747000D03*
X144117000Y-82647000D03*
X144117000Y-84047000D03*
X144117000Y-85447000D03*
X144817000Y-83347000D03*
D32*
X144817000Y-84047000D03*
D31*
X144817000Y-84747000D03*
X145517000Y-82647000D03*
X145517000Y-84047000D03*
X145517000Y-85447000D03*
X146217000Y-83347000D03*
X146217000Y-84747000D03*
%TD*%
D33*
%TO.C,C7*%
X122131000Y-75946000D03*
X124206000Y-75946000D03*
%TD*%
D12*
%TO.C,J13*%
X130810000Y-88900000D03*
D13*
X130810000Y-91440000D03*
X130810000Y-93980000D03*
X130810000Y-96520000D03*
%TD*%
D11*
%TO.C,H1*%
X182245000Y-68707000D03*
%TD*%
D34*
%TO.C,D2*%
X171059000Y-92787000D03*
X171059000Y-88787000D03*
%TD*%
D12*
%TO.C,TP2*%
X171577000Y-109982000D03*
%TD*%
D35*
%TO.C,Q2*%
X120970000Y-96871000D03*
X122870000Y-96871000D03*
X121920000Y-94996000D03*
%TD*%
D12*
%TO.C,J6*%
X159512000Y-78232000D03*
D13*
X162052000Y-78232000D03*
X164592000Y-78232000D03*
X167132000Y-78232000D03*
X169672000Y-78232000D03*
%TD*%
D12*
%TO.C,J14*%
X130810000Y-77597000D03*
D13*
X130810000Y-80137000D03*
X130810000Y-82677000D03*
X130810000Y-85217000D03*
%TD*%
D36*
%TO.C,C5*%
X173599000Y-82172500D03*
X173599000Y-80097500D03*
%TD*%
D37*
%TO.C,D1*%
X159648000Y-103632000D03*
X157598000Y-103632000D03*
%TD*%
D38*
%TO.C,C1*%
X117221000Y-75692000D03*
X115146000Y-75692000D03*
%TD*%
D12*
%TO.C,J15*%
X127000000Y-77597000D03*
D13*
X127000000Y-80137000D03*
X127000000Y-82677000D03*
X127000000Y-85217000D03*
%TD*%
D24*
%TO.C,SW1*%
X116459000Y-103124000D03*
X122959000Y-103124000D03*
X116459000Y-107624000D03*
X122959000Y-107624000D03*
%TD*%
D39*
%TO.C,Q1*%
X120396000Y-90805000D03*
X120396000Y-92705000D03*
X122271000Y-91755000D03*
%TD*%
D12*
%TO.C,+*%
X181964000Y-82385000D03*
D13*
X184504000Y-82385000D03*
%TD*%
D19*
%TO.C,R8*%
X122666000Y-86487000D03*
X120666000Y-86487000D03*
%TD*%
D36*
%TO.C,C2*%
X163566000Y-104270500D03*
X163566000Y-102195500D03*
%TD*%
M02*
